<?xml version="1.0" encoding="utf-8" standalone="no"?>
<!DOCTYPE svg PUBLIC "-//W3C//DTD SVG 1.1//EN"
  "http://www.w3.org/Graphics/SVG/1.1/DTD/svg11.dtd">
<svg xmlns:xlink="http://www.w3.org/1999/xlink" width="179.21052pt" height="57.6pt" viewBox="0 0 179.21052 57.6" xmlns="http://www.w3.org/2000/svg" version="1.1">
 <metadata>
  <rdf:RDF xmlns:dc="http://purl.org/dc/elements/1.1/" xmlns:cc="http://creativecommons.org/ns#" xmlns:rdf="http://www.w3.org/1999/02/22-rdf-syntax-ns#">
   <cc:Work>
    <dc:type rdf:resource="http://purl.org/dc/dcmitype/StillImage"/>
    <dc:date>2023-07-18T10:56:26.248888</dc:date>
    <dc:format>image/svg+xml</dc:format>
    <dc:creator>
     <cc:Agent>
      <dc:title>Matplotlib v3.7.2, https://matplotlib.org/</dc:title>
     </cc:Agent>
    </dc:creator>
   </cc:Work>
  </rdf:RDF>
 </metadata>
 <defs>
  <style type="text/css">*{stroke-linejoin: round; stroke-linecap: butt}</style>
 </defs>
 <g id="figure_1">
  <g id="patch_1">
   <path d="M 0 57.6 
L 179.21052 57.6 
L 179.21052 0 
L 0 0 
L 0 57.6 
z
" style="fill: none"/>
  </g>
  <g id="axes_1">
   <g id="patch_2">
    <path d="M 15.920967 38.136881 
L 174.237335 38.136881 
L 174.237335 3.338811 
L 15.920967 3.338811 
z
" style="fill: #ffffff"/>
   </g>
   <g id="matplotlib.axis_1">
    <g id="xtick_1">
     <g id="line2d_1">
      <path d="M 15.920967 38.136881 
L 15.920967 3.338811 
" clip-path="url(#p80acff1468)" style="fill: none; stroke: #b0b0b0; stroke-opacity: 0.6; stroke-width: 0.5; stroke-linecap: square"/>
     </g>
     <g id="line2d_2">
      <defs>
       <path id="maf87f0b33a" d="M 0 0 
L 0 3.5 
" style="stroke: #000000; stroke-width: 0.8"/>
      </defs>
      <g>
       <use xlink:href="#maf87f0b33a" x="15.920967" y="38.136881" style="stroke: #000000; stroke-width: 0.8"/>
      </g>
     </g>
     <g id="text_1">
      <!-- $\mathdefault{0}$ -->
      <g transform="translate(13.794374 47.874503) scale(0.07497 -0.07497)">
       <defs>
        <path id="CMR17-30" d="M 2688 2025 
C 2688 2416 2682 3080 2413 3591 
C 2176 4039 1798 4198 1466 4198 
C 1158 4198 768 4058 525 3597 
C 269 3118 243 2524 243 2025 
C 243 1661 250 1106 448 619 
C 723 -39 1216 -128 1466 -128 
C 1760 -128 2208 -7 2470 600 
C 2662 1042 2688 1559 2688 2025 
z
M 1466 -26 
C 1056 -26 813 325 723 812 
C 653 1188 653 1738 653 2096 
C 653 2588 653 2997 736 3387 
C 858 3929 1216 4096 1466 4096 
C 1728 4096 2067 3923 2189 3400 
C 2272 3036 2278 2607 2278 2096 
C 2278 1680 2278 1169 2202 792 
C 2067 95 1690 -26 1466 -26 
z
" transform="scale(0.015625)"/>
       </defs>
       <use xlink:href="#CMR17-30" transform="scale(0.996264)"/>
      </g>
     </g>
    </g>
    <g id="xtick_2">
     <g id="line2d_3">
      <path d="M 25.233694 38.136881 
L 25.233694 3.338811 
" clip-path="url(#p80acff1468)" style="fill: none; stroke: #b0b0b0; stroke-opacity: 0.6; stroke-width: 0.5; stroke-linecap: square"/>
     </g>
     <g id="line2d_4">
      <g>
       <use xlink:href="#maf87f0b33a" x="25.233694" y="38.136881" style="stroke: #000000; stroke-width: 0.8"/>
      </g>
     </g>
     <g id="text_2">
      <!-- $\mathdefault{5}$ -->
      <g transform="translate(23.107102 47.874503) scale(0.07497 -0.07497)">
       <defs>
        <path id="CMR17-35" d="M 730 3692 
C 794 3666 1056 3584 1325 3584 
C 1920 3584 2246 3911 2432 4100 
C 2432 4157 2432 4192 2394 4192 
C 2387 4192 2374 4192 2323 4163 
C 2099 4058 1837 3973 1517 3973 
C 1325 3973 1037 3999 723 4139 
C 653 4171 640 4171 634 4171 
C 602 4171 595 4164 595 4037 
L 595 2203 
C 595 2089 595 2057 659 2057 
C 691 2057 704 2070 736 2114 
C 941 2401 1222 2522 1542 2522 
C 1766 2522 2246 2382 2246 1289 
C 2246 1085 2246 715 2054 421 
C 1894 159 1645 25 1370 25 
C 947 25 518 320 403 814 
C 429 807 480 795 506 795 
C 589 795 749 840 749 1038 
C 749 1210 627 1280 506 1280 
C 358 1280 262 1190 262 1011 
C 262 454 704 -128 1382 -128 
C 2042 -128 2669 440 2669 1264 
C 2669 2030 2170 2624 1549 2624 
C 1222 2624 947 2503 730 2274 
L 730 3692 
z
" transform="scale(0.015625)"/>
       </defs>
       <use xlink:href="#CMR17-35" transform="scale(0.996264)"/>
      </g>
     </g>
    </g>
    <g id="xtick_3">
     <g id="line2d_5">
      <path d="M 34.546422 38.136881 
L 34.546422 3.338811 
" clip-path="url(#p80acff1468)" style="fill: none; stroke: #b0b0b0; stroke-opacity: 0.6; stroke-width: 0.5; stroke-linecap: square"/>
     </g>
     <g id="line2d_6">
      <g>
       <use xlink:href="#maf87f0b33a" x="34.546422" y="38.136881" style="stroke: #000000; stroke-width: 0.8"/>
      </g>
     </g>
     <g id="text_3">
      <!-- $\mathdefault{10}$ -->
      <g transform="translate(30.293237 47.874503) scale(0.07497 -0.07497)">
       <defs>
        <path id="CMR17-31" d="M 1702 4058 
C 1702 4192 1696 4192 1606 4192 
C 1357 3916 979 3827 621 3827 
C 602 3827 570 3827 563 3808 
C 557 3795 557 3782 557 3648 
C 755 3648 1088 3686 1344 3839 
L 1344 461 
C 1344 236 1331 160 781 160 
L 589 160 
L 589 0 
C 896 0 1216 0 1523 0 
C 1830 0 2150 0 2458 0 
L 2458 160 
L 2266 160 
C 1715 160 1702 230 1702 458 
L 1702 4058 
z
" transform="scale(0.015625)"/>
       </defs>
       <use xlink:href="#CMR17-31" transform="scale(0.996264)"/>
       <use xlink:href="#CMR17-30" transform="translate(45.690477 0) scale(0.996264)"/>
      </g>
     </g>
    </g>
    <g id="xtick_4">
     <g id="line2d_7">
      <path d="M 43.85915 38.136881 
L 43.85915 3.338811 
" clip-path="url(#p80acff1468)" style="fill: none; stroke: #b0b0b0; stroke-opacity: 0.6; stroke-width: 0.5; stroke-linecap: square"/>
     </g>
     <g id="line2d_8">
      <g>
       <use xlink:href="#maf87f0b33a" x="43.85915" y="38.136881" style="stroke: #000000; stroke-width: 0.8"/>
      </g>
     </g>
     <g id="text_4">
      <!-- $\mathdefault{15}$ -->
      <g transform="translate(39.605964 47.874503) scale(0.07497 -0.07497)">
       <use xlink:href="#CMR17-31" transform="scale(0.996264)"/>
       <use xlink:href="#CMR17-35" transform="translate(45.690477 0) scale(0.996264)"/>
      </g>
     </g>
    </g>
    <g id="xtick_5">
     <g id="line2d_9">
      <path d="M 53.171877 38.136881 
L 53.171877 3.338811 
" clip-path="url(#p80acff1468)" style="fill: none; stroke: #b0b0b0; stroke-opacity: 0.6; stroke-width: 0.5; stroke-linecap: square"/>
     </g>
     <g id="line2d_10">
      <g>
       <use xlink:href="#maf87f0b33a" x="53.171877" y="38.136881" style="stroke: #000000; stroke-width: 0.8"/>
      </g>
     </g>
     <g id="text_5">
      <!-- $\mathdefault{20}$ -->
      <g transform="translate(48.918692 47.874503) scale(0.07497 -0.07497)">
       <defs>
        <path id="CMR17-32" d="M 2669 989 
L 2554 989 
C 2490 536 2438 459 2413 420 
C 2381 369 1920 369 1830 369 
L 602 369 
C 832 619 1280 1072 1824 1597 
C 2214 1967 2669 2402 2669 3035 
C 2669 3790 2067 4224 1395 4224 
C 691 4224 262 3604 262 3030 
C 262 2780 448 2748 525 2748 
C 589 2748 781 2787 781 3010 
C 781 3207 614 3264 525 3264 
C 486 3264 448 3258 422 3245 
C 544 3790 915 4058 1306 4058 
C 1862 4058 2227 3617 2227 3035 
C 2227 2479 1901 2000 1536 1584 
L 262 146 
L 262 0 
L 2515 0 
L 2669 989 
z
" transform="scale(0.015625)"/>
       </defs>
       <use xlink:href="#CMR17-32" transform="scale(0.996264)"/>
       <use xlink:href="#CMR17-30" transform="translate(45.690477 0) scale(0.996264)"/>
      </g>
     </g>
    </g>
    <g id="xtick_6">
     <g id="line2d_11">
      <path d="M 62.484605 38.136881 
L 62.484605 3.338811 
" clip-path="url(#p80acff1468)" style="fill: none; stroke: #b0b0b0; stroke-opacity: 0.6; stroke-width: 0.5; stroke-linecap: square"/>
     </g>
     <g id="line2d_12">
      <g>
       <use xlink:href="#maf87f0b33a" x="62.484605" y="38.136881" style="stroke: #000000; stroke-width: 0.8"/>
      </g>
     </g>
     <g id="text_6">
      <!-- $\mathdefault{25}$ -->
      <g transform="translate(58.23142 47.874503) scale(0.07497 -0.07497)">
       <use xlink:href="#CMR17-32" transform="scale(0.996264)"/>
       <use xlink:href="#CMR17-35" transform="translate(45.690477 0) scale(0.996264)"/>
      </g>
     </g>
    </g>
    <g id="xtick_7">
     <g id="line2d_13">
      <path d="M 71.797332 38.136881 
L 71.797332 3.338811 
" clip-path="url(#p80acff1468)" style="fill: none; stroke: #b0b0b0; stroke-opacity: 0.6; stroke-width: 0.5; stroke-linecap: square"/>
     </g>
     <g id="line2d_14">
      <g>
       <use xlink:href="#maf87f0b33a" x="71.797332" y="38.136881" style="stroke: #000000; stroke-width: 0.8"/>
      </g>
     </g>
     <g id="text_7">
      <!-- $\mathdefault{30}$ -->
      <g transform="translate(67.544147 47.874503) scale(0.07497 -0.07497)">
       <defs>
        <path id="CMR17-33" d="M 1414 2157 
C 1984 2157 2234 1662 2234 1090 
C 2234 320 1824 25 1453 25 
C 1114 25 563 194 390 693 
C 422 680 454 680 486 680 
C 640 680 755 782 755 948 
C 755 1133 614 1216 486 1216 
C 378 1216 211 1165 211 926 
C 211 335 787 -128 1466 -128 
C 2176 -128 2720 430 2720 1085 
C 2720 1707 2208 2157 1600 2227 
C 2086 2328 2554 2756 2554 3329 
C 2554 3820 2048 4179 1472 4179 
C 890 4179 378 3829 378 3329 
C 378 3110 544 3072 627 3072 
C 762 3072 877 3155 877 3321 
C 877 3486 762 3569 627 3569 
C 602 3569 570 3569 544 3557 
C 730 3959 1235 4032 1459 4032 
C 1683 4032 2106 3925 2106 3320 
C 2106 3143 2080 2828 1862 2550 
C 1670 2304 1453 2304 1242 2284 
C 1210 2284 1062 2269 1037 2269 
C 992 2263 966 2257 966 2208 
C 966 2163 973 2157 1101 2157 
L 1414 2157 
z
" transform="scale(0.015625)"/>
       </defs>
       <use xlink:href="#CMR17-33" transform="scale(0.996264)"/>
       <use xlink:href="#CMR17-30" transform="translate(45.690477 0) scale(0.996264)"/>
      </g>
     </g>
    </g>
    <g id="xtick_8">
     <g id="line2d_15">
      <path d="M 81.11006 38.136881 
L 81.11006 3.338811 
" clip-path="url(#p80acff1468)" style="fill: none; stroke: #b0b0b0; stroke-opacity: 0.6; stroke-width: 0.5; stroke-linecap: square"/>
     </g>
     <g id="line2d_16">
      <g>
       <use xlink:href="#maf87f0b33a" x="81.11006" y="38.136881" style="stroke: #000000; stroke-width: 0.8"/>
      </g>
     </g>
     <g id="text_8">
      <!-- $\mathdefault{35}$ -->
      <g transform="translate(76.856875 47.874503) scale(0.07497 -0.07497)">
       <use xlink:href="#CMR17-33" transform="scale(0.996264)"/>
       <use xlink:href="#CMR17-35" transform="translate(45.690477 0) scale(0.996264)"/>
      </g>
     </g>
    </g>
    <g id="xtick_9">
     <g id="line2d_17">
      <path d="M 90.422787 38.136881 
L 90.422787 3.338811 
" clip-path="url(#p80acff1468)" style="fill: none; stroke: #b0b0b0; stroke-opacity: 0.6; stroke-width: 0.5; stroke-linecap: square"/>
     </g>
     <g id="line2d_18">
      <g>
       <use xlink:href="#maf87f0b33a" x="90.422787" y="38.136881" style="stroke: #000000; stroke-width: 0.8"/>
      </g>
     </g>
     <g id="text_9">
      <!-- $\mathdefault{40}$ -->
      <g transform="translate(86.169602 47.874503) scale(0.07497 -0.07497)">
       <defs>
        <path id="CMR17-34" d="M 2150 4122 
C 2150 4256 2144 4256 2029 4256 
L 128 1254 
L 128 1088 
L 1779 1088 
L 1779 457 
C 1779 224 1766 160 1318 160 
L 1197 160 
L 1197 0 
C 1402 0 1747 0 1965 0 
C 2182 0 2528 0 2733 0 
L 2733 160 
L 2611 160 
C 2163 160 2150 224 2150 457 
L 2150 1088 
L 2803 1088 
L 2803 1254 
L 2150 1254 
L 2150 4122 
z
M 1798 3703 
L 1798 1254 
L 256 1254 
L 1798 3703 
z
" transform="scale(0.015625)"/>
       </defs>
       <use xlink:href="#CMR17-34" transform="scale(0.996264)"/>
       <use xlink:href="#CMR17-30" transform="translate(45.690477 0) scale(0.996264)"/>
      </g>
     </g>
    </g>
    <g id="xtick_10">
     <g id="line2d_19">
      <path d="M 99.735515 38.136881 
L 99.735515 3.338811 
" clip-path="url(#p80acff1468)" style="fill: none; stroke: #b0b0b0; stroke-opacity: 0.6; stroke-width: 0.5; stroke-linecap: square"/>
     </g>
     <g id="line2d_20">
      <g>
       <use xlink:href="#maf87f0b33a" x="99.735515" y="38.136881" style="stroke: #000000; stroke-width: 0.8"/>
      </g>
     </g>
     <g id="text_10">
      <!-- $\mathdefault{45}$ -->
      <g transform="translate(95.48233 47.874503) scale(0.07497 -0.07497)">
       <use xlink:href="#CMR17-34" transform="scale(0.996264)"/>
       <use xlink:href="#CMR17-35" transform="translate(45.690477 0) scale(0.996264)"/>
      </g>
     </g>
    </g>
    <g id="xtick_11">
     <g id="line2d_21">
      <path d="M 109.048242 38.136881 
L 109.048242 3.338811 
" clip-path="url(#p80acff1468)" style="fill: none; stroke: #b0b0b0; stroke-opacity: 0.6; stroke-width: 0.5; stroke-linecap: square"/>
     </g>
     <g id="line2d_22">
      <g>
       <use xlink:href="#maf87f0b33a" x="109.048242" y="38.136881" style="stroke: #000000; stroke-width: 0.8"/>
      </g>
     </g>
     <g id="text_11">
      <!-- $\mathdefault{50}$ -->
      <g transform="translate(104.795057 47.874503) scale(0.07497 -0.07497)">
       <use xlink:href="#CMR17-35" transform="scale(0.996264)"/>
       <use xlink:href="#CMR17-30" transform="translate(45.690477 0) scale(0.996264)"/>
      </g>
     </g>
    </g>
    <g id="xtick_12">
     <g id="line2d_23">
      <path d="M 118.36097 38.136881 
L 118.36097 3.338811 
" clip-path="url(#p80acff1468)" style="fill: none; stroke: #b0b0b0; stroke-opacity: 0.6; stroke-width: 0.5; stroke-linecap: square"/>
     </g>
     <g id="line2d_24">
      <g>
       <use xlink:href="#maf87f0b33a" x="118.36097" y="38.136881" style="stroke: #000000; stroke-width: 0.8"/>
      </g>
     </g>
     <g id="text_12">
      <!-- $\mathdefault{55}$ -->
      <g transform="translate(114.107785 47.874503) scale(0.07497 -0.07497)">
       <use xlink:href="#CMR17-35" transform="scale(0.996264)"/>
       <use xlink:href="#CMR17-35" transform="translate(45.690477 0) scale(0.996264)"/>
      </g>
     </g>
    </g>
    <g id="xtick_13">
     <g id="line2d_25">
      <path d="M 127.673697 38.136881 
L 127.673697 3.338811 
" clip-path="url(#p80acff1468)" style="fill: none; stroke: #b0b0b0; stroke-opacity: 0.6; stroke-width: 0.5; stroke-linecap: square"/>
     </g>
     <g id="line2d_26">
      <g>
       <use xlink:href="#maf87f0b33a" x="127.673697" y="38.136881" style="stroke: #000000; stroke-width: 0.8"/>
      </g>
     </g>
     <g id="text_13">
      <!-- $\mathdefault{60}$ -->
      <g transform="translate(123.420512 47.874503) scale(0.07497 -0.07497)">
       <defs>
        <path id="CMR17-36" d="M 678 2176 
C 678 3690 1395 4032 1811 4032 
C 1946 4032 2272 4009 2400 3776 
C 2298 3776 2106 3776 2106 3553 
C 2106 3381 2246 3323 2336 3323 
C 2394 3323 2566 3348 2566 3560 
C 2566 3954 2246 4179 1805 4179 
C 1043 4179 243 3390 243 1984 
C 243 253 966 -128 1478 -128 
C 2099 -128 2688 427 2688 1283 
C 2688 2081 2170 2662 1517 2662 
C 1126 2662 838 2407 678 1960 
L 678 2176 
z
M 1478 25 
C 691 25 691 1200 691 1436 
C 691 1896 909 2560 1504 2560 
C 1613 2560 1926 2560 2138 2120 
C 2253 1870 2253 1609 2253 1289 
C 2253 944 2253 690 2118 434 
C 1978 171 1773 25 1478 25 
z
" transform="scale(0.015625)"/>
       </defs>
       <use xlink:href="#CMR17-36" transform="scale(0.996264)"/>
       <use xlink:href="#CMR17-30" transform="translate(45.690477 0) scale(0.996264)"/>
      </g>
     </g>
    </g>
    <g id="xtick_14">
     <g id="line2d_27">
      <path d="M 136.986425 38.136881 
L 136.986425 3.338811 
" clip-path="url(#p80acff1468)" style="fill: none; stroke: #b0b0b0; stroke-opacity: 0.6; stroke-width: 0.5; stroke-linecap: square"/>
     </g>
     <g id="line2d_28">
      <g>
       <use xlink:href="#maf87f0b33a" x="136.986425" y="38.136881" style="stroke: #000000; stroke-width: 0.8"/>
      </g>
     </g>
     <g id="text_14">
      <!-- $\mathdefault{65}$ -->
      <g transform="translate(132.73324 47.874503) scale(0.07497 -0.07497)">
       <use xlink:href="#CMR17-36" transform="scale(0.996264)"/>
       <use xlink:href="#CMR17-35" transform="translate(45.690477 0) scale(0.996264)"/>
      </g>
     </g>
    </g>
    <g id="xtick_15">
     <g id="line2d_29">
      <path d="M 146.299152 38.136881 
L 146.299152 3.338811 
" clip-path="url(#p80acff1468)" style="fill: none; stroke: #b0b0b0; stroke-opacity: 0.6; stroke-width: 0.5; stroke-linecap: square"/>
     </g>
     <g id="line2d_30">
      <g>
       <use xlink:href="#maf87f0b33a" x="146.299152" y="38.136881" style="stroke: #000000; stroke-width: 0.8"/>
      </g>
     </g>
     <g id="text_15">
      <!-- $\mathdefault{70}$ -->
      <g transform="translate(142.045967 47.874503) scale(0.07497 -0.07497)">
       <defs>
        <path id="CMR17-37" d="M 2886 3941 
L 2886 4081 
L 1382 4081 
C 634 4081 621 4165 595 4288 
L 480 4288 
L 294 3094 
L 410 3094 
C 429 3215 474 3540 550 3661 
C 589 3712 1062 3712 1171 3712 
L 2579 3712 
L 1869 2661 
C 1395 1954 1069 999 1069 165 
C 1069 89 1069 -128 1299 -128 
C 1530 -128 1530 89 1530 171 
L 1530 465 
C 1530 1508 1709 2196 2003 2636 
L 2886 3941 
z
" transform="scale(0.015625)"/>
       </defs>
       <use xlink:href="#CMR17-37" transform="scale(0.996264)"/>
       <use xlink:href="#CMR17-30" transform="translate(45.690477 0) scale(0.996264)"/>
      </g>
     </g>
    </g>
    <g id="xtick_16">
     <g id="line2d_31">
      <path d="M 155.61188 38.136881 
L 155.61188 3.338811 
" clip-path="url(#p80acff1468)" style="fill: none; stroke: #b0b0b0; stroke-opacity: 0.6; stroke-width: 0.5; stroke-linecap: square"/>
     </g>
     <g id="line2d_32">
      <g>
       <use xlink:href="#maf87f0b33a" x="155.61188" y="38.136881" style="stroke: #000000; stroke-width: 0.8"/>
      </g>
     </g>
     <g id="text_16">
      <!-- $\mathdefault{75}$ -->
      <g transform="translate(151.358695 47.874503) scale(0.07497 -0.07497)">
       <use xlink:href="#CMR17-37" transform="scale(0.996264)"/>
       <use xlink:href="#CMR17-35" transform="translate(45.690477 0) scale(0.996264)"/>
      </g>
     </g>
    </g>
    <g id="xtick_17">
     <g id="line2d_33">
      <path d="M 164.924607 38.136881 
L 164.924607 3.338811 
" clip-path="url(#p80acff1468)" style="fill: none; stroke: #b0b0b0; stroke-opacity: 0.6; stroke-width: 0.5; stroke-linecap: square"/>
     </g>
     <g id="line2d_34">
      <g>
       <use xlink:href="#maf87f0b33a" x="164.924607" y="38.136881" style="stroke: #000000; stroke-width: 0.8"/>
      </g>
     </g>
     <g id="text_17">
      <!-- $\mathdefault{80}$ -->
      <g transform="translate(160.671422 47.874503) scale(0.07497 -0.07497)">
       <defs>
        <path id="CMR17-38" d="M 1741 2264 
C 2144 2467 2554 2773 2554 3263 
C 2554 3841 1990 4179 1472 4179 
C 890 4179 378 3759 378 3180 
C 378 3021 416 2747 666 2505 
C 730 2442 998 2251 1171 2130 
C 883 1983 211 1634 211 934 
C 211 279 838 -128 1459 -128 
C 2144 -128 2720 362 2720 1010 
C 2720 1590 2330 1857 2074 2029 
L 1741 2264 
z
M 902 2822 
C 851 2854 595 3051 595 3351 
C 595 3739 998 4032 1459 4032 
C 1965 4032 2336 3676 2336 3262 
C 2336 2669 1670 2331 1638 2331 
C 1632 2331 1626 2331 1574 2370 
L 902 2822 
z
M 2080 1519 
C 2176 1449 2483 1240 2483 851 
C 2483 381 2010 25 1472 25 
C 890 25 448 438 448 940 
C 448 1443 838 1862 1280 2060 
L 2080 1519 
z
" transform="scale(0.015625)"/>
       </defs>
       <use xlink:href="#CMR17-38" transform="scale(0.996264)"/>
       <use xlink:href="#CMR17-30" transform="translate(45.690477 0) scale(0.996264)"/>
      </g>
     </g>
    </g>
    <g id="xtick_18">
     <g id="line2d_35">
      <path d="M 174.237335 38.136881 
L 174.237335 3.338811 
" clip-path="url(#p80acff1468)" style="fill: none; stroke: #b0b0b0; stroke-opacity: 0.6; stroke-width: 0.5; stroke-linecap: square"/>
     </g>
     <g id="line2d_36">
      <g>
       <use xlink:href="#maf87f0b33a" x="174.237335" y="38.136881" style="stroke: #000000; stroke-width: 0.8"/>
      </g>
     </g>
     <g id="text_18">
      <!-- $\mathdefault{85}$ -->
      <g transform="translate(169.98415 47.874503) scale(0.07497 -0.07497)">
       <use xlink:href="#CMR17-38" transform="scale(0.996264)"/>
       <use xlink:href="#CMR17-35" transform="translate(45.690477 0) scale(0.996264)"/>
      </g>
     </g>
    </g>
    <g id="text_19">
     <!-- Name length [characters] -->
     <g transform="translate(56.24052 55.102395) scale(0.07497 -0.07497)">
      <defs>
       <path id="LinLibertineT-4e" d="M 3558 3256 
L 3558 1158 
C 3558 1036 3558 965 3514 965 
C 3488 965 3392 1082 3206 1320 
L 1011 4122 
L 147 4122 
C 109 4082 109 3943 147 3904 
C 422 3904 614 3674 653 3505 
L 653 828 
C 653 257 544 219 96 174 
C 58 135 58 1 96 -38 
C 371 -38 659 -38 813 -38 
C 960 -38 1254 -38 1523 -38 
C 1562 1 1562 135 1523 174 
C 1075 219 966 244 966 829 
L 966 2793 
C 966 3011 966 3107 1018 3107 
C 1056 3107 1126 3036 1235 2894 
L 3469 58 
C 3539 -38 3622 -96 3725 -96 
C 3814 -96 3872 -19 3872 103 
L 3872 3255 
C 3872 3827 3981 3865 4429 3910 
C 4467 3948 4467 4083 4429 4122 
C 4166 4122 3866 4122 3712 4122 
C 3578 4122 3283 4122 3002 4122 
C 2963 4083 2963 3948 3002 3910 
C 3450 3865 3558 3839 3558 3256 
z
" transform="scale(0.015625)"/>
       <path id="LinLibertineT-61" d="M 1875 1495 
L 1875 648 
C 1875 564 1837 520 1786 481 
C 1619 346 1402 199 1222 199 
C 902 199 762 455 762 654 
C 762 944 896 1239 1370 1361 
L 1875 1495 
z
M 1875 308 
C 1914 109 1984 -64 2304 -64 
C 2547 -64 2778 45 2912 173 
C 2899 250 2874 309 2803 347 
C 2758 309 2650 244 2566 244 
C 2381 244 2374 494 2374 789 
L 2374 1732 
C 2374 2642 1875 2816 1408 2816 
C 883 2816 352 2469 352 2104 
C 352 1950 429 1873 576 1873 
C 762 1873 877 2007 877 2091 
C 877 2136 870 2181 858 2206 
C 851 2226 845 2264 845 2335 
C 845 2533 1114 2604 1357 2604 
C 1574 2604 1875 2495 1875 1770 
C 1875 1725 1856 1700 1837 1693 
L 1286 1559 
C 672 1405 230 1065 230 629 
C 230 103 589 -64 1037 -64 
C 1261 -64 1453 -13 1734 205 
L 1862 308 
L 1875 308 
z
" transform="scale(0.015625)"/>
       <path id="LinLibertineT-6d" d="M 1088 2309 
C 1082 2503 1069 2733 1037 2798 
C 1024 2830 1011 2849 960 2849 
C 781 2778 614 2721 173 2663 
C 160 2624 173 2522 186 2483 
C 531 2451 602 2419 602 2047 
L 602 795 
C 602 270 518 237 166 212 
C 128 173 128 39 166 0 
C 358 0 602 0 858 0 
C 1114 0 1312 0 1504 0 
C 1542 39 1542 173 1504 212 
C 1178 244 1107 270 1107 795 
L 1107 1848 
C 1107 1983 1165 2060 1216 2118 
C 1472 2368 1709 2496 1907 2496 
C 2150 2496 2330 2342 2330 1912 
L 2330 795 
C 2330 270 2278 237 1933 212 
C 1901 173 1901 39 1933 0 
C 2093 0 2330 0 2586 0 
C 2842 0 3053 0 3213 0 
C 3245 39 3245 173 3213 212 
C 2893 237 2835 270 2835 795 
L 2835 1814 
C 2835 1904 2835 1994 2829 2071 
C 3136 2413 3424 2496 3674 2496 
C 3917 2496 4058 2355 4058 1925 
L 4058 795 
C 4058 270 3994 237 3661 212 
C 3629 173 3629 39 3661 0 
C 3821 0 4058 0 4314 0 
C 4570 0 4794 0 4973 0 
C 5005 39 5005 173 4973 212 
C 4621 237 4563 270 4563 795 
L 4563 1810 
C 4563 2381 4467 2830 3904 2830 
C 3578 2830 3181 2708 2848 2355 
C 2829 2336 2790 2304 2778 2361 
C 2720 2624 2470 2830 2138 2830 
C 1766 2830 1434 2612 1165 2309 
C 1133 2277 1094 2232 1088 2309 
z
" transform="scale(0.015625)"/>
       <path id="LinLibertineT-65" d="M 794 1831 
C 915 2547 1363 2604 1517 2604 
C 1760 2604 2048 2467 2048 1922 
C 2048 1863 2022 1831 1952 1831 
L 794 1831 
z
M 2470 600 
C 2234 354 2048 250 1677 250 
C 1446 250 1178 386 979 715 
C 851 929 774 1226 774 1600 
L 2477 1600 
C 2554 1600 2598 1638 2598 1708 
C 2598 2243 2406 2816 1517 2816 
C 960 2816 237 2281 237 1302 
C 237 941 326 593 538 348 
C 755 91 1056 -64 1517 -64 
C 2003 -64 2349 161 2605 497 
C 2586 562 2547 594 2470 600 
z
" transform="scale(0.015625)"/>
       <path id="LinLibertineT-6c" d="M 608 778 
C 608 243 538 211 147 211 
C 109 172 109 39 147 0 
C 371 0 608 0 864 0 
C 1120 0 1363 0 1574 0 
C 1613 39 1613 172 1574 211 
C 1184 211 1114 243 1114 776 
L 1114 3740 
C 1114 4158 1139 4416 1139 4416 
C 1139 4460 1114 4480 1056 4480 
C 896 4414 416 4321 160 4301 
C 147 4247 160 4141 198 4101 
C 570 4101 608 4081 608 3597 
L 608 778 
z
" transform="scale(0.015625)"/>
       <path id="LinLibertineT-6e" d="M 1178 2309 
C 1139 2264 1101 2251 1101 2309 
C 1094 2482 1082 2733 1050 2798 
C 1037 2830 1024 2849 973 2849 
C 794 2778 627 2721 186 2663 
C 173 2624 186 2522 198 2483 
C 544 2451 614 2419 614 2047 
L 614 795 
C 614 270 550 244 166 212 
C 128 173 128 39 166 0 
C 358 0 614 0 870 0 
C 1126 0 1318 0 1510 0 
C 1549 39 1549 173 1510 212 
C 1184 244 1120 270 1120 795 
L 1120 1848 
C 1120 1983 1178 2060 1229 2118 
C 1472 2355 1760 2496 2010 2496 
C 2138 2496 2272 2413 2349 2265 
C 2413 2137 2426 1964 2426 1771 
L 2426 795 
C 2426 270 2362 244 2029 212 
C 1997 173 1997 39 2029 0 
C 2221 0 2426 0 2682 0 
C 2938 0 3168 0 3360 0 
C 3392 39 3392 173 3360 212 
C 3002 244 2931 270 2931 795 
L 2931 1752 
C 2931 2105 2906 2413 2758 2612 
C 2650 2753 2451 2830 2227 2830 
C 1914 2830 1555 2746 1178 2309 
z
" transform="scale(0.015625)"/>
       <path id="LinLibertineT-67" d="M 2042 1798 
C 2042 1209 1741 1088 1504 1088 
C 966 1088 909 1538 909 1944 
C 909 2389 1069 2617 1421 2617 
C 1824 2617 2042 2325 2042 1798 
z
M 845 -84 
C 915 -103 1018 -116 1101 -116 
C 1299 -116 1478 -71 1568 -71 
C 1888 -71 2157 -71 2342 -176 
C 2592 -319 2669 -411 2669 -581 
C 2669 -1051 1990 -1299 1414 -1299 
C 1184 -1299 646 -1115 646 -682 
C 646 -466 659 -307 845 -84 
z
M 2842 2463 
C 2963 2463 3078 2579 3078 2707 
C 3078 2841 2957 2944 2784 2944 
C 2618 2944 2310 2841 2144 2636 
C 2067 2687 1856 2816 1478 2816 
C 909 2816 384 2435 384 1850 
C 384 1506 538 1310 717 1138 
C 538 983 435 705 435 485 
C 435 252 563 71 730 -13 
C 384 -220 205 -519 205 -797 
C 205 -1361 730 -1536 1222 -1536 
C 2086 -1536 3021 -1115 3021 -414 
C 3021 -206 2925 -43 2739 113 
C 2490 320 2042 320 1805 320 
C 1690 320 1530 294 1376 256 
C 1280 256 1216 256 1184 256 
C 998 256 774 350 774 637 
C 774 770 813 911 890 1024 
C 1043 934 1222 889 1472 889 
C 2035 889 2554 1235 2554 1853 
C 2554 2148 2464 2318 2278 2507 
C 2323 2577 2451 2674 2534 2674 
C 2579 2674 2624 2653 2662 2590 
C 2688 2533 2771 2463 2842 2463 
z
" transform="scale(0.015625)"/>
       <path id="LinLibertineT-74" d="M 275 2752 
C 186 2752 160 2675 160 2623 
L 160 2540 
C 160 2509 166 2502 192 2502 
L 570 2502 
L 570 571 
C 570 115 768 -64 1062 -64 
C 1357 -64 1677 77 1926 360 
C 1914 424 1875 463 1811 469 
C 1645 340 1453 289 1286 289 
C 1114 289 1075 481 1075 879 
L 1075 2502 
L 1741 2502 
C 1805 2502 1894 2528 1894 2586 
L 1894 2714 
C 1894 2740 1875 2752 1843 2752 
L 1075 2752 
L 1075 3006 
C 1075 3426 1101 3685 1101 3685 
C 1101 3725 1082 3744 1050 3744 
C 1024 3744 966 3718 909 3685 
C 838 3647 774 3614 691 3594 
C 614 3569 550 3549 550 3504 
C 550 3426 570 3471 570 2752 
L 275 2752 
z
" transform="scale(0.015625)"/>
       <path id="LinLibertineT-68" d="M 1069 1837 
C 1069 1972 1126 2048 1178 2106 
C 1421 2342 1747 2482 1997 2482 
C 2125 2482 2259 2399 2336 2252 
C 2400 2125 2413 1953 2413 1761 
L 2413 791 
C 2413 269 2349 243 2016 211 
C 1984 172 1984 39 2016 0 
C 2195 0 2413 0 2669 0 
C 2925 0 3136 0 3347 0 
C 3379 39 3379 172 3347 211 
C 2989 243 2918 269 2918 791 
L 2918 1743 
C 2918 2094 2893 2407 2746 2599 
C 2637 2739 2438 2816 2214 2816 
C 1901 2816 1517 2732 1126 2296 
C 1107 2270 1062 2206 1062 2296 
L 1069 3741 
C 1069 4158 1094 4416 1094 4416 
C 1094 4460 1069 4480 1011 4480 
C 851 4414 371 4320 115 4300 
C 102 4246 115 4140 154 4100 
C 486 4100 563 4132 563 3591 
L 563 778 
C 563 244 486 218 115 218 
C 77 178 77 40 115 0 
C 326 0 563 0 819 0 
C 1062 0 1274 0 1453 0 
C 1491 39 1491 172 1453 211 
C 1126 236 1069 262 1069 791 
L 1069 1837 
z
" transform="scale(0.015625)"/>
       <path id="LinLibertineT-5b" d="M 691 -1216 
L 2048 -1216 
C 2086 -1177 2086 -1062 2048 -1023 
C 1165 -952 1120 -856 1120 -297 
L 1120 3631 
C 1120 4190 1171 4286 2048 4351 
C 2086 4390 2086 4505 2048 4544 
L 691 4544 
L 691 -1216 
z
" transform="scale(0.015625)"/>
       <path id="LinLibertineT-63" d="M 2547 584 
C 2522 641 2470 667 2413 673 
C 2195 391 1920 250 1645 250 
C 1178 250 787 725 787 1475 
C 787 2181 1094 2604 1517 2604 
C 1894 2604 1946 2379 1971 2155 
C 1990 1982 2080 1924 2214 1924 
C 2349 1924 2528 2007 2528 2206 
C 2528 2559 2163 2816 1549 2816 
C 915 2816 237 2245 237 1334 
C 237 507 698 -64 1504 -64 
C 1888 -64 2227 58 2547 584 
z
" transform="scale(0.015625)"/>
       <path id="LinLibertineT-72" d="M 1126 2296 
C 1114 2553 1107 2719 1075 2784 
C 1062 2816 1050 2835 998 2835 
C 819 2764 653 2707 211 2649 
C 198 2610 211 2508 224 2469 
C 570 2436 640 2404 640 2031 
L 640 777 
C 640 244 563 218 166 218 
C 128 178 128 40 166 0 
C 390 0 640 0 896 0 
C 1152 0 1446 0 1670 0 
C 1709 39 1709 172 1670 211 
C 1222 243 1146 262 1146 791 
L 1146 1678 
C 1146 1844 1222 1990 1299 2106 
C 1370 2207 1517 2418 1594 2418 
C 1651 2418 1709 2405 1760 2335 
C 1805 2271 1882 2188 1990 2188 
C 2144 2188 2291 2348 2291 2508 
C 2291 2630 2176 2816 1907 2816 
C 1606 2816 1344 2533 1197 2283 
C 1158 2213 1126 2264 1126 2296 
z
" transform="scale(0.015625)"/>
       <path id="LinLibertineT-73" d="M 307 886 
C 333 572 352 269 352 0 
C 416 13 480 19 512 19 
C 557 19 595 19 640 6 
C 813 -38 986 -64 1222 -64 
C 1581 -64 2240 109 2240 744 
C 2240 1180 1926 1437 1491 1597 
C 1107 1745 851 1841 851 2193 
C 851 2456 1082 2604 1299 2604 
C 1440 2604 1811 2553 1894 2007 
C 1933 1969 2061 1969 2099 2008 
C 2118 2241 2131 2480 2138 2694 
C 1939 2726 1632 2816 1299 2816 
C 826 2816 397 2508 397 2097 
C 397 1629 608 1430 1101 1225 
C 1632 1007 1754 872 1754 596 
C 1754 282 1446 148 1210 148 
C 960 148 819 230 755 300 
C 614 447 544 727 506 885 
C 467 924 346 924 307 886 
z
" transform="scale(0.015625)"/>
       <path id="LinLibertineT-5d" d="M 1587 4544 
L 230 4544 
C 192 4506 192 4390 230 4352 
C 1114 4280 1158 4184 1158 3625 
L 1158 -304 
C 1158 -863 1107 -959 230 -1024 
C 192 -1062 192 -1178 230 -1216 
L 1587 -1216 
L 1587 4544 
z
" transform="scale(0.015625)"/>
      </defs>
      <use xlink:href="#LinLibertineT-4e" transform="scale(0.996264)"/>
      <use xlink:href="#LinLibertineT-61" transform="translate(69.638879 0) scale(0.996264)"/>
      <use xlink:href="#LinLibertineT-6d" transform="translate(115.16811 0) scale(0.996264)"/>
      <use xlink:href="#LinLibertineT-65" transform="translate(193.872952 0) scale(0.996264)"/>
      <use xlink:href="#LinLibertineT-6c" transform="translate(263.312505 0) scale(0.996264)"/>
      <use xlink:href="#LinLibertineT-65" transform="translate(289.613869 0) scale(0.996264)"/>
      <use xlink:href="#LinLibertineT-6e" transform="translate(334.146821 0) scale(0.996264)"/>
      <use xlink:href="#LinLibertineT-67" transform="translate(388.144312 0) scale(0.996264)"/>
      <use xlink:href="#LinLibertineT-74" transform="translate(437.957513 0) scale(0.996264)"/>
      <use xlink:href="#LinLibertineT-68" transform="translate(469.439446 0) scale(0.996264)"/>
      <use xlink:href="#LinLibertineT-5b" transform="translate(547.945053 0) scale(0.996264)"/>
      <use xlink:href="#LinLibertineT-63" transform="translate(581.718367 0) scale(0.996264)"/>
      <use xlink:href="#LinLibertineT-68" transform="translate(624.3585 0) scale(0.996264)"/>
      <use xlink:href="#LinLibertineT-61" transform="translate(677.957507 0) scale(0.996264)"/>
      <use xlink:href="#LinLibertineT-72" transform="translate(723.486739 0) scale(0.996264)"/>
      <use xlink:href="#LinLibertineT-61" transform="translate(760.547726 0) scale(0.996264)"/>
      <use xlink:href="#LinLibertineT-63" transform="translate(806.076958 0) scale(0.996264)"/>
      <use xlink:href="#LinLibertineT-74" transform="translate(848.717091 0) scale(0.996264)"/>
      <use xlink:href="#LinLibertineT-65" transform="translate(880.199025 0) scale(0.996264)"/>
      <use xlink:href="#LinLibertineT-72" transform="translate(924.731977 0) scale(0.996264)"/>
      <use xlink:href="#LinLibertineT-73" transform="translate(961.792965 0) scale(0.996264)"/>
      <use xlink:href="#LinLibertineT-5d" transform="translate(1000.647292 0) scale(0.996264)"/>
     </g>
    </g>
   </g>
   <g id="matplotlib.axis_2">
    <g id="ytick_1">
     <g id="line2d_37">
      <path d="M 15.920967 38.136881 
L 174.237335 38.136881 
" clip-path="url(#p80acff1468)" style="fill: none; stroke: #b0b0b0; stroke-opacity: 0.6; stroke-width: 0.5; stroke-linecap: square"/>
     </g>
     <g id="line2d_38">
      <defs>
       <path id="m6401975666" d="M 0 0 
L -3.5 0 
" style="stroke: #000000; stroke-width: 0.8"/>
      </defs>
      <g>
       <use xlink:href="#m6401975666" x="15.920967" y="38.136881" style="stroke: #000000; stroke-width: 0.8"/>
      </g>
     </g>
     <g id="text_20">
      <!-- 0 -->
      <g transform="translate(7.947892 40.755692) scale(0.07497 -0.07497)">
       <defs>
        <path id="LinLibertineT-30" d="M 1485 3680 
C 1594 3680 1696 3641 1773 3571 
C 1971 3405 2144 2919 2144 2061 
C 2144 1472 2125 1069 2035 743 
C 1894 218 1581 160 1466 160 
C 870 160 806 1255 806 1811 
C 806 3386 1197 3680 1485 3680 
z
M 1459 -64 
C 1952 -64 2701 435 2701 1939 
C 2701 2573 2547 3117 2266 3488 
C 2099 3712 1830 3904 1485 3904 
C 851 3904 250 3150 250 1882 
C 250 1196 461 557 813 204 
C 992 26 1210 -64 1459 -64 
z
" transform="scale(0.015625)"/>
       </defs>
       <use xlink:href="#LinLibertineT-30" transform="scale(0.996264)"/>
      </g>
     </g>
    </g>
    <g id="ytick_2">
     <g id="line2d_39">
      <path d="M 15.920967 29.437363 
L 174.237335 29.437363 
" clip-path="url(#p80acff1468)" style="fill: none; stroke: #b0b0b0; stroke-opacity: 0.6; stroke-width: 0.5; stroke-linecap: square"/>
     </g>
     <g id="line2d_40">
      <g>
       <use xlink:href="#m6401975666" x="15.920967" y="29.437363" style="stroke: #000000; stroke-width: 0.8"/>
      </g>
     </g>
     <g id="text_21">
      <!-- 2 -->
      <g transform="translate(7.947892 32.056175) scale(0.07497 -0.07497)">
       <defs>
        <path id="LinLibertineT-32" d="M 390 2997 
C 390 2863 512 2747 646 2747 
C 755 2747 947 2863 947 3003 
C 947 3054 934 3093 922 3137 
C 909 3182 870 3239 870 3291 
C 870 3450 1037 3680 1504 3680 
C 1734 3680 2061 3521 2061 2908 
C 2061 2500 1914 2169 1536 1786 
L 1062 1320 
C 435 682 333 377 333 0 
C 333 0 659 0 864 0 
L 1984 0 
C 2189 0 2483 0 2483 0 
C 2566 337 2630 813 2637 1004 
C 2598 1036 2515 1048 2451 1036 
C 2342 582 2234 423 2003 423 
L 864 423 
C 864 730 1306 1164 1338 1196 
L 1984 1815 
C 2349 2167 2624 2448 2624 2933 
C 2624 3623 2061 3904 1542 3904 
C 832 3904 390 3380 390 2997 
z
" transform="scale(0.015625)"/>
       </defs>
       <use xlink:href="#LinLibertineT-32" transform="scale(0.996264)"/>
      </g>
     </g>
    </g>
    <g id="ytick_3">
     <g id="line2d_41">
      <path d="M 15.920967 20.737846 
L 174.237335 20.737846 
" clip-path="url(#p80acff1468)" style="fill: none; stroke: #b0b0b0; stroke-opacity: 0.6; stroke-width: 0.5; stroke-linecap: square"/>
     </g>
     <g id="line2d_42">
      <g>
       <use xlink:href="#m6401975666" x="15.920967" y="20.737846" style="stroke: #000000; stroke-width: 0.8"/>
      </g>
     </g>
     <g id="text_22">
      <!-- 4 -->
      <g transform="translate(7.947892 23.356657) scale(0.07497 -0.07497)">
       <defs>
        <path id="LinLibertineT-34" d="M 1734 3251 
L 1734 1408 
L 512 1408 
C 838 1933 1293 2649 1734 3251 
z
M 2752 1408 
L 2221 1408 
L 2221 3281 
C 2221 3602 2221 3852 2234 3904 
L 2221 3904 
L 2016 3904 
C 1971 3904 1939 3866 1914 3834 
C 1510 3342 768 2288 179 1375 
C 198 1278 237 1106 429 1106 
L 1734 1106 
L 1734 509 
C 1734 211 1491 211 1216 211 
C 1178 172 1178 39 1216 0 
C 1421 0 1677 0 1971 0 
C 2221 0 2464 0 2669 0 
C 2707 39 2707 171 2669 210 
C 2355 235 2221 223 2221 521 
L 2221 1106 
L 2662 1106 
C 2752 1106 2848 1228 2848 1305 
C 2848 1369 2822 1408 2752 1408 
z
" transform="scale(0.015625)"/>
       </defs>
       <use xlink:href="#LinLibertineT-34" transform="scale(0.996264)"/>
      </g>
     </g>
    </g>
    <g id="ytick_4">
     <g id="line2d_43">
      <path d="M 15.920967 12.038329 
L 174.237335 12.038329 
" clip-path="url(#p80acff1468)" style="fill: none; stroke: #b0b0b0; stroke-opacity: 0.6; stroke-width: 0.5; stroke-linecap: square"/>
     </g>
     <g id="line2d_44">
      <g>
       <use xlink:href="#m6401975666" x="15.920967" y="12.038329" style="stroke: #000000; stroke-width: 0.8"/>
      </g>
     </g>
     <g id="text_23">
      <!-- 6 -->
      <g transform="translate(7.947892 14.65714) scale(0.07497 -0.07497)">
       <defs>
        <path id="LinLibertineT-36" d="M 864 1971 
C 1075 2112 1286 2112 1395 2112 
C 2022 2112 2163 1500 2163 1181 
C 2163 480 1894 161 1581 161 
C 1178 161 813 378 813 1473 
C 813 1619 826 1786 864 1971 
z
M 922 2202 
C 1094 2786 1504 3433 2355 3754 
C 2355 3831 2330 3889 2278 3921 
C 1632 3728 1235 3459 877 3043 
C 480 2582 282 1999 282 1493 
C 282 193 1018 -64 1510 -64 
C 2349 -64 2694 749 2694 1300 
C 2694 1850 2400 2343 1530 2343 
C 1363 2343 1114 2292 922 2202 
z
" transform="scale(0.015625)"/>
       </defs>
       <use xlink:href="#LinLibertineT-36" transform="scale(0.996264)"/>
      </g>
     </g>
    </g>
    <g id="ytick_5">
     <g id="line2d_45">
      <path d="M 15.920967 3.338811 
L 174.237335 3.338811 
" clip-path="url(#p80acff1468)" style="fill: none; stroke: #b0b0b0; stroke-opacity: 0.6; stroke-width: 0.5; stroke-linecap: square"/>
     </g>
     <g id="line2d_46">
      <g>
       <use xlink:href="#m6401975666" x="15.920967" y="3.338811" style="stroke: #000000; stroke-width: 0.8"/>
      </g>
     </g>
     <g id="text_24">
      <!-- 8 -->
      <g transform="translate(7.947892 5.957622) scale(0.07497 -0.07497)">
       <defs>
        <path id="LinLibertineT-38" d="M 1498 3680 
C 1914 3680 2067 3405 2067 3110 
C 2067 2765 1728 2477 1555 2349 
L 1357 2471 
C 954 2733 909 2944 909 3142 
C 909 3437 1114 3680 1498 3680 
z
M 2515 3104 
C 2515 3565 2157 3904 1530 3904 
C 877 3904 454 3514 454 3020 
C 454 2662 627 2399 1018 2156 
L 1184 2054 
C 998 1958 826 1843 666 1702 
C 403 1471 294 1184 294 934 
C 294 281 755 -64 1434 -64 
C 2272 -64 2682 551 2682 1037 
C 2682 1408 2522 1734 2182 1939 
L 1728 2214 
C 2029 2362 2515 2694 2515 3104 
z
M 1446 160 
C 1158 160 723 359 723 934 
C 723 1127 806 1575 1357 1939 
L 1658 1760 
C 2054 1517 2214 1217 2214 909 
C 2214 269 1734 160 1446 160 
z
" transform="scale(0.015625)"/>
       </defs>
       <use xlink:href="#LinLibertineT-38" transform="scale(0.996264)"/>
      </g>
     </g>
    </g>
    <g id="text_25">
     <!-- Density [\%] -->
     <g transform="translate(5.957622 38.592408) rotate(-90) scale(0.07497 -0.07497)">
      <defs>
       <path id="LinLibertineT-44" d="M 1222 546 
L 1222 3633 
C 1222 3859 1446 3949 1760 3949 
C 3142 3949 3597 2823 3597 1832 
C 3597 533 2822 211 1920 211 
C 1293 211 1222 340 1222 546 
z
M 122 4160 
C 83 4121 83 3987 122 3949 
C 570 3949 678 3917 678 3378 
L 678 781 
C 678 243 570 211 122 211 
C 83 172 83 39 122 0 
C 371 0 710 0 954 0 
C 1190 0 1459 0 2118 0 
C 3021 0 4211 411 4211 1987 
C 4211 3179 3232 4160 2003 4160 
C 1549 4160 1197 4160 947 4160 
C 717 4160 378 4160 122 4160 
z
" transform="scale(0.015625)"/>
       <path id="LinLibertineT-69" d="M 576 3852 
C 576 3685 730 3518 883 3518 
C 1062 3518 1216 3691 1216 3826 
C 1216 3980 1082 4160 909 4160 
C 755 4160 576 4006 576 3852 
z
M 1158 779 
L 1158 2064 
C 1158 2386 1184 2799 1184 2799 
C 1184 2825 1152 2844 1101 2844 
C 922 2773 666 2716 224 2658 
C 211 2619 224 2517 237 2478 
C 589 2446 653 2408 653 2043 
L 653 794 
C 653 263 582 244 192 212 
C 154 173 154 39 192 0 
C 403 0 653 0 909 0 
C 1165 0 1408 0 1619 0 
C 1658 40 1658 178 1619 218 
C 1229 218 1158 244 1158 779 
z
" transform="scale(0.015625)"/>
       <path id="LinLibertineT-79" d="M 1306 -1010 
C 1408 -830 1491 -650 1568 -458 
C 2080 781 2368 1443 2701 2161 
C 2829 2432 2918 2534 3219 2573 
C 3258 2611 3258 2746 3219 2784 
C 3091 2784 2944 2784 2765 2784 
C 2573 2784 2374 2784 2182 2784 
C 2144 2746 2144 2611 2182 2573 
C 2387 2553 2592 2515 2490 2284 
L 1856 815 
C 1811 713 1754 693 1702 822 
L 1133 2156 
C 1018 2425 986 2547 1344 2573 
C 1382 2611 1382 2746 1344 2784 
C 1107 2784 851 2784 621 2784 
C 403 2784 230 2784 102 2784 
C 64 2746 64 2611 102 2573 
C 358 2541 442 2483 608 2091 
L 1331 402 
C 1389 274 1485 -21 1421 -201 
C 1344 -413 1267 -593 1171 -792 
C 1101 -920 1011 -978 851 -978 
C 762 -978 736 -959 666 -959 
C 480 -959 384 -1151 384 -1235 
C 384 -1369 512 -1472 685 -1472 
C 819 -1472 1075 -1421 1306 -1010 
z
" transform="scale(0.015625)"/>
       <path id="LinLibertineT-25" d="M 2771 548 
C 2771 922 3034 1465 3347 1465 
C 3437 1465 3616 1407 3616 1071 
C 3616 710 3405 135 3053 135 
C 2931 135 2771 213 2771 548 
z
M 2419 646 
C 2419 304 2624 -64 3014 -64 
C 3546 -64 3827 646 3827 1077 
C 3827 1547 3533 1664 3277 1664 
C 2803 1664 2419 1173 2419 646 
z
M 2330 3374 
C 2214 3374 1990 3374 1645 3515 
C 1581 3582 1395 3655 1216 3655 
C 755 3655 365 3211 365 2659 
C 365 2340 557 1977 954 1977 
C 1491 1977 1773 2701 1773 3111 
C 1773 3168 1766 3226 1754 3271 
C 1875 3200 2118 3136 2266 3136 
C 2458 3136 2707 3162 2950 3258 
L 653 33 
L 870 -64 
L 3494 3579 
L 3290 3681 
C 3091 3441 2598 3374 2330 3374 
z
M 710 2574 
C 710 2935 973 3456 1286 3456 
C 1402 3456 1562 3388 1562 3077 
C 1562 2717 1344 2176 992 2176 
C 877 2176 710 2251 710 2574 
z
" transform="scale(0.015625)"/>
      </defs>
      <use xlink:href="#LinLibertineT-44" transform="scale(0.996264)"/>
      <use xlink:href="#LinLibertineT-65" transform="translate(69.838128 0) scale(0.996264)"/>
      <use xlink:href="#LinLibertineT-6e" transform="translate(114.371081 0) scale(0.996264)"/>
      <use xlink:href="#LinLibertineT-73" transform="translate(168.368572 0) scale(0.996264)"/>
      <use xlink:href="#LinLibertineT-69" transform="translate(207.222899 0) scale(0.996264)"/>
      <use xlink:href="#LinLibertineT-74" transform="translate(234.221644 0) scale(0.996264)"/>
      <use xlink:href="#LinLibertineT-79" transform="translate(265.703578 0) scale(0.996264)"/>
      <use xlink:href="#LinLibertineT-5b" transform="translate(341.917805 0) scale(0.996264)"/>
      <use xlink:href="#LinLibertineT-25" transform="translate(377.384795 0) scale(0.996264)"/>
      <use xlink:href="#LinLibertineT-5d" transform="translate(440.846809 0) scale(0.996264)"/>
     </g>
    </g>
   </g>
   <g id="patch_3">
    <path d="M 15.920967 38.136881 
L 17.783512 38.136881 
L 17.783512 37.897883 
L 15.920967 37.897883 
z
" clip-path="url(#p80acff1468)" style="fill: #80b1d3; stroke: #000000; stroke-width: 0.25; stroke-linejoin: miter"/>
   </g>
   <g id="patch_4">
    <path d="M 17.783512 38.136881 
L 19.646058 38.136881 
L 19.646058 38.136881 
L 17.783512 38.136881 
z
" clip-path="url(#p80acff1468)" style="fill: #80b1d3; stroke: #000000; stroke-width: 0.25; stroke-linejoin: miter"/>
   </g>
   <g id="patch_5">
    <path d="M 19.646058 38.136881 
L 21.508603 38.136881 
L 21.508603 38.017382 
L 19.646058 38.017382 
z
" clip-path="url(#p80acff1468)" style="fill: #80b1d3; stroke: #000000; stroke-width: 0.25; stroke-linejoin: miter"/>
   </g>
   <g id="patch_6">
    <path d="M 21.508603 38.136881 
L 23.371149 38.136881 
L 23.371149 38.017382 
L 21.508603 38.017382 
z
" clip-path="url(#p80acff1468)" style="fill: #80b1d3; stroke: #000000; stroke-width: 0.25; stroke-linejoin: miter"/>
   </g>
   <g id="patch_7">
    <path d="M 23.371149 38.136881 
L 25.233694 38.136881 
L 25.233694 38.017382 
L 23.371149 38.017382 
z
" clip-path="url(#p80acff1468)" style="fill: #80b1d3; stroke: #000000; stroke-width: 0.25; stroke-linejoin: miter"/>
   </g>
   <g id="patch_8">
    <path d="M 25.233694 38.136881 
L 27.09624 38.136881 
L 27.09624 37.778384 
L 25.233694 37.778384 
z
" clip-path="url(#p80acff1468)" style="fill: #80b1d3; stroke: #000000; stroke-width: 0.25; stroke-linejoin: miter"/>
   </g>
   <g id="patch_9">
    <path d="M 27.09624 38.136881 
L 28.958785 38.136881 
L 28.958785 37.897883 
L 27.09624 37.897883 
z
" clip-path="url(#p80acff1468)" style="fill: #80b1d3; stroke: #000000; stroke-width: 0.25; stroke-linejoin: miter"/>
   </g>
   <g id="patch_10">
    <path d="M 28.958785 38.136881 
L 30.821331 38.136881 
L 30.821331 37.061391 
L 28.958785 37.061391 
z
" clip-path="url(#p80acff1468)" style="fill: #80b1d3; stroke: #000000; stroke-width: 0.25; stroke-linejoin: miter"/>
   </g>
   <g id="patch_11">
    <path d="M 30.821331 38.136881 
L 32.683877 38.136881 
L 32.683877 36.583396 
L 30.821331 36.583396 
z
" clip-path="url(#p80acff1468)" style="fill: #80b1d3; stroke: #000000; stroke-width: 0.25; stroke-linejoin: miter"/>
   </g>
   <g id="patch_12">
    <path d="M 32.683877 38.136881 
L 34.546422 38.136881 
L 34.546422 36.344398 
L 32.683877 36.344398 
z
" clip-path="url(#p80acff1468)" style="fill: #80b1d3; stroke: #000000; stroke-width: 0.25; stroke-linejoin: miter"/>
   </g>
   <g id="patch_13">
    <path d="M 34.546422 38.136881 
L 36.408968 38.136881 
L 36.408968 35.507906 
L 34.546422 35.507906 
z
" clip-path="url(#p80acff1468)" style="fill: #80b1d3; stroke: #000000; stroke-width: 0.25; stroke-linejoin: miter"/>
   </g>
   <g id="patch_14">
    <path d="M 36.408968 38.136881 
L 38.271513 38.136881 
L 38.271513 31.803441 
L 36.408968 31.803441 
z
" clip-path="url(#p80acff1468)" style="fill: #80b1d3; stroke: #000000; stroke-width: 0.25; stroke-linejoin: miter"/>
   </g>
   <g id="patch_15">
    <path d="M 38.271513 38.136881 
L 40.134059 38.136881 
L 40.134059 31.683942 
L 38.271513 31.683942 
z
" clip-path="url(#p80acff1468)" style="fill: #80b1d3; stroke: #000000; stroke-width: 0.25; stroke-linejoin: miter"/>
   </g>
   <g id="patch_16">
    <path d="M 40.134059 38.136881 
L 41.996604 38.136881 
L 41.996604 31.205947 
L 40.134059 31.205947 
z
" clip-path="url(#p80acff1468)" style="fill: #80b1d3; stroke: #000000; stroke-width: 0.25; stroke-linejoin: miter"/>
   </g>
   <g id="patch_17">
    <path d="M 41.996604 38.136881 
L 43.85915 38.136881 
L 43.85915 26.66499 
L 41.996604 26.66499 
z
" clip-path="url(#p80acff1468)" style="fill: #80b1d3; stroke: #000000; stroke-width: 0.25; stroke-linejoin: miter"/>
   </g>
   <g id="patch_18">
    <path d="M 43.85915 38.136881 
L 45.721695 38.136881 
L 45.721695 27.74048 
L 43.85915 27.74048 
z
" clip-path="url(#p80acff1468)" style="fill: #80b1d3; stroke: #000000; stroke-width: 0.25; stroke-linejoin: miter"/>
   </g>
   <g id="patch_19">
    <path d="M 45.721695 38.136881 
L 47.584241 38.136881 
L 47.584241 25.470001 
L 45.721695 25.470001 
z
" clip-path="url(#p80acff1468)" style="fill: #80b1d3; stroke: #000000; stroke-width: 0.25; stroke-linejoin: miter"/>
   </g>
   <g id="patch_20">
    <path d="M 47.584241 38.136881 
L 49.446786 38.136881 
L 49.446786 24.992006 
L 47.584241 24.992006 
z
" clip-path="url(#p80acff1468)" style="fill: #80b1d3; stroke: #000000; stroke-width: 0.25; stroke-linejoin: miter"/>
   </g>
   <g id="patch_21">
    <path d="M 49.446786 38.136881 
L 51.309332 38.136881 
L 51.309332 19.973053 
L 49.446786 19.973053 
z
" clip-path="url(#p80acff1468)" style="fill: #80b1d3; stroke: #000000; stroke-width: 0.25; stroke-linejoin: miter"/>
   </g>
   <g id="patch_22">
    <path d="M 51.309332 38.136881 
L 53.171877 38.136881 
L 53.171877 22.482529 
L 51.309332 22.482529 
z
" clip-path="url(#p80acff1468)" style="fill: #80b1d3; stroke: #000000; stroke-width: 0.25; stroke-linejoin: miter"/>
   </g>
   <g id="patch_23">
    <path d="M 53.171877 38.136881 
L 55.034423 38.136881 
L 55.034423 26.66499 
L 53.171877 26.66499 
z
" clip-path="url(#p80acff1468)" style="fill: #80b1d3; stroke: #000000; stroke-width: 0.25; stroke-linejoin: miter"/>
   </g>
   <g id="patch_24">
    <path d="M 55.034423 38.136881 
L 56.896968 38.136881 
L 56.896968 24.394511 
L 55.034423 24.394511 
z
" clip-path="url(#p80acff1468)" style="fill: #80b1d3; stroke: #000000; stroke-width: 0.25; stroke-linejoin: miter"/>
   </g>
   <g id="patch_25">
    <path d="M 56.896968 38.136881 
L 58.759514 38.136881 
L 58.759514 22.841026 
L 56.896968 22.841026 
z
" clip-path="url(#p80acff1468)" style="fill: #80b1d3; stroke: #000000; stroke-width: 0.25; stroke-linejoin: miter"/>
   </g>
   <g id="patch_26">
    <path d="M 58.759514 38.136881 
L 60.622059 38.136881 
L 60.622059 10.174146 
L 58.759514 10.174146 
z
" clip-path="url(#p80acff1468)" style="fill: #80b1d3; stroke: #000000; stroke-width: 0.25; stroke-linejoin: miter"/>
   </g>
   <g id="patch_27">
    <path d="M 60.622059 38.136881 
L 62.484605 38.136881 
L 62.484605 10.413144 
L 60.622059 10.413144 
z
" clip-path="url(#p80acff1468)" style="fill: #80b1d3; stroke: #000000; stroke-width: 0.25; stroke-linejoin: miter"/>
   </g>
   <g id="patch_28">
    <path d="M 62.484605 38.136881 
L 64.34715 38.136881 
L 64.34715 16.14909 
L 62.484605 16.14909 
z
" clip-path="url(#p80acff1468)" style="fill: #80b1d3; stroke: #000000; stroke-width: 0.25; stroke-linejoin: miter"/>
   </g>
   <g id="patch_29">
    <path d="M 64.34715 38.136881 
L 66.209696 38.136881 
L 66.209696 22.363031 
L 64.34715 22.363031 
z
" clip-path="url(#p80acff1468)" style="fill: #80b1d3; stroke: #000000; stroke-width: 0.25; stroke-linejoin: miter"/>
   </g>
   <g id="patch_30">
    <path d="M 66.209696 38.136881 
L 68.072241 38.136881 
L 68.072241 21.885035 
L 66.209696 21.885035 
z
" clip-path="url(#p80acff1468)" style="fill: #80b1d3; stroke: #000000; stroke-width: 0.25; stroke-linejoin: miter"/>
   </g>
   <g id="patch_31">
    <path d="M 68.072241 38.136881 
L 69.934787 38.136881 
L 69.934787 24.872507 
L 68.072241 24.872507 
z
" clip-path="url(#p80acff1468)" style="fill: #80b1d3; stroke: #000000; stroke-width: 0.25; stroke-linejoin: miter"/>
   </g>
   <g id="patch_32">
    <path d="M 69.934787 38.136881 
L 71.797332 38.136881 
L 71.797332 24.753008 
L 69.934787 24.753008 
z
" clip-path="url(#p80acff1468)" style="fill: #80b1d3; stroke: #000000; stroke-width: 0.25; stroke-linejoin: miter"/>
   </g>
   <g id="patch_33">
    <path d="M 71.797332 38.136881 
L 73.659878 38.136881 
L 73.659878 27.142985 
L 71.797332 27.142985 
z
" clip-path="url(#p80acff1468)" style="fill: #80b1d3; stroke: #000000; stroke-width: 0.25; stroke-linejoin: miter"/>
   </g>
   <g id="patch_34">
    <path d="M 73.659878 38.136881 
L 75.522423 38.136881 
L 75.522423 17.344078 
L 73.659878 17.344078 
z
" clip-path="url(#p80acff1468)" style="fill: #80b1d3; stroke: #000000; stroke-width: 0.25; stroke-linejoin: miter"/>
   </g>
   <g id="patch_35">
    <path d="M 75.522423 38.136881 
L 77.384969 38.136881 
L 77.384969 32.99843 
L 75.522423 32.99843 
z
" clip-path="url(#p80acff1468)" style="fill: #80b1d3; stroke: #000000; stroke-width: 0.25; stroke-linejoin: miter"/>
   </g>
   <g id="patch_36">
    <path d="M 77.384969 38.136881 
L 79.247514 38.136881 
L 79.247514 33.237427 
L 77.384969 33.237427 
z
" clip-path="url(#p80acff1468)" style="fill: #80b1d3; stroke: #000000; stroke-width: 0.25; stroke-linejoin: miter"/>
   </g>
   <g id="patch_37">
    <path d="M 79.247514 38.136881 
L 81.11006 38.136881 
L 81.11006 32.99843 
L 79.247514 32.99843 
z
" clip-path="url(#p80acff1468)" style="fill: #80b1d3; stroke: #000000; stroke-width: 0.25; stroke-linejoin: miter"/>
   </g>
   <g id="patch_38">
    <path d="M 81.11006 38.136881 
L 82.972605 38.136881 
L 82.972605 32.520434 
L 81.11006 32.520434 
z
" clip-path="url(#p80acff1468)" style="fill: #80b1d3; stroke: #000000; stroke-width: 0.25; stroke-linejoin: miter"/>
   </g>
   <g id="patch_39">
    <path d="M 82.972605 38.136881 
L 84.835151 38.136881 
L 84.835151 27.501482 
L 82.972605 27.501482 
z
" clip-path="url(#p80acff1468)" style="fill: #80b1d3; stroke: #000000; stroke-width: 0.25; stroke-linejoin: miter"/>
   </g>
   <g id="patch_40">
    <path d="M 84.835151 38.136881 
L 86.697696 38.136881 
L 86.697696 36.224899 
L 84.835151 36.224899 
z
" clip-path="url(#p80acff1468)" style="fill: #80b1d3; stroke: #000000; stroke-width: 0.25; stroke-linejoin: miter"/>
   </g>
   <g id="patch_41">
    <path d="M 86.697696 38.136881 
L 88.560242 38.136881 
L 88.560242 28.098976 
L 86.697696 28.098976 
z
" clip-path="url(#p80acff1468)" style="fill: #80b1d3; stroke: #000000; stroke-width: 0.25; stroke-linejoin: miter"/>
   </g>
   <g id="patch_42">
    <path d="M 88.560242 38.136881 
L 90.422787 38.136881 
L 90.422787 32.042439 
L 88.560242 32.042439 
z
" clip-path="url(#p80acff1468)" style="fill: #80b1d3; stroke: #000000; stroke-width: 0.25; stroke-linejoin: miter"/>
   </g>
   <g id="patch_43">
    <path d="M 90.422787 38.136881 
L 92.285333 38.136881 
L 92.285333 25.947997 
L 90.422787 25.947997 
z
" clip-path="url(#p80acff1468)" style="fill: #80b1d3; stroke: #000000; stroke-width: 0.25; stroke-linejoin: miter"/>
   </g>
   <g id="patch_44">
    <path d="M 92.285333 38.136881 
L 94.147878 38.136881 
L 94.147878 27.023486 
L 92.285333 27.023486 
z
" clip-path="url(#p80acff1468)" style="fill: #80b1d3; stroke: #000000; stroke-width: 0.25; stroke-linejoin: miter"/>
   </g>
   <g id="patch_45">
    <path d="M 94.147878 38.136881 
L 96.010424 38.136881 
L 96.010424 26.067495 
L 94.147878 26.067495 
z
" clip-path="url(#p80acff1468)" style="fill: #80b1d3; stroke: #000000; stroke-width: 0.25; stroke-linejoin: miter"/>
   </g>
   <g id="patch_46">
    <path d="M 96.010424 38.136881 
L 97.872969 38.136881 
L 97.872969 36.224899 
L 96.010424 36.224899 
z
" clip-path="url(#p80acff1468)" style="fill: #80b1d3; stroke: #000000; stroke-width: 0.25; stroke-linejoin: miter"/>
   </g>
   <g id="patch_47">
    <path d="M 97.872969 38.136881 
L 99.735515 38.136881 
L 99.735515 31.564443 
L 97.872969 31.564443 
z
" clip-path="url(#p80acff1468)" style="fill: #80b1d3; stroke: #000000; stroke-width: 0.25; stroke-linejoin: miter"/>
   </g>
   <g id="patch_48">
    <path d="M 99.735515 38.136881 
L 101.59806 38.136881 
L 101.59806 34.910412 
L 99.735515 34.910412 
z
" clip-path="url(#p80acff1468)" style="fill: #80b1d3; stroke: #000000; stroke-width: 0.25; stroke-linejoin: miter"/>
   </g>
   <g id="patch_49">
    <path d="M 101.59806 38.136881 
L 103.460606 38.136881 
L 103.460606 37.061391 
L 101.59806 37.061391 
z
" clip-path="url(#p80acff1468)" style="fill: #80b1d3; stroke: #000000; stroke-width: 0.25; stroke-linejoin: miter"/>
   </g>
   <g id="patch_50">
    <path d="M 103.460606 38.136881 
L 105.323151 38.136881 
L 105.323151 37.18089 
L 103.460606 37.18089 
z
" clip-path="url(#p80acff1468)" style="fill: #80b1d3; stroke: #000000; stroke-width: 0.25; stroke-linejoin: miter"/>
   </g>
   <g id="patch_51">
    <path d="M 105.323151 38.136881 
L 107.185697 38.136881 
L 107.185697 36.344398 
L 105.323151 36.344398 
z
" clip-path="url(#p80acff1468)" style="fill: #80b1d3; stroke: #000000; stroke-width: 0.25; stroke-linejoin: miter"/>
   </g>
   <g id="patch_52">
    <path d="M 107.185697 38.136881 
L 109.048242 38.136881 
L 109.048242 36.822393 
L 107.185697 36.822393 
z
" clip-path="url(#p80acff1468)" style="fill: #80b1d3; stroke: #000000; stroke-width: 0.25; stroke-linejoin: miter"/>
   </g>
   <g id="patch_53">
    <path d="M 109.048242 38.136881 
L 110.910788 38.136881 
L 110.910788 36.344398 
L 109.048242 36.344398 
z
" clip-path="url(#p80acff1468)" style="fill: #80b1d3; stroke: #000000; stroke-width: 0.25; stroke-linejoin: miter"/>
   </g>
   <g id="patch_54">
    <path d="M 110.910788 38.136881 
L 112.773333 38.136881 
L 112.773333 38.017382 
L 110.910788 38.017382 
z
" clip-path="url(#p80acff1468)" style="fill: #80b1d3; stroke: #000000; stroke-width: 0.25; stroke-linejoin: miter"/>
   </g>
   <g id="patch_55">
    <path d="M 112.773333 38.136881 
L 114.635879 38.136881 
L 114.635879 37.897883 
L 112.773333 37.897883 
z
" clip-path="url(#p80acff1468)" style="fill: #80b1d3; stroke: #000000; stroke-width: 0.25; stroke-linejoin: miter"/>
   </g>
   <g id="patch_56">
    <path d="M 114.635879 38.136881 
L 116.498424 38.136881 
L 116.498424 36.583396 
L 114.635879 36.583396 
z
" clip-path="url(#p80acff1468)" style="fill: #80b1d3; stroke: #000000; stroke-width: 0.25; stroke-linejoin: miter"/>
   </g>
   <g id="patch_57">
    <path d="M 116.498424 38.136881 
L 118.36097 38.136881 
L 118.36097 37.539387 
L 116.498424 37.539387 
z
" clip-path="url(#p80acff1468)" style="fill: #80b1d3; stroke: #000000; stroke-width: 0.25; stroke-linejoin: miter"/>
   </g>
   <g id="patch_58">
    <path d="M 118.36097 38.136881 
L 120.223515 38.136881 
L 120.223515 38.017382 
L 118.36097 38.017382 
z
" clip-path="url(#p80acff1468)" style="fill: #80b1d3; stroke: #000000; stroke-width: 0.25; stroke-linejoin: miter"/>
   </g>
   <g id="patch_59">
    <path d="M 120.223515 38.136881 
L 122.086061 38.136881 
L 122.086061 37.061391 
L 120.223515 37.061391 
z
" clip-path="url(#p80acff1468)" style="fill: #80b1d3; stroke: #000000; stroke-width: 0.25; stroke-linejoin: miter"/>
   </g>
   <g id="patch_60">
    <path d="M 122.086061 38.136881 
L 123.948606 38.136881 
L 123.948606 37.539387 
L 122.086061 37.539387 
z
" clip-path="url(#p80acff1468)" style="fill: #80b1d3; stroke: #000000; stroke-width: 0.25; stroke-linejoin: miter"/>
   </g>
   <g id="patch_61">
    <path d="M 123.948606 38.136881 
L 125.811152 38.136881 
L 125.811152 37.658885 
L 123.948606 37.658885 
z
" clip-path="url(#p80acff1468)" style="fill: #80b1d3; stroke: #000000; stroke-width: 0.25; stroke-linejoin: miter"/>
   </g>
   <g id="patch_62">
    <path d="M 125.811152 38.136881 
L 127.673697 38.136881 
L 127.673697 37.897883 
L 125.811152 37.897883 
z
" clip-path="url(#p80acff1468)" style="fill: #80b1d3; stroke: #000000; stroke-width: 0.25; stroke-linejoin: miter"/>
   </g>
   <g id="patch_63">
    <path d="M 127.673697 38.136881 
L 129.536243 38.136881 
L 129.536243 37.658885 
L 127.673697 37.658885 
z
" clip-path="url(#p80acff1468)" style="fill: #80b1d3; stroke: #000000; stroke-width: 0.25; stroke-linejoin: miter"/>
   </g>
   <g id="patch_64">
    <path d="M 129.536243 38.136881 
L 131.398788 38.136881 
L 131.398788 35.985901 
L 129.536243 35.985901 
z
" clip-path="url(#p80acff1468)" style="fill: #80b1d3; stroke: #000000; stroke-width: 0.25; stroke-linejoin: miter"/>
   </g>
   <g id="patch_65">
    <path d="M 131.398788 38.136881 
L 133.261334 38.136881 
L 133.261334 38.017382 
L 131.398788 38.017382 
z
" clip-path="url(#p80acff1468)" style="fill: #80b1d3; stroke: #000000; stroke-width: 0.25; stroke-linejoin: miter"/>
   </g>
   <g id="patch_66">
    <path d="M 133.261334 38.136881 
L 135.123879 38.136881 
L 135.123879 37.778384 
L 133.261334 37.778384 
z
" clip-path="url(#p80acff1468)" style="fill: #80b1d3; stroke: #000000; stroke-width: 0.25; stroke-linejoin: miter"/>
   </g>
   <g id="patch_67">
    <path d="M 135.123879 38.136881 
L 136.986425 38.136881 
L 136.986425 37.778384 
L 135.123879 37.778384 
z
" clip-path="url(#p80acff1468)" style="fill: #80b1d3; stroke: #000000; stroke-width: 0.25; stroke-linejoin: miter"/>
   </g>
   <g id="patch_68">
    <path d="M 136.986425 38.136881 
L 138.84897 38.136881 
L 138.84897 37.419888 
L 136.986425 37.419888 
z
" clip-path="url(#p80acff1468)" style="fill: #80b1d3; stroke: #000000; stroke-width: 0.25; stroke-linejoin: miter"/>
   </g>
   <g id="patch_69">
    <path d="M 138.84897 38.136881 
L 140.711516 38.136881 
L 140.711516 37.897883 
L 138.84897 37.897883 
z
" clip-path="url(#p80acff1468)" style="fill: #80b1d3; stroke: #000000; stroke-width: 0.25; stroke-linejoin: miter"/>
   </g>
   <g id="patch_70">
    <path d="M 140.711516 38.136881 
L 142.574061 38.136881 
L 142.574061 37.658885 
L 140.711516 37.658885 
z
" clip-path="url(#p80acff1468)" style="fill: #80b1d3; stroke: #000000; stroke-width: 0.25; stroke-linejoin: miter"/>
   </g>
   <g id="patch_71">
    <path d="M 142.574061 38.136881 
L 144.436607 38.136881 
L 144.436607 37.300389 
L 142.574061 37.300389 
z
" clip-path="url(#p80acff1468)" style="fill: #80b1d3; stroke: #000000; stroke-width: 0.25; stroke-linejoin: miter"/>
   </g>
   <g id="patch_72">
    <path d="M 144.436607 38.136881 
L 146.299152 38.136881 
L 146.299152 38.136881 
L 144.436607 38.136881 
z
" clip-path="url(#p80acff1468)" style="fill: #80b1d3; stroke: #000000; stroke-width: 0.25; stroke-linejoin: miter"/>
   </g>
   <g id="patch_73">
    <path d="M 146.299152 38.136881 
L 148.161698 38.136881 
L 148.161698 37.18089 
L 146.299152 37.18089 
z
" clip-path="url(#p80acff1468)" style="fill: #80b1d3; stroke: #000000; stroke-width: 0.25; stroke-linejoin: miter"/>
   </g>
   <g id="patch_74">
    <path d="M 148.161698 38.136881 
L 150.024243 38.136881 
L 150.024243 37.897883 
L 148.161698 37.897883 
z
" clip-path="url(#p80acff1468)" style="fill: #80b1d3; stroke: #000000; stroke-width: 0.25; stroke-linejoin: miter"/>
   </g>
   <g id="patch_75">
    <path d="M 150.024243 38.136881 
L 151.886789 38.136881 
L 151.886789 38.136881 
L 150.024243 38.136881 
z
" clip-path="url(#p80acff1468)" style="fill: #80b1d3; stroke: #000000; stroke-width: 0.25; stroke-linejoin: miter"/>
   </g>
   <g id="patch_76">
    <path d="M 151.886789 38.136881 
L 153.749334 38.136881 
L 153.749334 37.897883 
L 151.886789 37.897883 
z
" clip-path="url(#p80acff1468)" style="fill: #80b1d3; stroke: #000000; stroke-width: 0.25; stroke-linejoin: miter"/>
   </g>
   <g id="patch_77">
    <path d="M 153.749334 38.136881 
L 155.61188 38.136881 
L 155.61188 38.136881 
L 153.749334 38.136881 
z
" clip-path="url(#p80acff1468)" style="fill: #80b1d3; stroke: #000000; stroke-width: 0.25; stroke-linejoin: miter"/>
   </g>
   <g id="patch_78">
    <path d="M 155.61188 38.136881 
L 157.474425 38.136881 
L 157.474425 38.136881 
L 155.61188 38.136881 
z
" clip-path="url(#p80acff1468)" style="fill: #80b1d3; stroke: #000000; stroke-width: 0.25; stroke-linejoin: miter"/>
   </g>
   <g id="patch_79">
    <path d="M 157.474425 38.136881 
L 159.336971 38.136881 
L 159.336971 38.136881 
L 157.474425 38.136881 
z
" clip-path="url(#p80acff1468)" style="fill: #80b1d3; stroke: #000000; stroke-width: 0.25; stroke-linejoin: miter"/>
   </g>
   <g id="patch_80">
    <path d="M 159.336971 38.136881 
L 161.199516 38.136881 
L 161.199516 38.136881 
L 159.336971 38.136881 
z
" clip-path="url(#p80acff1468)" style="fill: #80b1d3; stroke: #000000; stroke-width: 0.25; stroke-linejoin: miter"/>
   </g>
   <g id="patch_81">
    <path d="M 161.199516 38.136881 
L 163.062062 38.136881 
L 163.062062 38.136881 
L 161.199516 38.136881 
z
" clip-path="url(#p80acff1468)" style="fill: #80b1d3; stroke: #000000; stroke-width: 0.25; stroke-linejoin: miter"/>
   </g>
   <g id="patch_82">
    <path d="M 163.062062 38.136881 
L 164.924607 38.136881 
L 164.924607 38.136881 
L 163.062062 38.136881 
z
" clip-path="url(#p80acff1468)" style="fill: #80b1d3; stroke: #000000; stroke-width: 0.25; stroke-linejoin: miter"/>
   </g>
   <g id="patch_83">
    <path d="M 164.924607 38.136881 
L 166.787153 38.136881 
L 166.787153 38.017382 
L 164.924607 38.017382 
z
" clip-path="url(#p80acff1468)" style="fill: #80b1d3; stroke: #000000; stroke-width: 0.25; stroke-linejoin: miter"/>
   </g>
   <g id="patch_84">
    <path d="M 166.787153 38.136881 
L 168.649698 38.136881 
L 168.649698 37.061391 
L 166.787153 37.061391 
z
" clip-path="url(#p80acff1468)" style="fill: #80b1d3; stroke: #000000; stroke-width: 0.25; stroke-linejoin: miter"/>
   </g>
   <g id="patch_85">
    <path d="M 15.920967 38.136881 
L 15.920967 3.338811 
" style="fill: none; stroke: #000000; stroke-width: 0.8; stroke-linejoin: miter; stroke-linecap: square"/>
   </g>
   <g id="patch_86">
    <path d="M 174.237335 38.136881 
L 174.237335 3.338811 
" style="fill: none; stroke: #000000; stroke-width: 0.8; stroke-linejoin: miter; stroke-linecap: square"/>
   </g>
   <g id="patch_87">
    <path d="M 15.920967 38.136881 
L 174.237335 38.136881 
" style="fill: none; stroke: #000000; stroke-width: 0.8; stroke-linejoin: miter; stroke-linecap: square"/>
   </g>
   <g id="patch_88">
    <path d="M 15.920967 3.338811 
L 174.237335 3.338811 
" style="fill: none; stroke: #000000; stroke-width: 0.8; stroke-linejoin: miter; stroke-linecap: square"/>
   </g>
  </g>
 </g>
 <defs>
  <clipPath id="p80acff1468">
   <rect x="15.920967" y="3.338811" width="158.316368" height="34.79807"/>
  </clipPath>
 </defs>
</svg>
