<?xml version="1.0" encoding="utf-8" standalone="no"?>
<!DOCTYPE svg PUBLIC "-//W3C//DTD SVG 1.1//EN"
  "http://www.w3.org/Graphics/SVG/1.1/DTD/svg11.dtd">
<svg xmlns:xlink="http://www.w3.org/1999/xlink" width="179.204597pt" height="168.62828pt" viewBox="0 0 179.204597 168.62828" xmlns="http://www.w3.org/2000/svg" version="1.1">
 <metadata>
  <rdf:RDF xmlns:dc="http://purl.org/dc/elements/1.1/" xmlns:cc="http://creativecommons.org/ns#" xmlns:rdf="http://www.w3.org/1999/02/22-rdf-syntax-ns#">
   <cc:Work>
    <dc:type rdf:resource="http://purl.org/dc/dcmitype/StillImage"/>
    <dc:date>2023-07-18T15:17:41.932093</dc:date>
    <dc:format>image/svg+xml</dc:format>
    <dc:creator>
     <cc:Agent>
      <dc:title>Matplotlib v3.7.2, https://matplotlib.org/</dc:title>
     </cc:Agent>
    </dc:creator>
   </cc:Work>
  </rdf:RDF>
 </metadata>
 <defs>
  <style type="text/css">*{stroke-linejoin: round; stroke-linecap: butt}</style>
 </defs>
 <g id="figure_1">
  <g id="patch_1">
   <path d="M 0 168.62828 
L 179.204597 168.62828 
L 179.204597 0 
L 0 0 
L 0 168.62828 
z
" style="fill: none"/>
  </g>
  <g id="axes_1">
   <g id="patch_2">
    <path d="M 151.189452 84.31414 
C 151.189452 71.775542 147.663119 59.486118 141.014841 48.85518 
C 134.366564 38.224242 124.860577 29.674317 113.587 24.185885 
C 102.313422 18.697453 89.720322 16.488651 77.251837 17.812777 
C 64.783351 19.136904 52.935041 23.941332 43.065634 31.675104 
C 33.196226 39.408877 25.697981 49.764615 21.430774 61.554754 
C 17.163567 73.344893 16.296999 86.100835 18.930444 98.359766 
C 21.563889 110.618698 27.592681 121.893388 36.325458 130.890891 
C 45.058234 139.888393 56.14791 146.251103 68.322756 149.249362 
L 84.31414 84.31414 
z
" style="fill: #e31a1c"/>
   </g>
   <g id="patch_3">
    <path d="M 68.322756 149.249362 
C 76.250438 151.201686 84.46904 151.685819 92.571109 150.677759 
C 100.673177 149.669698 108.522569 147.186384 115.730135 143.350931 
L 84.31414 84.31414 
z
" style="fill: #ff7f00"/>
   </g>
   <g id="patch_4">
    <path d="M 115.730135 143.350931 
C 121.730945 140.157644 127.209956 136.068011 131.97804 131.223201 
C 136.746124 126.378392 140.747779 120.8348 143.844874 114.783783 
L 84.31414 84.31414 
z
" style="fill: #fb9a99"/>
   </g>
   <g id="patch_5">
    <path d="M 143.844874 114.783783 
C 145.89728 110.773848 147.539287 106.566782 148.745862 102.226722 
C 149.952437 97.886661 150.717417 93.435774 151.029139 88.941914 
L 84.31414 84.31414 
z
" style="fill: #b2df8a"/>
   </g>
   <g id="patch_6">
    <path d="M 151.029139 88.941914 
C 151.082557 88.171833 151.122637 87.400884 151.149362 86.629415 
C 151.176087 85.857946 151.189452 85.086072 151.189452 84.314141 
L 84.31414 84.31414 
z
" style="fill: #cccccc"/>
   </g>
   <g id="matplotlib.axis_1"/>
   <g id="matplotlib.axis_2"/>
   <g id="text_1">
    <!-- A -->
    <g transform="translate(33.749845 28.159877) scale(0.07497 -0.07497)">
     <defs>
      <path id="LinLibertineT-41" d="M 1683 1805 
C 1542 1805 1498 1824 1523 1888 
L 2176 3560 
L 2214 3560 
L 2816 1805 
L 1683 1805 
z
M 992 512 
L 1344 1429 
C 1376 1510 1414 1536 1568 1536 
L 2918 1536 
L 3290 454 
C 3366 237 3123 211 2816 211 
C 2778 172 2778 39 2816 0 
C 3053 0 3405 0 3654 0 
C 3917 0 4160 0 4384 0 
C 4422 39 4422 173 4384 212 
C 4134 236 3917 256 3808 564 
L 2490 4224 
C 2394 4166 2221 4096 2138 4096 
L 685 648 
C 518 250 326 211 45 211 
C 6 172 6 39 45 0 
C 211 0 422 0 614 0 
C 877 0 1197 0 1434 0 
C 1472 38 1472 170 1434 209 
C 1190 228 890 253 992 512 
z
" transform="scale(0.015625)"/>
     </defs>
     <use xlink:href="#LinLibertineT-41" transform="scale(0.996264)"/>
    </g>
   </g>
   <g id="text_2">
    <!-- 71.2\% -->
    <g transform="translate(39.156783 41.67022) scale(0.09 -0.09)">
     <defs>
      <path id="LinLibertineT-37" d="M 1088 3456 
L 2234 3456 
C 1734 2210 1229 957 794 -19 
L 845 -64 
L 1280 -64 
C 1645 1033 1997 2105 2714 3866 
L 2611 3944 
C 2502 3912 2362 3873 2118 3873 
L 800 3873 
C 582 3873 595 3937 480 3963 
C 461 3963 454 3963 454 3944 
C 448 3635 378 3249 326 2915 
C 397 2895 461 2889 531 2895 
C 672 3411 883 3456 1088 3456 
z
" transform="scale(0.015625)"/>
      <path id="LinLibertineT-31" d="M 1843 779 
L 1843 3021 
C 1843 3409 1850 3802 1862 3886 
C 1862 3919 1850 3919 1824 3919 
C 1472 3700 1133 3540 570 3277 
C 582 3207 608 3141 666 3103 
C 960 3226 1101 3264 1222 3264 
C 1331 3264 1350 3109 1350 2889 
L 1350 780 
C 1350 243 1178 211 730 211 
C 691 172 691 39 730 0 
C 1043 0 1274 0 1619 0 
C 1926 0 2080 0 2400 0 
C 2438 39 2438 172 2400 211 
C 1952 211 1843 243 1843 779 
z
" transform="scale(0.015625)"/>
      <path id="LinLibertineT-2e" d="M 365 276 
C 365 90 518 -64 704 -64 
C 890 -64 1043 90 1043 276 
C 1043 462 890 616 704 616 
C 518 616 365 462 365 276 
z
" transform="scale(0.015625)"/>
      <path id="LinLibertineT-32" d="M 390 2997 
C 390 2863 512 2747 646 2747 
C 755 2747 947 2863 947 3003 
C 947 3054 934 3093 922 3137 
C 909 3182 870 3239 870 3291 
C 870 3450 1037 3680 1504 3680 
C 1734 3680 2061 3521 2061 2908 
C 2061 2500 1914 2169 1536 1786 
L 1062 1320 
C 435 682 333 377 333 0 
C 333 0 659 0 864 0 
L 1984 0 
C 2189 0 2483 0 2483 0 
C 2566 337 2630 813 2637 1004 
C 2598 1036 2515 1048 2451 1036 
C 2342 582 2234 423 2003 423 
L 864 423 
C 864 730 1306 1164 1338 1196 
L 1984 1815 
C 2349 2167 2624 2448 2624 2933 
C 2624 3623 2061 3904 1542 3904 
C 832 3904 390 3380 390 2997 
z
" transform="scale(0.015625)"/>
      <path id="LinLibertineT-25" d="M 2771 548 
C 2771 922 3034 1465 3347 1465 
C 3437 1465 3616 1407 3616 1071 
C 3616 710 3405 135 3053 135 
C 2931 135 2771 213 2771 548 
z
M 2419 646 
C 2419 304 2624 -64 3014 -64 
C 3546 -64 3827 646 3827 1077 
C 3827 1547 3533 1664 3277 1664 
C 2803 1664 2419 1173 2419 646 
z
M 2330 3374 
C 2214 3374 1990 3374 1645 3515 
C 1581 3582 1395 3655 1216 3655 
C 755 3655 365 3211 365 2659 
C 365 2340 557 1977 954 1977 
C 1491 1977 1773 2701 1773 3111 
C 1773 3168 1766 3226 1754 3271 
C 1875 3200 2118 3136 2266 3136 
C 2458 3136 2707 3162 2950 3258 
L 653 33 
L 870 -64 
L 3494 3579 
L 3290 3681 
C 3091 3441 2598 3374 2330 3374 
z
M 710 2574 
C 710 2935 973 3456 1286 3456 
C 1402 3456 1562 3388 1562 3077 
C 1562 2717 1344 2176 992 2176 
C 877 2176 710 2251 710 2574 
z
" transform="scale(0.015625)"/>
     </defs>
     <use xlink:href="#LinLibertineT-37" transform="scale(0.996264)"/>
     <use xlink:href="#LinLibertineT-31" transform="translate(46.326292 0) scale(0.996264)"/>
     <use xlink:href="#LinLibertineT-2e" transform="translate(92.652583 0) scale(0.996264)"/>
     <use xlink:href="#LinLibertineT-32" transform="translate(114.570407 0) scale(0.996264)"/>
     <use xlink:href="#LinLibertineT-25" transform="translate(160.896698 0) scale(0.996264)"/>
    </g>
   </g>
   <g id="text_3">
    <!-- CNAME -->
    <g transform="translate(93.396806 159.062797) scale(0.07497 -0.07497)">
     <defs>
      <path id="LinLibertineT-43" d="M 2285 -64 
C 2906 -64 3475 231 3910 803 
C 3878 860 3834 899 3763 899 
C 3309 398 2874 199 2278 199 
C 1414 199 819 1175 819 2112 
C 819 2665 966 3126 1197 3415 
C 1517 3807 1888 3987 2221 3987 
C 3104 3987 3456 3461 3622 2909 
C 3699 2884 3763 2903 3834 2941 
C 3802 3275 3757 3583 3693 3936 
C 3366 3968 3078 4224 2291 4224 
C 1747 4224 1293 4025 915 3678 
C 493 3287 237 2658 237 1990 
C 237 873 909 -64 2285 -64 
z
" transform="scale(0.015625)"/>
      <path id="LinLibertineT-4e" d="M 3558 3256 
L 3558 1158 
C 3558 1036 3558 965 3514 965 
C 3488 965 3392 1082 3206 1320 
L 1011 4122 
L 147 4122 
C 109 4082 109 3943 147 3904 
C 422 3904 614 3674 653 3505 
L 653 828 
C 653 257 544 219 96 174 
C 58 135 58 1 96 -38 
C 371 -38 659 -38 813 -38 
C 960 -38 1254 -38 1523 -38 
C 1562 1 1562 135 1523 174 
C 1075 219 966 244 966 829 
L 966 2793 
C 966 3011 966 3107 1018 3107 
C 1056 3107 1126 3036 1235 2894 
L 3469 58 
C 3539 -38 3622 -96 3725 -96 
C 3814 -96 3872 -19 3872 103 
L 3872 3255 
C 3872 3827 3981 3865 4429 3910 
C 4467 3948 4467 4083 4429 4122 
C 4166 4122 3866 4122 3712 4122 
C 3578 4122 3283 4122 3002 4122 
C 2963 4083 2963 3948 3002 3910 
C 3450 3865 3558 3839 3558 3256 
z
" transform="scale(0.015625)"/>
      <path id="LinLibertineT-4d" d="M 4243 741 
C 4275 218 4250 218 3834 218 
C 3795 178 3795 40 3834 0 
C 4070 0 4326 0 4518 0 
C 4710 0 5005 0 5216 0 
C 5254 40 5254 178 5216 218 
C 4781 218 4762 244 4723 784 
L 4531 3492 
C 4506 3850 4538 3942 4973 3942 
C 5011 3981 5011 4120 4973 4160 
L 4134 4160 
L 2778 893 
C 2752 829 2733 803 2720 803 
C 2707 803 2688 835 2669 887 
L 1357 4160 
L 429 4160 
C 390 4120 390 3981 429 3942 
C 870 3942 909 3930 864 3434 
L 608 790 
C 570 404 493 244 128 212 
C 90 173 90 39 128 0 
C 320 0 525 0 678 0 
C 832 0 1088 0 1280 0 
C 1318 39 1318 173 1280 212 
C 858 244 826 443 858 802 
L 1101 3376 
L 1114 3376 
L 2438 32 
C 2458 -13 2496 -64 2534 -64 
C 2573 -64 2598 -19 2624 32 
L 4064 3440 
L 4077 3440 
L 4243 741 
z
" transform="scale(0.015625)"/>
      <path id="LinLibertineT-45" d="M 1798 2304 
L 1216 2304 
L 1216 3474 
C 1216 3760 1293 3890 1638 3890 
L 2118 3890 
C 2598 3890 2701 3632 2842 3187 
C 2918 3174 2989 3187 3053 3219 
C 3021 3485 2925 4108 2912 4160 
C 2912 4160 2906 4160 2886 4160 
C 2778 4160 2726 4160 2573 4160 
L 941 4160 
C 749 4160 371 4160 115 4160 
C 77 4119 77 3975 115 3935 
C 563 3935 672 3903 672 3366 
L 672 779 
C 672 243 563 211 115 211 
C 77 172 77 39 115 0 
C 352 0 736 0 947 0 
L 2323 0 
C 2630 0 3142 0 3142 0 
C 3232 318 3328 738 3379 1062 
C 3315 1101 3238 1114 3155 1094 
C 3027 634 2803 256 2317 256 
L 1574 256 
C 1306 256 1216 358 1216 656 
L 1216 2061 
L 1798 2061 
C 2342 2061 2362 1917 2381 1637 
C 2419 1600 2554 1600 2592 1637 
C 2586 1804 2579 1984 2579 2202 
C 2579 2381 2586 2600 2592 2753 
C 2554 2793 2419 2793 2381 2753 
C 2362 2391 2342 2304 1798 2304 
z
" transform="scale(0.015625)"/>
     </defs>
     <use xlink:href="#LinLibertineT-43" transform="scale(0.996264)"/>
     <use xlink:href="#LinLibertineT-4e" transform="translate(64.358646 0) scale(0.996264)"/>
     <use xlink:href="#LinLibertineT-41" transform="translate(133.997525 0) scale(0.996264)"/>
     <use xlink:href="#LinLibertineT-4d" transform="translate(203.237843 0) scale(0.996264)"/>
     <use xlink:href="#LinLibertineT-45" transform="translate(286.824357 0) scale(0.996264)"/>
    </g>
   </g>
   <g id="text_4">
    <!-- 11.6\% -->
    <g transform="translate(81.236436 142.822475) scale(0.09 -0.09)">
     <defs>
      <path id="LinLibertineT-36" d="M 864 1971 
C 1075 2112 1286 2112 1395 2112 
C 2022 2112 2163 1500 2163 1181 
C 2163 480 1894 161 1581 161 
C 1178 161 813 378 813 1473 
C 813 1619 826 1786 864 1971 
z
M 922 2202 
C 1094 2786 1504 3433 2355 3754 
C 2355 3831 2330 3889 2278 3921 
C 1632 3728 1235 3459 877 3043 
C 480 2582 282 1999 282 1493 
C 282 193 1018 -64 1510 -64 
C 2349 -64 2694 749 2694 1300 
C 2694 1850 2400 2343 1530 2343 
C 1363 2343 1114 2292 922 2202 
z
" transform="scale(0.015625)"/>
     </defs>
     <use xlink:href="#LinLibertineT-31" transform="scale(0.996264)"/>
     <use xlink:href="#LinLibertineT-31" transform="translate(46.326292 0) scale(0.996264)"/>
     <use xlink:href="#LinLibertineT-2e" transform="translate(92.652583 0) scale(0.996264)"/>
     <use xlink:href="#LinLibertineT-36" transform="translate(114.570407 0) scale(0.996264)"/>
     <use xlink:href="#LinLibertineT-25" transform="translate(160.896698 0) scale(0.996264)"/>
    </g>
   </g>
   <g id="text_5">
    <!-- AAAA -->
    <g transform="translate(136.74443 137.662784) scale(0.07497 -0.07497)">
     <use xlink:href="#LinLibertineT-41" transform="scale(0.996264)"/>
     <use xlink:href="#LinLibertineT-41" transform="translate(69.240318 0) scale(0.996264)"/>
     <use xlink:href="#LinLibertineT-41" transform="translate(138.480637 0) scale(0.996264)"/>
     <use xlink:href="#LinLibertineT-41" transform="translate(207.720955 0) scale(0.996264)"/>
    </g>
   </g>
   <g id="text_6">
    <!-- 9.7\% -->
    <g transform="translate(116.817009 126.286102) scale(0.09 -0.09)">
     <defs>
      <path id="LinLibertineT-39" d="M 2150 1837 
C 1939 1696 1728 1696 1619 1696 
C 992 1696 851 2309 851 2628 
C 851 3329 1120 3648 1434 3648 
C 1837 3648 2202 3430 2202 2336 
C 2202 2195 2189 2022 2150 1837 
z
M 2093 1613 
C 1920 1029 1510 381 659 61 
C 659 -16 685 -74 736 -106 
C 1382 86 1779 355 2138 771 
C 2534 1231 2733 1813 2733 2318 
C 2733 3617 1997 3872 1504 3872 
C 666 3872 320 3062 320 2512 
C 320 1964 614 1472 1485 1472 
C 1651 1472 1901 1523 2093 1613 
z
" transform="scale(0.015625)"/>
     </defs>
     <use xlink:href="#LinLibertineT-39" transform="scale(0.996264)"/>
     <use xlink:href="#LinLibertineT-2e" transform="translate(46.326292 0) scale(0.996264)"/>
     <use xlink:href="#LinLibertineT-37" transform="translate(68.244115 0) scale(0.996264)"/>
     <use xlink:href="#LinLibertineT-25" transform="translate(114.570407 0) scale(0.996264)"/>
    </g>
   </g>
   <g id="text_7">
    <!-- NS -->
    <g transform="translate(155.189034 105.766656) scale(0.07497 -0.07497)">
     <defs>
      <path id="LinLibertineT-53" d="M 2528 4051 
C 2157 4102 2170 4224 1542 4224 
C 896 4224 326 3794 326 3114 
C 326 2439 883 2131 1446 1913 
C 1830 1766 2304 1585 2304 957 
C 2304 436 2016 167 1504 167 
C 909 167 525 443 384 1078 
C 301 1104 237 1091 173 1059 
C 198 564 224 398 301 83 
C 704 83 883 -64 1453 -64 
C 1741 -64 2016 6 2240 148 
C 2611 378 2842 771 2842 1181 
C 2842 1862 2330 2163 1805 2362 
C 1421 2504 781 2748 781 3287 
C 781 3647 1107 4006 1485 4006 
C 2106 4006 2304 3607 2432 3184 
C 2502 3171 2586 3178 2643 3223 
C 2618 3531 2592 3710 2528 4051 
z
" transform="scale(0.015625)"/>
     </defs>
     <use xlink:href="#LinLibertineT-4e" transform="scale(0.996264)"/>
     <use xlink:href="#LinLibertineT-53" transform="translate(69.638879 0) scale(0.996264)"/>
    </g>
   </g>
   <g id="text_8">
    <!-- 6.4\% -->
    <g transform="translate(131.069658 101.639094) scale(0.09 -0.09)">
     <defs>
      <path id="LinLibertineT-34" d="M 1734 3251 
L 1734 1408 
L 512 1408 
C 838 1933 1293 2649 1734 3251 
z
M 2752 1408 
L 2221 1408 
L 2221 3281 
C 2221 3602 2221 3852 2234 3904 
L 2221 3904 
L 2016 3904 
C 1971 3904 1939 3866 1914 3834 
C 1510 3342 768 2288 179 1375 
C 198 1278 237 1106 429 1106 
L 1734 1106 
L 1734 509 
C 1734 211 1491 211 1216 211 
C 1178 172 1178 39 1216 0 
C 1421 0 1677 0 1971 0 
C 2221 0 2464 0 2669 0 
C 2707 39 2707 171 2669 210 
C 2355 235 2221 223 2221 521 
L 2221 1106 
L 2662 1106 
C 2752 1106 2848 1228 2848 1305 
C 2848 1369 2822 1408 2752 1408 
z
" transform="scale(0.015625)"/>
     </defs>
     <use xlink:href="#LinLibertineT-36" transform="scale(0.996264)"/>
     <use xlink:href="#LinLibertineT-2e" transform="translate(46.326292 0) scale(0.996264)"/>
     <use xlink:href="#LinLibertineT-34" transform="translate(68.244115 0) scale(0.996264)"/>
     <use xlink:href="#LinLibertineT-25" transform="translate(114.570407 0) scale(0.996264)"/>
    </g>
   </g>
   <g id="text_9">
    <!-- Others -->
    <g transform="translate(157.832884 88.609619) scale(0.07497 -0.07497)">
     <defs>
      <path id="LinLibertineT-4f" d="M 2118 3993 
C 2963 3993 3648 3287 3648 1990 
C 3648 841 3098 167 2368 167 
C 1587 167 851 867 851 2099 
C 851 3447 1485 3993 2118 3993 
z
M 4262 2112 
C 4262 3441 3347 4224 2202 4224 
C 960 4224 237 3235 237 1990 
C 237 726 1152 -64 2240 -64 
C 2950 -64 3514 244 3866 745 
C 4122 1111 4262 1573 4262 2112 
z
" transform="scale(0.015625)"/>
      <path id="LinLibertineT-74" d="M 275 2752 
C 186 2752 160 2675 160 2623 
L 160 2540 
C 160 2509 166 2502 192 2502 
L 570 2502 
L 570 571 
C 570 115 768 -64 1062 -64 
C 1357 -64 1677 77 1926 360 
C 1914 424 1875 463 1811 469 
C 1645 340 1453 289 1286 289 
C 1114 289 1075 481 1075 879 
L 1075 2502 
L 1741 2502 
C 1805 2502 1894 2528 1894 2586 
L 1894 2714 
C 1894 2740 1875 2752 1843 2752 
L 1075 2752 
L 1075 3006 
C 1075 3426 1101 3685 1101 3685 
C 1101 3725 1082 3744 1050 3744 
C 1024 3744 966 3718 909 3685 
C 838 3647 774 3614 691 3594 
C 614 3569 550 3549 550 3504 
C 550 3426 570 3471 570 2752 
L 275 2752 
z
" transform="scale(0.015625)"/>
      <path id="LinLibertineT-68" d="M 1069 1837 
C 1069 1972 1126 2048 1178 2106 
C 1421 2342 1747 2482 1997 2482 
C 2125 2482 2259 2399 2336 2252 
C 2400 2125 2413 1953 2413 1761 
L 2413 791 
C 2413 269 2349 243 2016 211 
C 1984 172 1984 39 2016 0 
C 2195 0 2413 0 2669 0 
C 2925 0 3136 0 3347 0 
C 3379 39 3379 172 3347 211 
C 2989 243 2918 269 2918 791 
L 2918 1743 
C 2918 2094 2893 2407 2746 2599 
C 2637 2739 2438 2816 2214 2816 
C 1901 2816 1517 2732 1126 2296 
C 1107 2270 1062 2206 1062 2296 
L 1069 3741 
C 1069 4158 1094 4416 1094 4416 
C 1094 4460 1069 4480 1011 4480 
C 851 4414 371 4320 115 4300 
C 102 4246 115 4140 154 4100 
C 486 4100 563 4132 563 3591 
L 563 778 
C 563 244 486 218 115 218 
C 77 178 77 40 115 0 
C 326 0 563 0 819 0 
C 1062 0 1274 0 1453 0 
C 1491 39 1491 172 1453 211 
C 1126 236 1069 262 1069 791 
L 1069 1837 
z
" transform="scale(0.015625)"/>
      <path id="LinLibertineT-65" d="M 794 1831 
C 915 2547 1363 2604 1517 2604 
C 1760 2604 2048 2467 2048 1922 
C 2048 1863 2022 1831 1952 1831 
L 794 1831 
z
M 2470 600 
C 2234 354 2048 250 1677 250 
C 1446 250 1178 386 979 715 
C 851 929 774 1226 774 1600 
L 2477 1600 
C 2554 1600 2598 1638 2598 1708 
C 2598 2243 2406 2816 1517 2816 
C 960 2816 237 2281 237 1302 
C 237 941 326 593 538 348 
C 755 91 1056 -64 1517 -64 
C 2003 -64 2349 161 2605 497 
C 2586 562 2547 594 2470 600 
z
" transform="scale(0.015625)"/>
      <path id="LinLibertineT-72" d="M 1126 2296 
C 1114 2553 1107 2719 1075 2784 
C 1062 2816 1050 2835 998 2835 
C 819 2764 653 2707 211 2649 
C 198 2610 211 2508 224 2469 
C 570 2436 640 2404 640 2031 
L 640 777 
C 640 244 563 218 166 218 
C 128 178 128 40 166 0 
C 390 0 640 0 896 0 
C 1152 0 1446 0 1670 0 
C 1709 39 1709 172 1670 211 
C 1222 243 1146 262 1146 791 
L 1146 1678 
C 1146 1844 1222 1990 1299 2106 
C 1370 2207 1517 2418 1594 2418 
C 1651 2418 1709 2405 1760 2335 
C 1805 2271 1882 2188 1990 2188 
C 2144 2188 2291 2348 2291 2508 
C 2291 2630 2176 2816 1907 2816 
C 1606 2816 1344 2533 1197 2283 
C 1158 2213 1126 2264 1126 2296 
z
" transform="scale(0.015625)"/>
      <path id="LinLibertineT-73" d="M 307 886 
C 333 572 352 269 352 0 
C 416 13 480 19 512 19 
C 557 19 595 19 640 6 
C 813 -38 986 -64 1222 -64 
C 1581 -64 2240 109 2240 744 
C 2240 1180 1926 1437 1491 1597 
C 1107 1745 851 1841 851 2193 
C 851 2456 1082 2604 1299 2604 
C 1440 2604 1811 2553 1894 2007 
C 1933 1969 2061 1969 2099 2008 
C 2118 2241 2131 2480 2138 2694 
C 1939 2726 1632 2816 1299 2816 
C 826 2816 397 2508 397 2097 
C 397 1629 608 1430 1101 1225 
C 1632 1007 1754 872 1754 596 
C 1754 282 1446 148 1210 148 
C 960 148 819 230 755 300 
C 614 447 544 727 506 885 
C 467 924 346 924 307 886 
z
" transform="scale(0.015625)"/>
     </defs>
     <use xlink:href="#LinLibertineT-4f" transform="scale(0.996264)"/>
     <use xlink:href="#LinLibertineT-74" transform="translate(69.9377 0) scale(0.996264)"/>
     <use xlink:href="#LinLibertineT-68" transform="translate(101.419634 0) scale(0.996264)"/>
     <use xlink:href="#LinLibertineT-65" transform="translate(155.01864 0) scale(0.996264)"/>
     <use xlink:href="#LinLibertineT-72" transform="translate(199.551593 0) scale(0.996264)"/>
     <use xlink:href="#LinLibertineT-73" transform="translate(236.612581 0) scale(0.996264)"/>
    </g>
   </g>
   <g id="text_10">
    <!-- 1.1\% -->
    <g transform="translate(133.112633 88.381384) scale(0.09 -0.09)">
     <use xlink:href="#LinLibertineT-31" transform="scale(0.996264)"/>
     <use xlink:href="#LinLibertineT-2e" transform="translate(46.326292 0) scale(0.996264)"/>
     <use xlink:href="#LinLibertineT-31" transform="translate(68.244115 0) scale(0.996264)"/>
     <use xlink:href="#LinLibertineT-25" transform="translate(114.570407 0) scale(0.996264)"/>
    </g>
   </g>
  </g>
 </g>
</svg>
