<?xml version="1.0" encoding="utf-8" standalone="no"?>
<!DOCTYPE svg PUBLIC "-//W3C//DTD SVG 1.1//EN"
  "http://www.w3.org/Graphics/SVG/1.1/DTD/svg11.dtd">
<svg xmlns:xlink="http://www.w3.org/1999/xlink" width="179.195257pt" height="168.946834pt" viewBox="0 0 179.195257 168.946834" xmlns="http://www.w3.org/2000/svg" version="1.1">
 <metadata>
  <rdf:RDF xmlns:dc="http://purl.org/dc/elements/1.1/" xmlns:cc="http://creativecommons.org/ns#" xmlns:rdf="http://www.w3.org/1999/02/22-rdf-syntax-ns#">
   <cc:Work>
    <dc:type rdf:resource="http://purl.org/dc/dcmitype/StillImage"/>
    <dc:date>2023-07-18T15:44:06.431513</dc:date>
    <dc:format>image/svg+xml</dc:format>
    <dc:creator>
     <cc:Agent>
      <dc:title>Matplotlib v3.7.2, https://matplotlib.org/</dc:title>
     </cc:Agent>
    </dc:creator>
   </cc:Work>
  </rdf:RDF>
 </metadata>
 <defs>
  <style type="text/css">*{stroke-linejoin: round; stroke-linecap: butt}</style>
 </defs>
 <g id="figure_1">
  <g id="patch_1">
   <path d="M 0 168.946834 
L 179.195257 168.946834 
L 179.195257 0 
L 0 0 
L 0 168.946834 
z
" style="fill: none"/>
  </g>
  <g id="axes_1">
   <g id="patch_2">
    <path d="M 151.476151 84.473417 
C 151.476151 72.165461 148.084817 60.092236 141.675957 49.584511 
C 135.267097 39.076785 126.085165 30.535355 115.142237 24.901697 
C 104.199309 19.268039 91.91278 16.757038 79.636931 17.645468 
C 67.361082 18.533899 55.56415 22.787873 45.546448 29.938498 
C 35.528747 37.089123 27.672381 46.863652 22.843317 58.184691 
C 18.014253 69.50573 16.396686 81.94146 18.168912 94.121156 
C 19.941137 106.300852 25.035557 117.759944 32.89064 127.235357 
C 40.745724 136.710769 51.061854 143.841082 62.701939 147.840357 
L 84.473417 84.473417 
z
" style="fill: #e31a1c"/>
   </g>
   <g id="patch_3">
    <path d="M 62.701939 147.840357 
C 73.079635 151.405904 84.176071 152.368097 95.012609 150.642079 
C 105.849147 148.91606 116.097566 144.554107 124.854016 137.940917 
L 84.473417 84.473417 
z
" style="fill: #fb9a99"/>
   </g>
   <g id="patch_4">
    <path d="M 124.854016 137.940917 
C 130.425818 133.73289 135.30576 128.679658 139.316879 122.964468 
C 143.327998 117.249279 146.421215 110.942061 148.48436 104.271536 
L 84.473417 84.473417 
z
" style="fill: #b15928"/>
   </g>
   <g id="patch_5">
    <path d="M 148.48436 104.271536 
C 148.828111 103.160128 149.142857 102.039955 149.42828 100.912157 
C 149.713702 99.784359 149.969704 98.649319 150.196024 97.508191 
L 84.473417 84.473417 
z
" style="fill: #fdbf6f"/>
   </g>
   <g id="patch_6">
    <path d="M 150.196024 97.508191 
C 150.621453 95.363132 150.941612 93.198532 151.155351 91.022163 
C 151.369089 88.845794 151.476151 86.660266 151.476151 84.473427 
L 84.473417 84.473417 
z
" style="fill: #cccccc"/>
   </g>
   <g id="matplotlib.axis_1"/>
   <g id="matplotlib.axis_2"/>
   <g id="text_1">
    <!-- A -->
    <g transform="translate(36.462814 26.233682) scale(0.07497 -0.07497)">
     <defs>
      <path id="LinLibertineT-41" d="M 1683 1805 
C 1542 1805 1498 1824 1523 1888 
L 2176 3560 
L 2214 3560 
L 2816 1805 
L 1683 1805 
z
M 992 512 
L 1344 1429 
C 1376 1510 1414 1536 1568 1536 
L 2918 1536 
L 3290 454 
C 3366 237 3123 211 2816 211 
C 2778 172 2778 39 2816 0 
C 3053 0 3405 0 3654 0 
C 3917 0 4160 0 4384 0 
C 4422 39 4422 173 4384 212 
C 4134 236 3917 256 3808 564 
L 2490 4224 
C 2394 4166 2221 4096 2138 4096 
L 685 648 
C 518 250 326 211 45 211 
C 6 172 6 39 45 0 
C 211 0 422 0 614 0 
C 877 0 1197 0 1434 0 
C 1472 38 1472 170 1434 209 
C 1190 228 890 253 992 512 
z
" transform="scale(0.015625)"/>
     </defs>
     <use xlink:href="#LinLibertineT-41" transform="scale(0.996264)"/>
    </g>
   </g>
   <g id="text_2">
    <!-- 69.7\% -->
    <g transform="translate(41.289367 40.217995) scale(0.09 -0.09)">
     <defs>
      <path id="LinLibertineT-36" d="M 864 1971 
C 1075 2112 1286 2112 1395 2112 
C 2022 2112 2163 1500 2163 1181 
C 2163 480 1894 161 1581 161 
C 1178 161 813 378 813 1473 
C 813 1619 826 1786 864 1971 
z
M 922 2202 
C 1094 2786 1504 3433 2355 3754 
C 2355 3831 2330 3889 2278 3921 
C 1632 3728 1235 3459 877 3043 
C 480 2582 282 1999 282 1493 
C 282 193 1018 -64 1510 -64 
C 2349 -64 2694 749 2694 1300 
C 2694 1850 2400 2343 1530 2343 
C 1363 2343 1114 2292 922 2202 
z
" transform="scale(0.015625)"/>
      <path id="LinLibertineT-39" d="M 2150 1837 
C 1939 1696 1728 1696 1619 1696 
C 992 1696 851 2309 851 2628 
C 851 3329 1120 3648 1434 3648 
C 1837 3648 2202 3430 2202 2336 
C 2202 2195 2189 2022 2150 1837 
z
M 2093 1613 
C 1920 1029 1510 381 659 61 
C 659 -16 685 -74 736 -106 
C 1382 86 1779 355 2138 771 
C 2534 1231 2733 1813 2733 2318 
C 2733 3617 1997 3872 1504 3872 
C 666 3872 320 3062 320 2512 
C 320 1964 614 1472 1485 1472 
C 1651 1472 1901 1523 2093 1613 
z
" transform="scale(0.015625)"/>
      <path id="LinLibertineT-2e" d="M 365 276 
C 365 90 518 -64 704 -64 
C 890 -64 1043 90 1043 276 
C 1043 462 890 616 704 616 
C 518 616 365 462 365 276 
z
" transform="scale(0.015625)"/>
      <path id="LinLibertineT-37" d="M 1088 3456 
L 2234 3456 
C 1734 2210 1229 957 794 -19 
L 845 -64 
L 1280 -64 
C 1645 1033 1997 2105 2714 3866 
L 2611 3944 
C 2502 3912 2362 3873 2118 3873 
L 800 3873 
C 582 3873 595 3937 480 3963 
C 461 3963 454 3963 454 3944 
C 448 3635 378 3249 326 2915 
C 397 2895 461 2889 531 2895 
C 672 3411 883 3456 1088 3456 
z
" transform="scale(0.015625)"/>
      <path id="LinLibertineT-25" d="M 2771 548 
C 2771 922 3034 1465 3347 1465 
C 3437 1465 3616 1407 3616 1071 
C 3616 710 3405 135 3053 135 
C 2931 135 2771 213 2771 548 
z
M 2419 646 
C 2419 304 2624 -64 3014 -64 
C 3546 -64 3827 646 3827 1077 
C 3827 1547 3533 1664 3277 1664 
C 2803 1664 2419 1173 2419 646 
z
M 2330 3374 
C 2214 3374 1990 3374 1645 3515 
C 1581 3582 1395 3655 1216 3655 
C 755 3655 365 3211 365 2659 
C 365 2340 557 1977 954 1977 
C 1491 1977 1773 2701 1773 3111 
C 1773 3168 1766 3226 1754 3271 
C 1875 3200 2118 3136 2266 3136 
C 2458 3136 2707 3162 2950 3258 
L 653 33 
L 870 -64 
L 3494 3579 
L 3290 3681 
C 3091 3441 2598 3374 2330 3374 
z
M 710 2574 
C 710 2935 973 3456 1286 3456 
C 1402 3456 1562 3388 1562 3077 
C 1562 2717 1344 2176 992 2176 
C 877 2176 710 2251 710 2574 
z
" transform="scale(0.015625)"/>
     </defs>
     <use xlink:href="#LinLibertineT-36" transform="scale(0.996264)"/>
     <use xlink:href="#LinLibertineT-39" transform="translate(46.326292 0) scale(0.996264)"/>
     <use xlink:href="#LinLibertineT-2e" transform="translate(92.652583 0) scale(0.996264)"/>
     <use xlink:href="#LinLibertineT-37" transform="translate(114.570407 0) scale(0.996264)"/>
     <use xlink:href="#LinLibertineT-25" transform="translate(160.896698 0) scale(0.996264)"/>
    </g>
   </g>
   <g id="text_3">
    <!-- AAAA -->
    <g transform="translate(96.066529 159.007621) scale(0.07497 -0.07497)">
     <use xlink:href="#LinLibertineT-41" transform="scale(0.996264)"/>
     <use xlink:href="#LinLibertineT-41" transform="translate(69.240318 0) scale(0.996264)"/>
     <use xlink:href="#LinLibertineT-41" transform="translate(138.480637 0) scale(0.996264)"/>
     <use xlink:href="#LinLibertineT-41" transform="translate(207.720955 0) scale(0.996264)"/>
    </g>
   </g>
   <g id="text_4">
    <!-- 15.6\% -->
    <g transform="translate(83.335604 142.816039) scale(0.09 -0.09)">
     <defs>
      <path id="LinLibertineT-31" d="M 1843 779 
L 1843 3021 
C 1843 3409 1850 3802 1862 3886 
C 1862 3919 1850 3919 1824 3919 
C 1472 3700 1133 3540 570 3277 
C 582 3207 608 3141 666 3103 
C 960 3226 1101 3264 1222 3264 
C 1331 3264 1350 3109 1350 2889 
L 1350 780 
C 1350 243 1178 211 730 211 
C 691 172 691 39 730 0 
C 1043 0 1274 0 1619 0 
C 1926 0 2080 0 2400 0 
C 2438 39 2438 172 2400 211 
C 1952 211 1843 243 1843 779 
z
" transform="scale(0.015625)"/>
      <path id="LinLibertineT-35" d="M 2042 1210 
C 2042 606 1722 161 1338 161 
C 1094 161 1011 320 915 448 
C 832 556 723 651 589 651 
C 467 651 346 543 346 414 
C 346 154 890 -64 1254 -64 
C 2048 -64 2611 523 2611 1325 
C 2611 1943 2182 2497 1466 2497 
C 1190 2497 954 2439 838 2394 
L 966 3461 
C 1203 3439 1408 3410 1715 3410 
C 1907 3410 2125 3410 2387 3436 
L 2490 3878 
L 2445 3904 
C 2080 3867 1734 3840 1395 3840 
C 1158 3840 928 3840 704 3865 
L 486 2024 
C 826 2150 1069 2176 1299 2176 
C 1715 2176 2042 1902 2042 1210 
z
" transform="scale(0.015625)"/>
     </defs>
     <use xlink:href="#LinLibertineT-31" transform="scale(0.996264)"/>
     <use xlink:href="#LinLibertineT-35" transform="translate(46.326292 0) scale(0.996264)"/>
     <use xlink:href="#LinLibertineT-2e" transform="translate(92.652583 0) scale(0.996264)"/>
     <use xlink:href="#LinLibertineT-36" transform="translate(114.570407 0) scale(0.996264)"/>
     <use xlink:href="#LinLibertineT-25" transform="translate(160.896698 0) scale(0.996264)"/>
    </g>
   </g>
   <g id="text_5">
    <!-- HTTPS -->
    <g transform="translate(144.801225 128.56225) scale(0.07497 -0.07497)">
     <defs>
      <path id="LinLibertineT-48" d="M 3955 780 
L 3955 3372 
C 3955 3910 4064 3942 4512 3942 
C 4550 3981 4550 4120 4512 4160 
C 4250 4160 3923 4160 3680 4160 
C 3443 4160 3136 4160 2854 4160 
C 2816 4120 2816 3981 2854 3942 
C 3302 3942 3411 3909 3411 3365 
L 3411 2317 
L 1222 2317 
L 1222 3365 
C 1222 3909 1331 3942 1779 3942 
C 1818 3981 1818 4120 1779 4160 
C 1536 4160 1274 4160 947 4160 
C 627 4160 365 4160 122 4160 
C 83 4120 83 3981 122 3942 
C 570 3942 678 3910 678 3372 
L 678 780 
C 678 243 570 211 122 211 
C 83 172 83 39 122 0 
C 403 0 710 0 954 0 
C 1184 0 1498 0 1779 0 
C 1818 39 1818 172 1779 211 
C 1331 211 1222 243 1222 774 
L 1222 2048 
L 3411 2048 
L 3411 774 
C 3411 243 3302 211 2854 211 
C 2816 172 2816 39 2854 0 
C 3142 0 3450 0 3686 0 
C 3923 0 4230 0 4512 0 
C 4550 39 4550 172 4512 211 
C 4064 211 3955 243 3955 780 
z
" transform="scale(0.015625)"/>
      <path id="LinLibertineT-54" d="M 2240 776 
L 2240 3229 
C 2240 3641 2304 3885 2534 3885 
L 2675 3885 
C 3155 3885 3456 3718 3565 3225 
C 3635 3225 3725 3231 3782 3257 
C 3738 3549 3706 3874 3699 4160 
C 3699 4160 3686 4160 3680 4160 
C 3462 4160 2752 4160 2246 4160 
L 1696 4160 
C 1203 4160 448 4160 205 4186 
C 192 4186 179 4173 179 4167 
C 154 3878 90 3546 19 3238 
C 83 3212 160 3206 237 3206 
C 365 3718 659 3885 1082 3885 
L 1395 3885 
C 1632 3885 1696 3641 1696 3249 
L 1696 776 
C 1696 243 1587 211 1075 211 
C 1037 172 1037 39 1075 0 
C 1389 0 1715 0 1971 0 
C 2214 0 2541 0 2861 0 
C 2899 39 2899 172 2861 211 
C 2349 211 2240 243 2240 776 
z
" transform="scale(0.015625)"/>
      <path id="LinLibertineT-50" d="M 1210 3559 
C 1210 3744 1306 3968 1766 3968 
C 2208 3968 2650 3821 2650 3014 
C 2650 2328 2317 2048 1696 2048 
C 1536 2048 1280 2048 1210 2074 
L 1210 3559 
z
M 666 3372 
L 666 780 
C 666 243 557 211 109 211 
C 70 172 70 39 109 0 
C 397 0 710 0 941 0 
C 1165 0 1542 0 1862 0 
C 1901 39 1901 172 1862 211 
C 1363 211 1210 237 1210 778 
L 1210 1888 
C 1350 1843 1504 1824 1728 1824 
C 2893 1824 3245 2583 3245 3126 
C 3245 3502 2995 4186 1811 4186 
C 1568 4186 1190 4160 934 4160 
C 698 4160 365 4160 109 4160 
C 70 4120 70 3981 109 3942 
C 557 3942 666 3910 666 3372 
z
" transform="scale(0.015625)"/>
      <path id="LinLibertineT-53" d="M 2528 4051 
C 2157 4102 2170 4224 1542 4224 
C 896 4224 326 3794 326 3114 
C 326 2439 883 2131 1446 1913 
C 1830 1766 2304 1585 2304 957 
C 2304 436 2016 167 1504 167 
C 909 167 525 443 384 1078 
C 301 1104 237 1091 173 1059 
C 198 564 224 398 301 83 
C 704 83 883 -64 1453 -64 
C 1741 -64 2016 6 2240 148 
C 2611 378 2842 771 2842 1181 
C 2842 1862 2330 2163 1805 2362 
C 1421 2504 781 2748 781 3287 
C 781 3647 1107 4006 1485 4006 
C 2106 4006 2304 3607 2432 3184 
C 2502 3171 2586 3178 2643 3223 
C 2618 3531 2592 3710 2528 4051 
z
" transform="scale(0.015625)"/>
     </defs>
     <use xlink:href="#LinLibertineT-48" transform="scale(0.996264)"/>
     <use xlink:href="#LinLibertineT-54" transform="translate(76.413371 0) scale(0.996264)"/>
     <use xlink:href="#LinLibertineT-54" transform="translate(141.369827 0) scale(0.996264)"/>
     <use xlink:href="#LinLibertineT-50" transform="translate(200.8468 0) scale(0.996264)"/>
     <use xlink:href="#LinLibertineT-53" transform="translate(254.74472 0) scale(0.996264)"/>
    </g>
   </g>
   <g id="text_6">
    <!-- 9.9\% -->
    <g transform="translate(123.078914 119.29007) scale(0.09 -0.09)">
     <use xlink:href="#LinLibertineT-39" transform="scale(0.996264)"/>
     <use xlink:href="#LinLibertineT-2e" transform="translate(46.326292 0) scale(0.996264)"/>
     <use xlink:href="#LinLibertineT-39" transform="translate(68.244115 0) scale(0.996264)"/>
     <use xlink:href="#LinLibertineT-25" transform="translate(114.570407 0) scale(0.996264)"/>
    </g>
   </g>
   <g id="text_7">
    <!-- PTR -->
    <g transform="translate(155.923766 104.304707) scale(0.07497 -0.07497)">
     <defs>
      <path id="LinLibertineT-52" d="M 1741 3968 
C 2131 3968 2592 3826 2592 3063 
C 2592 2255 2138 2074 1517 2074 
L 1210 2074 
L 1210 3554 
C 1210 3741 1286 3968 1741 3968 
z
M 1210 774 
L 1210 1856 
C 1747 1856 1869 1760 1958 1614 
L 2643 504 
C 2829 204 3104 -64 3488 -64 
C 3584 -64 3693 -51 3757 -19 
C 3782 26 3776 83 3750 135 
C 3462 135 3302 352 3136 626 
L 2330 1965 
C 2605 2056 3181 2393 3181 3073 
C 3181 3397 3072 3662 2842 3882 
C 2534 4173 2138 4173 1734 4173 
C 1434 4173 1165 4160 934 4160 
C 710 4160 410 4160 109 4160 
C 70 4120 70 3981 109 3942 
C 557 3942 666 3910 666 3372 
L 666 780 
C 666 243 557 211 109 211 
C 70 172 70 39 109 0 
C 397 0 698 0 941 0 
C 1184 0 1485 0 1766 0 
C 1805 39 1805 172 1766 211 
C 1318 211 1210 243 1210 774 
z
" transform="scale(0.015625)"/>
     </defs>
     <use xlink:href="#LinLibertineT-50" transform="scale(0.996264)"/>
     <use xlink:href="#LinLibertineT-54" transform="translate(53.897919 0) scale(0.996264)"/>
     <use xlink:href="#LinLibertineT-52" transform="translate(113.374893 0) scale(0.996264)"/>
    </g>
   </g>
   <g id="text_8">
    <!-- 1.7\% -->
    <g transform="translate(131.673605 100.545606) scale(0.09 -0.09)">
     <use xlink:href="#LinLibertineT-31" transform="scale(0.996264)"/>
     <use xlink:href="#LinLibertineT-2e" transform="translate(46.326292 0) scale(0.996264)"/>
     <use xlink:href="#LinLibertineT-37" transform="translate(68.244115 0) scale(0.996264)"/>
     <use xlink:href="#LinLibertineT-25" transform="translate(114.570407 0) scale(0.996264)"/>
    </g>
   </g>
   <g id="text_9">
    <!-- Others -->
    <g transform="translate(157.823544 93.425714) scale(0.07497 -0.07497)">
     <defs>
      <path id="LinLibertineT-4f" d="M 2118 3993 
C 2963 3993 3648 3287 3648 1990 
C 3648 841 3098 167 2368 167 
C 1587 167 851 867 851 2099 
C 851 3447 1485 3993 2118 3993 
z
M 4262 2112 
C 4262 3441 3347 4224 2202 4224 
C 960 4224 237 3235 237 1990 
C 237 726 1152 -64 2240 -64 
C 2950 -64 3514 244 3866 745 
C 4122 1111 4262 1573 4262 2112 
z
" transform="scale(0.015625)"/>
      <path id="LinLibertineT-74" d="M 275 2752 
C 186 2752 160 2675 160 2623 
L 160 2540 
C 160 2509 166 2502 192 2502 
L 570 2502 
L 570 571 
C 570 115 768 -64 1062 -64 
C 1357 -64 1677 77 1926 360 
C 1914 424 1875 463 1811 469 
C 1645 340 1453 289 1286 289 
C 1114 289 1075 481 1075 879 
L 1075 2502 
L 1741 2502 
C 1805 2502 1894 2528 1894 2586 
L 1894 2714 
C 1894 2740 1875 2752 1843 2752 
L 1075 2752 
L 1075 3006 
C 1075 3426 1101 3685 1101 3685 
C 1101 3725 1082 3744 1050 3744 
C 1024 3744 966 3718 909 3685 
C 838 3647 774 3614 691 3594 
C 614 3569 550 3549 550 3504 
C 550 3426 570 3471 570 2752 
L 275 2752 
z
" transform="scale(0.015625)"/>
      <path id="LinLibertineT-68" d="M 1069 1837 
C 1069 1972 1126 2048 1178 2106 
C 1421 2342 1747 2482 1997 2482 
C 2125 2482 2259 2399 2336 2252 
C 2400 2125 2413 1953 2413 1761 
L 2413 791 
C 2413 269 2349 243 2016 211 
C 1984 172 1984 39 2016 0 
C 2195 0 2413 0 2669 0 
C 2925 0 3136 0 3347 0 
C 3379 39 3379 172 3347 211 
C 2989 243 2918 269 2918 791 
L 2918 1743 
C 2918 2094 2893 2407 2746 2599 
C 2637 2739 2438 2816 2214 2816 
C 1901 2816 1517 2732 1126 2296 
C 1107 2270 1062 2206 1062 2296 
L 1069 3741 
C 1069 4158 1094 4416 1094 4416 
C 1094 4460 1069 4480 1011 4480 
C 851 4414 371 4320 115 4300 
C 102 4246 115 4140 154 4100 
C 486 4100 563 4132 563 3591 
L 563 778 
C 563 244 486 218 115 218 
C 77 178 77 40 115 0 
C 326 0 563 0 819 0 
C 1062 0 1274 0 1453 0 
C 1491 39 1491 172 1453 211 
C 1126 236 1069 262 1069 791 
L 1069 1837 
z
" transform="scale(0.015625)"/>
      <path id="LinLibertineT-65" d="M 794 1831 
C 915 2547 1363 2604 1517 2604 
C 1760 2604 2048 2467 2048 1922 
C 2048 1863 2022 1831 1952 1831 
L 794 1831 
z
M 2470 600 
C 2234 354 2048 250 1677 250 
C 1446 250 1178 386 979 715 
C 851 929 774 1226 774 1600 
L 2477 1600 
C 2554 1600 2598 1638 2598 1708 
C 2598 2243 2406 2816 1517 2816 
C 960 2816 237 2281 237 1302 
C 237 941 326 593 538 348 
C 755 91 1056 -64 1517 -64 
C 2003 -64 2349 161 2605 497 
C 2586 562 2547 594 2470 600 
z
" transform="scale(0.015625)"/>
      <path id="LinLibertineT-72" d="M 1126 2296 
C 1114 2553 1107 2719 1075 2784 
C 1062 2816 1050 2835 998 2835 
C 819 2764 653 2707 211 2649 
C 198 2610 211 2508 224 2469 
C 570 2436 640 2404 640 2031 
L 640 777 
C 640 244 563 218 166 218 
C 128 178 128 40 166 0 
C 390 0 640 0 896 0 
C 1152 0 1446 0 1670 0 
C 1709 39 1709 172 1670 211 
C 1222 243 1146 262 1146 791 
L 1146 1678 
C 1146 1844 1222 1990 1299 2106 
C 1370 2207 1517 2418 1594 2418 
C 1651 2418 1709 2405 1760 2335 
C 1805 2271 1882 2188 1990 2188 
C 2144 2188 2291 2348 2291 2508 
C 2291 2630 2176 2816 1907 2816 
C 1606 2816 1344 2533 1197 2283 
C 1158 2213 1126 2264 1126 2296 
z
" transform="scale(0.015625)"/>
      <path id="LinLibertineT-73" d="M 307 886 
C 333 572 352 269 352 0 
C 416 13 480 19 512 19 
C 557 19 595 19 640 6 
C 813 -38 986 -64 1222 -64 
C 1581 -64 2240 109 2240 744 
C 2240 1180 1926 1437 1491 1597 
C 1107 1745 851 1841 851 2193 
C 851 2456 1082 2604 1299 2604 
C 1440 2604 1811 2553 1894 2007 
C 1933 1969 2061 1969 2099 2008 
C 2118 2241 2131 2480 2138 2694 
C 1939 2726 1632 2816 1299 2816 
C 826 2816 397 2508 397 2097 
C 397 1629 608 1430 1101 1225 
C 1632 1007 1754 872 1754 596 
C 1754 282 1446 148 1210 148 
C 960 148 819 230 755 300 
C 614 447 544 727 506 885 
C 467 924 346 924 307 886 
z
" transform="scale(0.015625)"/>
     </defs>
     <use xlink:href="#LinLibertineT-4f" transform="scale(0.996264)"/>
     <use xlink:href="#LinLibertineT-74" transform="translate(69.9377 0) scale(0.996264)"/>
     <use xlink:href="#LinLibertineT-68" transform="translate(101.419634 0) scale(0.996264)"/>
     <use xlink:href="#LinLibertineT-65" transform="translate(155.01864 0) scale(0.996264)"/>
     <use xlink:href="#LinLibertineT-72" transform="translate(199.551593 0) scale(0.996264)"/>
     <use xlink:href="#LinLibertineT-73" transform="translate(236.612581 0) scale(0.996264)"/>
    </g>
   </g>
   <g id="text_10">
    <!-- 3.1\% -->
    <g transform="translate(133.141615 92.139111) scale(0.09 -0.09)">
     <defs>
      <path id="LinLibertineT-33" d="M 1376 3680 
C 1651 3680 1907 3513 1907 3105 
C 1907 2784 1536 2292 902 2202 
L 934 1997 
C 1043 2010 1158 2010 1242 2010 
C 1606 2010 2080 1907 2080 1185 
C 2080 334 1510 160 1286 160 
C 960 160 902 308 826 422 
C 762 512 678 589 550 589 
C 416 589 282 467 282 365 
C 282 109 819 -64 1203 -64 
C 1965 -64 2643 429 2643 1273 
C 2643 1971 2118 2221 1741 2285 
L 1734 2298 
C 2259 2548 2406 2810 2406 3149 
C 2406 3341 2362 3495 2208 3654 
C 2067 3795 1843 3904 1510 3904 
C 570 3904 301 3290 301 3079 
C 301 2989 365 2861 518 2861 
C 742 2861 768 3072 768 3193 
C 768 3603 1210 3680 1376 3680 
z
" transform="scale(0.015625)"/>
     </defs>
     <use xlink:href="#LinLibertineT-33" transform="scale(0.996264)"/>
     <use xlink:href="#LinLibertineT-2e" transform="translate(46.326292 0) scale(0.996264)"/>
     <use xlink:href="#LinLibertineT-31" transform="translate(68.244115 0) scale(0.996264)"/>
     <use xlink:href="#LinLibertineT-25" transform="translate(114.570407 0) scale(0.996264)"/>
    </g>
   </g>
  </g>
 </g>
</svg>
