<?xml version="1.0" encoding="utf-8" standalone="no"?>
<!DOCTYPE svg PUBLIC "-//W3C//DTD SVG 1.1//EN"
  "http://www.w3.org/Graphics/SVG/1.1/DTD/svg11.dtd">
<svg xmlns:xlink="http://www.w3.org/1999/xlink" width="178.306914pt" height="167.626385pt" viewBox="0 0 178.306914 167.626385" xmlns="http://www.w3.org/2000/svg" version="1.1">
 <metadata>
  <rdf:RDF xmlns:dc="http://purl.org/dc/elements/1.1/" xmlns:cc="http://creativecommons.org/ns#" xmlns:rdf="http://www.w3.org/1999/02/22-rdf-syntax-ns#">
   <cc:Work>
    <dc:type rdf:resource="http://purl.org/dc/dcmitype/StillImage"/>
    <dc:date>2023-07-18T15:15:11.436176</dc:date>
    <dc:format>image/svg+xml</dc:format>
    <dc:creator>
     <cc:Agent>
      <dc:title>Matplotlib v3.7.2, https://matplotlib.org/</dc:title>
     </cc:Agent>
    </dc:creator>
   </cc:Work>
  </rdf:RDF>
 </metadata>
 <defs>
  <style type="text/css">*{stroke-linejoin: round; stroke-linecap: butt}</style>
 </defs>
 <g id="figure_1">
  <g id="patch_1">
   <path d="M 0 167.626385 
L 178.306914 167.626385 
L 178.306914 0 
L 0 0 
L 0 167.626385 
z
" style="fill: none"/>
  </g>
  <g id="axes_1">
   <g id="patch_2">
    <path d="M 150.287747 83.813193 
C 150.287747 74.450738 148.309797 65.193044 144.483783 56.648035 
C 140.657769 48.103026 135.069313 40.46193 128.085393 34.226515 
C 121.101472 27.991099 112.878378 23.300906 103.956097 20.463925 
C 95.033816 17.626944 85.612019 16.706664 76.309405 17.763518 
C 67.006792 18.820372 58.031544 21.830707 49.97304 26.596845 
C 41.914536 31.362983 34.953116 37.778262 29.545914 45.421412 
C 24.138713 53.064561 20.406737 61.764534 18.595055 70.950032 
C 16.783373 80.13553 16.932528 89.60099 19.032725 98.724845 
L 83.813193 83.813193 
z
" style="fill: #e31a1c"/>
   </g>
   <g id="patch_3">
    <path d="M 19.032725 98.724845 
C 21.603359 109.892412 27.018621 120.207776 34.750786 128.665691 
C 42.482951 137.123606 52.272418 143.440104 63.165189 146.999633 
L 83.813193 83.813193 
z
" style="fill: #fb9a99"/>
   </g>
   <g id="patch_4">
    <path d="M 63.165189 146.999633 
C 76.255733 151.277348 90.357644 151.383139 103.510893 147.302301 
C 116.664142 143.221463 128.229731 135.152248 136.600156 124.216198 
L 83.813193 83.813193 
z
" style="fill: #fdbf6f"/>
   </g>
   <g id="patch_5">
    <path d="M 136.600156 124.216198 
C 137.087944 123.578897 137.564151 122.932815 138.028543 122.278269 
C 138.492935 121.623723 138.945435 120.96082 139.385821 120.289888 
L 83.813193 83.813193 
z
" style="fill: #1f78b4"/>
   </g>
   <g id="patch_6">
    <path d="M 139.385821 120.289888 
C 142.521661 115.512403 145.028382 110.350425 146.843912 104.931781 
C 148.659441 99.513137 149.768667 93.882925 150.144123 88.180567 
L 83.813193 83.813193 
z
" style="fill: #ffff99"/>
   </g>
   <g id="patch_7">
    <path d="M 150.144123 88.180567 
C 150.191818 87.456183 150.227644 86.731066 150.251586 86.005508 
C 150.275527 85.27995 150.287582 84.554048 150.287745 83.828095 
L 83.813193 83.813193 
z
" style="fill: #a6cee3"/>
   </g>
   <g id="patch_8">
    <path d="M 150.287745 83.828095 
C 150.287745 83.825612 150.287746 83.823129 150.287746 83.820647 
C 150.287746 83.818164 150.287747 83.815681 150.287747 83.813198 
L 83.813193 83.813193 
z
" style="fill: #cccccc"/>
   </g>
   <g id="matplotlib.axis_1"/>
   <g id="matplotlib.axis_2"/>
   <g id="text_1">
    <!-- A -->
    <g transform="translate(70.368089 12.907227) scale(0.07497 -0.07497)">
     <defs>
      <path id="LinLibertineT-41" d="M 1683 1805 
C 1542 1805 1498 1824 1523 1888 
L 2176 3560 
L 2214 3560 
L 2816 1805 
L 1683 1805 
z
M 992 512 
L 1344 1429 
C 1376 1510 1414 1536 1568 1536 
L 2918 1536 
L 3290 454 
C 3366 237 3123 211 2816 211 
C 2778 172 2778 39 2816 0 
C 3053 0 3405 0 3654 0 
C 3917 0 4160 0 4384 0 
C 4422 39 4422 173 4384 212 
C 4134 236 3917 256 3808 564 
L 2490 4224 
C 2394 4166 2221 4096 2138 4096 
L 685 648 
C 518 250 326 211 45 211 
C 6 172 6 39 45 0 
C 211 0 422 0 614 0 
C 877 0 1197 0 1434 0 
C 1472 38 1472 170 1434 209 
C 1190 228 890 253 992 512 
z
" transform="scale(0.015625)"/>
     </defs>
     <use xlink:href="#LinLibertineT-41" transform="scale(0.996264)"/>
    </g>
   </g>
   <g id="text_2">
    <!-- 53.6\% -->
    <g transform="translate(67.338846 29.770229) scale(0.09 -0.09)">
     <defs>
      <path id="LinLibertineT-35" d="M 2042 1210 
C 2042 606 1722 161 1338 161 
C 1094 161 1011 320 915 448 
C 832 556 723 651 589 651 
C 467 651 346 543 346 414 
C 346 154 890 -64 1254 -64 
C 2048 -64 2611 523 2611 1325 
C 2611 1943 2182 2497 1466 2497 
C 1190 2497 954 2439 838 2394 
L 966 3461 
C 1203 3439 1408 3410 1715 3410 
C 1907 3410 2125 3410 2387 3436 
L 2490 3878 
L 2445 3904 
C 2080 3867 1734 3840 1395 3840 
C 1158 3840 928 3840 704 3865 
L 486 2024 
C 826 2150 1069 2176 1299 2176 
C 1715 2176 2042 1902 2042 1210 
z
" transform="scale(0.015625)"/>
      <path id="LinLibertineT-33" d="M 1376 3680 
C 1651 3680 1907 3513 1907 3105 
C 1907 2784 1536 2292 902 2202 
L 934 1997 
C 1043 2010 1158 2010 1242 2010 
C 1606 2010 2080 1907 2080 1185 
C 2080 334 1510 160 1286 160 
C 960 160 902 308 826 422 
C 762 512 678 589 550 589 
C 416 589 282 467 282 365 
C 282 109 819 -64 1203 -64 
C 1965 -64 2643 429 2643 1273 
C 2643 1971 2118 2221 1741 2285 
L 1734 2298 
C 2259 2548 2406 2810 2406 3149 
C 2406 3341 2362 3495 2208 3654 
C 2067 3795 1843 3904 1510 3904 
C 570 3904 301 3290 301 3079 
C 301 2989 365 2861 518 2861 
C 742 2861 768 3072 768 3193 
C 768 3603 1210 3680 1376 3680 
z
" transform="scale(0.015625)"/>
      <path id="LinLibertineT-2e" d="M 365 276 
C 365 90 518 -64 704 -64 
C 890 -64 1043 90 1043 276 
C 1043 462 890 616 704 616 
C 518 616 365 462 365 276 
z
" transform="scale(0.015625)"/>
      <path id="LinLibertineT-36" d="M 864 1971 
C 1075 2112 1286 2112 1395 2112 
C 2022 2112 2163 1500 2163 1181 
C 2163 480 1894 161 1581 161 
C 1178 161 813 378 813 1473 
C 813 1619 826 1786 864 1971 
z
M 922 2202 
C 1094 2786 1504 3433 2355 3754 
C 2355 3831 2330 3889 2278 3921 
C 1632 3728 1235 3459 877 3043 
C 480 2582 282 1999 282 1493 
C 282 193 1018 -64 1510 -64 
C 2349 -64 2694 749 2694 1300 
C 2694 1850 2400 2343 1530 2343 
C 1363 2343 1114 2292 922 2202 
z
" transform="scale(0.015625)"/>
      <path id="LinLibertineT-25" d="M 2771 548 
C 2771 922 3034 1465 3347 1465 
C 3437 1465 3616 1407 3616 1071 
C 3616 710 3405 135 3053 135 
C 2931 135 2771 213 2771 548 
z
M 2419 646 
C 2419 304 2624 -64 3014 -64 
C 3546 -64 3827 646 3827 1077 
C 3827 1547 3533 1664 3277 1664 
C 2803 1664 2419 1173 2419 646 
z
M 2330 3374 
C 2214 3374 1990 3374 1645 3515 
C 1581 3582 1395 3655 1216 3655 
C 755 3655 365 3211 365 2659 
C 365 2340 557 1977 954 1977 
C 1491 1977 1773 2701 1773 3111 
C 1773 3168 1766 3226 1754 3271 
C 1875 3200 2118 3136 2266 3136 
C 2458 3136 2707 3162 2950 3258 
L 653 33 
L 870 -64 
L 3494 3579 
L 3290 3681 
C 3091 3441 2598 3374 2330 3374 
z
M 710 2574 
C 710 2935 973 3456 1286 3456 
C 1402 3456 1562 3388 1562 3077 
C 1562 2717 1344 2176 992 2176 
C 877 2176 710 2251 710 2574 
z
" transform="scale(0.015625)"/>
     </defs>
     <use xlink:href="#LinLibertineT-35" transform="scale(0.996264)"/>
     <use xlink:href="#LinLibertineT-33" transform="translate(46.326292 0) scale(0.996264)"/>
     <use xlink:href="#LinLibertineT-2e" transform="translate(92.652583 0) scale(0.996264)"/>
     <use xlink:href="#LinLibertineT-36" transform="translate(114.570407 0) scale(0.996264)"/>
     <use xlink:href="#LinLibertineT-25" transform="translate(160.896698 0) scale(0.996264)"/>
    </g>
   </g>
   <g id="text_3">
    <!-- AAAA -->
    <g transform="translate(9.080796 134.899617) scale(0.07497 -0.07497)">
     <use xlink:href="#LinLibertineT-41" transform="scale(0.996264)"/>
     <use xlink:href="#LinLibertineT-41" transform="translate(69.240318 0) scale(0.996264)"/>
     <use xlink:href="#LinLibertineT-41" transform="translate(138.480637 0) scale(0.996264)"/>
     <use xlink:href="#LinLibertineT-41" transform="translate(207.720955 0) scale(0.996264)"/>
    </g>
   </g>
   <g id="text_4">
    <!-- 16.4\% -->
    <g transform="translate(32.01402 124.037076) scale(0.09 -0.09)">
     <defs>
      <path id="LinLibertineT-31" d="M 1843 779 
L 1843 3021 
C 1843 3409 1850 3802 1862 3886 
C 1862 3919 1850 3919 1824 3919 
C 1472 3700 1133 3540 570 3277 
C 582 3207 608 3141 666 3103 
C 960 3226 1101 3264 1222 3264 
C 1331 3264 1350 3109 1350 2889 
L 1350 780 
C 1350 243 1178 211 730 211 
C 691 172 691 39 730 0 
C 1043 0 1274 0 1619 0 
C 1926 0 2080 0 2400 0 
C 2438 39 2438 172 2400 211 
C 1952 211 1843 243 1843 779 
z
" transform="scale(0.015625)"/>
      <path id="LinLibertineT-34" d="M 1734 3251 
L 1734 1408 
L 512 1408 
C 838 1933 1293 2649 1734 3251 
z
M 2752 1408 
L 2221 1408 
L 2221 3281 
C 2221 3602 2221 3852 2234 3904 
L 2221 3904 
L 2016 3904 
C 1971 3904 1939 3866 1914 3834 
C 1510 3342 768 2288 179 1375 
C 198 1278 237 1106 429 1106 
L 1734 1106 
L 1734 509 
C 1734 211 1491 211 1216 211 
C 1178 172 1178 39 1216 0 
C 1421 0 1677 0 1971 0 
C 2221 0 2464 0 2669 0 
C 2707 39 2707 171 2669 210 
C 2355 235 2221 223 2221 521 
L 2221 1106 
L 2662 1106 
C 2752 1106 2848 1228 2848 1305 
C 2848 1369 2822 1408 2752 1408 
z
" transform="scale(0.015625)"/>
     </defs>
     <use xlink:href="#LinLibertineT-31" transform="scale(0.996264)"/>
     <use xlink:href="#LinLibertineT-36" transform="translate(46.326292 0) scale(0.996264)"/>
     <use xlink:href="#LinLibertineT-2e" transform="translate(92.652583 0) scale(0.996264)"/>
     <use xlink:href="#LinLibertineT-34" transform="translate(114.570407 0) scale(0.996264)"/>
     <use xlink:href="#LinLibertineT-25" transform="translate(160.896698 0) scale(0.996264)"/>
    </g>
   </g>
   <g id="text_5">
    <!-- PTR -->
    <g transform="translate(105.480663 155.399888) scale(0.07497 -0.07497)">
     <defs>
      <path id="LinLibertineT-50" d="M 1210 3559 
C 1210 3744 1306 3968 1766 3968 
C 2208 3968 2650 3821 2650 3014 
C 2650 2328 2317 2048 1696 2048 
C 1536 2048 1280 2048 1210 2074 
L 1210 3559 
z
M 666 3372 
L 666 780 
C 666 243 557 211 109 211 
C 70 172 70 39 109 0 
C 397 0 710 0 941 0 
C 1165 0 1542 0 1862 0 
C 1901 39 1901 172 1862 211 
C 1363 211 1210 237 1210 778 
L 1210 1888 
C 1350 1843 1504 1824 1728 1824 
C 2893 1824 3245 2583 3245 3126 
C 3245 3502 2995 4186 1811 4186 
C 1568 4186 1190 4160 934 4160 
C 698 4160 365 4160 109 4160 
C 70 4120 70 3981 109 3942 
C 557 3942 666 3910 666 3372 
z
" transform="scale(0.015625)"/>
      <path id="LinLibertineT-54" d="M 2240 776 
L 2240 3229 
C 2240 3641 2304 3885 2534 3885 
L 2675 3885 
C 3155 3885 3456 3718 3565 3225 
C 3635 3225 3725 3231 3782 3257 
C 3738 3549 3706 3874 3699 4160 
C 3699 4160 3686 4160 3680 4160 
C 3462 4160 2752 4160 2246 4160 
L 1696 4160 
C 1203 4160 448 4160 205 4186 
C 192 4186 179 4173 179 4167 
C 154 3878 90 3546 19 3238 
C 83 3212 160 3206 237 3206 
C 365 3718 659 3885 1082 3885 
L 1395 3885 
C 1632 3885 1696 3641 1696 3249 
L 1696 776 
C 1696 243 1587 211 1075 211 
C 1037 172 1037 39 1075 0 
C 1389 0 1715 0 1971 0 
C 2214 0 2541 0 2861 0 
C 2899 39 2899 172 2861 211 
C 2349 211 2240 243 2240 776 
z
" transform="scale(0.015625)"/>
      <path id="LinLibertineT-52" d="M 1741 3968 
C 2131 3968 2592 3826 2592 3063 
C 2592 2255 2138 2074 1517 2074 
L 1210 2074 
L 1210 3554 
C 1210 3741 1286 3968 1741 3968 
z
M 1210 774 
L 1210 1856 
C 1747 1856 1869 1760 1958 1614 
L 2643 504 
C 2829 204 3104 -64 3488 -64 
C 3584 -64 3693 -51 3757 -19 
C 3782 26 3776 83 3750 135 
C 3462 135 3302 352 3136 626 
L 2330 1965 
C 2605 2056 3181 2393 3181 3073 
C 3181 3397 3072 3662 2842 3882 
C 2534 4173 2138 4173 1734 4173 
C 1434 4173 1165 4160 934 4160 
C 710 4160 410 4160 109 4160 
C 70 4120 70 3981 109 3942 
C 557 3942 666 3910 666 3372 
L 666 780 
C 666 243 557 211 109 211 
C 70 172 70 39 109 0 
C 397 0 698 0 941 0 
C 1184 0 1485 0 1766 0 
C 1805 39 1805 172 1766 211 
C 1318 211 1210 243 1210 774 
z
" transform="scale(0.015625)"/>
     </defs>
     <use xlink:href="#LinLibertineT-50" transform="scale(0.996264)"/>
     <use xlink:href="#LinLibertineT-54" transform="translate(53.897919 0) scale(0.996264)"/>
     <use xlink:href="#LinLibertineT-52" transform="translate(113.374893 0) scale(0.996264)"/>
    </g>
   </g>
   <g id="text_6">
    <!-- 19.6\% -->
    <g transform="translate(90.460111 139.878195) scale(0.09 -0.09)">
     <defs>
      <path id="LinLibertineT-39" d="M 2150 1837 
C 1939 1696 1728 1696 1619 1696 
C 992 1696 851 2309 851 2628 
C 851 3329 1120 3648 1434 3648 
C 1837 3648 2202 3430 2202 2336 
C 2202 2195 2189 2022 2150 1837 
z
M 2093 1613 
C 1920 1029 1510 381 659 61 
C 659 -16 685 -74 736 -106 
C 1382 86 1779 355 2138 771 
C 2534 1231 2733 1813 2733 2318 
C 2733 3617 1997 3872 1504 3872 
C 666 3872 320 3062 320 2512 
C 320 1964 614 1472 1485 1472 
C 1651 1472 1901 1523 2093 1613 
z
" transform="scale(0.015625)"/>
     </defs>
     <use xlink:href="#LinLibertineT-31" transform="scale(0.996264)"/>
     <use xlink:href="#LinLibertineT-39" transform="translate(46.326292 0) scale(0.996264)"/>
     <use xlink:href="#LinLibertineT-2e" transform="translate(92.652583 0) scale(0.996264)"/>
     <use xlink:href="#LinLibertineT-36" transform="translate(114.570407 0) scale(0.996264)"/>
     <use xlink:href="#LinLibertineT-25" transform="translate(160.896698 0) scale(0.996264)"/>
    </g>
   </g>
   <g id="text_7">
    <!-- TXT -->
    <g transform="translate(143.450078 127.873453) scale(0.07497 -0.07497)">
     <defs>
      <path id="LinLibertineT-58" d="M 3443 667 
L 2464 2013 
C 2400 2095 2362 2160 2362 2224 
C 2362 2281 2368 2339 2426 2416 
L 3302 3550 
C 3526 3839 3725 3922 4013 3948 
C 4051 3986 4051 4121 4013 4160 
C 3821 4160 3584 4160 3437 4160 
C 3290 4160 3021 4160 2765 4160 
C 2726 4120 2726 3981 2765 3942 
C 3046 3942 3168 3903 3014 3692 
L 2227 2569 
C 2189 2518 2150 2492 2125 2492 
C 2106 2492 2080 2518 2048 2563 
L 1344 3615 
C 1158 3871 1133 3942 1491 3942 
C 1530 3981 1530 4120 1491 4160 
C 1254 4160 1018 4160 762 4160 
C 512 4160 301 4160 109 4160 
C 70 4121 77 3986 115 3948 
C 384 3929 506 3897 768 3518 
L 1677 2217 
C 1728 2140 1766 2089 1766 2025 
C 1766 1986 1741 1929 1702 1877 
L 755 608 
C 538 314 333 237 45 212 
C 6 173 6 39 45 0 
C 237 0 474 0 621 0 
C 768 0 1037 0 1293 0 
C 1331 39 1331 172 1293 211 
C 1011 211 890 243 1043 461 
L 1888 1648 
C 1926 1699 1965 1738 1984 1738 
C 2010 1738 2035 1718 2074 1667 
L 2867 538 
C 3046 282 3072 211 2714 211 
C 2675 172 2675 39 2714 0 
C 2950 0 3187 0 3443 0 
C 3693 0 3904 0 4096 0 
C 4134 39 4128 173 4090 212 
C 3821 231 3712 295 3443 667 
z
" transform="scale(0.015625)"/>
     </defs>
     <use xlink:href="#LinLibertineT-54" transform="scale(0.996264)"/>
     <use xlink:href="#LinLibertineT-58" transform="translate(59.476974 0) scale(0.996264)"/>
     <use xlink:href="#LinLibertineT-54" transform="translate(125.230383 0) scale(0.996264)"/>
    </g>
   </g>
   <g id="text_8">
    <!-- 1.2\% -->
    <g transform="translate(121.884795 118.607767) scale(0.09 -0.09)">
     <defs>
      <path id="LinLibertineT-32" d="M 390 2997 
C 390 2863 512 2747 646 2747 
C 755 2747 947 2863 947 3003 
C 947 3054 934 3093 922 3137 
C 909 3182 870 3239 870 3291 
C 870 3450 1037 3680 1504 3680 
C 1734 3680 2061 3521 2061 2908 
C 2061 2500 1914 2169 1536 1786 
L 1062 1320 
C 435 682 333 377 333 0 
C 333 0 659 0 864 0 
L 1984 0 
C 2189 0 2483 0 2483 0 
C 2566 337 2630 813 2637 1004 
C 2598 1036 2515 1048 2451 1036 
C 2342 582 2234 423 2003 423 
L 864 423 
C 864 730 1306 1164 1338 1196 
L 1984 1815 
C 2349 2167 2624 2448 2624 2933 
C 2624 3623 2061 3904 1542 3904 
C 832 3904 390 3380 390 2997 
z
" transform="scale(0.015625)"/>
     </defs>
     <use xlink:href="#LinLibertineT-31" transform="scale(0.996264)"/>
     <use xlink:href="#LinLibertineT-2e" transform="translate(46.326292 0) scale(0.996264)"/>
     <use xlink:href="#LinLibertineT-32" transform="translate(68.244115 0) scale(0.996264)"/>
     <use xlink:href="#LinLibertineT-25" transform="translate(114.570407 0) scale(0.996264)"/>
    </g>
   </g>
   <g id="text_9">
    <!-- ANY -->
    <g transform="translate(153.146983 108.792316) scale(0.07497 -0.07497)">
     <defs>
      <path id="LinLibertineT-4e" d="M 3558 3256 
L 3558 1158 
C 3558 1036 3558 965 3514 965 
C 3488 965 3392 1082 3206 1320 
L 1011 4122 
L 147 4122 
C 109 4082 109 3943 147 3904 
C 422 3904 614 3674 653 3505 
L 653 828 
C 653 257 544 219 96 174 
C 58 135 58 1 96 -38 
C 371 -38 659 -38 813 -38 
C 960 -38 1254 -38 1523 -38 
C 1562 1 1562 135 1523 174 
C 1075 219 966 244 966 829 
L 966 2793 
C 966 3011 966 3107 1018 3107 
C 1056 3107 1126 3036 1235 2894 
L 3469 58 
C 3539 -38 3622 -96 3725 -96 
C 3814 -96 3872 -19 3872 103 
L 3872 3255 
C 3872 3827 3981 3865 4429 3910 
C 4467 3948 4467 4083 4429 4122 
C 4166 4122 3866 4122 3712 4122 
C 3578 4122 3283 4122 3002 4122 
C 2963 4083 2963 3948 3002 3910 
C 3450 3865 3558 3839 3558 3256 
z
" transform="scale(0.015625)"/>
      <path id="LinLibertineT-59" d="M 2157 777 
L 2157 1654 
C 2157 1847 2163 1950 2272 2143 
L 3034 3535 
C 3213 3864 3354 3921 3642 3947 
C 3680 3985 3680 4121 3642 4160 
C 3462 4160 3258 4160 3110 4160 
C 2963 4160 2733 4160 2528 4160 
C 2490 4120 2490 3981 2528 3942 
C 2810 3942 2912 3878 2778 3621 
L 2067 2281 
C 2016 2184 1984 2191 1926 2293 
L 1184 3608 
C 1030 3878 1056 3942 1414 3942 
C 1453 3981 1453 4120 1414 4160 
C 1184 4160 941 4160 685 4160 
C 435 4160 224 4160 32 4160 
C -6 4121 0 3985 38 3947 
C 307 3928 416 3889 640 3515 
L 1478 2092 
C 1594 1898 1613 1834 1613 1596 
L 1613 777 
C 1613 243 1504 211 992 211 
C 954 172 954 39 992 0 
C 1306 0 1638 0 1888 0 
C 2138 0 2458 0 2778 0 
C 2816 39 2816 172 2778 211 
C 2266 211 2157 243 2157 777 
z
" transform="scale(0.015625)"/>
     </defs>
     <use xlink:href="#LinLibertineT-41" transform="scale(0.996264)"/>
     <use xlink:href="#LinLibertineT-4e" transform="translate(69.240318 0) scale(0.996264)"/>
     <use xlink:href="#LinLibertineT-59" transform="translate(141.27024 0) scale(0.996264)"/>
    </g>
   </g>
   <g id="text_10">
    <!-- 8.2\% -->
    <g transform="translate(129.377858 103.863253) scale(0.09 -0.09)">
     <defs>
      <path id="LinLibertineT-38" d="M 1498 3680 
C 1914 3680 2067 3405 2067 3110 
C 2067 2765 1728 2477 1555 2349 
L 1357 2471 
C 954 2733 909 2944 909 3142 
C 909 3437 1114 3680 1498 3680 
z
M 2515 3104 
C 2515 3565 2157 3904 1530 3904 
C 877 3904 454 3514 454 3020 
C 454 2662 627 2399 1018 2156 
L 1184 2054 
C 998 1958 826 1843 666 1702 
C 403 1471 294 1184 294 934 
C 294 281 755 -64 1434 -64 
C 2272 -64 2682 551 2682 1037 
C 2682 1408 2522 1734 2182 1939 
L 1728 2214 
C 2029 2362 2515 2694 2515 3104 
z
M 1446 160 
C 1158 160 723 359 723 934 
C 723 1127 806 1575 1357 1939 
L 1658 1760 
C 2054 1517 2214 1217 2214 909 
C 2214 269 1734 160 1446 160 
z
" transform="scale(0.015625)"/>
     </defs>
     <use xlink:href="#LinLibertineT-38" transform="scale(0.996264)"/>
     <use xlink:href="#LinLibertineT-2e" transform="translate(46.326292 0) scale(0.996264)"/>
     <use xlink:href="#LinLibertineT-32" transform="translate(68.244115 0) scale(0.996264)"/>
     <use xlink:href="#LinLibertineT-25" transform="translate(114.570407 0) scale(0.996264)"/>
    </g>
   </g>
   <g id="text_11">
    <!-- SRV -->
    <g transform="translate(156.895425 87.973415) scale(0.07497 -0.07497)">
     <defs>
      <path id="LinLibertineT-53" d="M 2528 4051 
C 2157 4102 2170 4224 1542 4224 
C 896 4224 326 3794 326 3114 
C 326 2439 883 2131 1446 1913 
C 1830 1766 2304 1585 2304 957 
C 2304 436 2016 167 1504 167 
C 909 167 525 443 384 1078 
C 301 1104 237 1091 173 1059 
C 198 564 224 398 301 83 
C 704 83 883 -64 1453 -64 
C 1741 -64 2016 6 2240 148 
C 2611 378 2842 771 2842 1181 
C 2842 1862 2330 2163 1805 2362 
C 1421 2504 781 2748 781 3287 
C 781 3647 1107 4006 1485 4006 
C 2106 4006 2304 3607 2432 3184 
C 2502 3171 2586 3178 2643 3223 
C 2618 3531 2592 3710 2528 4051 
z
" transform="scale(0.015625)"/>
      <path id="LinLibertineT-56" d="M 2867 3904 
C 3341 3904 3341 3730 3206 3381 
L 2195 796 
L 2170 796 
L 1146 3404 
C 998 3788 1037 3871 1472 3916 
C 1510 3954 1510 4089 1472 4128 
C 1216 4128 928 4128 698 4128 
C 467 4128 243 4128 32 4128 
C -6 4089 0 3954 38 3916 
C 390 3884 442 3775 614 3333 
L 1875 52 
C 1914 -51 1958 -96 2022 -96 
C 2093 -96 2138 -38 2176 52 
L 3501 3321 
C 3622 3621 3725 3871 4128 3916 
C 4166 3954 4166 4089 4128 4128 
C 3936 4128 3712 4128 3565 4128 
C 3418 4128 3130 4128 2867 4128 
C 2829 4087 2829 3944 2867 3904 
z
" transform="scale(0.015625)"/>
     </defs>
     <use xlink:href="#LinLibertineT-53" transform="scale(0.996264)"/>
     <use xlink:href="#LinLibertineT-52" transform="translate(48.318759 0) scale(0.996264)"/>
     <use xlink:href="#LinLibertineT-56" transform="translate(106.799438 0) scale(0.996264)"/>
    </g>
   </g>
   <g id="text_12">
    <!-- 1.0\% -->
    <g transform="translate(132.274381 87.77592) scale(0.09 -0.09)">
     <defs>
      <path id="LinLibertineT-30" d="M 1485 3680 
C 1594 3680 1696 3641 1773 3571 
C 1971 3405 2144 2919 2144 2061 
C 2144 1472 2125 1069 2035 743 
C 1894 218 1581 160 1466 160 
C 870 160 806 1255 806 1811 
C 806 3386 1197 3680 1485 3680 
z
M 1459 -64 
C 1952 -64 2701 435 2701 1939 
C 2701 2573 2547 3117 2266 3488 
C 2099 3712 1830 3904 1485 3904 
C 851 3904 250 3150 250 1882 
C 250 1196 461 557 813 204 
C 992 26 1210 -64 1459 -64 
z
" transform="scale(0.015625)"/>
     </defs>
     <use xlink:href="#LinLibertineT-31" transform="scale(0.996264)"/>
     <use xlink:href="#LinLibertineT-2e" transform="translate(46.326292 0) scale(0.996264)"/>
     <use xlink:href="#LinLibertineT-30" transform="translate(68.244115 0) scale(0.996264)"/>
     <use xlink:href="#LinLibertineT-25" transform="translate(114.570407 0) scale(0.996264)"/>
    </g>
   </g>
   <g id="text_13">
    <!-- Others -->
    <g transform="translate(156.935201 85.570068) scale(0.07497 -0.07497)">
     <defs>
      <path id="LinLibertineT-4f" d="M 2118 3993 
C 2963 3993 3648 3287 3648 1990 
C 3648 841 3098 167 2368 167 
C 1587 167 851 867 851 2099 
C 851 3447 1485 3993 2118 3993 
z
M 4262 2112 
C 4262 3441 3347 4224 2202 4224 
C 960 4224 237 3235 237 1990 
C 237 726 1152 -64 2240 -64 
C 2950 -64 3514 244 3866 745 
C 4122 1111 4262 1573 4262 2112 
z
" transform="scale(0.015625)"/>
      <path id="LinLibertineT-74" d="M 275 2752 
C 186 2752 160 2675 160 2623 
L 160 2540 
C 160 2509 166 2502 192 2502 
L 570 2502 
L 570 571 
C 570 115 768 -64 1062 -64 
C 1357 -64 1677 77 1926 360 
C 1914 424 1875 463 1811 469 
C 1645 340 1453 289 1286 289 
C 1114 289 1075 481 1075 879 
L 1075 2502 
L 1741 2502 
C 1805 2502 1894 2528 1894 2586 
L 1894 2714 
C 1894 2740 1875 2752 1843 2752 
L 1075 2752 
L 1075 3006 
C 1075 3426 1101 3685 1101 3685 
C 1101 3725 1082 3744 1050 3744 
C 1024 3744 966 3718 909 3685 
C 838 3647 774 3614 691 3594 
C 614 3569 550 3549 550 3504 
C 550 3426 570 3471 570 2752 
L 275 2752 
z
" transform="scale(0.015625)"/>
      <path id="LinLibertineT-68" d="M 1069 1837 
C 1069 1972 1126 2048 1178 2106 
C 1421 2342 1747 2482 1997 2482 
C 2125 2482 2259 2399 2336 2252 
C 2400 2125 2413 1953 2413 1761 
L 2413 791 
C 2413 269 2349 243 2016 211 
C 1984 172 1984 39 2016 0 
C 2195 0 2413 0 2669 0 
C 2925 0 3136 0 3347 0 
C 3379 39 3379 172 3347 211 
C 2989 243 2918 269 2918 791 
L 2918 1743 
C 2918 2094 2893 2407 2746 2599 
C 2637 2739 2438 2816 2214 2816 
C 1901 2816 1517 2732 1126 2296 
C 1107 2270 1062 2206 1062 2296 
L 1069 3741 
C 1069 4158 1094 4416 1094 4416 
C 1094 4460 1069 4480 1011 4480 
C 851 4414 371 4320 115 4300 
C 102 4246 115 4140 154 4100 
C 486 4100 563 4132 563 3591 
L 563 778 
C 563 244 486 218 115 218 
C 77 178 77 40 115 0 
C 326 0 563 0 819 0 
C 1062 0 1274 0 1453 0 
C 1491 39 1491 172 1453 211 
C 1126 236 1069 262 1069 791 
L 1069 1837 
z
" transform="scale(0.015625)"/>
      <path id="LinLibertineT-65" d="M 794 1831 
C 915 2547 1363 2604 1517 2604 
C 1760 2604 2048 2467 2048 1922 
C 2048 1863 2022 1831 1952 1831 
L 794 1831 
z
M 2470 600 
C 2234 354 2048 250 1677 250 
C 1446 250 1178 386 979 715 
C 851 929 774 1226 774 1600 
L 2477 1600 
C 2554 1600 2598 1638 2598 1708 
C 2598 2243 2406 2816 1517 2816 
C 960 2816 237 2281 237 1302 
C 237 941 326 593 538 348 
C 755 91 1056 -64 1517 -64 
C 2003 -64 2349 161 2605 497 
C 2586 562 2547 594 2470 600 
z
" transform="scale(0.015625)"/>
      <path id="LinLibertineT-72" d="M 1126 2296 
C 1114 2553 1107 2719 1075 2784 
C 1062 2816 1050 2835 998 2835 
C 819 2764 653 2707 211 2649 
C 198 2610 211 2508 224 2469 
C 570 2436 640 2404 640 2031 
L 640 777 
C 640 244 563 218 166 218 
C 128 178 128 40 166 0 
C 390 0 640 0 896 0 
C 1152 0 1446 0 1670 0 
C 1709 39 1709 172 1670 211 
C 1222 243 1146 262 1146 791 
L 1146 1678 
C 1146 1844 1222 1990 1299 2106 
C 1370 2207 1517 2418 1594 2418 
C 1651 2418 1709 2405 1760 2335 
C 1805 2271 1882 2188 1990 2188 
C 2144 2188 2291 2348 2291 2508 
C 2291 2630 2176 2816 1907 2816 
C 1606 2816 1344 2533 1197 2283 
C 1158 2213 1126 2264 1126 2296 
z
" transform="scale(0.015625)"/>
      <path id="LinLibertineT-73" d="M 307 886 
C 333 572 352 269 352 0 
C 416 13 480 19 512 19 
C 557 19 595 19 640 6 
C 813 -38 986 -64 1222 -64 
C 1581 -64 2240 109 2240 744 
C 2240 1180 1926 1437 1491 1597 
C 1107 1745 851 1841 851 2193 
C 851 2456 1082 2604 1299 2604 
C 1440 2604 1811 2553 1894 2007 
C 1933 1969 2061 1969 2099 2008 
C 2118 2241 2131 2480 2138 2694 
C 1939 2726 1632 2816 1299 2816 
C 826 2816 397 2508 397 2097 
C 397 1629 608 1430 1101 1225 
C 1632 1007 1754 872 1754 596 
C 1754 282 1446 148 1210 148 
C 960 148 819 230 755 300 
C 614 447 544 727 506 885 
C 467 924 346 924 307 886 
z
" transform="scale(0.015625)"/>
     </defs>
     <use xlink:href="#LinLibertineT-4f" transform="scale(0.996264)"/>
     <use xlink:href="#LinLibertineT-74" transform="translate(69.9377 0) scale(0.996264)"/>
     <use xlink:href="#LinLibertineT-68" transform="translate(101.419634 0) scale(0.996264)"/>
     <use xlink:href="#LinLibertineT-65" transform="translate(155.01864 0) scale(0.996264)"/>
     <use xlink:href="#LinLibertineT-72" transform="translate(199.551593 0) scale(0.996264)"/>
     <use xlink:href="#LinLibertineT-73" transform="translate(236.612581 0) scale(0.996264)"/>
    </g>
   </g>
   <g id="text_14">
    <!-- 0.0\% -->
    <g transform="translate(132.305117 85.918788) scale(0.09 -0.09)">
     <use xlink:href="#LinLibertineT-30" transform="scale(0.996264)"/>
     <use xlink:href="#LinLibertineT-2e" transform="translate(46.326292 0) scale(0.996264)"/>
     <use xlink:href="#LinLibertineT-30" transform="translate(68.244115 0) scale(0.996264)"/>
     <use xlink:href="#LinLibertineT-25" transform="translate(114.570407 0) scale(0.996264)"/>
    </g>
   </g>
  </g>
 </g>
</svg>
