<?xml version="1.0" encoding="utf-8" standalone="no"?>
<!DOCTYPE svg PUBLIC "-//W3C//DTD SVG 1.1//EN"
  "http://www.w3.org/Graphics/SVG/1.1/DTD/svg11.dtd">
<svg xmlns:xlink="http://www.w3.org/1999/xlink" width="179.21052pt" height="90.001452pt" viewBox="0 0 179.21052 90.001452" xmlns="http://www.w3.org/2000/svg" version="1.1">
 <metadata>
  <rdf:RDF xmlns:dc="http://purl.org/dc/elements/1.1/" xmlns:cc="http://creativecommons.org/ns#" xmlns:rdf="http://www.w3.org/1999/02/22-rdf-syntax-ns#">
   <cc:Work>
    <dc:type rdf:resource="http://purl.org/dc/dcmitype/StillImage"/>
    <dc:date>2023-07-18T10:45:50.018260</dc:date>
    <dc:format>image/svg+xml</dc:format>
    <dc:creator>
     <cc:Agent>
      <dc:title>Matplotlib v3.7.2, https://matplotlib.org/</dc:title>
     </cc:Agent>
    </dc:creator>
   </cc:Work>
  </rdf:RDF>
 </metadata>
 <defs>
  <style type="text/css">*{stroke-linejoin: round; stroke-linecap: butt}</style>
 </defs>
 <g id="figure_1">
  <g id="patch_1">
   <path d="M 0 90.001452 
L 179.21052 90.001452 
L 179.21052 0 
L 0 0 
L 0 90.001452 
z
" style="fill: none"/>
  </g>
  <g id="axes_1">
   <g id="patch_2">
    <path d="M 23.488384 70.575669 
L 174.237335 70.575669 
L 174.237335 2.6731 
L 23.488384 2.6731 
z
" style="fill: #ffffff"/>
   </g>
   <g id="matplotlib.axis_1">
    <g id="xtick_1">
     <g id="line2d_1">
      <path d="M 23.488384 70.575669 
L 23.488384 2.6731 
" clip-path="url(#padfa32e2ee)" style="fill: none; stroke: #b0b0b0; stroke-opacity: 0.6; stroke-width: 0.5; stroke-linecap: square"/>
     </g>
     <g id="line2d_2">
      <defs>
       <path id="m7ca9980f4b" d="M 0 0 
L 0 3.5 
" style="stroke: #000000; stroke-width: 0.8"/>
      </defs>
      <g>
       <use xlink:href="#m7ca9980f4b" x="23.488384" y="70.575669" style="stroke: #000000; stroke-width: 0.8"/>
      </g>
     </g>
     <g id="text_1">
      <!-- $\mathdefault{0}$ -->
      <g transform="translate(21.361791 80.313291) scale(0.07497 -0.07497)">
       <defs>
        <path id="CMR17-30" d="M 2688 2025 
C 2688 2416 2682 3080 2413 3591 
C 2176 4039 1798 4198 1466 4198 
C 1158 4198 768 4058 525 3597 
C 269 3118 243 2524 243 2025 
C 243 1661 250 1106 448 619 
C 723 -39 1216 -128 1466 -128 
C 1760 -128 2208 -7 2470 600 
C 2662 1042 2688 1559 2688 2025 
z
M 1466 -26 
C 1056 -26 813 325 723 812 
C 653 1188 653 1738 653 2096 
C 653 2588 653 2997 736 3387 
C 858 3929 1216 4096 1466 4096 
C 1728 4096 2067 3923 2189 3400 
C 2272 3036 2278 2607 2278 2096 
C 2278 1680 2278 1169 2202 792 
C 2067 95 1690 -26 1466 -26 
z
" transform="scale(0.015625)"/>
       </defs>
       <use xlink:href="#CMR17-30" transform="scale(0.996264)"/>
      </g>
     </g>
    </g>
    <g id="xtick_2">
     <g id="line2d_3">
      <path d="M 33.538314 70.575669 
L 33.538314 2.6731 
" clip-path="url(#padfa32e2ee)" style="fill: none; stroke: #b0b0b0; stroke-opacity: 0.6; stroke-width: 0.5; stroke-linecap: square"/>
     </g>
     <g id="line2d_4">
      <g>
       <use xlink:href="#m7ca9980f4b" x="33.538314" y="70.575669" style="stroke: #000000; stroke-width: 0.8"/>
      </g>
     </g>
     <g id="text_2">
      <!-- $\mathdefault{2}$ -->
      <g transform="translate(31.411721 80.313291) scale(0.07497 -0.07497)">
       <defs>
        <path id="CMR17-32" d="M 2669 989 
L 2554 989 
C 2490 536 2438 459 2413 420 
C 2381 369 1920 369 1830 369 
L 602 369 
C 832 619 1280 1072 1824 1597 
C 2214 1967 2669 2402 2669 3035 
C 2669 3790 2067 4224 1395 4224 
C 691 4224 262 3604 262 3030 
C 262 2780 448 2748 525 2748 
C 589 2748 781 2787 781 3010 
C 781 3207 614 3264 525 3264 
C 486 3264 448 3258 422 3245 
C 544 3790 915 4058 1306 4058 
C 1862 4058 2227 3617 2227 3035 
C 2227 2479 1901 2000 1536 1584 
L 262 146 
L 262 0 
L 2515 0 
L 2669 989 
z
" transform="scale(0.015625)"/>
       </defs>
       <use xlink:href="#CMR17-32" transform="scale(0.996264)"/>
      </g>
     </g>
    </g>
    <g id="xtick_3">
     <g id="line2d_5">
      <path d="M 43.588244 70.575669 
L 43.588244 2.6731 
" clip-path="url(#padfa32e2ee)" style="fill: none; stroke: #b0b0b0; stroke-opacity: 0.6; stroke-width: 0.5; stroke-linecap: square"/>
     </g>
     <g id="line2d_6">
      <g>
       <use xlink:href="#m7ca9980f4b" x="43.588244" y="70.575669" style="stroke: #000000; stroke-width: 0.8"/>
      </g>
     </g>
     <g id="text_3">
      <!-- $\mathdefault{4}$ -->
      <g transform="translate(41.461651 80.313291) scale(0.07497 -0.07497)">
       <defs>
        <path id="CMR17-34" d="M 2150 4122 
C 2150 4256 2144 4256 2029 4256 
L 128 1254 
L 128 1088 
L 1779 1088 
L 1779 457 
C 1779 224 1766 160 1318 160 
L 1197 160 
L 1197 0 
C 1402 0 1747 0 1965 0 
C 2182 0 2528 0 2733 0 
L 2733 160 
L 2611 160 
C 2163 160 2150 224 2150 457 
L 2150 1088 
L 2803 1088 
L 2803 1254 
L 2150 1254 
L 2150 4122 
z
M 1798 3703 
L 1798 1254 
L 256 1254 
L 1798 3703 
z
" transform="scale(0.015625)"/>
       </defs>
       <use xlink:href="#CMR17-34" transform="scale(0.996264)"/>
      </g>
     </g>
    </g>
    <g id="xtick_4">
     <g id="line2d_7">
      <path d="M 53.638174 70.575669 
L 53.638174 2.6731 
" clip-path="url(#padfa32e2ee)" style="fill: none; stroke: #b0b0b0; stroke-opacity: 0.6; stroke-width: 0.5; stroke-linecap: square"/>
     </g>
     <g id="line2d_8">
      <g>
       <use xlink:href="#m7ca9980f4b" x="53.638174" y="70.575669" style="stroke: #000000; stroke-width: 0.8"/>
      </g>
     </g>
     <g id="text_4">
      <!-- $\mathdefault{6}$ -->
      <g transform="translate(51.511582 80.313291) scale(0.07497 -0.07497)">
       <defs>
        <path id="CMR17-36" d="M 678 2176 
C 678 3690 1395 4032 1811 4032 
C 1946 4032 2272 4009 2400 3776 
C 2298 3776 2106 3776 2106 3553 
C 2106 3381 2246 3323 2336 3323 
C 2394 3323 2566 3348 2566 3560 
C 2566 3954 2246 4179 1805 4179 
C 1043 4179 243 3390 243 1984 
C 243 253 966 -128 1478 -128 
C 2099 -128 2688 427 2688 1283 
C 2688 2081 2170 2662 1517 2662 
C 1126 2662 838 2407 678 1960 
L 678 2176 
z
M 1478 25 
C 691 25 691 1200 691 1436 
C 691 1896 909 2560 1504 2560 
C 1613 2560 1926 2560 2138 2120 
C 2253 1870 2253 1609 2253 1289 
C 2253 944 2253 690 2118 434 
C 1978 171 1773 25 1478 25 
z
" transform="scale(0.015625)"/>
       </defs>
       <use xlink:href="#CMR17-36" transform="scale(0.996264)"/>
      </g>
     </g>
    </g>
    <g id="xtick_5">
     <g id="line2d_9">
      <path d="M 63.688104 70.575669 
L 63.688104 2.6731 
" clip-path="url(#padfa32e2ee)" style="fill: none; stroke: #b0b0b0; stroke-opacity: 0.6; stroke-width: 0.5; stroke-linecap: square"/>
     </g>
     <g id="line2d_10">
      <g>
       <use xlink:href="#m7ca9980f4b" x="63.688104" y="70.575669" style="stroke: #000000; stroke-width: 0.8"/>
      </g>
     </g>
     <g id="text_5">
      <!-- $\mathdefault{8}$ -->
      <g transform="translate(61.561512 80.313291) scale(0.07497 -0.07497)">
       <defs>
        <path id="CMR17-38" d="M 1741 2264 
C 2144 2467 2554 2773 2554 3263 
C 2554 3841 1990 4179 1472 4179 
C 890 4179 378 3759 378 3180 
C 378 3021 416 2747 666 2505 
C 730 2442 998 2251 1171 2130 
C 883 1983 211 1634 211 934 
C 211 279 838 -128 1459 -128 
C 2144 -128 2720 362 2720 1010 
C 2720 1590 2330 1857 2074 2029 
L 1741 2264 
z
M 902 2822 
C 851 2854 595 3051 595 3351 
C 595 3739 998 4032 1459 4032 
C 1965 4032 2336 3676 2336 3262 
C 2336 2669 1670 2331 1638 2331 
C 1632 2331 1626 2331 1574 2370 
L 902 2822 
z
M 2080 1519 
C 2176 1449 2483 1240 2483 851 
C 2483 381 2010 25 1472 25 
C 890 25 448 438 448 940 
C 448 1443 838 1862 1280 2060 
L 2080 1519 
z
" transform="scale(0.015625)"/>
       </defs>
       <use xlink:href="#CMR17-38" transform="scale(0.996264)"/>
      </g>
     </g>
    </g>
    <g id="xtick_6">
     <g id="line2d_11">
      <path d="M 73.738034 70.575669 
L 73.738034 2.6731 
" clip-path="url(#padfa32e2ee)" style="fill: none; stroke: #b0b0b0; stroke-opacity: 0.6; stroke-width: 0.5; stroke-linecap: square"/>
     </g>
     <g id="line2d_12">
      <g>
       <use xlink:href="#m7ca9980f4b" x="73.738034" y="70.575669" style="stroke: #000000; stroke-width: 0.8"/>
      </g>
     </g>
     <g id="text_6">
      <!-- $\mathdefault{10}$ -->
      <g transform="translate(69.484849 80.313291) scale(0.07497 -0.07497)">
       <defs>
        <path id="CMR17-31" d="M 1702 4058 
C 1702 4192 1696 4192 1606 4192 
C 1357 3916 979 3827 621 3827 
C 602 3827 570 3827 563 3808 
C 557 3795 557 3782 557 3648 
C 755 3648 1088 3686 1344 3839 
L 1344 461 
C 1344 236 1331 160 781 160 
L 589 160 
L 589 0 
C 896 0 1216 0 1523 0 
C 1830 0 2150 0 2458 0 
L 2458 160 
L 2266 160 
C 1715 160 1702 230 1702 458 
L 1702 4058 
z
" transform="scale(0.015625)"/>
       </defs>
       <use xlink:href="#CMR17-31" transform="scale(0.996264)"/>
       <use xlink:href="#CMR17-30" transform="translate(45.690477 0) scale(0.996264)"/>
      </g>
     </g>
    </g>
    <g id="xtick_7">
     <g id="line2d_13">
      <path d="M 83.787964 70.575669 
L 83.787964 2.6731 
" clip-path="url(#padfa32e2ee)" style="fill: none; stroke: #b0b0b0; stroke-opacity: 0.6; stroke-width: 0.5; stroke-linecap: square"/>
     </g>
     <g id="line2d_14">
      <g>
       <use xlink:href="#m7ca9980f4b" x="83.787964" y="70.575669" style="stroke: #000000; stroke-width: 0.8"/>
      </g>
     </g>
     <g id="text_7">
      <!-- $\mathdefault{12}$ -->
      <g transform="translate(79.534779 80.313291) scale(0.07497 -0.07497)">
       <use xlink:href="#CMR17-31" transform="scale(0.996264)"/>
       <use xlink:href="#CMR17-32" transform="translate(45.690477 0) scale(0.996264)"/>
      </g>
     </g>
    </g>
    <g id="xtick_8">
     <g id="line2d_15">
      <path d="M 93.837894 70.575669 
L 93.837894 2.6731 
" clip-path="url(#padfa32e2ee)" style="fill: none; stroke: #b0b0b0; stroke-opacity: 0.6; stroke-width: 0.5; stroke-linecap: square"/>
     </g>
     <g id="line2d_16">
      <g>
       <use xlink:href="#m7ca9980f4b" x="93.837894" y="70.575669" style="stroke: #000000; stroke-width: 0.8"/>
      </g>
     </g>
     <g id="text_8">
      <!-- $\mathdefault{14}$ -->
      <g transform="translate(89.584709 80.313291) scale(0.07497 -0.07497)">
       <use xlink:href="#CMR17-31" transform="scale(0.996264)"/>
       <use xlink:href="#CMR17-34" transform="translate(45.690477 0) scale(0.996264)"/>
      </g>
     </g>
    </g>
    <g id="xtick_9">
     <g id="line2d_17">
      <path d="M 103.887824 70.575669 
L 103.887824 2.6731 
" clip-path="url(#padfa32e2ee)" style="fill: none; stroke: #b0b0b0; stroke-opacity: 0.6; stroke-width: 0.5; stroke-linecap: square"/>
     </g>
     <g id="line2d_18">
      <g>
       <use xlink:href="#m7ca9980f4b" x="103.887824" y="70.575669" style="stroke: #000000; stroke-width: 0.8"/>
      </g>
     </g>
     <g id="text_9">
      <!-- $\mathdefault{16}$ -->
      <g transform="translate(99.634639 80.313291) scale(0.07497 -0.07497)">
       <use xlink:href="#CMR17-31" transform="scale(0.996264)"/>
       <use xlink:href="#CMR17-36" transform="translate(45.690477 0) scale(0.996264)"/>
      </g>
     </g>
    </g>
    <g id="xtick_10">
     <g id="line2d_19">
      <path d="M 113.937754 70.575669 
L 113.937754 2.6731 
" clip-path="url(#padfa32e2ee)" style="fill: none; stroke: #b0b0b0; stroke-opacity: 0.6; stroke-width: 0.5; stroke-linecap: square"/>
     </g>
     <g id="line2d_20">
      <g>
       <use xlink:href="#m7ca9980f4b" x="113.937754" y="70.575669" style="stroke: #000000; stroke-width: 0.8"/>
      </g>
     </g>
     <g id="text_10">
      <!-- $\mathdefault{18}$ -->
      <g transform="translate(109.684569 80.313291) scale(0.07497 -0.07497)">
       <use xlink:href="#CMR17-31" transform="scale(0.996264)"/>
       <use xlink:href="#CMR17-38" transform="translate(45.690477 0) scale(0.996264)"/>
      </g>
     </g>
    </g>
    <g id="xtick_11">
     <g id="line2d_21">
      <path d="M 123.987685 70.575669 
L 123.987685 2.6731 
" clip-path="url(#padfa32e2ee)" style="fill: none; stroke: #b0b0b0; stroke-opacity: 0.6; stroke-width: 0.5; stroke-linecap: square"/>
     </g>
     <g id="line2d_22">
      <g>
       <use xlink:href="#m7ca9980f4b" x="123.987685" y="70.575669" style="stroke: #000000; stroke-width: 0.8"/>
      </g>
     </g>
     <g id="text_11">
      <!-- $\mathdefault{20}$ -->
      <g transform="translate(119.734499 80.313291) scale(0.07497 -0.07497)">
       <use xlink:href="#CMR17-32" transform="scale(0.996264)"/>
       <use xlink:href="#CMR17-30" transform="translate(45.690477 0) scale(0.996264)"/>
      </g>
     </g>
    </g>
    <g id="xtick_12">
     <g id="line2d_23">
      <path d="M 134.037615 70.575669 
L 134.037615 2.6731 
" clip-path="url(#padfa32e2ee)" style="fill: none; stroke: #b0b0b0; stroke-opacity: 0.6; stroke-width: 0.5; stroke-linecap: square"/>
     </g>
     <g id="line2d_24">
      <g>
       <use xlink:href="#m7ca9980f4b" x="134.037615" y="70.575669" style="stroke: #000000; stroke-width: 0.8"/>
      </g>
     </g>
     <g id="text_12">
      <!-- $\mathdefault{22}$ -->
      <g transform="translate(129.78443 80.313291) scale(0.07497 -0.07497)">
       <use xlink:href="#CMR17-32" transform="scale(0.996264)"/>
       <use xlink:href="#CMR17-32" transform="translate(45.690477 0) scale(0.996264)"/>
      </g>
     </g>
    </g>
    <g id="xtick_13">
     <g id="line2d_25">
      <path d="M 144.087545 70.575669 
L 144.087545 2.6731 
" clip-path="url(#padfa32e2ee)" style="fill: none; stroke: #b0b0b0; stroke-opacity: 0.6; stroke-width: 0.5; stroke-linecap: square"/>
     </g>
     <g id="line2d_26">
      <g>
       <use xlink:href="#m7ca9980f4b" x="144.087545" y="70.575669" style="stroke: #000000; stroke-width: 0.8"/>
      </g>
     </g>
     <g id="text_13">
      <!-- $\mathdefault{24}$ -->
      <g transform="translate(139.83436 80.313291) scale(0.07497 -0.07497)">
       <use xlink:href="#CMR17-32" transform="scale(0.996264)"/>
       <use xlink:href="#CMR17-34" transform="translate(45.690477 0) scale(0.996264)"/>
      </g>
     </g>
    </g>
    <g id="xtick_14">
     <g id="line2d_27">
      <path d="M 154.137475 70.575669 
L 154.137475 2.6731 
" clip-path="url(#padfa32e2ee)" style="fill: none; stroke: #b0b0b0; stroke-opacity: 0.6; stroke-width: 0.5; stroke-linecap: square"/>
     </g>
     <g id="line2d_28">
      <g>
       <use xlink:href="#m7ca9980f4b" x="154.137475" y="70.575669" style="stroke: #000000; stroke-width: 0.8"/>
      </g>
     </g>
     <g id="text_14">
      <!-- $\mathdefault{26}$ -->
      <g transform="translate(149.88429 80.313291) scale(0.07497 -0.07497)">
       <use xlink:href="#CMR17-32" transform="scale(0.996264)"/>
       <use xlink:href="#CMR17-36" transform="translate(45.690477 0) scale(0.996264)"/>
      </g>
     </g>
    </g>
    <g id="xtick_15">
     <g id="line2d_29">
      <path d="M 164.187405 70.575669 
L 164.187405 2.6731 
" clip-path="url(#padfa32e2ee)" style="fill: none; stroke: #b0b0b0; stroke-opacity: 0.6; stroke-width: 0.5; stroke-linecap: square"/>
     </g>
     <g id="line2d_30">
      <g>
       <use xlink:href="#m7ca9980f4b" x="164.187405" y="70.575669" style="stroke: #000000; stroke-width: 0.8"/>
      </g>
     </g>
     <g id="text_15">
      <!-- $\mathdefault{28}$ -->
      <g transform="translate(159.93422 80.313291) scale(0.07497 -0.07497)">
       <use xlink:href="#CMR17-32" transform="scale(0.996264)"/>
       <use xlink:href="#CMR17-38" transform="translate(45.690477 0) scale(0.996264)"/>
      </g>
     </g>
    </g>
    <g id="xtick_16">
     <g id="line2d_31">
      <path d="M 174.237335 70.575669 
L 174.237335 2.6731 
" clip-path="url(#padfa32e2ee)" style="fill: none; stroke: #b0b0b0; stroke-opacity: 0.6; stroke-width: 0.5; stroke-linecap: square"/>
     </g>
     <g id="line2d_32">
      <g>
       <use xlink:href="#m7ca9980f4b" x="174.237335" y="70.575669" style="stroke: #000000; stroke-width: 0.8"/>
      </g>
     </g>
     <g id="text_16">
      <!-- $\mathdefault{30}$ -->
      <g transform="translate(169.98415 80.313291) scale(0.07497 -0.07497)">
       <defs>
        <path id="CMR17-33" d="M 1414 2157 
C 1984 2157 2234 1662 2234 1090 
C 2234 320 1824 25 1453 25 
C 1114 25 563 194 390 693 
C 422 680 454 680 486 680 
C 640 680 755 782 755 948 
C 755 1133 614 1216 486 1216 
C 378 1216 211 1165 211 926 
C 211 335 787 -128 1466 -128 
C 2176 -128 2720 430 2720 1085 
C 2720 1707 2208 2157 1600 2227 
C 2086 2328 2554 2756 2554 3329 
C 2554 3820 2048 4179 1472 4179 
C 890 4179 378 3829 378 3329 
C 378 3110 544 3072 627 3072 
C 762 3072 877 3155 877 3321 
C 877 3486 762 3569 627 3569 
C 602 3569 570 3569 544 3557 
C 730 3959 1235 4032 1459 4032 
C 1683 4032 2106 3925 2106 3320 
C 2106 3143 2080 2828 1862 2550 
C 1670 2304 1453 2304 1242 2284 
C 1210 2284 1062 2269 1037 2269 
C 992 2263 966 2257 966 2208 
C 966 2163 973 2157 1101 2157 
L 1414 2157 
z
" transform="scale(0.015625)"/>
       </defs>
       <use xlink:href="#CMR17-33" transform="scale(0.996264)"/>
       <use xlink:href="#CMR17-30" transform="translate(45.690477 0) scale(0.996264)"/>
      </g>
     </g>
    </g>
    <g id="text_17">
     <!-- Section size [\#entries] -->
     <g transform="translate(65.274924 87.541183) scale(0.07497 -0.07497)">
      <defs>
       <path id="LinLibertineT-53" d="M 2528 4051 
C 2157 4102 2170 4224 1542 4224 
C 896 4224 326 3794 326 3114 
C 326 2439 883 2131 1446 1913 
C 1830 1766 2304 1585 2304 957 
C 2304 436 2016 167 1504 167 
C 909 167 525 443 384 1078 
C 301 1104 237 1091 173 1059 
C 198 564 224 398 301 83 
C 704 83 883 -64 1453 -64 
C 1741 -64 2016 6 2240 148 
C 2611 378 2842 771 2842 1181 
C 2842 1862 2330 2163 1805 2362 
C 1421 2504 781 2748 781 3287 
C 781 3647 1107 4006 1485 4006 
C 2106 4006 2304 3607 2432 3184 
C 2502 3171 2586 3178 2643 3223 
C 2618 3531 2592 3710 2528 4051 
z
" transform="scale(0.015625)"/>
       <path id="LinLibertineT-65" d="M 794 1831 
C 915 2547 1363 2604 1517 2604 
C 1760 2604 2048 2467 2048 1922 
C 2048 1863 2022 1831 1952 1831 
L 794 1831 
z
M 2470 600 
C 2234 354 2048 250 1677 250 
C 1446 250 1178 386 979 715 
C 851 929 774 1226 774 1600 
L 2477 1600 
C 2554 1600 2598 1638 2598 1708 
C 2598 2243 2406 2816 1517 2816 
C 960 2816 237 2281 237 1302 
C 237 941 326 593 538 348 
C 755 91 1056 -64 1517 -64 
C 2003 -64 2349 161 2605 497 
C 2586 562 2547 594 2470 600 
z
" transform="scale(0.015625)"/>
       <path id="LinLibertineT-63" d="M 2547 584 
C 2522 641 2470 667 2413 673 
C 2195 391 1920 250 1645 250 
C 1178 250 787 725 787 1475 
C 787 2181 1094 2604 1517 2604 
C 1894 2604 1946 2379 1971 2155 
C 1990 1982 2080 1924 2214 1924 
C 2349 1924 2528 2007 2528 2206 
C 2528 2559 2163 2816 1549 2816 
C 915 2816 237 2245 237 1334 
C 237 507 698 -64 1504 -64 
C 1888 -64 2227 58 2547 584 
z
" transform="scale(0.015625)"/>
       <path id="LinLibertineT-74" d="M 275 2752 
C 186 2752 160 2675 160 2623 
L 160 2540 
C 160 2509 166 2502 192 2502 
L 570 2502 
L 570 571 
C 570 115 768 -64 1062 -64 
C 1357 -64 1677 77 1926 360 
C 1914 424 1875 463 1811 469 
C 1645 340 1453 289 1286 289 
C 1114 289 1075 481 1075 879 
L 1075 2502 
L 1741 2502 
C 1805 2502 1894 2528 1894 2586 
L 1894 2714 
C 1894 2740 1875 2752 1843 2752 
L 1075 2752 
L 1075 3006 
C 1075 3426 1101 3685 1101 3685 
C 1101 3725 1082 3744 1050 3744 
C 1024 3744 966 3718 909 3685 
C 838 3647 774 3614 691 3594 
C 614 3569 550 3549 550 3504 
C 550 3426 570 3471 570 2752 
L 275 2752 
z
" transform="scale(0.015625)"/>
       <path id="LinLibertineT-69" d="M 576 3852 
C 576 3685 730 3518 883 3518 
C 1062 3518 1216 3691 1216 3826 
C 1216 3980 1082 4160 909 4160 
C 755 4160 576 4006 576 3852 
z
M 1158 779 
L 1158 2064 
C 1158 2386 1184 2799 1184 2799 
C 1184 2825 1152 2844 1101 2844 
C 922 2773 666 2716 224 2658 
C 211 2619 224 2517 237 2478 
C 589 2446 653 2408 653 2043 
L 653 794 
C 653 263 582 244 192 212 
C 154 173 154 39 192 0 
C 403 0 653 0 909 0 
C 1165 0 1408 0 1619 0 
C 1658 40 1658 178 1619 218 
C 1229 218 1158 244 1158 779 
z
" transform="scale(0.015625)"/>
       <path id="LinLibertineT-6f" d="M 262 1315 
C 262 661 698 -64 1606 -64 
C 2016 -64 2330 83 2547 295 
C 2835 577 2963 981 2963 1373 
C 2963 2040 2598 2816 1619 2816 
C 1197 2816 851 2642 614 2367 
C 384 2091 262 1719 262 1315 
z
M 1523 2591 
C 2074 2591 2413 2091 2413 1167 
C 2413 359 1997 160 1696 160 
C 1030 160 813 968 813 1462 
C 813 2020 947 2591 1523 2591 
z
" transform="scale(0.015625)"/>
       <path id="LinLibertineT-6e" d="M 1178 2309 
C 1139 2264 1101 2251 1101 2309 
C 1094 2482 1082 2733 1050 2798 
C 1037 2830 1024 2849 973 2849 
C 794 2778 627 2721 186 2663 
C 173 2624 186 2522 198 2483 
C 544 2451 614 2419 614 2047 
L 614 795 
C 614 270 550 244 166 212 
C 128 173 128 39 166 0 
C 358 0 614 0 870 0 
C 1126 0 1318 0 1510 0 
C 1549 39 1549 173 1510 212 
C 1184 244 1120 270 1120 795 
L 1120 1848 
C 1120 1983 1178 2060 1229 2118 
C 1472 2355 1760 2496 2010 2496 
C 2138 2496 2272 2413 2349 2265 
C 2413 2137 2426 1964 2426 1771 
L 2426 795 
C 2426 270 2362 244 2029 212 
C 1997 173 1997 39 2029 0 
C 2221 0 2426 0 2682 0 
C 2938 0 3168 0 3360 0 
C 3392 39 3392 173 3360 212 
C 3002 244 2931 270 2931 795 
L 2931 1752 
C 2931 2105 2906 2413 2758 2612 
C 2650 2753 2451 2830 2227 2830 
C 1914 2830 1555 2746 1178 2309 
z
" transform="scale(0.015625)"/>
       <path id="LinLibertineT-73" d="M 307 886 
C 333 572 352 269 352 0 
C 416 13 480 19 512 19 
C 557 19 595 19 640 6 
C 813 -38 986 -64 1222 -64 
C 1581 -64 2240 109 2240 744 
C 2240 1180 1926 1437 1491 1597 
C 1107 1745 851 1841 851 2193 
C 851 2456 1082 2604 1299 2604 
C 1440 2604 1811 2553 1894 2007 
C 1933 1969 2061 1969 2099 2008 
C 2118 2241 2131 2480 2138 2694 
C 1939 2726 1632 2816 1299 2816 
C 826 2816 397 2508 397 2097 
C 397 1629 608 1430 1101 1225 
C 1632 1007 1754 872 1754 596 
C 1754 282 1446 148 1210 148 
C 960 148 819 230 755 300 
C 614 447 544 727 506 885 
C 467 924 346 924 307 886 
z
" transform="scale(0.015625)"/>
       <path id="LinLibertineT-7a" d="M 454 2817 
C 442 2817 416 2791 416 2778 
C 410 2491 378 2267 320 1954 
C 378 1928 454 1915 531 1935 
C 659 2411 858 2522 1050 2522 
L 1869 2522 
C 1434 1794 794 875 294 204 
C 237 127 237 109 237 77 
C 237 32 288 0 384 0 
L 2381 0 
C 2458 215 2541 545 2586 862 
C 2541 888 2470 900 2394 900 
L 2304 714 
C 2138 373 2010 231 1677 231 
L 826 231 
C 1299 836 1965 1845 2362 2501 
C 2458 2662 2477 2714 2477 2739 
C 2477 2765 2445 2784 2400 2784 
C 2368 2784 2189 2752 2003 2752 
L 832 2752 
C 627 2752 550 2785 454 2817 
z
" transform="scale(0.015625)"/>
       <path id="LinLibertineT-5b" d="M 691 -1216 
L 2048 -1216 
C 2086 -1177 2086 -1062 2048 -1023 
C 1165 -952 1120 -856 1120 -297 
L 1120 3631 
C 1120 4190 1171 4286 2048 4351 
C 2086 4390 2086 4505 2048 4544 
L 691 4544 
L 691 -1216 
z
" transform="scale(0.015625)"/>
       <path id="LinLibertineT-23" d="M 1786 1556 
L 1056 1556 
L 1178 2284 
L 1901 2284 
L 1786 1556 
z
M 2144 2284 
L 2752 2284 
L 2803 2624 
L 2189 2624 
L 2374 3776 
L 2131 3776 
L 1952 2624 
L 1222 2624 
L 1414 3776 
L 1171 3776 
L 986 2624 
L 390 2624 
L 339 2284 
L 934 2284 
L 819 1556 
L 218 1556 
L 166 1216 
L 762 1216 
L 582 64 
L 819 64 
L 1005 1216 
L 1722 1216 
L 1549 64 
L 1792 64 
L 1984 1216 
L 2586 1216 
L 2630 1556 
L 2022 1556 
L 2144 2284 
z
" transform="scale(0.015625)"/>
       <path id="LinLibertineT-72" d="M 1126 2296 
C 1114 2553 1107 2719 1075 2784 
C 1062 2816 1050 2835 998 2835 
C 819 2764 653 2707 211 2649 
C 198 2610 211 2508 224 2469 
C 570 2436 640 2404 640 2031 
L 640 777 
C 640 244 563 218 166 218 
C 128 178 128 40 166 0 
C 390 0 640 0 896 0 
C 1152 0 1446 0 1670 0 
C 1709 39 1709 172 1670 211 
C 1222 243 1146 262 1146 791 
L 1146 1678 
C 1146 1844 1222 1990 1299 2106 
C 1370 2207 1517 2418 1594 2418 
C 1651 2418 1709 2405 1760 2335 
C 1805 2271 1882 2188 1990 2188 
C 2144 2188 2291 2348 2291 2508 
C 2291 2630 2176 2816 1907 2816 
C 1606 2816 1344 2533 1197 2283 
C 1158 2213 1126 2264 1126 2296 
z
" transform="scale(0.015625)"/>
       <path id="LinLibertineT-5d" d="M 1587 4544 
L 230 4544 
C 192 4506 192 4390 230 4352 
C 1114 4280 1158 4184 1158 3625 
L 1158 -304 
C 1158 -863 1107 -959 230 -1024 
C 192 -1062 192 -1178 230 -1216 
L 1587 -1216 
L 1587 4544 
z
" transform="scale(0.015625)"/>
      </defs>
      <use xlink:href="#LinLibertineT-53" transform="scale(0.996264)"/>
      <use xlink:href="#LinLibertineT-65" transform="translate(48.318759 0) scale(0.996264)"/>
      <use xlink:href="#LinLibertineT-63" transform="translate(93.549093 0) scale(0.996264)"/>
      <use xlink:href="#LinLibertineT-74" transform="translate(136.189226 0) scale(0.996264)"/>
      <use xlink:href="#LinLibertineT-69" transform="translate(167.67116 0) scale(0.996264)"/>
      <use xlink:href="#LinLibertineT-6f" transform="translate(194.669905 0) scale(0.996264)"/>
      <use xlink:href="#LinLibertineT-6e" transform="translate(244.881575 0) scale(0.996264)"/>
      <use xlink:href="#LinLibertineT-73" transform="translate(323.785666 0) scale(0.996264)"/>
      <use xlink:href="#LinLibertineT-69" transform="translate(362.639993 0) scale(0.996264)"/>
      <use xlink:href="#LinLibertineT-7a" transform="translate(389.638739 0) scale(0.996264)"/>
      <use xlink:href="#LinLibertineT-65" transform="translate(431.880312 0) scale(0.996264)"/>
      <use xlink:href="#LinLibertineT-5b" transform="translate(501.319864 0) scale(0.996264)"/>
      <use xlink:href="#LinLibertineT-23" transform="translate(536.786854 0) scale(0.996264)"/>
      <use xlink:href="#LinLibertineT-65" transform="translate(583.113146 0) scale(0.996264)"/>
      <use xlink:href="#LinLibertineT-6e" transform="translate(627.646098 0) scale(0.996264)"/>
      <use xlink:href="#LinLibertineT-74" transform="translate(681.643589 0) scale(0.996264)"/>
      <use xlink:href="#LinLibertineT-72" transform="translate(713.125523 0) scale(0.996264)"/>
      <use xlink:href="#LinLibertineT-69" transform="translate(750.186511 0) scale(0.996264)"/>
      <use xlink:href="#LinLibertineT-65" transform="translate(777.185256 0) scale(0.996264)"/>
      <use xlink:href="#LinLibertineT-73" transform="translate(821.718209 0) scale(0.996264)"/>
      <use xlink:href="#LinLibertineT-5d" transform="translate(860.572536 0) scale(0.996264)"/>
     </g>
    </g>
   </g>
   <g id="matplotlib.axis_2">
    <g id="ytick_1">
     <g id="line2d_33">
      <path d="M 23.488384 69.909957 
L 174.237335 69.909957 
" clip-path="url(#padfa32e2ee)" style="fill: none; stroke: #b0b0b0; stroke-opacity: 0.6; stroke-width: 0.5; stroke-linecap: square"/>
     </g>
     <g id="line2d_34">
      <defs>
       <path id="me5007c67a2" d="M 0 0 
L -3.5 0 
" style="stroke: #000000; stroke-width: 0.8"/>
      </defs>
      <g>
       <use xlink:href="#me5007c67a2" x="23.488384" y="69.909957" style="stroke: #000000; stroke-width: 0.8"/>
      </g>
     </g>
     <g id="text_18">
      <!-- $\mathdefault{0.0}$ -->
      <g transform="translate(7.947892 72.528768) scale(0.07497 -0.07497)">
       <defs>
        <path id="CMMI12-3a" d="M 1178 307 
C 1178 492 1024 619 870 619 
C 685 619 557 466 557 313 
C 557 128 710 0 864 0 
C 1050 0 1178 153 1178 307 
z
" transform="scale(0.015625)"/>
       </defs>
       <use xlink:href="#CMR17-30" transform="scale(0.996264)"/>
       <use xlink:href="#CMMI12-3a" transform="translate(45.690477 0) scale(0.996264)"/>
       <use xlink:href="#CMR17-30" transform="translate(72.787654 0) scale(0.996264)"/>
      </g>
     </g>
    </g>
    <g id="ytick_2">
     <g id="line2d_35">
      <path d="M 23.488384 36.624384 
L 174.237335 36.624384 
" clip-path="url(#padfa32e2ee)" style="fill: none; stroke: #b0b0b0; stroke-opacity: 0.6; stroke-width: 0.5; stroke-linecap: square"/>
     </g>
     <g id="line2d_36">
      <g>
       <use xlink:href="#me5007c67a2" x="23.488384" y="36.624384" style="stroke: #000000; stroke-width: 0.8"/>
      </g>
     </g>
     <g id="text_19">
      <!-- $\mathdefault{0.5}$ -->
      <g transform="translate(7.947892 39.243195) scale(0.07497 -0.07497)">
       <defs>
        <path id="CMR17-35" d="M 730 3692 
C 794 3666 1056 3584 1325 3584 
C 1920 3584 2246 3911 2432 4100 
C 2432 4157 2432 4192 2394 4192 
C 2387 4192 2374 4192 2323 4163 
C 2099 4058 1837 3973 1517 3973 
C 1325 3973 1037 3999 723 4139 
C 653 4171 640 4171 634 4171 
C 602 4171 595 4164 595 4037 
L 595 2203 
C 595 2089 595 2057 659 2057 
C 691 2057 704 2070 736 2114 
C 941 2401 1222 2522 1542 2522 
C 1766 2522 2246 2382 2246 1289 
C 2246 1085 2246 715 2054 421 
C 1894 159 1645 25 1370 25 
C 947 25 518 320 403 814 
C 429 807 480 795 506 795 
C 589 795 749 840 749 1038 
C 749 1210 627 1280 506 1280 
C 358 1280 262 1190 262 1011 
C 262 454 704 -128 1382 -128 
C 2042 -128 2669 440 2669 1264 
C 2669 2030 2170 2624 1549 2624 
C 1222 2624 947 2503 730 2274 
L 730 3692 
z
" transform="scale(0.015625)"/>
       </defs>
       <use xlink:href="#CMR17-30" transform="scale(0.996264)"/>
       <use xlink:href="#CMMI12-3a" transform="translate(45.690477 0) scale(0.996264)"/>
       <use xlink:href="#CMR17-35" transform="translate(72.787654 0) scale(0.996264)"/>
      </g>
     </g>
    </g>
    <g id="ytick_3">
     <g id="line2d_37">
      <path d="M 23.488384 3.338811 
L 174.237335 3.338811 
" clip-path="url(#padfa32e2ee)" style="fill: none; stroke: #b0b0b0; stroke-opacity: 0.6; stroke-width: 0.5; stroke-linecap: square"/>
     </g>
     <g id="line2d_38">
      <g>
       <use xlink:href="#me5007c67a2" x="23.488384" y="3.338811" style="stroke: #000000; stroke-width: 0.8"/>
      </g>
     </g>
     <g id="text_20">
      <!-- $\mathdefault{1.0}$ -->
      <g transform="translate(7.947892 5.957622) scale(0.07497 -0.07497)">
       <use xlink:href="#CMR17-31" transform="scale(0.996264)"/>
       <use xlink:href="#CMMI12-3a" transform="translate(45.690477 0) scale(0.996264)"/>
       <use xlink:href="#CMR17-30" transform="translate(72.787654 0) scale(0.996264)"/>
      </g>
     </g>
    </g>
    <g id="text_21">
     <!-- Density -->
     <g transform="translate(5.957622 48.507519) rotate(-90) scale(0.07497 -0.07497)">
      <defs>
       <path id="LinLibertineT-44" d="M 1222 546 
L 1222 3633 
C 1222 3859 1446 3949 1760 3949 
C 3142 3949 3597 2823 3597 1832 
C 3597 533 2822 211 1920 211 
C 1293 211 1222 340 1222 546 
z
M 122 4160 
C 83 4121 83 3987 122 3949 
C 570 3949 678 3917 678 3378 
L 678 781 
C 678 243 570 211 122 211 
C 83 172 83 39 122 0 
C 371 0 710 0 954 0 
C 1190 0 1459 0 2118 0 
C 3021 0 4211 411 4211 1987 
C 4211 3179 3232 4160 2003 4160 
C 1549 4160 1197 4160 947 4160 
C 717 4160 378 4160 122 4160 
z
" transform="scale(0.015625)"/>
       <path id="LinLibertineT-79" d="M 1306 -1010 
C 1408 -830 1491 -650 1568 -458 
C 2080 781 2368 1443 2701 2161 
C 2829 2432 2918 2534 3219 2573 
C 3258 2611 3258 2746 3219 2784 
C 3091 2784 2944 2784 2765 2784 
C 2573 2784 2374 2784 2182 2784 
C 2144 2746 2144 2611 2182 2573 
C 2387 2553 2592 2515 2490 2284 
L 1856 815 
C 1811 713 1754 693 1702 822 
L 1133 2156 
C 1018 2425 986 2547 1344 2573 
C 1382 2611 1382 2746 1344 2784 
C 1107 2784 851 2784 621 2784 
C 403 2784 230 2784 102 2784 
C 64 2746 64 2611 102 2573 
C 358 2541 442 2483 608 2091 
L 1331 402 
C 1389 274 1485 -21 1421 -201 
C 1344 -413 1267 -593 1171 -792 
C 1101 -920 1011 -978 851 -978 
C 762 -978 736 -959 666 -959 
C 480 -959 384 -1151 384 -1235 
C 384 -1369 512 -1472 685 -1472 
C 819 -1472 1075 -1421 1306 -1010 
z
" transform="scale(0.015625)"/>
      </defs>
      <use xlink:href="#LinLibertineT-44" transform="scale(0.996264)"/>
      <use xlink:href="#LinLibertineT-65" transform="translate(69.838128 0) scale(0.996264)"/>
      <use xlink:href="#LinLibertineT-6e" transform="translate(114.371081 0) scale(0.996264)"/>
      <use xlink:href="#LinLibertineT-73" transform="translate(168.368572 0) scale(0.996264)"/>
      <use xlink:href="#LinLibertineT-69" transform="translate(207.222899 0) scale(0.996264)"/>
      <use xlink:href="#LinLibertineT-74" transform="translate(234.221644 0) scale(0.996264)"/>
      <use xlink:href="#LinLibertineT-79" transform="translate(265.703578 0) scale(0.996264)"/>
     </g>
    </g>
   </g>
   <g id="patch_3">
    <path d="M 28.513349 69.909957 
L 28.513349 3.338811 
L 33.538314 3.338811 
L 33.538314 69.909957 
" clip-path="url(#padfa32e2ee)" style="fill: none; opacity: 0.9; stroke: #d7191c; stroke-width: 0.5; stroke-linejoin: miter"/>
   </g>
   <g id="patch_4">
    <path d="M 23.488384 69.909957 
L 23.488384 61.924481 
L 28.513349 61.924481 
L 28.513349 56.320974 
L 33.538314 56.320974 
L 33.538314 56.446517 
L 38.563279 56.446517 
L 38.563279 68.014466 
L 43.588244 68.014466 
L 43.588244 63.630629 
L 48.613209 63.630629 
L 48.613209 68.74367 
L 53.638174 68.74367 
L 53.638174 66.314879 
L 58.663139 66.314879 
L 58.663139 64.743792 
L 63.688104 64.743792 
L 63.688104 58.927532 
L 68.713069 58.927532 
L 68.713069 68.616969 
L 73.738034 68.616969 
L 73.738034 68.855578 
L 78.762999 68.855578 
L 78.762999 69.861464 
L 83.787964 69.861464 
L 83.787964 69.886161 
L 88.812929 69.886161 
L 88.812929 69.899924 
L 93.837894 69.899924 
L 93.837894 69.902883 
L 98.862859 69.902883 
L 98.862859 69.907642 
L 103.887824 69.907642 
L 103.887824 69.900567 
L 108.912789 69.900567 
L 108.912789 69.909957 
" clip-path="url(#padfa32e2ee)" style="fill: none; opacity: 0.9; stroke: #fdae61; stroke-width: 0.5; stroke-linejoin: miter"/>
   </g>
   <g id="patch_5">
    <path d="M 23.488384 69.909957 
L 23.488384 26.501335 
L 28.513349 26.501335 
L 28.513349 61.742084 
L 33.538314 61.742084 
L 33.538314 69.526383 
L 38.563279 69.526383 
L 38.563279 69.841655 
L 43.588244 69.841655 
L 43.588244 56.483048 
L 48.613209 56.483048 
L 48.613209 69.520594 
L 53.638174 69.520594 
L 53.638174 69.908414 
L 58.663139 69.908414 
L 58.663139 69.909829 
L 63.688104 69.909829 
L 63.688104 69.22899 
L 68.713069 69.22899 
L 68.713069 69.909957 
L 73.738034 69.909957 
L 73.738034 69.909829 
L 78.762999 69.909829 
L 78.762999 69.909957 
L 83.787964 69.909957 
L 83.787964 69.904426 
L 88.812929 69.904426 
L 88.812929 69.873812 
L 93.837894 69.873812 
L 93.837894 69.909957 
L 98.862859 69.909957 
L 98.862859 69.907899 
L 103.887824 69.907899 
L 103.887824 69.909957 
" clip-path="url(#padfa32e2ee)" style="fill: none; opacity: 0.9; stroke: #abdda4; stroke-width: 0.5; stroke-linejoin: miter"/>
   </g>
   <g id="patch_6">
    <path d="M 23.488384 69.909957 
L 23.488384 4.071359 
L 28.513349 4.071359 
L 28.513349 69.903783 
L 33.538314 69.903783 
L 33.538314 69.854132 
L 38.563279 69.854132 
L 38.563279 69.909957 
L 43.588244 69.909957 
L 43.588244 69.322118 
L 48.613209 69.322118 
L 48.613209 69.909957 
L 53.638174 69.909957 
L 53.638174 69.870211 
L 58.663139 69.870211 
L 58.663139 69.909957 
L 63.688104 69.909957 
L 63.688104 69.869825 
L 68.713069 69.869825 
L 68.713069 69.909957 
L 73.738034 69.909957 
L 73.738034 69.909957 
L 78.762999 69.909957 
L 78.762999 69.909957 
L 83.787964 69.909957 
L 83.787964 69.907513 
L 88.812929 69.907513 
L 88.812929 69.909571 
L 93.837894 69.909571 
L 93.837894 69.909957 
" clip-path="url(#padfa32e2ee)" style="fill: none; opacity: 0.9; stroke: #2b83ba; stroke-width: 0.5; stroke-linejoin: miter"/>
   </g>
   <g id="patch_7">
    <path d="M 23.488384 70.575669 
L 23.488384 2.6731 
" style="fill: none; stroke: #000000; stroke-width: 0.8; stroke-linejoin: miter; stroke-linecap: square"/>
   </g>
   <g id="patch_8">
    <path d="M 174.237335 70.575669 
L 174.237335 2.6731 
" style="fill: none; stroke: #000000; stroke-width: 0.8; stroke-linejoin: miter; stroke-linecap: square"/>
   </g>
   <g id="patch_9">
    <path d="M 23.488384 70.575669 
L 174.237335 70.575669 
" style="fill: none; stroke: #000000; stroke-width: 0.8; stroke-linejoin: miter; stroke-linecap: square"/>
   </g>
   <g id="patch_10">
    <path d="M 23.488384 2.6731 
L 174.237335 2.6731 
" style="fill: none; stroke: #000000; stroke-width: 0.8; stroke-linejoin: miter; stroke-linecap: square"/>
   </g>
   <g id="legend_1">
    <g id="patch_11">
     <path d="M 58.87334 30.144039 
L 168.989435 30.144039 
Q 170.488835 30.144039 170.488835 28.644639 
L 170.488835 7.921 
Q 170.488835 6.4216 168.989435 6.4216 
L 58.87334 6.4216 
Q 57.37394 6.4216 57.37394 7.921 
L 57.37394 28.644639 
Q 57.37394 30.144039 58.87334 30.144039 
z
" style="fill: #ffffff; opacity: 0.8; stroke: #cccccc; stroke-width: 0.5; stroke-linejoin: miter"/>
    </g>
    <g id="patch_12">
     <path d="M 60.37274 14.6683 
L 75.36674 14.6683 
L 75.36674 9.4204 
L 60.37274 9.4204 
L 60.37274 14.6683 
z
" style="fill: none; opacity: 0.9; stroke: #d7191c; stroke-width: 0.5; stroke-linejoin: miter"/>
    </g>
    <g id="text_22">
     <!-- Questions -->
     <g transform="translate(77.24099 14.6683) scale(0.07497 -0.07497)">
      <defs>
       <path id="LinLibertineT-90" d="M 3662 -779 
C 2843 -457 2139 -450 1947 -450 
C 1877 -450 1813 -457 1749 -463 
C 1768 -450 1793 -431 1813 -418 
C 2081 -226 2369 -93 2587 -35 
C 3137 48 3573 329 3867 744 
C 4123 1108 4264 1569 4264 2106 
C 4264 3427 3349 4207 2203 4207 
C 961 4207 238 3223 238 1983 
C 238 838 1000 84 1953 -44 
C 1838 -101 1729 -172 1627 -249 
C 1326 -466 1070 -722 885 -978 
L 1141 -1107 
C 1205 -1017 1269 -932 1339 -848 
C 1461 -751 1595 -719 1653 -719 
C 2094 -719 2465 -842 3220 -1150 
C 3700 -1349 4161 -1446 4699 -1446 
C 5364 -1446 6010 -1209 6413 -829 
L 6305 -713 
C 5882 -953 5370 -1094 5051 -1094 
C 4564 -1094 4238 -1004 3662 -779 
z
M 2120 3977 
C 2965 3977 3649 3274 3649 1984 
C 3649 841 3099 170 2369 170 
C 1589 170 853 867 853 2093 
C 853 3434 1486 3977 2120 3977 
z
M 6004 -64 
C 6253 -64 6554 64 6868 320 
C 6900 346 6957 358 6964 314 
C 6977 154 7034 -64 7034 -64 
C 7085 -83 7111 -77 7156 -64 
C 7297 51 7521 147 7911 192 
C 7949 230 7949 326 7911 365 
C 7501 397 7444 518 7444 832 
L 7444 2061 
C 7444 2253 7469 2720 7469 2720 
C 7469 2739 7450 2758 7418 2758 
C 7386 2752 7290 2746 7194 2746 
C 6989 2746 6759 2752 6541 2758 
C 6503 2720 6503 2586 6541 2547 
C 6855 2528 6938 2451 6938 2029 
L 6938 794 
C 6938 672 6925 621 6836 544 
C 6599 339 6356 237 6196 237 
C 6004 237 5684 326 5684 896 
L 5684 2061 
C 5684 2253 5709 2720 5709 2720 
C 5709 2739 5690 2758 5658 2758 
C 5626 2752 5530 2746 5434 2746 
C 5229 2746 4999 2752 4781 2758 
C 4743 2720 4743 2586 4781 2547 
C 5089 2522 5178 2451 5178 2035 
L 5178 806 
C 5178 365 5370 -64 6004 -64 
z
" transform="scale(0.015625)"/>
      </defs>
      <use xlink:href="#LinLibertineT-90" transform="scale(0.996264)"/>
      <use xlink:href="#LinLibertineT-65" transform="translate(124.632664 0) scale(0.996264)"/>
      <use xlink:href="#LinLibertineT-73" transform="translate(169.165617 0) scale(0.996264)"/>
      <use xlink:href="#LinLibertineT-74" transform="translate(208.019944 0) scale(0.996264)"/>
      <use xlink:href="#LinLibertineT-69" transform="translate(239.501877 0) scale(0.996264)"/>
      <use xlink:href="#LinLibertineT-6f" transform="translate(266.500623 0) scale(0.996264)"/>
      <use xlink:href="#LinLibertineT-6e" transform="translate(316.712292 0) scale(0.996264)"/>
      <use xlink:href="#LinLibertineT-73" transform="translate(370.709783 0) scale(0.996264)"/>
     </g>
    </g>
    <g id="patch_13">
     <path d="M 60.37274 25.404969 
L 75.36674 25.404969 
L 75.36674 20.157069 
L 60.37274 20.157069 
L 60.37274 25.404969 
z
" style="fill: none; opacity: 0.9; stroke: #fdae61; stroke-width: 0.5; stroke-linejoin: miter"/>
    </g>
    <g id="text_23">
     <!-- Answers -->
     <g transform="translate(77.24099 25.404969) scale(0.07497 -0.07497)">
      <defs>
       <path id="LinLibertineT-41" d="M 1683 1805 
C 1542 1805 1498 1824 1523 1888 
L 2176 3560 
L 2214 3560 
L 2816 1805 
L 1683 1805 
z
M 992 512 
L 1344 1429 
C 1376 1510 1414 1536 1568 1536 
L 2918 1536 
L 3290 454 
C 3366 237 3123 211 2816 211 
C 2778 172 2778 39 2816 0 
C 3053 0 3405 0 3654 0 
C 3917 0 4160 0 4384 0 
C 4422 39 4422 173 4384 212 
C 4134 236 3917 256 3808 564 
L 2490 4224 
C 2394 4166 2221 4096 2138 4096 
L 685 648 
C 518 250 326 211 45 211 
C 6 172 6 39 45 0 
C 211 0 422 0 614 0 
C 877 0 1197 0 1434 0 
C 1472 38 1472 170 1434 209 
C 1190 228 890 253 992 512 
z
" transform="scale(0.015625)"/>
       <path id="LinLibertineT-77" d="M 1299 2560 
C 1338 2599 1338 2739 1299 2778 
C 1107 2778 883 2778 653 2778 
C 410 2778 237 2778 70 2778 
C 32 2740 32 2605 70 2567 
C 371 2535 442 2470 576 2137 
L 1414 64 
C 1453 -25 1504 -64 1568 -64 
C 1626 -64 1677 -25 1722 77 
L 2368 1660 
L 3027 64 
C 3066 -25 3117 -64 3181 -64 
C 3238 -64 3290 -25 3328 72 
L 4166 2116 
C 4269 2380 4378 2560 4704 2560 
C 4742 2599 4742 2739 4704 2778 
C 4576 2778 4435 2778 4243 2778 
C 4051 2778 3782 2778 3590 2778 
C 3552 2739 3552 2599 3590 2560 
C 4070 2560 4006 2374 3917 2150 
L 3379 815 
C 3315 655 3290 655 3238 790 
L 2688 2194 
C 2566 2496 2579 2560 2918 2584 
C 2957 2619 2957 2743 2918 2778 
C 2726 2778 2470 2778 2278 2778 
C 2118 2778 1907 2778 1715 2778 
C 1677 2740 1677 2606 1715 2568 
C 2016 2542 2093 2357 2208 2069 
L 2246 1968 
L 1798 833 
C 1715 621 1702 614 1619 820 
L 1107 2144 
C 986 2456 992 2560 1299 2560 
z
" transform="scale(0.015625)"/>
      </defs>
      <use xlink:href="#LinLibertineT-41" transform="scale(0.996264)"/>
      <use xlink:href="#LinLibertineT-6e" transform="translate(69.240318 0) scale(0.996264)"/>
      <use xlink:href="#LinLibertineT-73" transform="translate(123.237809 0) scale(0.996264)"/>
      <use xlink:href="#LinLibertineT-77" transform="translate(162.092136 0) scale(0.996264)"/>
      <use xlink:href="#LinLibertineT-65" transform="translate(235.715964 0) scale(0.996264)"/>
      <use xlink:href="#LinLibertineT-72" transform="translate(280.248917 0) scale(0.996264)"/>
      <use xlink:href="#LinLibertineT-73" transform="translate(317.309905 0) scale(0.996264)"/>
     </g>
    </g>
    <g id="patch_14">
     <path d="M 115.442945 14.6683 
L 130.436945 14.6683 
L 130.436945 9.4204 
L 115.442945 9.4204 
L 115.442945 14.6683 
z
" style="fill: none; opacity: 0.9; stroke: #abdda4; stroke-width: 0.5; stroke-linejoin: miter"/>
    </g>
    <g id="text_24">
     <!-- Authorities -->
     <g transform="translate(132.311195 14.6683) scale(0.07497 -0.07497)">
      <defs>
       <path id="LinLibertineT-75" d="M 1389 -64 
C 1638 -64 1939 64 2253 320 
C 2285 345 2342 358 2349 313 
C 2368 154 2419 -64 2419 -64 
C 2470 -83 2502 -77 2541 -64 
C 2682 51 2906 148 3296 191 
C 3334 230 3334 326 3296 365 
C 2886 397 2829 519 2829 832 
L 2829 2060 
C 2829 2253 2854 2720 2854 2720 
C 2854 2739 2835 2758 2803 2758 
C 2771 2752 2675 2752 2579 2752 
C 2374 2752 2144 2752 1926 2752 
C 1888 2713 1888 2573 1926 2534 
C 2240 2534 2323 2457 2323 2034 
L 2323 795 
C 2323 673 2310 622 2221 545 
C 1984 340 1741 237 1581 237 
C 1389 237 1069 327 1069 896 
L 1069 2061 
C 1069 2253 1094 2720 1094 2720 
C 1094 2739 1075 2758 1043 2758 
C 1011 2752 915 2752 819 2752 
C 614 2752 384 2752 166 2752 
C 128 2714 128 2580 166 2542 
C 474 2516 563 2445 563 2031 
L 563 804 
C 563 364 755 -64 1389 -64 
z
" transform="scale(0.015625)"/>
       <path id="LinLibertineT-68" d="M 1069 1837 
C 1069 1972 1126 2048 1178 2106 
C 1421 2342 1747 2482 1997 2482 
C 2125 2482 2259 2399 2336 2252 
C 2400 2125 2413 1953 2413 1761 
L 2413 791 
C 2413 269 2349 243 2016 211 
C 1984 172 1984 39 2016 0 
C 2195 0 2413 0 2669 0 
C 2925 0 3136 0 3347 0 
C 3379 39 3379 172 3347 211 
C 2989 243 2918 269 2918 791 
L 2918 1743 
C 2918 2094 2893 2407 2746 2599 
C 2637 2739 2438 2816 2214 2816 
C 1901 2816 1517 2732 1126 2296 
C 1107 2270 1062 2206 1062 2296 
L 1069 3741 
C 1069 4158 1094 4416 1094 4416 
C 1094 4460 1069 4480 1011 4480 
C 851 4414 371 4320 115 4300 
C 102 4246 115 4140 154 4100 
C 486 4100 563 4132 563 3591 
L 563 778 
C 563 244 486 218 115 218 
C 77 178 77 40 115 0 
C 326 0 563 0 819 0 
C 1062 0 1274 0 1453 0 
C 1491 39 1491 172 1453 211 
C 1126 236 1069 262 1069 791 
L 1069 1837 
z
" transform="scale(0.015625)"/>
      </defs>
      <use xlink:href="#LinLibertineT-41" transform="scale(0.996264)"/>
      <use xlink:href="#LinLibertineT-75" transform="translate(65.852981 0) scale(0.996264)"/>
      <use xlink:href="#LinLibertineT-74" transform="translate(118.754606 0) scale(0.996264)"/>
      <use xlink:href="#LinLibertineT-68" transform="translate(150.23654 0) scale(0.996264)"/>
      <use xlink:href="#LinLibertineT-6f" transform="translate(203.835547 0) scale(0.996264)"/>
      <use xlink:href="#LinLibertineT-72" transform="translate(254.047216 0) scale(0.996264)"/>
      <use xlink:href="#LinLibertineT-69" transform="translate(291.108204 0) scale(0.996264)"/>
      <use xlink:href="#LinLibertineT-74" transform="translate(318.106949 0) scale(0.996264)"/>
      <use xlink:href="#LinLibertineT-69" transform="translate(349.588883 0) scale(0.996264)"/>
      <use xlink:href="#LinLibertineT-65" transform="translate(376.587629 0) scale(0.996264)"/>
      <use xlink:href="#LinLibertineT-73" transform="translate(421.120581 0) scale(0.996264)"/>
     </g>
    </g>
    <g id="patch_15">
     <path d="M 115.442945 25.404969 
L 130.436945 25.404969 
L 130.436945 20.157069 
L 115.442945 20.157069 
L 115.442945 25.404969 
z
" style="fill: none; opacity: 0.9; stroke: #2b83ba; stroke-width: 0.5; stroke-linejoin: miter"/>
    </g>
    <g id="text_25">
     <!-- Additionals -->
     <g transform="translate(132.311195 25.404969) scale(0.07497 -0.07497)">
      <defs>
       <path id="LinLibertineT-64" d="M 2208 795 
C 2208 673 2195 622 2106 545 
C 1869 340 1664 237 1504 237 
C 1158 237 800 616 800 1417 
C 800 1879 890 2136 986 2270 
C 1184 2572 1453 2591 1581 2591 
C 1811 2591 1971 2508 2099 2360 
C 2189 2258 2208 2213 2208 2014 
L 2208 795 
z
M 2138 321 
C 2170 346 2227 359 2234 314 
C 2253 160 2304 -64 2304 -64 
C 2355 -83 2387 -77 2426 -64 
C 2566 51 2790 148 3181 192 
C 3219 231 3219 327 3181 366 
C 2771 398 2714 520 2714 835 
L 2714 3741 
C 2714 4159 2739 4416 2739 4416 
C 2739 4460 2714 4480 2656 4480 
C 2496 4414 2016 4320 1760 4300 
C 1747 4246 1760 4140 1798 4100 
C 2131 4100 2208 4132 2208 3590 
L 2208 2765 
C 2208 2719 2195 2707 2150 2707 
C 2125 2707 1862 2816 1651 2816 
C 1229 2816 947 2674 691 2431 
C 416 2155 250 1777 250 1302 
C 250 513 646 -64 1338 -64 
C 1587 -64 1824 64 2138 321 
z
" transform="scale(0.015625)"/>
       <path id="LinLibertineT-61" d="M 1875 1495 
L 1875 648 
C 1875 564 1837 520 1786 481 
C 1619 346 1402 199 1222 199 
C 902 199 762 455 762 654 
C 762 944 896 1239 1370 1361 
L 1875 1495 
z
M 1875 308 
C 1914 109 1984 -64 2304 -64 
C 2547 -64 2778 45 2912 173 
C 2899 250 2874 309 2803 347 
C 2758 309 2650 244 2566 244 
C 2381 244 2374 494 2374 789 
L 2374 1732 
C 2374 2642 1875 2816 1408 2816 
C 883 2816 352 2469 352 2104 
C 352 1950 429 1873 576 1873 
C 762 1873 877 2007 877 2091 
C 877 2136 870 2181 858 2206 
C 851 2226 845 2264 845 2335 
C 845 2533 1114 2604 1357 2604 
C 1574 2604 1875 2495 1875 1770 
C 1875 1725 1856 1700 1837 1693 
L 1286 1559 
C 672 1405 230 1065 230 629 
C 230 103 589 -64 1037 -64 
C 1261 -64 1453 -13 1734 205 
L 1862 308 
L 1875 308 
z
" transform="scale(0.015625)"/>
       <path id="LinLibertineT-6c" d="M 608 778 
C 608 243 538 211 147 211 
C 109 172 109 39 147 0 
C 371 0 608 0 864 0 
C 1120 0 1363 0 1574 0 
C 1613 39 1613 172 1574 211 
C 1184 211 1114 243 1114 776 
L 1114 3740 
C 1114 4158 1139 4416 1139 4416 
C 1139 4460 1114 4480 1056 4480 
C 896 4414 416 4321 160 4301 
C 147 4247 160 4141 198 4101 
C 570 4101 608 4081 608 3597 
L 608 778 
z
" transform="scale(0.015625)"/>
      </defs>
      <use xlink:href="#LinLibertineT-41" transform="scale(0.996264)"/>
      <use xlink:href="#LinLibertineT-64" transform="translate(68.044789 0) scale(0.996264)"/>
      <use xlink:href="#LinLibertineT-64" transform="translate(118.455693 0) scale(0.996264)"/>
      <use xlink:href="#LinLibertineT-69" transform="translate(168.866598 0) scale(0.996264)"/>
      <use xlink:href="#LinLibertineT-74" transform="translate(195.865343 0) scale(0.996264)"/>
      <use xlink:href="#LinLibertineT-69" transform="translate(227.347277 0) scale(0.996264)"/>
      <use xlink:href="#LinLibertineT-6f" transform="translate(254.346022 0) scale(0.996264)"/>
      <use xlink:href="#LinLibertineT-6e" transform="translate(304.557692 0) scale(0.996264)"/>
      <use xlink:href="#LinLibertineT-61" transform="translate(358.555183 0) scale(0.996264)"/>
      <use xlink:href="#LinLibertineT-6c" transform="translate(404.084415 0) scale(0.996264)"/>
      <use xlink:href="#LinLibertineT-73" transform="translate(430.385779 0) scale(0.996264)"/>
     </g>
    </g>
   </g>
  </g>
 </g>
 <defs>
  <clipPath id="padfa32e2ee">
   <rect x="23.488384" y="2.6731" width="150.748951" height="67.902569"/>
  </clipPath>
 </defs>
</svg>
