<?xml version="1.0" encoding="utf-8" standalone="no"?>
<!DOCTYPE svg PUBLIC "-//W3C//DTD SVG 1.1//EN"
  "http://www.w3.org/Graphics/SVG/1.1/DTD/svg11.dtd">
<svg xmlns:xlink="http://www.w3.org/1999/xlink" width="222.292215pt" height="214.43259pt" viewBox="0 0 222.292215 214.43259" xmlns="http://www.w3.org/2000/svg" version="1.1">
 <metadata>
  <rdf:RDF xmlns:dc="http://purl.org/dc/elements/1.1/" xmlns:cc="http://creativecommons.org/ns#" xmlns:rdf="http://www.w3.org/1999/02/22-rdf-syntax-ns#">
   <cc:Work>
    <dc:type rdf:resource="http://purl.org/dc/dcmitype/StillImage"/>
    <dc:date>2023-07-06T17:40:42.806874</dc:date>
    <dc:format>image/svg+xml</dc:format>
    <dc:creator>
     <cc:Agent>
      <dc:title>Matplotlib v3.7.2, https://matplotlib.org/</dc:title>
     </cc:Agent>
    </dc:creator>
   </cc:Work>
  </rdf:RDF>
 </metadata>
 <defs>
  <style type="text/css">*{stroke-linejoin: round; stroke-linecap: butt}</style>
 </defs>
 <g id="figure_1">
  <g id="patch_1">
   <path d="M 0 214.43259 
L 222.292215 214.43259 
L 222.292215 0 
L 0 0 
L 0 214.43259 
z
" style="fill: none"/>
  </g>
  <g id="axes_1">
   <g id="patch_2">
    <path d="M 192.413331 107.216295 
C 192.413331 90.402468 187.435961 73.959042 178.111353 59.967742 
C 168.786745 45.976443 155.525731 35.053714 140.007148 28.582365 
C 124.488565 22.111017 107.396146 20.37617 90.893779 23.597455 
C 74.391413 26.81874 59.206177 34.854231 47.260514 46.686639 
C 35.31485 58.519048 27.135072 73.62705 23.756734 90.097982 
C 20.378396 106.568915 21.950345 123.677084 28.273573 139.256608 
C 34.596801 154.836132 45.392713 168.200591 59.294553 177.658055 
C 73.196393 187.115519 89.59166 192.2493 106.404724 192.409466 
L 107.216295 107.216295 
z
" style="fill: #e31a1c"/>
   </g>
   <g id="patch_3">
    <path d="M 106.404724 192.409466 
C 128.649338 192.621373 150.115533 184.112707 166.174203 168.718328 
C 182.232873 153.32395 191.640284 132.236144 192.367763 110.002418 
L 107.216295 107.216295 
z
" style="fill: #fb9a99"/>
   </g>
   <g id="patch_4">
    <path d="M 192.367763 110.002418 
C 192.382951 109.538226 192.394343 109.073918 192.401938 108.60954 
C 192.409534 108.145161 192.413331 107.680729 192.413331 107.216288 
L 107.216295 107.216295 
z
" style="fill: #cccccc"/>
   </g>
   <g id="matplotlib.axis_1"/>
   <g id="matplotlib.axis_2"/>
   <g id="text_1">
    <!-- A -->
    <g transform="translate(36.073998 42.38235) scale(0.07497 -0.07497)">
     <defs>
      <path id="LinLibertineT-41" d="M 1683 1805 
C 1542 1805 1498 1824 1523 1888 
L 2176 3560 
L 2214 3560 
L 2816 1805 
L 1683 1805 
z
M 992 512 
L 1344 1429 
C 1376 1510 1414 1536 1568 1536 
L 2918 1536 
L 3290 454 
C 3366 237 3123 211 2816 211 
C 2778 172 2778 39 2816 0 
C 3053 0 3405 0 3654 0 
C 3917 0 4160 0 4384 0 
C 4422 39 4422 173 4384 212 
C 4134 236 3917 256 3808 564 
L 2490 4224 
C 2394 4166 2221 4096 2138 4096 
L 685 648 
C 518 250 326 211 45 211 
C 6 172 6 39 45 0 
C 211 0 422 0 614 0 
C 877 0 1197 0 1434 0 
C 1472 38 1472 170 1434 209 
C 1190 228 890 253 992 512 
z
" transform="scale(0.015625)"/>
     </defs>
     <use xlink:href="#LinLibertineT-41" transform="scale(0.996264)"/>
    </g>
   </g>
   <g id="text_2">
    <!-- 74.8\% -->
    <g transform="translate(46.157754 57.865348) scale(0.09 -0.09)">
     <defs>
      <path id="LinLibertineT-37" d="M 1088 3456 
L 2234 3456 
C 1734 2210 1229 957 794 -19 
L 845 -64 
L 1280 -64 
C 1645 1033 1997 2105 2714 3866 
L 2611 3944 
C 2502 3912 2362 3873 2118 3873 
L 800 3873 
C 582 3873 595 3937 480 3963 
C 461 3963 454 3963 454 3944 
C 448 3635 378 3249 326 2915 
C 397 2895 461 2889 531 2895 
C 672 3411 883 3456 1088 3456 
z
" transform="scale(0.015625)"/>
      <path id="LinLibertineT-34" d="M 1734 3251 
L 1734 1408 
L 512 1408 
C 838 1933 1293 2649 1734 3251 
z
M 2752 1408 
L 2221 1408 
L 2221 3281 
C 2221 3602 2221 3852 2234 3904 
L 2221 3904 
L 2016 3904 
C 1971 3904 1939 3866 1914 3834 
C 1510 3342 768 2288 179 1375 
C 198 1278 237 1106 429 1106 
L 1734 1106 
L 1734 509 
C 1734 211 1491 211 1216 211 
C 1178 172 1178 39 1216 0 
C 1421 0 1677 0 1971 0 
C 2221 0 2464 0 2669 0 
C 2707 39 2707 171 2669 210 
C 2355 235 2221 223 2221 521 
L 2221 1106 
L 2662 1106 
C 2752 1106 2848 1228 2848 1305 
C 2848 1369 2822 1408 2752 1408 
z
" transform="scale(0.015625)"/>
      <path id="LinLibertineT-2e" d="M 365 276 
C 365 90 518 -64 704 -64 
C 890 -64 1043 90 1043 276 
C 1043 462 890 616 704 616 
C 518 616 365 462 365 276 
z
" transform="scale(0.015625)"/>
      <path id="LinLibertineT-38" d="M 1498 3680 
C 1914 3680 2067 3405 2067 3110 
C 2067 2765 1728 2477 1555 2349 
L 1357 2471 
C 954 2733 909 2944 909 3142 
C 909 3437 1114 3680 1498 3680 
z
M 2515 3104 
C 2515 3565 2157 3904 1530 3904 
C 877 3904 454 3514 454 3020 
C 454 2662 627 2399 1018 2156 
L 1184 2054 
C 998 1958 826 1843 666 1702 
C 403 1471 294 1184 294 934 
C 294 281 755 -64 1434 -64 
C 2272 -64 2682 551 2682 1037 
C 2682 1408 2522 1734 2182 1939 
L 1728 2214 
C 2029 2362 2515 2694 2515 3104 
z
M 1446 160 
C 1158 160 723 359 723 934 
C 723 1127 806 1575 1357 1939 
L 1658 1760 
C 2054 1517 2214 1217 2214 909 
C 2214 269 1734 160 1446 160 
z
" transform="scale(0.015625)"/>
      <path id="LinLibertineT-25" d="M 2771 548 
C 2771 922 3034 1465 3347 1465 
C 3437 1465 3616 1407 3616 1071 
C 3616 710 3405 135 3053 135 
C 2931 135 2771 213 2771 548 
z
M 2419 646 
C 2419 304 2624 -64 3014 -64 
C 3546 -64 3827 646 3827 1077 
C 3827 1547 3533 1664 3277 1664 
C 2803 1664 2419 1173 2419 646 
z
M 2330 3374 
C 2214 3374 1990 3374 1645 3515 
C 1581 3582 1395 3655 1216 3655 
C 755 3655 365 3211 365 2659 
C 365 2340 557 1977 954 1977 
C 1491 1977 1773 2701 1773 3111 
C 1773 3168 1766 3226 1754 3271 
C 1875 3200 2118 3136 2266 3136 
C 2458 3136 2707 3162 2950 3258 
L 653 33 
L 870 -64 
L 3494 3579 
L 3290 3681 
C 3091 3441 2598 3374 2330 3374 
z
M 710 2574 
C 710 2935 973 3456 1286 3456 
C 1402 3456 1562 3388 1562 3077 
C 1562 2717 1344 2176 992 2176 
C 877 2176 710 2251 710 2574 
z
" transform="scale(0.015625)"/>
     </defs>
     <use xlink:href="#LinLibertineT-37" transform="scale(0.996264)"/>
     <use xlink:href="#LinLibertineT-34" transform="translate(46.326292 0) scale(0.996264)"/>
     <use xlink:href="#LinLibertineT-2e" transform="translate(92.652583 0) scale(0.996264)"/>
     <use xlink:href="#LinLibertineT-38" transform="translate(114.570407 0) scale(0.996264)"/>
     <use xlink:href="#LinLibertineT-25" transform="translate(160.896698 0) scale(0.996264)"/>
    </g>
   </g>
   <g id="text_3">
    <!-- AAAA -->
    <g transform="translate(172.069994 176.617208) scale(0.07497 -0.07497)">
     <use xlink:href="#LinLibertineT-41" transform="scale(0.996264)"/>
     <use xlink:href="#LinLibertineT-41" transform="translate(69.240318 0) scale(0.996264)"/>
     <use xlink:href="#LinLibertineT-41" transform="translate(138.480637 0) scale(0.996264)"/>
     <use xlink:href="#LinLibertineT-41" transform="translate(207.720955 0) scale(0.996264)"/>
    </g>
   </g>
   <g id="text_4">
    <!-- 24.6\% -->
    <g transform="translate(147.23439 161.592283) scale(0.09 -0.09)">
     <defs>
      <path id="LinLibertineT-32" d="M 390 2997 
C 390 2863 512 2747 646 2747 
C 755 2747 947 2863 947 3003 
C 947 3054 934 3093 922 3137 
C 909 3182 870 3239 870 3291 
C 870 3450 1037 3680 1504 3680 
C 1734 3680 2061 3521 2061 2908 
C 2061 2500 1914 2169 1536 1786 
L 1062 1320 
C 435 682 333 377 333 0 
C 333 0 659 0 864 0 
L 1984 0 
C 2189 0 2483 0 2483 0 
C 2566 337 2630 813 2637 1004 
C 2598 1036 2515 1048 2451 1036 
C 2342 582 2234 423 2003 423 
L 864 423 
C 864 730 1306 1164 1338 1196 
L 1984 1815 
C 2349 2167 2624 2448 2624 2933 
C 2624 3623 2061 3904 1542 3904 
C 832 3904 390 3380 390 2997 
z
" transform="scale(0.015625)"/>
      <path id="LinLibertineT-36" d="M 864 1971 
C 1075 2112 1286 2112 1395 2112 
C 2022 2112 2163 1500 2163 1181 
C 2163 480 1894 161 1581 161 
C 1178 161 813 378 813 1473 
C 813 1619 826 1786 864 1971 
z
M 922 2202 
C 1094 2786 1504 3433 2355 3754 
C 2355 3831 2330 3889 2278 3921 
C 1632 3728 1235 3459 877 3043 
C 480 2582 282 1999 282 1493 
C 282 193 1018 -64 1510 -64 
C 2349 -64 2694 749 2694 1300 
C 2694 1850 2400 2343 1530 2343 
C 1363 2343 1114 2292 922 2202 
z
" transform="scale(0.015625)"/>
     </defs>
     <use xlink:href="#LinLibertineT-32" transform="scale(0.996264)"/>
     <use xlink:href="#LinLibertineT-34" transform="translate(46.326292 0) scale(0.996264)"/>
     <use xlink:href="#LinLibertineT-2e" transform="translate(92.652583 0) scale(0.996264)"/>
     <use xlink:href="#LinLibertineT-36" transform="translate(114.570407 0) scale(0.996264)"/>
     <use xlink:href="#LinLibertineT-25" transform="translate(160.896698 0) scale(0.996264)"/>
    </g>
   </g>
   <g id="text_5">
    <!-- Others -->
    <g transform="translate(200.920503 110.49754) scale(0.07497 -0.07497)">
     <defs>
      <path id="LinLibertineT-4f" d="M 2118 3993 
C 2963 3993 3648 3287 3648 1990 
C 3648 841 3098 167 2368 167 
C 1587 167 851 867 851 2099 
C 851 3447 1485 3993 2118 3993 
z
M 4262 2112 
C 4262 3441 3347 4224 2202 4224 
C 960 4224 237 3235 237 1990 
C 237 726 1152 -64 2240 -64 
C 2950 -64 3514 244 3866 745 
C 4122 1111 4262 1573 4262 2112 
z
" transform="scale(0.015625)"/>
      <path id="LinLibertineT-74" d="M 275 2752 
C 186 2752 160 2675 160 2623 
L 160 2540 
C 160 2509 166 2502 192 2502 
L 570 2502 
L 570 571 
C 570 115 768 -64 1062 -64 
C 1357 -64 1677 77 1926 360 
C 1914 424 1875 463 1811 469 
C 1645 340 1453 289 1286 289 
C 1114 289 1075 481 1075 879 
L 1075 2502 
L 1741 2502 
C 1805 2502 1894 2528 1894 2586 
L 1894 2714 
C 1894 2740 1875 2752 1843 2752 
L 1075 2752 
L 1075 3006 
C 1075 3426 1101 3685 1101 3685 
C 1101 3725 1082 3744 1050 3744 
C 1024 3744 966 3718 909 3685 
C 838 3647 774 3614 691 3594 
C 614 3569 550 3549 550 3504 
C 550 3426 570 3471 570 2752 
L 275 2752 
z
" transform="scale(0.015625)"/>
      <path id="LinLibertineT-68" d="M 1069 1837 
C 1069 1972 1126 2048 1178 2106 
C 1421 2342 1747 2482 1997 2482 
C 2125 2482 2259 2399 2336 2252 
C 2400 2125 2413 1953 2413 1761 
L 2413 791 
C 2413 269 2349 243 2016 211 
C 1984 172 1984 39 2016 0 
C 2195 0 2413 0 2669 0 
C 2925 0 3136 0 3347 0 
C 3379 39 3379 172 3347 211 
C 2989 243 2918 269 2918 791 
L 2918 1743 
C 2918 2094 2893 2407 2746 2599 
C 2637 2739 2438 2816 2214 2816 
C 1901 2816 1517 2732 1126 2296 
C 1107 2270 1062 2206 1062 2296 
L 1069 3741 
C 1069 4158 1094 4416 1094 4416 
C 1094 4460 1069 4480 1011 4480 
C 851 4414 371 4320 115 4300 
C 102 4246 115 4140 154 4100 
C 486 4100 563 4132 563 3591 
L 563 778 
C 563 244 486 218 115 218 
C 77 178 77 40 115 0 
C 326 0 563 0 819 0 
C 1062 0 1274 0 1453 0 
C 1491 39 1491 172 1453 211 
C 1126 236 1069 262 1069 791 
L 1069 1837 
z
" transform="scale(0.015625)"/>
      <path id="LinLibertineT-65" d="M 794 1831 
C 915 2547 1363 2604 1517 2604 
C 1760 2604 2048 2467 2048 1922 
C 2048 1863 2022 1831 1952 1831 
L 794 1831 
z
M 2470 600 
C 2234 354 2048 250 1677 250 
C 1446 250 1178 386 979 715 
C 851 929 774 1226 774 1600 
L 2477 1600 
C 2554 1600 2598 1638 2598 1708 
C 2598 2243 2406 2816 1517 2816 
C 960 2816 237 2281 237 1302 
C 237 941 326 593 538 348 
C 755 91 1056 -64 1517 -64 
C 2003 -64 2349 161 2605 497 
C 2586 562 2547 594 2470 600 
z
" transform="scale(0.015625)"/>
      <path id="LinLibertineT-72" d="M 1126 2296 
C 1114 2553 1107 2719 1075 2784 
C 1062 2816 1050 2835 998 2835 
C 819 2764 653 2707 211 2649 
C 198 2610 211 2508 224 2469 
C 570 2436 640 2404 640 2031 
L 640 777 
C 640 244 563 218 166 218 
C 128 178 128 40 166 0 
C 390 0 640 0 896 0 
C 1152 0 1446 0 1670 0 
C 1709 39 1709 172 1670 211 
C 1222 243 1146 262 1146 791 
L 1146 1678 
C 1146 1844 1222 1990 1299 2106 
C 1370 2207 1517 2418 1594 2418 
C 1651 2418 1709 2405 1760 2335 
C 1805 2271 1882 2188 1990 2188 
C 2144 2188 2291 2348 2291 2508 
C 2291 2630 2176 2816 1907 2816 
C 1606 2816 1344 2533 1197 2283 
C 1158 2213 1126 2264 1126 2296 
z
" transform="scale(0.015625)"/>
      <path id="LinLibertineT-73" d="M 307 886 
C 333 572 352 269 352 0 
C 416 13 480 19 512 19 
C 557 19 595 19 640 6 
C 813 -38 986 -64 1222 -64 
C 1581 -64 2240 109 2240 744 
C 2240 1180 1926 1437 1491 1597 
C 1107 1745 851 1841 851 2193 
C 851 2456 1082 2604 1299 2604 
C 1440 2604 1811 2553 1894 2007 
C 1933 1969 2061 1969 2099 2008 
C 2118 2241 2131 2480 2138 2694 
C 1939 2726 1632 2816 1299 2816 
C 826 2816 397 2508 397 2097 
C 397 1629 608 1430 1101 1225 
C 1632 1007 1754 872 1754 596 
C 1754 282 1446 148 1210 148 
C 960 148 819 230 755 300 
C 614 447 544 727 506 885 
C 467 924 346 924 307 886 
z
" transform="scale(0.015625)"/>
     </defs>
     <use xlink:href="#LinLibertineT-4f" transform="scale(0.996264)"/>
     <use xlink:href="#LinLibertineT-74" transform="translate(69.9377 0) scale(0.996264)"/>
     <use xlink:href="#LinLibertineT-68" transform="translate(101.419634 0) scale(0.996264)"/>
     <use xlink:href="#LinLibertineT-65" transform="translate(155.01864 0) scale(0.996264)"/>
     <use xlink:href="#LinLibertineT-72" transform="translate(199.551593 0) scale(0.996264)"/>
     <use xlink:href="#LinLibertineT-73" transform="translate(236.612581 0) scale(0.996264)"/>
    </g>
   </g>
   <g id="text_6">
    <!-- 0.5\% -->
    <g transform="translate(171.612646 110.499813) scale(0.09 -0.09)">
     <defs>
      <path id="LinLibertineT-30" d="M 1485 3680 
C 1594 3680 1696 3641 1773 3571 
C 1971 3405 2144 2919 2144 2061 
C 2144 1472 2125 1069 2035 743 
C 1894 218 1581 160 1466 160 
C 870 160 806 1255 806 1811 
C 806 3386 1197 3680 1485 3680 
z
M 1459 -64 
C 1952 -64 2701 435 2701 1939 
C 2701 2573 2547 3117 2266 3488 
C 2099 3712 1830 3904 1485 3904 
C 851 3904 250 3150 250 1882 
C 250 1196 461 557 813 204 
C 992 26 1210 -64 1459 -64 
z
" transform="scale(0.015625)"/>
      <path id="LinLibertineT-35" d="M 2042 1210 
C 2042 606 1722 161 1338 161 
C 1094 161 1011 320 915 448 
C 832 556 723 651 589 651 
C 467 651 346 543 346 414 
C 346 154 890 -64 1254 -64 
C 2048 -64 2611 523 2611 1325 
C 2611 1943 2182 2497 1466 2497 
C 1190 2497 954 2439 838 2394 
L 966 3461 
C 1203 3439 1408 3410 1715 3410 
C 1907 3410 2125 3410 2387 3436 
L 2490 3878 
L 2445 3904 
C 2080 3867 1734 3840 1395 3840 
C 1158 3840 928 3840 704 3865 
L 486 2024 
C 826 2150 1069 2176 1299 2176 
C 1715 2176 2042 1902 2042 1210 
z
" transform="scale(0.015625)"/>
     </defs>
     <use xlink:href="#LinLibertineT-30" transform="scale(0.996264)"/>
     <use xlink:href="#LinLibertineT-2e" transform="translate(46.326292 0) scale(0.996264)"/>
     <use xlink:href="#LinLibertineT-35" transform="translate(68.244115 0) scale(0.996264)"/>
     <use xlink:href="#LinLibertineT-25" transform="translate(114.570407 0) scale(0.996264)"/>
    </g>
   </g>
  </g>
 </g>
</svg>
