<?xml version="1.0" encoding="utf-8" standalone="no"?>
<!DOCTYPE svg PUBLIC "-//W3C//DTD SVG 1.1//EN"
  "http://www.w3.org/Graphics/SVG/1.1/DTD/svg11.dtd">
<svg xmlns:xlink="http://www.w3.org/1999/xlink" width="198.931572pt" height="57.6pt" viewBox="0 0 198.931572 57.6" xmlns="http://www.w3.org/2000/svg" version="1.1">
 <metadata>
  <rdf:RDF xmlns:dc="http://purl.org/dc/elements/1.1/" xmlns:cc="http://creativecommons.org/ns#" xmlns:rdf="http://www.w3.org/1999/02/22-rdf-syntax-ns#">
   <cc:Work>
    <dc:type rdf:resource="http://purl.org/dc/dcmitype/StillImage"/>
    <dc:date>2023-07-25T15:24:08.679921</dc:date>
    <dc:format>image/svg+xml</dc:format>
    <dc:creator>
     <cc:Agent>
      <dc:title>Matplotlib v3.7.2, https://matplotlib.org/</dc:title>
     </cc:Agent>
    </dc:creator>
   </cc:Work>
  </rdf:RDF>
 </metadata>
 <defs>
  <style type="text/css">*{stroke-linejoin: round; stroke-linecap: butt}</style>
 </defs>
 <g id="figure_1">
  <g id="patch_1">
   <path d="M 0 57.6 
L 198.931572 57.6 
L 198.931572 0 
L 0 0 
L 0 57.6 
z
" style="fill: none"/>
  </g>
  <g id="axes_1">
   <g id="patch_2">
    <path d="M 15.920967 38.136881 
L 193.958387 38.136881 
L 193.958387 3.338811 
L 15.920967 3.338811 
z
" style="fill: #ffffff"/>
   </g>
   <g id="matplotlib.axis_1">
    <g id="xtick_1">
     <g id="line2d_1">
      <path d="M 15.920967 38.136881 
L 15.920967 3.338811 
" clip-path="url(#p404c4af663)" style="fill: none; stroke: #b0b0b0; stroke-opacity: 0.6; stroke-width: 0.5; stroke-linecap: square"/>
     </g>
     <g id="line2d_2">
      <defs>
       <path id="m9a9796e943" d="M 0 0 
L 0 3.5 
" style="stroke: #000000; stroke-width: 0.8"/>
      </defs>
      <g>
       <use xlink:href="#m9a9796e943" x="15.920967" y="38.136881" style="stroke: #000000; stroke-width: 0.8"/>
      </g>
     </g>
     <g id="text_1">
      <!-- $\mathdefault{0}$ -->
      <g transform="translate(13.794374 47.874503) scale(0.07497 -0.07497)">
       <defs>
        <path id="CMR17-30" d="M 2688 2038 
C 2688 2430 2682 3099 2413 3613 
C 2176 4063 1798 4224 1466 4224 
C 1158 4224 768 4082 525 3620 
C 269 3137 243 2539 243 2038 
C 243 1671 250 1112 448 623 
C 723 -39 1216 -128 1466 -128 
C 1760 -128 2208 -7 2470 604 
C 2662 1048 2688 1568 2688 2038 
z
M 1466 -26 
C 1056 -26 813 328 723 816 
C 653 1196 653 1749 653 2109 
C 653 2604 653 3015 736 3407 
C 858 3954 1216 4121 1466 4121 
C 1728 4121 2067 3947 2189 3420 
C 2272 3054 2278 2623 2278 2109 
C 2278 1691 2278 1176 2202 797 
C 2067 96 1690 -26 1466 -26 
z
" transform="scale(0.015625)"/>
       </defs>
       <use xlink:href="#CMR17-30" transform="scale(0.996264)"/>
      </g>
     </g>
    </g>
    <g id="xtick_2">
     <g id="line2d_3">
      <path d="M 26.393756 38.136881 
L 26.393756 3.338811 
" clip-path="url(#p404c4af663)" style="fill: none; stroke: #b0b0b0; stroke-opacity: 0.6; stroke-width: 0.5; stroke-linecap: square"/>
     </g>
     <g id="line2d_4">
      <g>
       <use xlink:href="#m9a9796e943" x="26.393756" y="38.136881" style="stroke: #000000; stroke-width: 0.8"/>
      </g>
     </g>
     <g id="text_2">
      <!-- $\mathdefault{5}$ -->
      <g transform="translate(24.267164 47.874503) scale(0.07497 -0.07497)">
       <defs>
        <path id="CMR17-35" d="M 730 3750 
C 794 3724 1056 3641 1325 3641 
C 1920 3641 2246 3961 2432 4140 
C 2432 4191 2432 4224 2394 4224 
C 2387 4224 2374 4224 2323 4198 
C 2099 4102 1837 4032 1517 4032 
C 1325 4032 1037 4055 723 4191 
C 653 4224 640 4224 634 4224 
C 602 4224 595 4217 595 4090 
L 595 2231 
C 595 2113 595 2080 659 2080 
C 691 2080 704 2093 736 2139 
C 941 2435 1222 2560 1542 2560 
C 1766 2560 2246 2415 2246 1293 
C 2246 1087 2246 716 2054 422 
C 1894 159 1645 25 1370 25 
C 947 25 518 319 403 812 
C 429 806 480 793 506 793 
C 589 793 749 838 749 1036 
C 749 1209 627 1280 506 1280 
C 358 1280 262 1190 262 1011 
C 262 454 704 -128 1382 -128 
C 2042 -128 2669 441 2669 1267 
C 2669 2054 2170 2662 1549 2662 
C 1222 2662 947 2540 730 2304 
L 730 3750 
z
" transform="scale(0.015625)"/>
       </defs>
       <use xlink:href="#CMR17-35" transform="scale(0.996264)"/>
      </g>
     </g>
    </g>
    <g id="xtick_3">
     <g id="line2d_5">
      <path d="M 36.866546 38.136881 
L 36.866546 3.338811 
" clip-path="url(#p404c4af663)" style="fill: none; stroke: #b0b0b0; stroke-opacity: 0.6; stroke-width: 0.5; stroke-linecap: square"/>
     </g>
     <g id="line2d_6">
      <g>
       <use xlink:href="#m9a9796e943" x="36.866546" y="38.136881" style="stroke: #000000; stroke-width: 0.8"/>
      </g>
     </g>
     <g id="text_3">
      <!-- $\mathdefault{10}$ -->
      <g transform="translate(32.613361 47.874503) scale(0.07497 -0.07497)">
       <defs>
        <path id="CMR17-31" d="M 1702 4083 
C 1702 4217 1696 4224 1606 4224 
C 1357 3927 979 3833 621 3820 
C 602 3820 570 3820 563 3808 
C 557 3795 557 3782 557 3648 
C 755 3648 1088 3686 1344 3839 
L 1344 467 
C 1344 243 1331 166 781 166 
L 589 166 
L 589 0 
C 896 6 1216 12 1523 12 
C 1830 12 2150 6 2458 0 
L 2458 166 
L 2266 166 
C 1715 166 1702 236 1702 467 
L 1702 4083 
z
" transform="scale(0.015625)"/>
       </defs>
       <use xlink:href="#CMR17-31" transform="scale(0.996264)"/>
       <use xlink:href="#CMR17-30" transform="translate(45.690477 0) scale(0.996264)"/>
      </g>
     </g>
    </g>
    <g id="xtick_4">
     <g id="line2d_7">
      <path d="M 47.339335 38.136881 
L 47.339335 3.338811 
" clip-path="url(#p404c4af663)" style="fill: none; stroke: #b0b0b0; stroke-opacity: 0.6; stroke-width: 0.5; stroke-linecap: square"/>
     </g>
     <g id="line2d_8">
      <g>
       <use xlink:href="#m9a9796e943" x="47.339335" y="38.136881" style="stroke: #000000; stroke-width: 0.8"/>
      </g>
     </g>
     <g id="text_4">
      <!-- $\mathdefault{15}$ -->
      <g transform="translate(43.08615 47.874503) scale(0.07497 -0.07497)">
       <use xlink:href="#CMR17-31" transform="scale(0.996264)"/>
       <use xlink:href="#CMR17-35" transform="translate(45.690477 0) scale(0.996264)"/>
      </g>
     </g>
    </g>
    <g id="xtick_5">
     <g id="line2d_9">
      <path d="M 57.812125 38.136881 
L 57.812125 3.338811 
" clip-path="url(#p404c4af663)" style="fill: none; stroke: #b0b0b0; stroke-opacity: 0.6; stroke-width: 0.5; stroke-linecap: square"/>
     </g>
     <g id="line2d_10">
      <g>
       <use xlink:href="#m9a9796e943" x="57.812125" y="38.136881" style="stroke: #000000; stroke-width: 0.8"/>
      </g>
     </g>
     <g id="text_5">
      <!-- $\mathdefault{20}$ -->
      <g transform="translate(53.55894 47.874503) scale(0.07497 -0.07497)">
       <defs>
        <path id="CMR17-32" d="M 2669 990 
L 2554 990 
C 2490 537 2438 460 2413 422 
C 2381 371 1920 371 1830 371 
L 602 371 
C 832 620 1280 1073 1824 1596 
C 2214 1966 2669 2400 2669 3033 
C 2669 3788 2067 4224 1395 4224 
C 691 4224 262 3603 262 3027 
C 262 2777 448 2745 525 2745 
C 589 2745 781 2783 781 3007 
C 781 3206 614 3264 525 3264 
C 486 3264 448 3257 422 3244 
C 544 3788 915 4057 1306 4057 
C 1862 4057 2227 3616 2227 3033 
C 2227 2477 1901 1998 1536 1583 
L 262 147 
L 262 0 
L 2515 0 
L 2669 990 
z
" transform="scale(0.015625)"/>
       </defs>
       <use xlink:href="#CMR17-32" transform="scale(0.996264)"/>
       <use xlink:href="#CMR17-30" transform="translate(45.690477 0) scale(0.996264)"/>
      </g>
     </g>
    </g>
    <g id="xtick_6">
     <g id="line2d_11">
      <path d="M 68.284914 38.136881 
L 68.284914 3.338811 
" clip-path="url(#p404c4af663)" style="fill: none; stroke: #b0b0b0; stroke-opacity: 0.6; stroke-width: 0.5; stroke-linecap: square"/>
     </g>
     <g id="line2d_12">
      <g>
       <use xlink:href="#m9a9796e943" x="68.284914" y="38.136881" style="stroke: #000000; stroke-width: 0.8"/>
      </g>
     </g>
     <g id="text_6">
      <!-- $\mathdefault{25}$ -->
      <g transform="translate(64.031729 47.874503) scale(0.07497 -0.07497)">
       <use xlink:href="#CMR17-32" transform="scale(0.996264)"/>
       <use xlink:href="#CMR17-35" transform="translate(45.690477 0) scale(0.996264)"/>
      </g>
     </g>
    </g>
    <g id="xtick_7">
     <g id="line2d_13">
      <path d="M 78.757703 38.136881 
L 78.757703 3.338811 
" clip-path="url(#p404c4af663)" style="fill: none; stroke: #b0b0b0; stroke-opacity: 0.6; stroke-width: 0.5; stroke-linecap: square"/>
     </g>
     <g id="line2d_14">
      <g>
       <use xlink:href="#m9a9796e943" x="78.757703" y="38.136881" style="stroke: #000000; stroke-width: 0.8"/>
      </g>
     </g>
     <g id="text_7">
      <!-- $\mathdefault{30}$ -->
      <g transform="translate(74.504518 47.874503) scale(0.07497 -0.07497)">
       <defs>
        <path id="CMR17-33" d="M 1414 2176 
C 1984 2176 2234 1673 2234 1094 
C 2234 322 1824 25 1453 25 
C 1114 25 563 193 390 691 
C 422 678 454 678 486 678 
C 640 678 755 780 755 947 
C 755 1132 614 1216 486 1216 
C 378 1216 211 1164 211 927 
C 211 335 787 -128 1466 -128 
C 2176 -128 2720 432 2720 1087 
C 2720 1718 2208 2176 1600 2246 
C 2086 2347 2554 2776 2554 3353 
C 2554 3856 2048 4224 1472 4224 
C 890 4224 378 3862 378 3347 
C 378 3123 544 3084 627 3084 
C 762 3084 877 3167 877 3334 
C 877 3500 762 3584 627 3584 
C 602 3584 570 3584 544 3571 
C 730 3999 1235 4076 1459 4076 
C 1683 4076 2106 3966 2106 3347 
C 2106 3167 2080 2851 1862 2574 
C 1670 2329 1453 2316 1242 2297 
C 1210 2297 1062 2284 1037 2284 
C 992 2278 966 2272 966 2227 
C 966 2182 973 2176 1101 2176 
L 1414 2176 
z
" transform="scale(0.015625)"/>
       </defs>
       <use xlink:href="#CMR17-33" transform="scale(0.996264)"/>
       <use xlink:href="#CMR17-30" transform="translate(45.690477 0) scale(0.996264)"/>
      </g>
     </g>
    </g>
    <g id="xtick_8">
     <g id="line2d_15">
      <path d="M 89.230493 38.136881 
L 89.230493 3.338811 
" clip-path="url(#p404c4af663)" style="fill: none; stroke: #b0b0b0; stroke-opacity: 0.6; stroke-width: 0.5; stroke-linecap: square"/>
     </g>
     <g id="line2d_16">
      <g>
       <use xlink:href="#m9a9796e943" x="89.230493" y="38.136881" style="stroke: #000000; stroke-width: 0.8"/>
      </g>
     </g>
     <g id="text_8">
      <!-- $\mathdefault{35}$ -->
      <g transform="translate(84.977308 47.874503) scale(0.07497 -0.07497)">
       <use xlink:href="#CMR17-33" transform="scale(0.996264)"/>
       <use xlink:href="#CMR17-35" transform="translate(45.690477 0) scale(0.996264)"/>
      </g>
     </g>
    </g>
    <g id="xtick_9">
     <g id="line2d_17">
      <path d="M 99.703282 38.136881 
L 99.703282 3.338811 
" clip-path="url(#p404c4af663)" style="fill: none; stroke: #b0b0b0; stroke-opacity: 0.6; stroke-width: 0.5; stroke-linecap: square"/>
     </g>
     <g id="line2d_18">
      <g>
       <use xlink:href="#m9a9796e943" x="99.703282" y="38.136881" style="stroke: #000000; stroke-width: 0.8"/>
      </g>
     </g>
     <g id="text_9">
      <!-- $\mathdefault{40}$ -->
      <g transform="translate(95.450097 47.874503) scale(0.07497 -0.07497)">
       <defs>
        <path id="CMR17-34" d="M 2150 4147 
C 2150 4281 2144 4288 2029 4288 
L 128 1254 
L 128 1088 
L 1779 1088 
L 1779 460 
C 1779 230 1766 166 1318 166 
L 1197 166 
L 1197 0 
C 1402 12 1747 12 1965 12 
C 2182 12 2528 12 2733 0 
L 2733 166 
L 2611 166 
C 2163 166 2150 230 2150 460 
L 2150 1088 
L 2803 1088 
L 2803 1254 
L 2150 1254 
L 2150 4147 
z
M 1798 3723 
L 1798 1254 
L 256 1254 
L 1798 3723 
z
" transform="scale(0.015625)"/>
       </defs>
       <use xlink:href="#CMR17-34" transform="scale(0.996264)"/>
       <use xlink:href="#CMR17-30" transform="translate(45.690477 0) scale(0.996264)"/>
      </g>
     </g>
    </g>
    <g id="xtick_10">
     <g id="line2d_19">
      <path d="M 110.176072 38.136881 
L 110.176072 3.338811 
" clip-path="url(#p404c4af663)" style="fill: none; stroke: #b0b0b0; stroke-opacity: 0.6; stroke-width: 0.5; stroke-linecap: square"/>
     </g>
     <g id="line2d_20">
      <g>
       <use xlink:href="#m9a9796e943" x="110.176072" y="38.136881" style="stroke: #000000; stroke-width: 0.8"/>
      </g>
     </g>
     <g id="text_10">
      <!-- $\mathdefault{45}$ -->
      <g transform="translate(105.922887 47.874503) scale(0.07497 -0.07497)">
       <use xlink:href="#CMR17-34" transform="scale(0.996264)"/>
       <use xlink:href="#CMR17-35" transform="translate(45.690477 0) scale(0.996264)"/>
      </g>
     </g>
    </g>
    <g id="xtick_11">
     <g id="line2d_21">
      <path d="M 120.648861 38.136881 
L 120.648861 3.338811 
" clip-path="url(#p404c4af663)" style="fill: none; stroke: #b0b0b0; stroke-opacity: 0.6; stroke-width: 0.5; stroke-linecap: square"/>
     </g>
     <g id="line2d_22">
      <g>
       <use xlink:href="#m9a9796e943" x="120.648861" y="38.136881" style="stroke: #000000; stroke-width: 0.8"/>
      </g>
     </g>
     <g id="text_11">
      <!-- $\mathdefault{50}$ -->
      <g transform="translate(116.395676 47.874503) scale(0.07497 -0.07497)">
       <use xlink:href="#CMR17-35" transform="scale(0.996264)"/>
       <use xlink:href="#CMR17-30" transform="translate(45.690477 0) scale(0.996264)"/>
      </g>
     </g>
    </g>
    <g id="xtick_12">
     <g id="line2d_23">
      <path d="M 131.12165 38.136881 
L 131.12165 3.338811 
" clip-path="url(#p404c4af663)" style="fill: none; stroke: #b0b0b0; stroke-opacity: 0.6; stroke-width: 0.5; stroke-linecap: square"/>
     </g>
     <g id="line2d_24">
      <g>
       <use xlink:href="#m9a9796e943" x="131.12165" y="38.136881" style="stroke: #000000; stroke-width: 0.8"/>
      </g>
     </g>
     <g id="text_12">
      <!-- $\mathdefault{55}$ -->
      <g transform="translate(126.868465 47.874503) scale(0.07497 -0.07497)">
       <use xlink:href="#CMR17-35" transform="scale(0.996264)"/>
       <use xlink:href="#CMR17-35" transform="translate(45.690477 0) scale(0.996264)"/>
      </g>
     </g>
    </g>
    <g id="xtick_13">
     <g id="line2d_25">
      <path d="M 141.59444 38.136881 
L 141.59444 3.338811 
" clip-path="url(#p404c4af663)" style="fill: none; stroke: #b0b0b0; stroke-opacity: 0.6; stroke-width: 0.5; stroke-linecap: square"/>
     </g>
     <g id="line2d_26">
      <g>
       <use xlink:href="#m9a9796e943" x="141.59444" y="38.136881" style="stroke: #000000; stroke-width: 0.8"/>
      </g>
     </g>
     <g id="text_13">
      <!-- $\mathdefault{60}$ -->
      <g transform="translate(137.341255 47.874503) scale(0.07497 -0.07497)">
       <defs>
        <path id="CMR17-36" d="M 678 2198 
C 678 3712 1395 4076 1811 4076 
C 1946 4076 2272 4049 2400 3782 
C 2298 3782 2106 3782 2106 3558 
C 2106 3385 2246 3328 2336 3328 
C 2394 3328 2566 3353 2566 3571 
C 2566 3987 2246 4224 1805 4224 
C 1043 4224 243 3411 243 2011 
C 243 257 966 -128 1478 -128 
C 2099 -128 2688 431 2688 1295 
C 2688 2101 2170 2688 1517 2688 
C 1126 2688 838 2430 678 1979 
L 678 2198 
z
M 1478 25 
C 691 25 691 1212 691 1450 
C 691 1914 909 2585 1504 2585 
C 1613 2585 1926 2585 2138 2140 
C 2253 1889 2253 1624 2253 1302 
C 2253 954 2253 696 2118 438 
C 1978 173 1773 25 1478 25 
z
" transform="scale(0.015625)"/>
       </defs>
       <use xlink:href="#CMR17-36" transform="scale(0.996264)"/>
       <use xlink:href="#CMR17-30" transform="translate(45.690477 0) scale(0.996264)"/>
      </g>
     </g>
    </g>
    <g id="xtick_14">
     <g id="line2d_27">
      <path d="M 152.067229 38.136881 
L 152.067229 3.338811 
" clip-path="url(#p404c4af663)" style="fill: none; stroke: #b0b0b0; stroke-opacity: 0.6; stroke-width: 0.5; stroke-linecap: square"/>
     </g>
     <g id="line2d_28">
      <g>
       <use xlink:href="#m9a9796e943" x="152.067229" y="38.136881" style="stroke: #000000; stroke-width: 0.8"/>
      </g>
     </g>
     <g id="text_14">
      <!-- $\mathdefault{65}$ -->
      <g transform="translate(147.814044 47.874503) scale(0.07497 -0.07497)">
       <use xlink:href="#CMR17-36" transform="scale(0.996264)"/>
       <use xlink:href="#CMR17-35" transform="translate(45.690477 0) scale(0.996264)"/>
      </g>
     </g>
    </g>
    <g id="xtick_15">
     <g id="line2d_29">
      <path d="M 162.540019 38.136881 
L 162.540019 3.338811 
" clip-path="url(#p404c4af663)" style="fill: none; stroke: #b0b0b0; stroke-opacity: 0.6; stroke-width: 0.5; stroke-linecap: square"/>
     </g>
     <g id="line2d_30">
      <g>
       <use xlink:href="#m9a9796e943" x="162.540019" y="38.136881" style="stroke: #000000; stroke-width: 0.8"/>
      </g>
     </g>
     <g id="text_15">
      <!-- $\mathdefault{70}$ -->
      <g transform="translate(158.286834 47.874503) scale(0.07497 -0.07497)">
       <defs>
        <path id="CMR17-37" d="M 2886 3955 
L 2886 4096 
L 1382 4096 
C 634 4096 621 4166 595 4288 
L 480 4288 
L 294 3104 
L 410 3104 
C 429 3226 474 3552 550 3673 
C 589 3724 1062 3724 1171 3724 
L 2579 3724 
L 1869 2670 
C 1395 1961 1069 1003 1069 166 
C 1069 89 1069 -128 1299 -128 
C 1530 -128 1530 89 1530 172 
L 1530 466 
C 1530 1514 1709 2204 2003 2644 
L 2886 3955 
z
" transform="scale(0.015625)"/>
       </defs>
       <use xlink:href="#CMR17-37" transform="scale(0.996264)"/>
       <use xlink:href="#CMR17-30" transform="translate(45.690477 0) scale(0.996264)"/>
      </g>
     </g>
    </g>
    <g id="xtick_16">
     <g id="line2d_31">
      <path d="M 173.012808 38.136881 
L 173.012808 3.338811 
" clip-path="url(#p404c4af663)" style="fill: none; stroke: #b0b0b0; stroke-opacity: 0.6; stroke-width: 0.5; stroke-linecap: square"/>
     </g>
     <g id="line2d_32">
      <g>
       <use xlink:href="#m9a9796e943" x="173.012808" y="38.136881" style="stroke: #000000; stroke-width: 0.8"/>
      </g>
     </g>
     <g id="text_16">
      <!-- $\mathdefault{75}$ -->
      <g transform="translate(168.759623 47.874503) scale(0.07497 -0.07497)">
       <use xlink:href="#CMR17-37" transform="scale(0.996264)"/>
       <use xlink:href="#CMR17-35" transform="translate(45.690477 0) scale(0.996264)"/>
      </g>
     </g>
    </g>
    <g id="xtick_17">
     <g id="line2d_33">
      <path d="M 183.485598 38.136881 
L 183.485598 3.338811 
" clip-path="url(#p404c4af663)" style="fill: none; stroke: #b0b0b0; stroke-opacity: 0.6; stroke-width: 0.5; stroke-linecap: square"/>
     </g>
     <g id="line2d_34">
      <g>
       <use xlink:href="#m9a9796e943" x="183.485598" y="38.136881" style="stroke: #000000; stroke-width: 0.8"/>
      </g>
     </g>
     <g id="text_17">
      <!-- $\mathdefault{80}$ -->
      <g transform="translate(179.232412 47.874503) scale(0.07497 -0.07497)">
       <defs>
        <path id="CMR17-38" d="M 1741 2289 
C 2144 2494 2554 2803 2554 3298 
C 2554 3884 1990 4224 1472 4224 
C 890 4224 378 3800 378 3215 
C 378 3054 416 2777 666 2533 
C 730 2469 998 2276 1171 2154 
C 883 2006 211 1652 211 945 
C 211 282 838 -128 1459 -128 
C 2144 -128 2720 366 2720 1022 
C 2720 1607 2330 1877 2074 2051 
L 1741 2289 
z
M 902 2855 
C 851 2887 595 3086 595 3388 
C 595 3781 998 4076 1459 4076 
C 1965 4076 2336 3716 2336 3298 
C 2336 2700 1670 2359 1638 2359 
C 1632 2359 1626 2359 1574 2398 
L 902 2855 
z
M 2080 1536 
C 2176 1466 2483 1253 2483 861 
C 2483 385 2010 25 1472 25 
C 890 25 448 443 448 951 
C 448 1459 838 1884 1280 2083 
L 2080 1536 
z
" transform="scale(0.015625)"/>
       </defs>
       <use xlink:href="#CMR17-38" transform="scale(0.996264)"/>
       <use xlink:href="#CMR17-30" transform="translate(45.690477 0) scale(0.996264)"/>
      </g>
     </g>
    </g>
    <g id="xtick_18">
     <g id="line2d_35">
      <path d="M 193.958387 38.136881 
L 193.958387 3.338811 
" clip-path="url(#p404c4af663)" style="fill: none; stroke: #b0b0b0; stroke-opacity: 0.6; stroke-width: 0.5; stroke-linecap: square"/>
     </g>
     <g id="line2d_36">
      <g>
       <use xlink:href="#m9a9796e943" x="193.958387" y="38.136881" style="stroke: #000000; stroke-width: 0.8"/>
      </g>
     </g>
     <g id="text_18">
      <!-- $\mathdefault{85}$ -->
      <g transform="translate(189.705202 47.874503) scale(0.07497 -0.07497)">
       <use xlink:href="#CMR17-38" transform="scale(0.996264)"/>
       <use xlink:href="#CMR17-35" transform="translate(45.690477 0) scale(0.996264)"/>
      </g>
     </g>
    </g>
    <g id="text_19">
     <!-- Name length [characters] -->
     <g transform="translate(66.101046 55.102395) scale(0.07497 -0.07497)">
      <defs>
       <path id="LinLibertineT-4e" d="M 3558 3294 
L 3558 1198 
C 3558 1076 3558 1006 3514 1006 
C 3488 1006 3392 1121 3206 1358 
L 1011 4147 
L 147 4160 
C 109 4121 109 3987 147 3948 
C 422 3929 614 3705 653 3538 
L 653 865 
C 653 294 544 256 96 211 
C 58 172 58 38 96 0 
C 371 6 659 12 813 12 
C 960 12 1254 6 1523 0 
C 1562 38 1562 172 1523 211 
C 1075 256 966 281 966 865 
L 966 2826 
C 966 3044 966 3141 1018 3141 
C 1056 3141 1126 3070 1235 2929 
L 3469 102 
C 3539 -7 3622 -64 3725 -64 
C 3814 -64 3872 13 3872 135 
L 3872 3292 
C 3872 3865 3981 3903 4429 3948 
C 4467 3987 4467 4121 4429 4160 
C 4166 4153 3866 4147 3712 4147 
C 3578 4147 3283 4153 3002 4160 
C 2963 4121 2963 3987 3002 3948 
C 3450 3904 3558 3878 3558 3294 
z
" transform="scale(0.015625)"/>
       <path id="LinLibertineT-61" d="M 1875 1494 
L 1875 647 
C 1875 564 1837 519 1786 480 
C 1619 346 1402 198 1222 198 
C 902 198 762 455 762 654 
C 762 942 896 1237 1370 1359 
L 1875 1494 
z
M 1875 307 
C 1914 108 1984 -64 2304 -64 
C 2547 -64 2778 44 2912 172 
C 2899 249 2874 307 2803 345 
C 2758 307 2650 243 2566 243 
C 2381 243 2374 493 2374 788 
L 2374 1731 
C 2374 2643 1875 2816 1408 2816 
C 883 2816 352 2469 352 2104 
C 352 1950 429 1873 576 1873 
C 762 1873 877 2007 877 2091 
C 877 2136 870 2181 858 2206 
C 851 2226 845 2264 845 2335 
C 845 2534 1114 2604 1357 2604 
C 1574 2604 1875 2495 1875 1770 
C 1875 1725 1856 1699 1837 1693 
L 1286 1558 
C 672 1404 230 1064 230 628 
C 230 102 589 -64 1037 -64 
C 1261 -64 1453 -13 1734 204 
L 1862 307 
L 1875 307 
z
" transform="scale(0.015625)"/>
       <path id="LinLibertineT-6d" d="M 1088 2298 
C 1082 2489 1069 2719 1037 2783 
C 1024 2816 1011 2835 960 2835 
C 781 2764 614 2707 173 2649 
C 160 2611 173 2508 186 2470 
C 531 2438 602 2406 602 2036 
L 602 791 
C 602 268 518 236 166 211 
C 128 172 128 38 166 0 
C 358 6 602 12 858 12 
C 1114 12 1312 6 1504 0 
C 1542 38 1542 172 1504 211 
C 1178 243 1107 268 1107 791 
L 1107 1838 
C 1107 1972 1165 2049 1216 2106 
C 1472 2355 1709 2483 1907 2483 
C 2150 2483 2330 2329 2330 1902 
L 2330 791 
C 2330 268 2278 236 1933 211 
C 1901 172 1901 38 1933 0 
C 2093 6 2330 12 2586 12 
C 2842 12 3053 6 3213 0 
C 3245 38 3245 172 3213 211 
C 2893 236 2835 268 2835 791 
L 2835 1806 
C 2835 1896 2835 1985 2829 2061 
C 3136 2400 3424 2483 3674 2483 
C 3917 2483 4058 2342 4058 1915 
L 4058 791 
C 4058 268 3994 236 3661 211 
C 3629 172 3629 38 3661 0 
C 3821 6 4058 12 4314 12 
C 4570 12 4794 6 4973 0 
C 5005 38 5005 172 4973 211 
C 4621 236 4563 268 4563 791 
L 4563 1800 
C 4563 2368 4467 2816 3904 2816 
C 3578 2816 3181 2694 2848 2342 
C 2829 2323 2790 2291 2778 2349 
C 2720 2611 2470 2816 2138 2816 
C 1766 2816 1434 2598 1165 2298 
C 1133 2266 1094 2221 1088 2298 
z
" transform="scale(0.015625)"/>
       <path id="LinLibertineT-65" d="M 794 1817 
C 915 2546 1363 2604 1517 2604 
C 1760 2604 2048 2469 2048 1927 
C 2048 1869 2022 1836 1952 1836 
L 794 1817 
z
M 2470 598 
C 2234 352 2048 249 1677 249 
C 1446 249 1178 385 979 714 
C 851 928 774 1225 774 1600 
L 2477 1587 
C 2554 1587 2598 1625 2598 1696 
C 2598 2237 2406 2816 1517 2816 
C 960 2816 237 2282 237 1302 
C 237 940 326 592 538 346 
C 755 89 1056 -64 1517 -64 
C 2003 -64 2349 160 2605 495 
C 2586 559 2547 592 2470 598 
z
" transform="scale(0.015625)"/>
       <path id="LinLibertineT-6c" d="M 608 790 
C 608 262 538 230 147 211 
C 109 172 109 38 147 0 
C 371 6 608 12 864 12 
C 1120 12 1363 6 1574 0 
C 1613 38 1613 172 1574 211 
C 1184 230 1114 262 1114 790 
L 1114 3726 
C 1114 4140 1139 4408 1139 4408 
C 1139 4458 1114 4480 1056 4480 
C 896 4408 416 4309 160 4288 
C 147 4236 160 4134 198 4096 
C 570 4070 608 4051 608 3573 
L 608 790 
z
" transform="scale(0.015625)"/>
       <path id="LinLibertineT-6e" d="M 1178 2298 
C 1139 2253 1101 2240 1101 2298 
C 1094 2470 1082 2719 1050 2783 
C 1037 2816 1024 2835 973 2835 
C 794 2764 627 2707 186 2649 
C 173 2611 186 2508 198 2470 
C 544 2438 614 2406 614 2036 
L 614 791 
C 614 268 550 243 166 211 
C 128 172 128 38 166 0 
C 358 6 614 12 870 12 
C 1126 12 1318 6 1510 0 
C 1549 38 1549 172 1510 211 
C 1184 243 1120 268 1120 791 
L 1120 1838 
C 1120 1972 1178 2049 1229 2106 
C 1472 2342 1760 2483 2010 2483 
C 2138 2483 2272 2400 2349 2253 
C 2413 2125 2426 1953 2426 1761 
L 2426 791 
C 2426 268 2362 243 2029 211 
C 1997 172 1997 38 2029 0 
C 2221 6 2426 12 2682 12 
C 2938 12 3168 6 3360 0 
C 3392 38 3392 172 3360 211 
C 3002 243 2931 268 2931 791 
L 2931 1742 
C 2931 2093 2906 2400 2758 2598 
C 2650 2739 2451 2816 2227 2816 
C 1914 2816 1555 2732 1178 2298 
z
" transform="scale(0.015625)"/>
       <path id="LinLibertineT-67" d="M 2042 1798 
C 2042 1208 1741 1088 1504 1088 
C 966 1088 909 1538 909 1944 
C 909 2389 1069 2617 1421 2617 
C 1824 2617 2042 2325 2042 1798 
z
M 845 -52 
C 915 -71 1018 -84 1101 -84 
C 1299 -84 1478 -64 1568 -64 
C 1888 -64 2157 -71 2342 -176 
C 2592 -319 2669 -411 2669 -581 
C 2669 -1051 1990 -1300 1414 -1300 
C 1184 -1300 646 -1110 646 -666 
C 646 -444 659 -280 845 -52 
z
M 2842 2484 
C 2963 2484 3078 2598 3078 2726 
C 3078 2860 2957 2963 2784 2963 
C 2618 2963 2310 2854 2144 2636 
C 2067 2687 1856 2816 1478 2816 
C 909 2816 384 2433 384 1849 
C 384 1506 538 1310 717 1138 
C 538 985 435 708 435 488 
C 435 256 563 76 730 -7 
C 384 -215 205 -515 205 -796 
C 205 -1364 730 -1536 1222 -1536 
C 2086 -1536 3021 -1117 3021 -411 
C 3021 -202 2925 -39 2739 115 
C 2490 320 2042 326 1805 326 
C 1690 326 1530 313 1376 294 
C 1280 288 1216 281 1184 281 
C 998 281 774 371 774 650 
C 774 779 813 915 890 1023 
C 1043 934 1222 889 1472 889 
C 2035 889 2554 1240 2554 1862 
C 2554 2160 2464 2331 2278 2522 
C 2323 2585 2451 2675 2534 2675 
C 2579 2675 2624 2655 2662 2598 
C 2688 2547 2771 2484 2842 2484 
z
" transform="scale(0.015625)"/>
       <path id="LinLibertineT-74" d="M 275 2752 
C 186 2752 160 2675 160 2623 
L 160 2540 
C 160 2508 166 2502 192 2502 
L 570 2502 
L 570 570 
C 570 115 768 -64 1062 -64 
C 1357 -64 1677 76 1926 358 
C 1914 422 1875 461 1811 467 
C 1645 339 1453 288 1286 288 
C 1114 288 1075 480 1075 878 
L 1075 2502 
L 1741 2502 
C 1805 2502 1894 2527 1894 2585 
L 1894 2713 
C 1894 2739 1875 2752 1843 2752 
L 1075 2752 
L 1075 3001 
C 1075 3417 1101 3673 1101 3673 
C 1101 3712 1082 3731 1050 3731 
C 1024 3731 966 3705 909 3673 
C 838 3635 774 3603 691 3584 
C 614 3558 550 3539 550 3494 
C 550 3417 570 3462 570 2752 
L 275 2752 
z
" transform="scale(0.015625)"/>
       <path id="LinLibertineT-68" d="M 1069 1838 
C 1069 1972 1126 2049 1178 2106 
C 1421 2342 1747 2483 1997 2483 
C 2125 2483 2259 2400 2336 2253 
C 2400 2125 2413 1953 2413 1761 
L 2413 791 
C 2413 268 2349 243 2016 211 
C 1984 172 1984 38 2016 0 
C 2195 6 2413 12 2669 12 
C 2925 12 3136 6 3347 0 
C 3379 38 3379 172 3347 211 
C 2989 243 2918 268 2918 791 
L 2918 1742 
C 2918 2093 2893 2406 2746 2598 
C 2637 2739 2438 2816 2214 2816 
C 1901 2816 1517 2732 1126 2298 
C 1107 2272 1062 2208 1062 2298 
L 1069 3728 
C 1069 4140 1094 4408 1094 4408 
C 1094 4458 1069 4480 1011 4480 
C 851 4408 371 4309 115 4288 
C 102 4236 115 4134 154 4096 
C 486 4077 563 4108 563 3576 
L 563 791 
C 563 262 486 236 115 211 
C 77 172 77 38 115 0 
C 326 6 563 12 819 12 
C 1062 12 1274 6 1453 0 
C 1491 38 1491 172 1453 211 
C 1126 236 1069 262 1069 791 
L 1069 1838 
z
" transform="scale(0.015625)"/>
       <path id="LinLibertineT-5b" d="M 691 -1217 
L 2048 -1217 
C 2086 -1178 2086 -1063 2048 -1024 
C 1165 -955 1120 -859 1120 -306 
L 1120 3576 
C 1120 4129 1171 4224 2048 4288 
C 2086 4326 2086 4441 2048 4480 
L 691 4480 
L 691 -1217 
z
" transform="scale(0.015625)"/>
       <path id="LinLibertineT-63" d="M 2547 583 
C 2522 641 2470 666 2413 673 
C 2195 390 1920 249 1645 249 
C 1178 249 787 724 787 1475 
C 787 2181 1094 2604 1517 2604 
C 1894 2604 1946 2380 1971 2155 
C 1990 1982 2080 1924 2214 1924 
C 2349 1924 2528 2007 2528 2206 
C 2528 2559 2163 2816 1549 2816 
C 915 2816 237 2245 237 1334 
C 237 506 698 -64 1504 -64 
C 1888 -64 2227 57 2547 583 
z
" transform="scale(0.015625)"/>
       <path id="LinLibertineT-72" d="M 1126 2298 
C 1114 2553 1107 2719 1075 2783 
C 1062 2816 1050 2835 998 2835 
C 819 2764 653 2707 211 2649 
C 198 2611 211 2508 224 2470 
C 570 2438 640 2406 640 2036 
L 640 791 
C 640 262 563 236 166 211 
C 128 172 128 38 166 0 
C 390 6 640 12 896 12 
C 1152 12 1446 6 1670 0 
C 1709 38 1709 172 1670 211 
C 1222 243 1146 262 1146 791 
L 1146 1679 
C 1146 1844 1222 1991 1299 2106 
C 1370 2208 1517 2419 1594 2419 
C 1651 2419 1709 2406 1760 2336 
C 1805 2272 1882 2189 1990 2189 
C 2144 2189 2291 2349 2291 2508 
C 2291 2630 2176 2816 1907 2816 
C 1606 2816 1344 2534 1197 2285 
C 1158 2215 1126 2266 1126 2298 
z
" transform="scale(0.015625)"/>
       <path id="LinLibertineT-73" d="M 307 885 
C 333 570 352 269 352 0 
C 416 12 480 19 512 19 
C 557 19 595 19 640 6 
C 813 -39 986 -64 1222 -64 
C 1581 -64 2240 108 2240 743 
C 2240 1180 1926 1437 1491 1597 
C 1107 1745 851 1841 851 2194 
C 851 2457 1082 2604 1299 2604 
C 1440 2604 1811 2553 1894 2008 
C 1933 1969 2061 1976 2099 2014 
C 2118 2245 2131 2482 2138 2694 
C 1939 2726 1632 2816 1299 2816 
C 826 2816 397 2508 397 2097 
C 397 1629 608 1430 1101 1225 
C 1632 1007 1754 872 1754 596 
C 1754 281 1446 147 1210 147 
C 960 147 819 230 755 301 
C 614 448 544 731 506 891 
C 467 930 346 923 307 885 
z
" transform="scale(0.015625)"/>
       <path id="LinLibertineT-5d" d="M 1587 4480 
L 230 4480 
C 192 4441 192 4326 230 4288 
C 1114 4218 1158 4123 1158 3570 
L 1158 -313 
C 1158 -866 1107 -961 230 -1024 
C 192 -1063 192 -1178 230 -1217 
L 1587 -1217 
L 1587 4480 
z
" transform="scale(0.015625)"/>
      </defs>
      <use xlink:href="#LinLibertineT-4e" transform="scale(0.996264)"/>
      <use xlink:href="#LinLibertineT-61" transform="translate(69.638879 0) scale(0.996264)"/>
      <use xlink:href="#LinLibertineT-6d" transform="translate(115.16811 0) scale(0.996264)"/>
      <use xlink:href="#LinLibertineT-65" transform="translate(193.872952 0) scale(0.996264)"/>
      <use xlink:href="#LinLibertineT-6c" transform="translate(263.312505 0) scale(0.996264)"/>
      <use xlink:href="#LinLibertineT-65" transform="translate(289.613869 0) scale(0.996264)"/>
      <use xlink:href="#LinLibertineT-6e" transform="translate(334.146821 0) scale(0.996264)"/>
      <use xlink:href="#LinLibertineT-67" transform="translate(388.144312 0) scale(0.996264)"/>
      <use xlink:href="#LinLibertineT-74" transform="translate(437.957513 0) scale(0.996264)"/>
      <use xlink:href="#LinLibertineT-68" transform="translate(469.439446 0) scale(0.996264)"/>
      <use xlink:href="#LinLibertineT-5b" transform="translate(547.945053 0) scale(0.996264)"/>
      <use xlink:href="#LinLibertineT-63" transform="translate(581.718367 0) scale(0.996264)"/>
      <use xlink:href="#LinLibertineT-68" transform="translate(624.3585 0) scale(0.996264)"/>
      <use xlink:href="#LinLibertineT-61" transform="translate(677.957507 0) scale(0.996264)"/>
      <use xlink:href="#LinLibertineT-72" transform="translate(723.486739 0) scale(0.996264)"/>
      <use xlink:href="#LinLibertineT-61" transform="translate(760.547726 0) scale(0.996264)"/>
      <use xlink:href="#LinLibertineT-63" transform="translate(806.076958 0) scale(0.996264)"/>
      <use xlink:href="#LinLibertineT-74" transform="translate(848.717091 0) scale(0.996264)"/>
      <use xlink:href="#LinLibertineT-65" transform="translate(880.199025 0) scale(0.996264)"/>
      <use xlink:href="#LinLibertineT-72" transform="translate(924.731977 0) scale(0.996264)"/>
      <use xlink:href="#LinLibertineT-73" transform="translate(961.792965 0) scale(0.996264)"/>
      <use xlink:href="#LinLibertineT-5d" transform="translate(1000.647292 0) scale(0.996264)"/>
     </g>
    </g>
   </g>
   <g id="matplotlib.axis_2">
    <g id="ytick_1">
     <g id="line2d_37">
      <path d="M 15.920967 38.136881 
L 193.958387 38.136881 
" clip-path="url(#p404c4af663)" style="fill: none; stroke: #b0b0b0; stroke-opacity: 0.6; stroke-width: 0.5; stroke-linecap: square"/>
     </g>
     <g id="line2d_38">
      <defs>
       <path id="m816fa85ff3" d="M 0 0 
L -3.5 0 
" style="stroke: #000000; stroke-width: 0.8"/>
      </defs>
      <g>
       <use xlink:href="#m816fa85ff3" x="15.920967" y="38.136881" style="stroke: #000000; stroke-width: 0.8"/>
      </g>
     </g>
     <g id="text_20">
      <!-- 0 -->
      <g transform="translate(7.947892 40.755692) scale(0.07497 -0.07497)">
       <defs>
        <path id="LinLibertineT-30" d="M 1485 3679 
C 1594 3679 1696 3641 1773 3571 
C 1971 3405 2144 2918 2144 2060 
C 2144 1472 2125 1068 2035 742 
C 1894 217 1581 160 1466 160 
C 870 160 806 1254 806 1811 
C 806 3385 1197 3679 1485 3679 
z
M 1459 -64 
C 1952 -64 2701 435 2701 1939 
C 2701 2572 2547 3116 2266 3488 
C 2099 3711 1830 3904 1485 3904 
C 851 3904 250 3148 250 1881 
C 250 1196 461 556 813 204 
C 992 25 1210 -64 1459 -64 
z
" transform="scale(0.015625)"/>
       </defs>
       <use xlink:href="#LinLibertineT-30" transform="scale(0.996264)"/>
      </g>
     </g>
    </g>
    <g id="ytick_2">
     <g id="line2d_39">
      <path d="M 15.920967 29.437363 
L 193.958387 29.437363 
" clip-path="url(#p404c4af663)" style="fill: none; stroke: #b0b0b0; stroke-opacity: 0.6; stroke-width: 0.5; stroke-linecap: square"/>
     </g>
     <g id="line2d_40">
      <g>
       <use xlink:href="#m816fa85ff3" x="15.920967" y="29.437363" style="stroke: #000000; stroke-width: 0.8"/>
      </g>
     </g>
     <g id="text_21">
      <!-- 2 -->
      <g transform="translate(7.947892 32.056175) scale(0.07497 -0.07497)">
       <defs>
        <path id="LinLibertineT-32" d="M 390 2999 
C 390 2866 512 2752 646 2752 
C 755 2752 947 2866 947 3006 
C 947 3057 934 3095 922 3139 
C 909 3184 870 3241 870 3292 
C 870 3451 1037 3679 1504 3679 
C 1734 3679 2061 3521 2061 2910 
C 2061 2501 1914 2168 1536 1783 
L 1062 1314 
C 435 672 333 364 333 -13 
C 333 -13 659 0 864 0 
L 1984 0 
C 2189 0 2483 -13 2483 -13 
C 2566 326 2630 807 2637 1000 
C 2598 1032 2515 1044 2451 1032 
C 2342 576 2234 416 2003 416 
L 864 416 
C 864 724 1306 1160 1338 1192 
L 1984 1815 
C 2349 2168 2624 2450 2624 2936 
C 2624 3622 2061 3904 1542 3904 
C 832 3904 390 3381 390 2999 
z
" transform="scale(0.015625)"/>
       </defs>
       <use xlink:href="#LinLibertineT-32" transform="scale(0.996264)"/>
      </g>
     </g>
    </g>
    <g id="ytick_3">
     <g id="line2d_41">
      <path d="M 15.920967 20.737846 
L 193.958387 20.737846 
" clip-path="url(#p404c4af663)" style="fill: none; stroke: #b0b0b0; stroke-opacity: 0.6; stroke-width: 0.5; stroke-linecap: square"/>
     </g>
     <g id="line2d_42">
      <g>
       <use xlink:href="#m816fa85ff3" x="15.920967" y="20.737846" style="stroke: #000000; stroke-width: 0.8"/>
      </g>
     </g>
     <g id="text_22">
      <!-- 4 -->
      <g transform="translate(7.947892 23.356657) scale(0.07497 -0.07497)">
       <defs>
        <path id="LinLibertineT-34" d="M 1734 3246 
L 1734 1408 
L 512 1408 
C 838 1931 1293 2646 1734 3246 
z
M 2752 1408 
L 2221 1408 
L 2221 3272 
C 2221 3591 2221 3840 2234 3891 
L 2221 3904 
L 2016 3904 
C 1971 3904 1939 3865 1914 3833 
C 1510 3342 768 2288 179 1375 
C 198 1279 237 1107 429 1107 
L 1734 1107 
L 1734 522 
C 1734 230 1491 230 1216 211 
C 1178 172 1178 38 1216 0 
C 1421 6 1677 12 1971 12 
C 2221 12 2464 6 2669 0 
C 2707 38 2707 172 2669 211 
C 2355 236 2221 223 2221 522 
L 2221 1107 
L 2662 1107 
C 2752 1107 2848 1228 2848 1305 
C 2848 1369 2822 1408 2752 1408 
z
" transform="scale(0.015625)"/>
       </defs>
       <use xlink:href="#LinLibertineT-34" transform="scale(0.996264)"/>
      </g>
     </g>
    </g>
    <g id="ytick_4">
     <g id="line2d_43">
      <path d="M 15.920967 12.038329 
L 193.958387 12.038329 
" clip-path="url(#p404c4af663)" style="fill: none; stroke: #b0b0b0; stroke-opacity: 0.6; stroke-width: 0.5; stroke-linecap: square"/>
     </g>
     <g id="line2d_44">
      <g>
       <use xlink:href="#m816fa85ff3" x="15.920967" y="12.038329" style="stroke: #000000; stroke-width: 0.8"/>
      </g>
     </g>
     <g id="text_23">
      <!-- 6 -->
      <g transform="translate(7.947892 14.65714) scale(0.07497 -0.07497)">
       <defs>
        <path id="LinLibertineT-36" d="M 864 1965 
C 1075 2105 1286 2112 1395 2112 
C 2022 2112 2163 1499 2163 1180 
C 2163 478 1894 160 1581 160 
C 1178 160 813 376 813 1467 
C 813 1614 826 1780 864 1965 
z
M 922 2195 
C 1094 2775 1504 3419 2355 3737 
C 2355 3814 2330 3871 2278 3904 
C 1632 3712 1235 3444 877 3030 
C 480 2571 282 1990 282 1486 
C 282 191 1018 -64 1510 -64 
C 2349 -64 2694 746 2694 1295 
C 2694 1844 2400 2336 1530 2336 
C 1363 2336 1114 2284 922 2195 
z
" transform="scale(0.015625)"/>
       </defs>
       <use xlink:href="#LinLibertineT-36" transform="scale(0.996264)"/>
      </g>
     </g>
    </g>
    <g id="ytick_5">
     <g id="line2d_45">
      <path d="M 15.920967 3.338811 
L 193.958387 3.338811 
" clip-path="url(#p404c4af663)" style="fill: none; stroke: #b0b0b0; stroke-opacity: 0.6; stroke-width: 0.5; stroke-linecap: square"/>
     </g>
     <g id="line2d_46">
      <g>
       <use xlink:href="#m816fa85ff3" x="15.920967" y="3.338811" style="stroke: #000000; stroke-width: 0.8"/>
      </g>
     </g>
     <g id="text_24">
      <!-- 8 -->
      <g transform="translate(7.947892 5.957622) scale(0.07497 -0.07497)">
       <defs>
        <path id="LinLibertineT-38" d="M 1498 3679 
C 1914 3679 2067 3405 2067 3110 
C 2067 2764 1728 2476 1555 2348 
L 1357 2470 
C 954 2732 909 2944 909 3142 
C 909 3437 1114 3679 1498 3679 
z
M 2515 3104 
C 2515 3565 2157 3904 1530 3904 
C 877 3904 454 3513 454 3020 
C 454 2662 627 2400 1018 2156 
L 1184 2054 
C 998 1958 826 1843 666 1702 
C 403 1472 294 1184 294 934 
C 294 281 755 -64 1434 -64 
C 2272 -64 2682 550 2682 1036 
C 2682 1408 2522 1734 2182 1939 
L 1728 2214 
C 2029 2361 2515 2694 2515 3104 
z
M 1446 160 
C 1158 160 723 358 723 934 
C 723 1126 806 1574 1357 1939 
L 1658 1760 
C 2054 1516 2214 1216 2214 908 
C 2214 268 1734 160 1446 160 
z
" transform="scale(0.015625)"/>
       </defs>
       <use xlink:href="#LinLibertineT-38" transform="scale(0.996264)"/>
      </g>
     </g>
    </g>
    <g id="text_25">
     <!-- Density [\%] -->
     <g transform="translate(5.957622 38.592408) rotate(-90) scale(0.07497 -0.07497)">
      <defs>
       <path id="LinLibertineT-44" d="M 1222 550 
L 1222 3628 
C 1222 3852 1446 3942 1760 3942 
C 3142 3942 3597 2820 3597 1833 
C 3597 538 2822 217 1920 217 
C 1293 217 1222 345 1222 550 
z
M 122 4160 
C 83 4121 83 3987 122 3948 
C 570 3929 678 3897 678 3365 
L 678 794 
C 678 262 570 230 122 211 
C 83 172 83 38 122 0 
C 371 6 710 12 954 12 
C 1190 12 1459 0 2118 0 
C 3021 0 4211 409 4211 1987 
C 4211 3179 3232 4160 2003 4160 
C 1549 4160 1197 4147 947 4147 
C 717 4147 378 4153 122 4160 
z
" transform="scale(0.015625)"/>
       <path id="LinLibertineT-69" d="M 576 3852 
C 576 3686 730 3519 883 3519 
C 1062 3519 1216 3692 1216 3827 
C 1216 3980 1082 4160 909 4160 
C 755 4160 576 4006 576 3852 
z
M 1158 785 
L 1158 2040 
C 1158 2356 1184 2769 1184 2769 
C 1184 2796 1152 2816 1101 2816 
C 922 2743 666 2683 224 2624 
C 211 2585 224 2483 237 2444 
C 589 2413 653 2375 653 2015 
L 653 785 
C 653 261 582 242 192 211 
C 154 172 154 38 192 0 
C 403 6 653 12 909 12 
C 1165 12 1408 6 1619 0 
C 1658 38 1658 172 1619 211 
C 1229 236 1158 261 1158 785 
z
" transform="scale(0.015625)"/>
       <path id="LinLibertineT-79" d="M 1306 -1012 
C 1408 -833 1491 -655 1568 -464 
C 2080 765 2368 1420 2701 2133 
C 2829 2400 2918 2502 3219 2540 
C 3258 2579 3258 2713 3219 2752 
C 3091 2745 2944 2739 2765 2739 
C 2573 2739 2374 2745 2182 2752 
C 2144 2713 2144 2579 2182 2540 
C 2387 2521 2592 2483 2490 2254 
L 1856 796 
C 1811 694 1754 675 1702 803 
L 1133 2127 
C 1018 2394 986 2515 1344 2540 
C 1382 2579 1382 2713 1344 2752 
C 1107 2745 851 2739 621 2739 
C 403 2739 230 2745 102 2752 
C 64 2713 64 2579 102 2540 
C 358 2509 442 2451 608 2063 
L 1331 389 
C 1389 262 1485 -31 1421 -209 
C 1344 -419 1267 -598 1171 -795 
C 1101 -922 1011 -980 851 -980 
C 762 -980 736 -960 666 -960 
C 480 -960 384 -1152 384 -1236 
C 384 -1370 512 -1472 685 -1472 
C 819 -1472 1075 -1421 1306 -1012 
z
" transform="scale(0.015625)"/>
       <path id="LinLibertineT-25" d="M 2771 547 
C 2771 922 3034 1465 3347 1465 
C 3437 1465 3616 1407 3616 1071 
C 3616 709 3405 134 3053 134 
C 2931 134 2771 211 2771 547 
z
M 2419 644 
C 2419 302 2624 -64 3014 -64 
C 3546 -64 3827 644 3827 1077 
C 3827 1548 3533 1664 3277 1664 
C 2803 1664 2419 1174 2419 644 
z
M 2330 3328 
C 2214 3328 1990 3328 1645 3494 
C 1581 3571 1395 3654 1216 3654 
C 755 3654 365 3193 365 2651 
C 365 2340 557 1977 954 1977 
C 1491 1977 1773 2676 1773 3066 
C 1773 3123 1766 3180 1754 3225 
C 1875 3155 2118 3091 2266 3091 
C 2458 3091 2707 3116 2950 3212 
L 653 32 
L 870 -64 
L 3494 3577 
L 3290 3680 
C 3091 3408 2598 3328 2330 3328 
z
M 710 2566 
C 710 2920 973 3456 1286 3456 
C 1402 3456 1562 3381 1562 3060 
C 1562 2706 1344 2176 992 2176 
C 877 2176 710 2249 710 2566 
z
" transform="scale(0.015625)"/>
      </defs>
      <use xlink:href="#LinLibertineT-44" transform="scale(0.996264)"/>
      <use xlink:href="#LinLibertineT-65" transform="translate(69.838128 0) scale(0.996264)"/>
      <use xlink:href="#LinLibertineT-6e" transform="translate(114.371081 0) scale(0.996264)"/>
      <use xlink:href="#LinLibertineT-73" transform="translate(168.368572 0) scale(0.996264)"/>
      <use xlink:href="#LinLibertineT-69" transform="translate(207.222899 0) scale(0.996264)"/>
      <use xlink:href="#LinLibertineT-74" transform="translate(234.221644 0) scale(0.996264)"/>
      <use xlink:href="#LinLibertineT-79" transform="translate(265.703578 0) scale(0.996264)"/>
      <use xlink:href="#LinLibertineT-5b" transform="translate(341.917805 0) scale(0.996264)"/>
      <use xlink:href="#LinLibertineT-25" transform="translate(377.384795 0) scale(0.996264)"/>
      <use xlink:href="#LinLibertineT-5d" transform="translate(440.846809 0) scale(0.996264)"/>
     </g>
    </g>
   </g>
   <g id="patch_3">
    <path d="M 20.110083 38.136881 
L 22.204641 38.136881 
L 22.204641 37.798642 
L 20.110083 37.798642 
z
" clip-path="url(#p404c4af663)" style="fill: #80b1d3; stroke: #000000; stroke-width: 0.25; stroke-linejoin: miter"/>
   </g>
   <g id="patch_4">
    <path d="M 22.204641 38.136881 
L 24.299198 38.136881 
L 24.299198 37.798642 
L 22.204641 37.798642 
z
" clip-path="url(#p404c4af663)" style="fill: #80b1d3; stroke: #000000; stroke-width: 0.25; stroke-linejoin: miter"/>
   </g>
   <g id="patch_5">
    <path d="M 24.299198 38.136881 
L 26.393756 38.136881 
L 26.393756 37.798642 
L 24.299198 37.798642 
z
" clip-path="url(#p404c4af663)" style="fill: #80b1d3; stroke: #000000; stroke-width: 0.25; stroke-linejoin: miter"/>
   </g>
   <g id="patch_6">
    <path d="M 26.393756 38.136881 
L 28.488314 38.136881 
L 28.488314 37.122163 
L 26.393756 37.122163 
z
" clip-path="url(#p404c4af663)" style="fill: #80b1d3; stroke: #000000; stroke-width: 0.25; stroke-linejoin: miter"/>
   </g>
   <g id="patch_7">
    <path d="M 28.488314 38.136881 
L 30.582872 38.136881 
L 30.582872 37.798642 
L 28.488314 37.798642 
z
" clip-path="url(#p404c4af663)" style="fill: #80b1d3; stroke: #000000; stroke-width: 0.25; stroke-linejoin: miter"/>
   </g>
   <g id="patch_8">
    <path d="M 30.582872 38.136881 
L 32.67743 38.136881 
L 32.67743 37.122163 
L 30.582872 37.122163 
z
" clip-path="url(#p404c4af663)" style="fill: #80b1d3; stroke: #000000; stroke-width: 0.25; stroke-linejoin: miter"/>
   </g>
   <g id="patch_9">
    <path d="M 32.67743 38.136881 
L 34.771988 38.136881 
L 34.771988 37.460402 
L 32.67743 37.460402 
z
" clip-path="url(#p404c4af663)" style="fill: #80b1d3; stroke: #000000; stroke-width: 0.25; stroke-linejoin: miter"/>
   </g>
   <g id="patch_10">
    <path d="M 34.771988 38.136881 
L 36.866546 38.136881 
L 36.866546 35.430966 
L 34.771988 35.430966 
z
" clip-path="url(#p404c4af663)" style="fill: #80b1d3; stroke: #000000; stroke-width: 0.25; stroke-linejoin: miter"/>
   </g>
   <g id="patch_11">
    <path d="M 36.866546 38.136881 
L 38.961104 38.136881 
L 38.961104 36.445684 
L 36.866546 36.445684 
z
" clip-path="url(#p404c4af663)" style="fill: #80b1d3; stroke: #000000; stroke-width: 0.25; stroke-linejoin: miter"/>
   </g>
   <g id="patch_12">
    <path d="M 38.961104 38.136881 
L 41.055662 38.136881 
L 41.055662 29.680896 
L 38.961104 29.680896 
z
" clip-path="url(#p404c4af663)" style="fill: #80b1d3; stroke: #000000; stroke-width: 0.25; stroke-linejoin: miter"/>
   </g>
   <g id="patch_13">
    <path d="M 41.055662 38.136881 
L 43.150219 38.136881 
L 43.150219 30.357375 
L 41.055662 30.357375 
z
" clip-path="url(#p404c4af663)" style="fill: #80b1d3; stroke: #000000; stroke-width: 0.25; stroke-linejoin: miter"/>
   </g>
   <g id="patch_14">
    <path d="M 43.150219 38.136881 
L 45.244777 38.136881 
L 45.244777 29.004417 
L 43.150219 29.004417 
z
" clip-path="url(#p404c4af663)" style="fill: #80b1d3; stroke: #000000; stroke-width: 0.25; stroke-linejoin: miter"/>
   </g>
   <g id="patch_15">
    <path d="M 45.244777 38.136881 
L 47.339335 38.136881 
L 47.339335 25.283784 
L 45.244777 25.283784 
z
" clip-path="url(#p404c4af663)" style="fill: #80b1d3; stroke: #000000; stroke-width: 0.25; stroke-linejoin: miter"/>
   </g>
   <g id="patch_16">
    <path d="M 47.339335 38.136881 
L 49.433893 38.136881 
L 49.433893 23.930826 
L 47.339335 23.930826 
z
" clip-path="url(#p404c4af663)" style="fill: #80b1d3; stroke: #000000; stroke-width: 0.25; stroke-linejoin: miter"/>
   </g>
   <g id="patch_17">
    <path d="M 49.433893 38.136881 
L 51.528451 38.136881 
L 51.528451 18.518996 
L 49.433893 18.518996 
z
" clip-path="url(#p404c4af663)" style="fill: #80b1d3; stroke: #000000; stroke-width: 0.25; stroke-linejoin: miter"/>
   </g>
   <g id="patch_18">
    <path d="M 51.528451 38.136881 
L 53.623009 38.136881 
L 53.623009 17.504277 
L 51.528451 17.504277 
z
" clip-path="url(#p404c4af663)" style="fill: #80b1d3; stroke: #000000; stroke-width: 0.25; stroke-linejoin: miter"/>
   </g>
   <g id="patch_19">
    <path d="M 53.623009 38.136881 
L 55.717567 38.136881 
L 55.717567 20.210193 
L 53.623009 20.210193 
z
" clip-path="url(#p404c4af663)" style="fill: #80b1d3; stroke: #000000; stroke-width: 0.25; stroke-linejoin: miter"/>
   </g>
   <g id="patch_20">
    <path d="M 55.717567 38.136881 
L 57.812125 38.136881 
L 57.812125 18.180756 
L 55.717567 18.180756 
z
" clip-path="url(#p404c4af663)" style="fill: #80b1d3; stroke: #000000; stroke-width: 0.25; stroke-linejoin: miter"/>
   </g>
   <g id="patch_21">
    <path d="M 57.812125 38.136881 
L 59.906682 38.136881 
L 59.906682 24.607305 
L 57.812125 24.607305 
z
" clip-path="url(#p404c4af663)" style="fill: #80b1d3; stroke: #000000; stroke-width: 0.25; stroke-linejoin: miter"/>
   </g>
   <g id="patch_22">
    <path d="M 59.906682 38.136881 
L 62.00124 38.136881 
L 62.00124 20.548432 
L 59.906682 20.548432 
z
" clip-path="url(#p404c4af663)" style="fill: #80b1d3; stroke: #000000; stroke-width: 0.25; stroke-linejoin: miter"/>
   </g>
   <g id="patch_23">
    <path d="M 62.00124 38.136881 
L 64.095798 38.136881 
L 64.095798 21.90139 
L 62.00124 21.90139 
z
" clip-path="url(#p404c4af663)" style="fill: #80b1d3; stroke: #000000; stroke-width: 0.25; stroke-linejoin: miter"/>
   </g>
   <g id="patch_24">
    <path d="M 64.095798 38.136881 
L 66.190356 38.136881 
L 66.190356 11.077729 
L 64.095798 11.077729 
z
" clip-path="url(#p404c4af663)" style="fill: #80b1d3; stroke: #000000; stroke-width: 0.25; stroke-linejoin: miter"/>
   </g>
   <g id="patch_25">
    <path d="M 66.190356 38.136881 
L 68.284914 38.136881 
L 68.284914 20.548432 
L 66.190356 20.548432 
z
" clip-path="url(#p404c4af663)" style="fill: #80b1d3; stroke: #000000; stroke-width: 0.25; stroke-linejoin: miter"/>
   </g>
   <g id="patch_26">
    <path d="M 68.284914 38.136881 
L 70.379472 38.136881 
L 70.379472 -2.451848 
L 68.284914 -2.451848 
z
" clip-path="url(#p404c4af663)" style="fill: #80b1d3; stroke: #000000; stroke-width: 0.25; stroke-linejoin: miter"/>
   </g>
   <g id="patch_27">
    <path d="M 70.379472 38.136881 
L 72.47403 38.136881 
L 72.47403 20.548432 
L 70.379472 20.548432 
z
" clip-path="url(#p404c4af663)" style="fill: #80b1d3; stroke: #000000; stroke-width: 0.25; stroke-linejoin: miter"/>
   </g>
   <g id="patch_28">
    <path d="M 72.47403 38.136881 
L 74.568588 38.136881 
L 74.568588 21.224911 
L 72.47403 21.224911 
z
" clip-path="url(#p404c4af663)" style="fill: #80b1d3; stroke: #000000; stroke-width: 0.25; stroke-linejoin: miter"/>
   </g>
   <g id="patch_29">
    <path d="M 74.568588 38.136881 
L 76.663146 38.136881 
L 76.663146 27.651459 
L 74.568588 27.651459 
z
" clip-path="url(#p404c4af663)" style="fill: #80b1d3; stroke: #000000; stroke-width: 0.25; stroke-linejoin: miter"/>
   </g>
   <g id="patch_30">
    <path d="M 76.663146 38.136881 
L 78.757703 38.136881 
L 78.757703 30.019135 
L 76.663146 30.019135 
z
" clip-path="url(#p404c4af663)" style="fill: #80b1d3; stroke: #000000; stroke-width: 0.25; stroke-linejoin: miter"/>
   </g>
   <g id="patch_31">
    <path d="M 78.757703 38.136881 
L 80.852261 38.136881 
L 80.852261 26.636741 
L 78.757703 26.636741 
z
" clip-path="url(#p404c4af663)" style="fill: #80b1d3; stroke: #000000; stroke-width: 0.25; stroke-linejoin: miter"/>
   </g>
   <g id="patch_32">
    <path d="M 80.852261 38.136881 
L 82.946819 38.136881 
L 82.946819 -3.128326 
L 80.852261 -3.128326 
z
" clip-path="url(#p404c4af663)" style="fill: #80b1d3; stroke: #000000; stroke-width: 0.25; stroke-linejoin: miter"/>
   </g>
   <g id="patch_33">
    <path d="M 82.946819 38.136881 
L 85.041377 38.136881 
L 85.041377 33.06329 
L 82.946819 33.06329 
z
" clip-path="url(#p404c4af663)" style="fill: #80b1d3; stroke: #000000; stroke-width: 0.25; stroke-linejoin: miter"/>
   </g>
   <g id="patch_34">
    <path d="M 85.041377 38.136881 
L 87.135935 38.136881 
L 87.135935 34.754487 
L 85.041377 34.754487 
z
" clip-path="url(#p404c4af663)" style="fill: #80b1d3; stroke: #000000; stroke-width: 0.25; stroke-linejoin: miter"/>
   </g>
   <g id="patch_35">
    <path d="M 87.135935 38.136881 
L 89.230493 38.136881 
L 89.230493 34.416247 
L 87.135935 34.416247 
z
" clip-path="url(#p404c4af663)" style="fill: #80b1d3; stroke: #000000; stroke-width: 0.25; stroke-linejoin: miter"/>
   </g>
   <g id="patch_36">
    <path d="M 89.230493 38.136881 
L 91.325051 38.136881 
L 91.325051 36.107445 
L 89.230493 36.107445 
z
" clip-path="url(#p404c4af663)" style="fill: #80b1d3; stroke: #000000; stroke-width: 0.25; stroke-linejoin: miter"/>
   </g>
   <g id="patch_37">
    <path d="M 91.325051 38.136881 
L 93.419609 38.136881 
L 93.419609 29.342656 
L 91.325051 29.342656 
z
" clip-path="url(#p404c4af663)" style="fill: #80b1d3; stroke: #000000; stroke-width: 0.25; stroke-linejoin: miter"/>
   </g>
   <g id="patch_38">
    <path d="M 93.419609 38.136881 
L 95.514166 38.136881 
L 95.514166 36.783923 
L 93.419609 36.783923 
z
" clip-path="url(#p404c4af663)" style="fill: #80b1d3; stroke: #000000; stroke-width: 0.25; stroke-linejoin: miter"/>
   </g>
   <g id="patch_39">
    <path d="M 95.514166 38.136881 
L 97.608724 38.136881 
L 97.608724 34.078008 
L 95.514166 34.078008 
z
" clip-path="url(#p404c4af663)" style="fill: #80b1d3; stroke: #000000; stroke-width: 0.25; stroke-linejoin: miter"/>
   </g>
   <g id="patch_40">
    <path d="M 97.608724 38.136881 
L 99.703282 38.136881 
L 99.703282 37.122163 
L 97.608724 37.122163 
z
" clip-path="url(#p404c4af663)" style="fill: #80b1d3; stroke: #000000; stroke-width: 0.25; stroke-linejoin: miter"/>
   </g>
   <g id="patch_41">
    <path d="M 99.703282 38.136881 
L 101.79784 38.136881 
L 101.79784 32.72505 
L 99.703282 32.72505 
z
" clip-path="url(#p404c4af663)" style="fill: #80b1d3; stroke: #000000; stroke-width: 0.25; stroke-linejoin: miter"/>
   </g>
   <g id="patch_42">
    <path d="M 101.79784 38.136881 
L 103.892398 38.136881 
L 103.892398 35.430966 
L 101.79784 35.430966 
z
" clip-path="url(#p404c4af663)" style="fill: #80b1d3; stroke: #000000; stroke-width: 0.25; stroke-linejoin: miter"/>
   </g>
   <g id="patch_43">
    <path d="M 103.892398 38.136881 
L 105.986956 38.136881 
L 105.986956 31.372093 
L 103.892398 31.372093 
z
" clip-path="url(#p404c4af663)" style="fill: #80b1d3; stroke: #000000; stroke-width: 0.25; stroke-linejoin: miter"/>
   </g>
   <g id="patch_44">
    <path d="M 105.986956 38.136881 
L 108.081514 38.136881 
L 108.081514 36.783923 
L 105.986956 36.783923 
z
" clip-path="url(#p404c4af663)" style="fill: #80b1d3; stroke: #000000; stroke-width: 0.25; stroke-linejoin: miter"/>
   </g>
   <g id="patch_45">
    <path d="M 108.081514 38.136881 
L 110.176072 38.136881 
L 110.176072 37.798642 
L 108.081514 37.798642 
z
" clip-path="url(#p404c4af663)" style="fill: #80b1d3; stroke: #000000; stroke-width: 0.25; stroke-linejoin: miter"/>
   </g>
   <g id="patch_46">
    <path d="M 110.176072 38.136881 
L 112.27063 38.136881 
L 112.27063 37.798642 
L 110.176072 37.798642 
z
" clip-path="url(#p404c4af663)" style="fill: #80b1d3; stroke: #000000; stroke-width: 0.25; stroke-linejoin: miter"/>
   </g>
   <g id="patch_47">
    <path d="M 112.27063 38.136881 
L 114.365187 38.136881 
L 114.365187 37.460402 
L 112.27063 37.460402 
z
" clip-path="url(#p404c4af663)" style="fill: #80b1d3; stroke: #000000; stroke-width: 0.25; stroke-linejoin: miter"/>
   </g>
   <g id="patch_48">
    <path d="M 114.365187 38.136881 
L 116.459745 38.136881 
L 116.459745 37.460402 
L 114.365187 37.460402 
z
" clip-path="url(#p404c4af663)" style="fill: #80b1d3; stroke: #000000; stroke-width: 0.25; stroke-linejoin: miter"/>
   </g>
   <g id="patch_49">
    <path d="M 116.459745 38.136881 
L 118.554303 38.136881 
L 118.554303 38.136881 
L 116.459745 38.136881 
z
" clip-path="url(#p404c4af663)" style="fill: #80b1d3; stroke: #000000; stroke-width: 0.25; stroke-linejoin: miter"/>
   </g>
   <g id="patch_50">
    <path d="M 118.554303 38.136881 
L 120.648861 38.136881 
L 120.648861 37.798642 
L 118.554303 37.798642 
z
" clip-path="url(#p404c4af663)" style="fill: #80b1d3; stroke: #000000; stroke-width: 0.25; stroke-linejoin: miter"/>
   </g>
   <g id="patch_51">
    <path d="M 120.648861 38.136881 
L 122.743419 38.136881 
L 122.743419 37.460402 
L 120.648861 37.460402 
z
" clip-path="url(#p404c4af663)" style="fill: #80b1d3; stroke: #000000; stroke-width: 0.25; stroke-linejoin: miter"/>
   </g>
   <g id="patch_52">
    <path d="M 122.743419 38.136881 
L 124.837977 38.136881 
L 124.837977 38.136881 
L 122.743419 38.136881 
z
" clip-path="url(#p404c4af663)" style="fill: #80b1d3; stroke: #000000; stroke-width: 0.25; stroke-linejoin: miter"/>
   </g>
   <g id="patch_53">
    <path d="M 124.837977 38.136881 
L 126.932535 38.136881 
L 126.932535 38.136881 
L 124.837977 38.136881 
z
" clip-path="url(#p404c4af663)" style="fill: #80b1d3; stroke: #000000; stroke-width: 0.25; stroke-linejoin: miter"/>
   </g>
   <g id="patch_54">
    <path d="M 126.932535 38.136881 
L 129.027093 38.136881 
L 129.027093 37.122163 
L 126.932535 37.122163 
z
" clip-path="url(#p404c4af663)" style="fill: #80b1d3; stroke: #000000; stroke-width: 0.25; stroke-linejoin: miter"/>
   </g>
   <g id="patch_55">
    <path d="M 129.027093 38.136881 
L 131.12165 38.136881 
L 131.12165 37.798642 
L 129.027093 37.798642 
z
" clip-path="url(#p404c4af663)" style="fill: #80b1d3; stroke: #000000; stroke-width: 0.25; stroke-linejoin: miter"/>
   </g>
   <g id="patch_56">
    <path d="M 131.12165 38.136881 
L 133.216208 38.136881 
L 133.216208 37.798642 
L 131.12165 37.798642 
z
" clip-path="url(#p404c4af663)" style="fill: #80b1d3; stroke: #000000; stroke-width: 0.25; stroke-linejoin: miter"/>
   </g>
   <g id="patch_57">
    <path d="M 133.216208 38.136881 
L 135.310766 38.136881 
L 135.310766 36.783923 
L 133.216208 36.783923 
z
" clip-path="url(#p404c4af663)" style="fill: #80b1d3; stroke: #000000; stroke-width: 0.25; stroke-linejoin: miter"/>
   </g>
   <g id="patch_58">
    <path d="M 135.310766 38.136881 
L 137.405324 38.136881 
L 137.405324 38.136881 
L 135.310766 38.136881 
z
" clip-path="url(#p404c4af663)" style="fill: #80b1d3; stroke: #000000; stroke-width: 0.25; stroke-linejoin: miter"/>
   </g>
   <g id="patch_59">
    <path d="M 137.405324 38.136881 
L 139.499882 38.136881 
L 139.499882 37.798642 
L 137.405324 37.798642 
z
" clip-path="url(#p404c4af663)" style="fill: #80b1d3; stroke: #000000; stroke-width: 0.25; stroke-linejoin: miter"/>
   </g>
   <g id="patch_60">
    <path d="M 139.499882 38.136881 
L 141.59444 38.136881 
L 141.59444 37.122163 
L 139.499882 37.122163 
z
" clip-path="url(#p404c4af663)" style="fill: #80b1d3; stroke: #000000; stroke-width: 0.25; stroke-linejoin: miter"/>
   </g>
   <g id="patch_61">
    <path d="M 141.59444 38.136881 
L 143.688998 38.136881 
L 143.688998 37.798642 
L 141.59444 37.798642 
z
" clip-path="url(#p404c4af663)" style="fill: #80b1d3; stroke: #000000; stroke-width: 0.25; stroke-linejoin: miter"/>
   </g>
   <g id="patch_62">
    <path d="M 143.688998 38.136881 
L 145.783556 38.136881 
L 145.783556 38.136881 
L 143.688998 38.136881 
z
" clip-path="url(#p404c4af663)" style="fill: #80b1d3; stroke: #000000; stroke-width: 0.25; stroke-linejoin: miter"/>
   </g>
   <g id="patch_63">
    <path d="M 145.783556 38.136881 
L 147.878114 38.136881 
L 147.878114 38.136881 
L 145.783556 38.136881 
z
" clip-path="url(#p404c4af663)" style="fill: #80b1d3; stroke: #000000; stroke-width: 0.25; stroke-linejoin: miter"/>
   </g>
   <g id="patch_64">
    <path d="M 147.878114 38.136881 
L 149.972671 38.136881 
L 149.972671 37.460402 
L 147.878114 37.460402 
z
" clip-path="url(#p404c4af663)" style="fill: #80b1d3; stroke: #000000; stroke-width: 0.25; stroke-linejoin: miter"/>
   </g>
   <g id="patch_65">
    <path d="M 149.972671 38.136881 
L 152.067229 38.136881 
L 152.067229 38.136881 
L 149.972671 38.136881 
z
" clip-path="url(#p404c4af663)" style="fill: #80b1d3; stroke: #000000; stroke-width: 0.25; stroke-linejoin: miter"/>
   </g>
   <g id="patch_66">
    <path d="M 152.067229 38.136881 
L 154.161787 38.136881 
L 154.161787 38.136881 
L 152.067229 38.136881 
z
" clip-path="url(#p404c4af663)" style="fill: #80b1d3; stroke: #000000; stroke-width: 0.25; stroke-linejoin: miter"/>
   </g>
   <g id="patch_67">
    <path d="M 154.161787 38.136881 
L 156.256345 38.136881 
L 156.256345 38.136881 
L 154.161787 38.136881 
z
" clip-path="url(#p404c4af663)" style="fill: #80b1d3; stroke: #000000; stroke-width: 0.25; stroke-linejoin: miter"/>
   </g>
   <g id="patch_68">
    <path d="M 156.256345 38.136881 
L 158.350903 38.136881 
L 158.350903 37.460402 
L 156.256345 37.460402 
z
" clip-path="url(#p404c4af663)" style="fill: #80b1d3; stroke: #000000; stroke-width: 0.25; stroke-linejoin: miter"/>
   </g>
   <g id="patch_69">
    <path d="M 158.350903 38.136881 
L 160.445461 38.136881 
L 160.445461 38.136881 
L 158.350903 38.136881 
z
" clip-path="url(#p404c4af663)" style="fill: #80b1d3; stroke: #000000; stroke-width: 0.25; stroke-linejoin: miter"/>
   </g>
   <g id="patch_70">
    <path d="M 160.445461 38.136881 
L 162.540019 38.136881 
L 162.540019 38.136881 
L 160.445461 38.136881 
z
" clip-path="url(#p404c4af663)" style="fill: #80b1d3; stroke: #000000; stroke-width: 0.25; stroke-linejoin: miter"/>
   </g>
   <g id="patch_71">
    <path d="M 162.540019 38.136881 
L 164.634577 38.136881 
L 164.634577 38.136881 
L 162.540019 38.136881 
z
" clip-path="url(#p404c4af663)" style="fill: #80b1d3; stroke: #000000; stroke-width: 0.25; stroke-linejoin: miter"/>
   </g>
   <g id="patch_72">
    <path d="M 164.634577 38.136881 
L 166.729134 38.136881 
L 166.729134 38.136881 
L 164.634577 38.136881 
z
" clip-path="url(#p404c4af663)" style="fill: #80b1d3; stroke: #000000; stroke-width: 0.25; stroke-linejoin: miter"/>
   </g>
   <g id="patch_73">
    <path d="M 166.729134 38.136881 
L 168.823692 38.136881 
L 168.823692 37.460402 
L 166.729134 37.460402 
z
" clip-path="url(#p404c4af663)" style="fill: #80b1d3; stroke: #000000; stroke-width: 0.25; stroke-linejoin: miter"/>
   </g>
   <g id="patch_74">
    <path d="M 168.823692 38.136881 
L 170.91825 38.136881 
L 170.91825 37.460402 
L 168.823692 37.460402 
z
" clip-path="url(#p404c4af663)" style="fill: #80b1d3; stroke: #000000; stroke-width: 0.25; stroke-linejoin: miter"/>
   </g>
   <g id="patch_75">
    <path d="M 170.91825 38.136881 
L 173.012808 38.136881 
L 173.012808 38.136881 
L 170.91825 38.136881 
z
" clip-path="url(#p404c4af663)" style="fill: #80b1d3; stroke: #000000; stroke-width: 0.25; stroke-linejoin: miter"/>
   </g>
   <g id="patch_76">
    <path d="M 173.012808 38.136881 
L 175.107366 38.136881 
L 175.107366 38.136881 
L 173.012808 38.136881 
z
" clip-path="url(#p404c4af663)" style="fill: #80b1d3; stroke: #000000; stroke-width: 0.25; stroke-linejoin: miter"/>
   </g>
   <g id="patch_77">
    <path d="M 175.107366 38.136881 
L 177.201924 38.136881 
L 177.201924 38.136881 
L 175.107366 38.136881 
z
" clip-path="url(#p404c4af663)" style="fill: #80b1d3; stroke: #000000; stroke-width: 0.25; stroke-linejoin: miter"/>
   </g>
   <g id="patch_78">
    <path d="M 177.201924 38.136881 
L 179.296482 38.136881 
L 179.296482 38.136881 
L 177.201924 38.136881 
z
" clip-path="url(#p404c4af663)" style="fill: #80b1d3; stroke: #000000; stroke-width: 0.25; stroke-linejoin: miter"/>
   </g>
   <g id="patch_79">
    <path d="M 179.296482 38.136881 
L 181.39104 38.136881 
L 181.39104 38.136881 
L 179.296482 38.136881 
z
" clip-path="url(#p404c4af663)" style="fill: #80b1d3; stroke: #000000; stroke-width: 0.25; stroke-linejoin: miter"/>
   </g>
   <g id="patch_80">
    <path d="M 181.39104 38.136881 
L 183.485598 38.136881 
L 183.485598 38.136881 
L 181.39104 38.136881 
z
" clip-path="url(#p404c4af663)" style="fill: #80b1d3; stroke: #000000; stroke-width: 0.25; stroke-linejoin: miter"/>
   </g>
   <g id="patch_81">
    <path d="M 183.485598 38.136881 
L 185.580155 38.136881 
L 185.580155 38.136881 
L 183.485598 38.136881 
z
" clip-path="url(#p404c4af663)" style="fill: #80b1d3; stroke: #000000; stroke-width: 0.25; stroke-linejoin: miter"/>
   </g>
   <g id="patch_82">
    <path d="M 185.580155 38.136881 
L 187.674713 38.136881 
L 187.674713 38.136881 
L 185.580155 38.136881 
z
" clip-path="url(#p404c4af663)" style="fill: #80b1d3; stroke: #000000; stroke-width: 0.25; stroke-linejoin: miter"/>
   </g>
   <g id="patch_83">
    <path d="M 187.674713 38.136881 
L 189.769271 38.136881 
L 189.769271 36.783923 
L 187.674713 36.783923 
z
" clip-path="url(#p404c4af663)" style="fill: #80b1d3; stroke: #000000; stroke-width: 0.25; stroke-linejoin: miter"/>
   </g>
   <g id="patch_84">
    <path d="M 15.920967 38.136881 
L 15.920967 3.338811 
" style="fill: none; stroke: #000000; stroke-width: 0.8; stroke-linejoin: miter; stroke-linecap: square"/>
   </g>
   <g id="patch_85">
    <path d="M 193.958387 38.136881 
L 193.958387 3.338811 
" style="fill: none; stroke: #000000; stroke-width: 0.8; stroke-linejoin: miter; stroke-linecap: square"/>
   </g>
   <g id="patch_86">
    <path d="M 15.920967 38.136881 
L 193.958387 38.136881 
" style="fill: none; stroke: #000000; stroke-width: 0.8; stroke-linejoin: miter; stroke-linecap: square"/>
   </g>
   <g id="patch_87">
    <path d="M 15.920967 3.338811 
L 193.958387 3.338811 
" style="fill: none; stroke: #000000; stroke-width: 0.8; stroke-linejoin: miter; stroke-linecap: square"/>
   </g>
  </g>
 </g>
 <defs>
  <clipPath id="p404c4af663">
   <rect x="15.920967" y="3.338811" width="178.03742" height="34.79807"/>
  </clipPath>
 </defs>
</svg>
