<?xml version="1.0" encoding="utf-8" standalone="no"?>
<!DOCTYPE svg PUBLIC "-//W3C//DTD SVG 1.1//EN"
  "http://www.w3.org/Graphics/SVG/1.1/DTD/svg11.dtd">
<svg height="217.290481pt" version="1.1" viewBox="0 0 231.128247 217.290481" width="231.128247pt" xmlns="http://www.w3.org/2000/svg" xmlns:xlink="http://www.w3.org/1999/xlink">
 <metadata>
  <rdf:RDF xmlns:cc="http://creativecommons.org/ns#" xmlns:dc="http://purl.org/dc/elements/1.1/" xmlns:rdf="http://www.w3.org/1999/02/22-rdf-syntax-ns#">
   <cc:Work>
    <dc:type rdf:resource="http://purl.org/dc/dcmitype/StillImage"/>
    <dc:date>2022-02-18T03:14:03.720641</dc:date>
    <dc:format>image/svg+xml</dc:format>
    <dc:creator>
     <cc:Agent>
      <dc:title>Matplotlib v3.4.3, https://matplotlib.org/</dc:title>
     </cc:Agent>
    </dc:creator>
   </cc:Work>
  </rdf:RDF>
 </metadata>
 <defs>
  <style type="text/css">*{stroke-linecap:butt;stroke-linejoin:round;}</style>
 </defs>
 <g id="figure_1">
  <g id="patch_1">
   <path d="M 0 217.290481 
L 231.128247 217.290481 
L 231.128247 0 
L 0 0 
z
" style="fill:#ffffff;"/>
  </g>
  <g id="axes_1">
   <g id="patch_2">
    <path d="M 194.985433 108.645241 
C 194.985433 94.65743 191.586225 80.876899 185.081339 68.493632 
C 178.576453 56.110365 169.158677 45.491367 157.641257 37.553616 
C 146.123838 29.615864 132.848121 24.594612 118.960498 22.923456 
C 105.072874 21.252301 90.984935 22.980771 77.91321 27.959609 
C 64.841484 32.938447 53.173381 41.020094 43.916471 51.506679 
C 34.659561 61.993264 28.088194 74.573994 24.769822 88.162491 
C 21.451451 101.750988 21.484423 115.944527 24.865892 129.51746 
C 28.24736 143.090393 34.877108 155.640456 44.182639 166.08392 
L 108.645241 108.645241 
L 194.985433 108.645241 
z
" style="fill:#e31a1c;"/>
   </g>
   <g id="patch_3">
    <path d="M 44.182639 166.08392 
C 53.019699 176.001625 64.027492 183.747436 76.346643 188.716642 
C 88.665794 193.685849 101.967154 195.74568 115.212292 194.735325 
L 108.645241 108.645241 
L 44.182639 166.08392 
z
" style="fill:#fdbf6f;"/>
   </g>
   <g id="patch_4">
    <path d="M 115.212292 194.735325 
C 120.817031 194.307789 126.366649 193.333943 131.78209 191.827661 
C 137.197531 190.321378 142.452957 188.289845 147.473504 185.762001 
L 108.645241 108.645241 
L 115.212292 194.735325 
z
" style="fill:#fb9a99;"/>
   </g>
   <g id="patch_5">
    <path d="M 147.473504 185.762001 
C 151.484224 183.742605 155.331302 181.413395 158.97971 178.795579 
C 162.628117 176.177764 166.066749 173.27931 169.264298 170.126609 
L 108.645241 108.645241 
L 147.473504 185.762001 
z
" style="fill:#1f78b4;"/>
   </g>
   <g id="patch_6">
    <path d="M 169.264298 170.126609 
C 172.431095 167.004228 175.351922 163.641835 178.000693 160.069457 
C 180.649464 156.49708 183.01827 152.725385 185.085956 148.788059 
L 108.645241 108.645241 
L 169.264298 170.126609 
z
" style="fill:#a6cee3;"/>
   </g>
   <g id="patch_7">
    <path d="M 185.085956 148.788059 
C 187.061678 145.025852 188.756958 141.122914 190.157969 137.111077 
C 191.558981 133.09924 192.661906 128.98944 193.457748 124.815196 
L 108.645241 108.645241 
L 185.085956 148.788059 
z
" style="fill:#ff7f00;"/>
   </g>
   <g id="patch_8">
    <path d="M 193.457748 124.815196 
C 193.965563 122.151668 194.347626 119.465697 194.602664 116.766213 
C 194.857702 114.066729 194.985433 111.356729 194.985433 108.645224 
L 108.645241 108.645241 
L 193.457748 124.815196 
z
" style="fill:#ffff99;"/>
   </g>
   <g id="matplotlib.axis_1"/>
   <g id="matplotlib.axis_2"/>
   <g id="text_1">
    <!-- A -->
    <g transform="translate(68.541726 21.758289)scale(0.07497 -0.07497)">
     <defs>
      <path d="M 2323 4378 
C 2291 4461 2278 4480 2214 4480 
C 2150 4480 2138 4461 2106 4378 
L 749 566 
C 627 223 371 153 147 153 
L 147 -13 
C 262 0 518 0 640 0 
C 800 0 1056 0 1210 -13 
L 1210 153 
C 909 153 864 361 864 439 
C 864 497 877 530 890 569 
L 1229 1536 
L 2906 1536 
L 3290 442 
C 3322 365 3322 352 3322 327 
C 3322 153 3046 153 2925 153 
L 2925 0 
C 3110 0 3443 0 3642 0 
C 3808 0 4128 0 4282 -13 
L 4282 153 
C 3942 153 3827 153 3744 387 
L 2323 4378 
z
M 2067 3893 
L 2848 1702 
L 1286 1702 
L 2067 3893 
z
" id="CMR17-41" transform="scale(0.015625)"/>
     </defs>
     <use transform="scale(0.996264)" xlink:href="#CMR17-41"/>
    </g>
   </g>
   <g id="text_2">
    <!-- 61.6\% -->
    <g transform="translate(70.491822 42.304048)scale(0.09 -0.09)">
     <defs>
      <path d="M 678 2176 
C 678 3690 1395 4032 1811 4032 
C 1946 4032 2272 4009 2400 3776 
C 2298 3776 2106 3776 2106 3553 
C 2106 3381 2246 3323 2336 3323 
C 2394 3323 2566 3348 2566 3560 
C 2566 3954 2246 4179 1805 4179 
C 1043 4179 243 3390 243 1984 
C 243 253 966 -128 1478 -128 
C 2099 -128 2688 427 2688 1283 
C 2688 2081 2170 2662 1517 2662 
C 1126 2662 838 2407 678 1960 
L 678 2176 
z
M 1478 25 
C 691 25 691 1200 691 1436 
C 691 1896 909 2560 1504 2560 
C 1613 2560 1926 2560 2138 2120 
C 2253 1870 2253 1609 2253 1289 
C 2253 944 2253 690 2118 434 
C 1978 171 1773 25 1478 25 
z
" id="CMR17-36" transform="scale(0.015625)"/>
      <path d="M 1702 4058 
C 1702 4192 1696 4192 1606 4192 
C 1357 3916 979 3827 621 3827 
C 602 3827 570 3827 563 3808 
C 557 3795 557 3782 557 3648 
C 755 3648 1088 3686 1344 3839 
L 1344 461 
C 1344 236 1331 160 781 160 
L 589 160 
L 589 0 
C 896 0 1216 0 1523 0 
C 1830 0 2150 0 2458 0 
L 2458 160 
L 2266 160 
C 1715 160 1702 230 1702 458 
L 1702 4058 
z
" id="CMR17-31" transform="scale(0.015625)"/>
      <path d="M 1062 261 
C 1062 420 934 522 800 522 
C 672 522 538 420 538 261 
C 538 102 666 0 800 0 
C 928 0 1062 102 1062 261 
z
" id="CMR17-2e" transform="scale(0.015625)"/>
      <path d="M 4640 959 
C 4640 1698 4275 2240 3846 2240 
C 3411 2240 2970 1736 2970 959 
C 2970 183 3405 -320 3846 -320 
C 4275 -320 4640 215 4640 959 
z
M 3853 -218 
C 3686 -218 3270 -66 3270 959 
C 3270 1991 3686 2138 3853 2138 
C 4205 2138 4525 1634 4525 959 
C 4525 285 4205 -218 3853 -218 
z
M 4083 4577 
C 4128 4647 4134 4653 4134 4685 
C 4134 4761 4077 4800 4026 4800 
C 3962 4800 3936 4756 3891 4706 
C 3520 4190 3008 4134 2746 4134 
C 2106 4134 1715 4494 1594 4607 
C 1510 4682 1389 4800 1171 4800 
C 736 4800 294 4296 294 3519 
C 294 2743 730 2240 1171 2240 
C 1600 2240 1965 2778 1965 3527 
C 1965 3969 1830 4270 1811 4308 
C 2202 4064 2586 4032 2752 4032 
C 3162 4032 3456 4183 3616 4289 
L 3622 4283 
L 858 -84 
C 800 -174 800 -187 800 -206 
C 800 -276 858 -320 915 -320 
C 973 -320 992 -289 1037 -218 
L 4083 4577 
z
M 1178 2342 
C 1011 2342 595 2494 595 3519 
C 595 4551 1011 4698 1178 4698 
C 1530 4698 1850 4194 1850 3519 
C 1850 2845 1530 2342 1178 2342 
z
" id="CMR17-25" transform="scale(0.015625)"/>
     </defs>
     <use transform="scale(0.996264)" xlink:href="#CMR17-36"/>
     <use transform="translate(45.690477 0)scale(0.996264)" xlink:href="#CMR17-31"/>
     <use transform="translate(91.380954 0)scale(0.996264)" xlink:href="#CMR17-2e"/>
     <use transform="translate(116.252013 0)scale(0.996264)" xlink:href="#CMR17-36"/>
     <use transform="translate(161.94249 0)scale(0.996264)" xlink:href="#CMR17-25"/>
    </g>
   </g>
   <g id="text_3">
    <!-- PTR -->
    <g transform="translate(55.096301 198.591025)scale(0.07497 -0.07497)">
     <defs>
      <path d="M 1267 2042 
L 2291 2042 
C 3117 2042 3718 2578 3718 3184 
C 3718 3791 3130 4352 2291 4352 
L 333 4352 
L 333 4186 
C 774 4186 845 4186 845 3899 
L 845 446 
C 845 160 774 160 333 160 
L 333 0 
C 518 0 858 0 1056 0 
C 1254 0 1594 0 1779 0 
L 1779 160 
C 1338 160 1267 160 1267 446 
L 1267 2042 
z
M 1254 2176 
L 1254 3938 
C 1254 4155 1267 4186 1523 4186 
L 2170 4186 
C 2995 4186 3232 3714 3232 3184 
C 3232 2604 2950 2176 2170 2176 
L 1254 2176 
z
" id="CMR17-50" transform="scale(0.015625)"/>
      <path d="M 3981 4326 
L 288 4326 
L 179 2918 
L 294 2918 
C 378 3976 467 4160 1453 4160 
C 1568 4160 1754 4160 1805 4154 
C 1926 4135 1926 4058 1926 3912 
L 1926 459 
C 1926 230 1907 160 1376 160 
L 1197 160 
L 1197 0 
C 1504 0 1824 0 2138 0 
C 2451 0 2771 0 3078 0 
L 3078 160 
L 2899 160 
C 2368 160 2349 230 2349 459 
L 2349 3912 
C 2349 4052 2349 4129 2464 4154 
C 2515 4160 2701 4160 2816 4160 
C 3795 4160 3891 3976 3974 2918 
L 4090 2918 
L 3981 4326 
z
" id="CMR17-54" transform="scale(0.015625)"/>
      <path d="M 2509 2146 
C 3117 2268 3629 2676 3629 3186 
C 3629 3785 2950 4326 2054 4326 
L 333 4326 
L 333 4160 
C 774 4160 845 4160 845 3873 
L 845 415 
C 845 128 774 128 333 128 
L 333 -26 
C 518 -26 851 -26 1050 -26 
C 1248 -26 1581 -26 1766 -26 
L 1766 128 
C 1325 128 1254 128 1254 417 
L 1254 2112 
L 2003 2112 
C 2368 2112 2573 1964 2662 1881 
C 2918 1632 2918 1459 2918 1024 
C 2918 595 2918 377 3110 160 
C 3354 -102 3680 -128 3821 -128 
C 4294 -128 4365 396 4365 503 
C 4365 540 4365 585 4307 585 
C 4256 585 4250 547 4250 522 
C 4218 112 4032 -26 3834 -26 
C 3482 -26 3443 375 3405 764 
C 3386 898 3373 993 3360 1133 
C 3322 1452 3270 1917 2509 2146 
z
M 1984 2214 
L 1254 2214 
L 1254 3913 
C 1254 4129 1267 4160 1523 4160 
L 1990 4160 
C 2522 4160 3142 3977 3142 3190 
C 3142 2372 2464 2214 1984 2214 
z
" id="CMR17-52" transform="scale(0.015625)"/>
     </defs>
     <use transform="scale(0.996264)" xlink:href="#CMR17-50"/>
     <use transform="translate(62.586301 0)scale(0.996264)" xlink:href="#CMR17-54"/>
     <use transform="translate(129.096181 0)scale(0.996264)" xlink:href="#CMR17-52"/>
    </g>
   </g>
   <g id="text_4">
    <!-- 14.6\% -->
    <g transform="translate(69.16024 178.947526)scale(0.09 -0.09)">
     <defs>
      <path d="M 2150 4122 
C 2150 4256 2144 4256 2029 4256 
L 128 1254 
L 128 1088 
L 1779 1088 
L 1779 457 
C 1779 224 1766 160 1318 160 
L 1197 160 
L 1197 0 
C 1402 0 1747 0 1965 0 
C 2182 0 2528 0 2733 0 
L 2733 160 
L 2611 160 
C 2163 160 2150 224 2150 457 
L 2150 1088 
L 2803 1088 
L 2803 1254 
L 2150 1254 
L 2150 4122 
z
M 1798 3703 
L 1798 1254 
L 256 1254 
L 1798 3703 
z
" id="CMR17-34" transform="scale(0.015625)"/>
     </defs>
     <use transform="scale(0.996264)" xlink:href="#CMR17-31"/>
     <use transform="translate(45.690477 0)scale(0.996264)" xlink:href="#CMR17-34"/>
     <use transform="translate(91.380954 0)scale(0.996264)" xlink:href="#CMR17-2e"/>
     <use transform="translate(116.252013 0)scale(0.996264)" xlink:href="#CMR17-36"/>
     <use transform="translate(161.94249 0)scale(0.996264)" xlink:href="#CMR17-25"/>
    </g>
   </g>
   <g id="text_5">
    <!-- AAAA -->
    <g transform="translate(134.095775 202.013145)scale(0.07497 -0.07497)">
     <use transform="scale(0.996264)" xlink:href="#CMR17-41"/>
     <use transform="translate(69.07243 0)scale(0.996264)" xlink:href="#CMR17-41"/>
     <use transform="translate(138.14486 0)scale(0.996264)" xlink:href="#CMR17-41"/>
     <use transform="translate(207.217289 0)scale(0.996264)" xlink:href="#CMR17-41"/>
    </g>
   </g>
   <g id="text_6">
    <!-- 6.2\% -->
    <g transform="translate(118.584216 181.591892)scale(0.09 -0.09)">
     <defs>
      <path d="M 2669 989 
L 2554 989 
C 2490 536 2438 459 2413 420 
C 2381 369 1920 369 1830 369 
L 602 369 
C 832 619 1280 1072 1824 1597 
C 2214 1967 2669 2402 2669 3035 
C 2669 3790 2067 4224 1395 4224 
C 691 4224 262 3604 262 3030 
C 262 2780 448 2748 525 2748 
C 589 2748 781 2787 781 3010 
C 781 3207 614 3264 525 3264 
C 486 3264 448 3258 422 3245 
C 544 3790 915 4058 1306 4058 
C 1862 4058 2227 3617 2227 3035 
C 2227 2479 1901 2000 1536 1584 
L 262 146 
L 262 0 
L 2515 0 
L 2669 989 
z
" id="CMR17-32" transform="scale(0.015625)"/>
     </defs>
     <use transform="scale(0.996264)" xlink:href="#CMR17-36"/>
     <use transform="translate(45.690477 0)scale(0.996264)" xlink:href="#CMR17-2e"/>
     <use transform="translate(70.561536 0)scale(0.996264)" xlink:href="#CMR17-32"/>
     <use transform="translate(116.252013 0)scale(0.996264)" xlink:href="#CMR17-25"/>
    </g>
   </g>
   <g id="text_7">
    <!-- TXT -->
    <g transform="translate(164.013157 187.677856)scale(0.07497 -0.07497)">
     <defs>
      <path d="M 2336 2398 
L 3283 3753 
C 3379 3886 3571 4160 4096 4160 
L 4096 4332 
C 3949 4319 3706 4319 3552 4319 
C 3341 4319 3078 4319 2918 4332 
L 2918 4166 
C 3123 4147 3174 4020 3174 3918 
C 3174 3843 3142 3792 3098 3728 
L 2253 2513 
L 1306 3887 
C 1261 3956 1254 3975 1254 3994 
C 1254 4052 1325 4160 1536 4160 
L 1536 4319 
C 1331 4319 1018 4319 806 4319 
C 640 4319 320 4319 166 4332 
L 166 4160 
C 518 4160 634 4148 774 3951 
L 2010 2163 
L 896 549 
C 621 153 205 153 83 153 
L 83 -13 
C 230 0 474 0 627 0 
C 800 0 1101 0 1261 -13 
L 1261 153 
C 1062 172 1005 299 1005 401 
C 1005 483 1037 528 1069 572 
L 2093 2048 
L 3206 422 
C 3258 352 3258 333 3258 314 
C 3258 263 3200 153 2976 153 
L 2976 0 
C 3181 0 3494 0 3706 0 
C 3872 0 4192 0 4346 -13 
L 4346 153 
C 3936 153 3872 184 3744 363 
L 2336 2398 
z
" id="CMR17-58" transform="scale(0.015625)"/>
     </defs>
     <use transform="scale(0.996264)" xlink:href="#CMR17-54"/>
     <use transform="translate(66.509881 0)scale(0.996264)" xlink:href="#CMR17-58"/>
     <use transform="translate(135.58231 0)scale(0.996264)" xlink:href="#CMR17-54"/>
    </g>
   </g>
   <g id="text_8">
    <!-- 5.0\% -->
    <g transform="translate(141.702192 170.514623)scale(0.09 -0.09)">
     <defs>
      <path d="M 730 3692 
C 794 3666 1056 3584 1325 3584 
C 1920 3584 2246 3911 2432 4100 
C 2432 4157 2432 4192 2394 4192 
C 2387 4192 2374 4192 2323 4163 
C 2099 4058 1837 3973 1517 3973 
C 1325 3973 1037 3999 723 4139 
C 653 4171 640 4171 634 4171 
C 602 4171 595 4164 595 4037 
L 595 2203 
C 595 2089 595 2057 659 2057 
C 691 2057 704 2070 736 2114 
C 941 2401 1222 2522 1542 2522 
C 1766 2522 2246 2382 2246 1289 
C 2246 1085 2246 715 2054 421 
C 1894 159 1645 25 1370 25 
C 947 25 518 320 403 814 
C 429 807 480 795 506 795 
C 589 795 749 840 749 1038 
C 749 1210 627 1280 506 1280 
C 358 1280 262 1190 262 1011 
C 262 454 704 -128 1382 -128 
C 2042 -128 2669 440 2669 1264 
C 2669 2030 2170 2624 1549 2624 
C 1222 2624 947 2503 730 2274 
L 730 3692 
z
" id="CMR17-35" transform="scale(0.015625)"/>
      <path d="M 2688 2025 
C 2688 2416 2682 3080 2413 3591 
C 2176 4039 1798 4198 1466 4198 
C 1158 4198 768 4058 525 3597 
C 269 3118 243 2524 243 2025 
C 243 1661 250 1106 448 619 
C 723 -39 1216 -128 1466 -128 
C 1760 -128 2208 -7 2470 600 
C 2662 1042 2688 1559 2688 2025 
z
M 1466 -26 
C 1056 -26 813 325 723 812 
C 653 1188 653 1738 653 2096 
C 653 2588 653 2997 736 3387 
C 858 3929 1216 4096 1466 4096 
C 1728 4096 2067 3923 2189 3400 
C 2272 3036 2278 2607 2278 2096 
C 2278 1680 2278 1169 2202 792 
C 2067 95 1690 -26 1466 -26 
z
" id="CMR17-30" transform="scale(0.015625)"/>
     </defs>
     <use transform="scale(0.996264)" xlink:href="#CMR17-35"/>
     <use transform="translate(45.690477 0)scale(0.996264)" xlink:href="#CMR17-2e"/>
     <use transform="translate(70.561536 0)scale(0.996264)" xlink:href="#CMR17-30"/>
     <use transform="translate(116.252013 0)scale(0.996264)" xlink:href="#CMR17-25"/>
    </g>
   </g>
   <g id="text_9">
    <!-- SRV -->
    <g transform="translate(184.936238 167.079121)scale(0.07497 -0.07497)">
     <defs>
      <path d="M 2803 4290 
C 2803 4404 2797 4411 2758 4411 
C 2720 4411 2707 4385 2682 4328 
L 2490 3907 
C 2246 4257 1875 4416 1472 4416 
C 819 4416 294 3901 294 3253 
C 294 3056 339 2776 557 2510 
C 794 2218 1018 2167 1530 2033 
C 1722 1982 2042 1899 2106 1874 
C 2470 1722 2662 1341 2662 985 
C 2662 527 2336 38 1779 38 
C 1094 38 454 419 410 1311 
C 403 1413 397 1419 352 1419 
C 301 1419 294 1413 294 1285 
L 294 -1 
C 294 -115 301 -122 339 -122 
C 384 -122 397 -90 486 108 
C 493 127 493 140 614 381 
C 934 -39 1472 -128 1779 -128 
C 2477 -128 2970 451 2970 1124 
C 2970 1454 2848 1708 2778 1823 
C 2509 2230 2221 2306 1914 2382 
C 1869 2402 1856 2402 1498 2490 
C 1152 2579 1005 2624 845 2796 
C 666 2992 602 3196 602 3399 
C 602 3812 934 4263 1478 4263 
C 2157 4263 2579 3786 2675 2993 
C 2694 2878 2701 2872 2746 2872 
C 2803 2872 2803 2891 2803 2999 
L 2803 4290 
z
" id="CMR17-53" transform="scale(0.015625)"/>
      <path d="M 3776 3745 
C 3834 3886 3936 4160 4365 4160 
L 4365 4332 
C 4218 4319 4051 4319 3891 4319 
C 3738 4319 3475 4319 3328 4332 
L 3328 4160 
C 3648 4160 3661 3936 3661 3898 
C 3661 3827 3642 3783 3622 3732 
L 2362 446 
L 1043 3886 
C 1024 3931 1011 3963 1011 3994 
C 1011 4160 1267 4160 1402 4160 
L 1402 4319 
C 1197 4319 896 4319 685 4319 
C 518 4319 218 4319 64 4332 
L 64 4160 
C 435 4160 506 4135 582 3931 
L 2106 -26 
C 2138 -115 2144 -128 2214 -128 
C 2285 -128 2291 -115 2323 -26 
L 3776 3745 
z
" id="CMR17-56" transform="scale(0.015625)"/>
     </defs>
     <use transform="scale(0.996264)" xlink:href="#CMR17-53"/>
     <use transform="translate(50.89537 0)scale(0.996264)" xlink:href="#CMR17-52"/>
     <use transform="translate(108.276762 0)scale(0.996264)" xlink:href="#CMR17-56"/>
    </g>
   </g>
   <g id="text_10">
    <!-- 4.9\% -->
    <g transform="translate(157.870028 154.597419)scale(0.09 -0.09)">
     <defs>
      <path d="M 2253 1864 
C 2253 464 1670 31 1190 31 
C 1043 31 685 31 538 294 
C 704 268 826 357 826 518 
C 826 692 685 749 595 749 
C 538 749 365 723 365 506 
C 365 71 742 -128 1203 -128 
C 1939 -128 2688 674 2688 2073 
C 2688 3817 1971 4179 1485 4179 
C 851 4179 243 3628 243 2778 
C 243 1991 762 1408 1414 1408 
C 1952 1408 2189 1903 2253 2112 
L 2253 1864 
z
M 1427 1510 
C 1254 1510 1011 1542 813 1922 
C 678 2169 678 2461 678 2771 
C 678 3146 678 3405 858 3684 
C 947 3817 1114 4032 1485 4032 
C 2240 4032 2240 2885 2240 2632 
C 2240 2182 2035 1510 1427 1510 
z
" id="CMR17-39" transform="scale(0.015625)"/>
     </defs>
     <use transform="scale(0.996264)" xlink:href="#CMR17-34"/>
     <use transform="translate(45.690477 0)scale(0.996264)" xlink:href="#CMR17-2e"/>
     <use transform="translate(70.561536 0)scale(0.996264)" xlink:href="#CMR17-39"/>
     <use transform="translate(116.252013 0)scale(0.996264)" xlink:href="#CMR17-25"/>
    </g>
   </g>
   <g id="text_11">
    <!-- CNAME -->
    <g transform="translate(198.309242 141.824903)scale(0.07497 -0.07497)">
     <defs>
      <path d="M 3974 4289 
C 3974 4403 3968 4410 3930 4410 
C 3904 4410 3898 4403 3853 4327 
L 3571 3792 
C 3258 4187 2874 4416 2381 4416 
C 1286 4416 294 3456 294 2148 
C 294 826 1286 -128 2387 -128 
C 3366 -128 3974 730 3974 1461 
C 3974 1524 3974 1550 3917 1550 
C 3866 1550 3866 1531 3859 1474 
C 3808 585 3168 38 2477 38 
C 1824 38 781 495 781 2147 
C 781 3805 1843 4250 2464 4250 
C 3187 4250 3712 3628 3834 2745 
C 3846 2668 3846 2655 3904 2655 
C 3974 2655 3974 2668 3974 2783 
L 3974 4289 
z
" id="CMR17-43" transform="scale(0.015625)"/>
      <path d="M 1312 4250 
C 1267 4320 1261 4320 1139 4320 
L 326 4320 
L 326 4160 
L 448 4160 
C 704 4160 819 4129 838 4122 
L 838 610 
C 838 451 838 153 326 153 
L 326 -13 
C 474 0 742 0 902 0 
C 1062 0 1331 0 1478 -13 
L 1478 153 
C 966 153 966 451 966 610 
L 966 4033 
C 1011 3995 1011 3982 1056 3919 
L 3430 76 
C 3475 0 3494 0 3526 0 
C 3590 0 3590 19 3590 139 
L 3590 3705 
C 3590 3863 3590 4160 4102 4160 
L 4102 4326 
C 3955 4320 3686 4320 3526 4320 
C 3366 4320 3098 4320 2950 4326 
L 2950 4160 
C 3462 4160 3462 3862 3462 3703 
L 3462 763 
L 1312 4250 
z
" id="CMR17-4e" transform="scale(0.015625)"/>
      <path d="M 1338 4224 
C 1299 4320 1293 4320 1158 4320 
L 339 4320 
L 339 4160 
C 781 4160 851 4160 851 3875 
L 851 610 
C 851 451 851 153 339 153 
L 339 -13 
C 486 0 755 0 915 0 
C 1075 0 1344 0 1491 -13 
L 1491 153 
C 979 153 979 451 979 610 
L 979 4135 
L 986 4135 
L 2490 89 
C 2515 25 2528 -13 2579 -13 
C 2630 -13 2643 25 2669 89 
L 4186 4166 
L 4192 4166 
L 4192 438 
C 4192 153 4122 153 3680 153 
L 3680 -13 
C 3853 0 4198 0 4384 0 
C 4570 0 4922 0 5094 -13 
L 5094 153 
C 4653 153 4582 153 4582 438 
L 4582 3875 
C 4582 4160 4653 4160 5094 4160 
L 5094 4320 
L 4282 4320 
C 4147 4320 4141 4314 4102 4218 
L 2720 502 
L 1338 4224 
z
" id="CMR17-4d" transform="scale(0.015625)"/>
      <path d="M 3885 1615 
L 3770 1615 
C 3629 676 3546 166 2419 166 
L 1530 166 
C 1274 166 1261 197 1261 414 
L 1261 2176 
L 1862 2176 
C 2464 2176 2522 1960 2522 1430 
L 2637 1430 
L 2637 3081 
L 2522 3081 
C 2522 2557 2464 2342 1862 2342 
L 1261 2342 
L 1261 3913 
C 1261 4128 1274 4160 1530 4160 
L 2406 4160 
C 3398 4160 3514 3769 3603 2929 
L 3718 2929 
L 3565 4325 
L 326 4325 
L 326 4160 
C 768 4160 838 4160 838 3874 
L 838 451 
C 838 166 768 166 326 166 
L 326 0 
L 3654 0 
L 3885 1615 
z
" id="CMR17-45" transform="scale(0.015625)"/>
     </defs>
     <use transform="scale(0.996264)" xlink:href="#CMR17-43"/>
     <use transform="translate(66.509881 0)scale(0.996264)" xlink:href="#CMR17-4e"/>
     <use transform="translate(135.58231 0)scale(0.996264)" xlink:href="#CMR17-41"/>
     <use transform="translate(204.65474 0)scale(0.996264)" xlink:href="#CMR17-4d"/>
     <use transform="translate(289.341681 0)scale(0.996264)" xlink:href="#CMR17-45"/>
    </g>
   </g>
   <g id="text_12">
    <!-- 4.7\% -->
    <g transform="translate(168.203713 135.082795)scale(0.09 -0.09)">
     <defs>
      <path d="M 2886 3941 
L 2886 4081 
L 1382 4081 
C 634 4081 621 4165 595 4288 
L 480 4288 
L 294 3094 
L 410 3094 
C 429 3215 474 3540 550 3661 
C 589 3712 1062 3712 1171 3712 
L 2579 3712 
L 1869 2661 
C 1395 1954 1069 999 1069 165 
C 1069 89 1069 -128 1299 -128 
C 1530 -128 1530 89 1530 171 
L 1530 465 
C 1530 1508 1709 2196 2003 2636 
L 2886 3941 
z
" id="CMR17-37" transform="scale(0.015625)"/>
     </defs>
     <use transform="scale(0.996264)" xlink:href="#CMR17-34"/>
     <use transform="translate(45.690477 0)scale(0.996264)" xlink:href="#CMR17-2e"/>
     <use transform="translate(70.561536 0)scale(0.996264)" xlink:href="#CMR17-37"/>
     <use transform="translate(116.252013 0)scale(0.996264)" xlink:href="#CMR17-25"/>
    </g>
   </g>
   <g id="text_13">
    <!-- ANY -->
    <g transform="translate(203.198406 119.445553)scale(0.07497 -0.07497)">
     <defs>
      <path d="M 3706 3766 
C 3955 4160 4301 4160 4416 4160 
L 4416 4332 
C 4269 4319 4102 4319 3942 4319 
C 3782 4319 3526 4319 3373 4332 
L 3373 4160 
C 3533 4160 3616 4077 3616 3957 
C 3616 3881 3584 3830 3533 3747 
L 2381 1912 
L 1120 3912 
C 1075 3988 1069 3994 1069 4039 
C 1069 4160 1293 4160 1382 4160 
L 1382 4319 
C 1178 4319 864 4319 653 4319 
C 486 4319 166 4319 13 4332 
L 13 4160 
C 378 4160 480 4141 595 3958 
L 2010 1728 
L 2010 445 
C 2010 160 1939 160 1498 160 
L 1498 0 
C 1683 0 2016 0 2214 0 
C 2413 0 2752 0 2938 0 
L 2938 160 
C 2477 160 2419 160 2419 471 
L 2419 1728 
L 3706 3766 
z
" id="CMR17-59" transform="scale(0.015625)"/>
     </defs>
     <use transform="scale(0.996264)" xlink:href="#CMR17-41"/>
     <use transform="translate(69.07243 0)scale(0.996264)" xlink:href="#CMR17-4e"/>
     <use transform="translate(138.14486 0)scale(0.996264)" xlink:href="#CMR17-59"/>
    </g>
   </g>
   <g id="text_14">
    <!-- 3.0\% -->
    <g transform="translate(171.981703 117.789661)scale(0.09 -0.09)">
     <defs>
      <path d="M 1414 2157 
C 1984 2157 2234 1662 2234 1090 
C 2234 320 1824 25 1453 25 
C 1114 25 563 194 390 693 
C 422 680 454 680 486 680 
C 640 680 755 782 755 948 
C 755 1133 614 1216 486 1216 
C 378 1216 211 1165 211 926 
C 211 335 787 -128 1466 -128 
C 2176 -128 2720 430 2720 1085 
C 2720 1707 2208 2157 1600 2227 
C 2086 2328 2554 2756 2554 3329 
C 2554 3820 2048 4179 1472 4179 
C 890 4179 378 3829 378 3329 
C 378 3110 544 3072 627 3072 
C 762 3072 877 3155 877 3321 
C 877 3486 762 3569 627 3569 
C 602 3569 570 3569 544 3557 
C 730 3959 1235 4032 1459 4032 
C 1683 4032 2106 3925 2106 3320 
C 2106 3143 2080 2828 1862 2550 
C 1670 2304 1453 2304 1242 2284 
C 1210 2284 1062 2269 1037 2269 
C 992 2263 966 2257 966 2208 
C 966 2163 973 2157 1101 2157 
L 1414 2157 
z
" id="CMR17-33" transform="scale(0.015625)"/>
     </defs>
     <use transform="scale(0.996264)" xlink:href="#CMR17-33"/>
     <use transform="translate(45.690477 0)scale(0.996264)" xlink:href="#CMR17-2e"/>
     <use transform="translate(70.561536 0)scale(0.996264)" xlink:href="#CMR17-30"/>
     <use transform="translate(116.252013 0)scale(0.996264)" xlink:href="#CMR17-25"/>
    </g>
   </g>
  </g>
 </g>
</svg>
