<?xml version="1.0" encoding="utf-8" standalone="no"?>
<!DOCTYPE svg PUBLIC "-//W3C//DTD SVG 1.1//EN"
  "http://www.w3.org/Graphics/SVG/1.1/DTD/svg11.dtd">
<svg height="90.149374pt" version="1.1" viewBox="0 0 217.913615 90.149374" width="217.913615pt" xmlns="http://www.w3.org/2000/svg" xmlns:xlink="http://www.w3.org/1999/xlink">
 <metadata>
  <rdf:RDF xmlns:cc="http://creativecommons.org/ns#" xmlns:dc="http://purl.org/dc/elements/1.1/" xmlns:rdf="http://www.w3.org/1999/02/22-rdf-syntax-ns#">
   <cc:Work>
    <dc:type rdf:resource="http://purl.org/dc/dcmitype/StillImage"/>
    <dc:date>2022-02-18T07:01:35.922788</dc:date>
    <dc:format>image/svg+xml</dc:format>
    <dc:creator>
     <cc:Agent>
      <dc:title>Matplotlib v3.4.3, https://matplotlib.org/</dc:title>
     </cc:Agent>
    </dc:creator>
   </cc:Work>
  </rdf:RDF>
 </metadata>
 <defs>
  <style type="text/css">*{stroke-linecap:butt;stroke-linejoin:round;}</style>
 </defs>
 <g id="figure_1">
  <g id="patch_1">
   <path d="M 0 90.149374 
L 217.913615 90.149374 
L 217.913615 0 
L 0 0 
z
" style="fill:#ffffff;"/>
  </g>
  <g id="axes_1">
   <g id="patch_2">
    <path d="M 23.149582 70.571314 
L 212.94043 70.571314 
L 212.94043 2.647474 
L 23.149582 2.647474 
z
" style="fill:#ffffff;"/>
   </g>
   <g id="matplotlib.axis_1">
    <g id="xtick_1">
     <g id="line2d_1">
      <path clip-path="url(#p3e6d07310c)" d="M 23.149582 70.571314 
L 23.149582 2.647474 
" style="fill:none;stroke:#b0b0b0;stroke-dasharray:0.5,2.5;stroke-dashoffset:0;stroke-opacity:0.6;stroke-width:0.5;"/>
     </g>
     <g id="line2d_2">
      <defs>
       <path d="M 0 0 
L 0 3.5 
" id="m7bc8ce2cbc" style="stroke:#000000;stroke-width:0.8;"/>
      </defs>
      <g>
       <use style="stroke:#000000;stroke-width:0.8;" x="23.149582" xlink:href="#m7bc8ce2cbc" y="70.571314"/>
      </g>
     </g>
     <g id="text_1">
      <!-- $\mathdefault{0}$ -->
      <g transform="translate(21.022989 80.258102)scale(0.07497 -0.07497)">
       <defs>
        <path d="M 2688 2025 
C 2688 2416 2682 3080 2413 3591 
C 2176 4039 1798 4198 1466 4198 
C 1158 4198 768 4058 525 3597 
C 269 3118 243 2524 243 2025 
C 243 1661 250 1106 448 619 
C 723 -39 1216 -128 1466 -128 
C 1760 -128 2208 -7 2470 600 
C 2662 1042 2688 1559 2688 2025 
z
M 1466 -26 
C 1056 -26 813 325 723 812 
C 653 1188 653 1738 653 2096 
C 653 2588 653 2997 736 3387 
C 858 3929 1216 4096 1466 4096 
C 1728 4096 2067 3923 2189 3400 
C 2272 3036 2278 2607 2278 2096 
C 2278 1680 2278 1169 2202 792 
C 2067 95 1690 -26 1466 -26 
z
" id="CMR17-30" transform="scale(0.015625)"/>
       </defs>
       <use transform="scale(0.996264)" xlink:href="#CMR17-30"/>
      </g>
     </g>
    </g>
    <g id="xtick_2">
     <g id="line2d_3">
      <path clip-path="url(#p3e6d07310c)" d="M 42.128667 70.571314 
L 42.128667 2.647474 
" style="fill:none;stroke:#b0b0b0;stroke-dasharray:0.5,2.5;stroke-dashoffset:0;stroke-opacity:0.6;stroke-width:0.5;"/>
     </g>
     <g id="line2d_4">
      <g>
       <use style="stroke:#000000;stroke-width:0.8;" x="42.128667" xlink:href="#m7bc8ce2cbc" y="70.571314"/>
      </g>
     </g>
     <g id="text_2">
      <!-- $\mathdefault{3}$ -->
      <g transform="translate(40.002074 80.258102)scale(0.07497 -0.07497)">
       <defs>
        <path d="M 1414 2157 
C 1984 2157 2234 1662 2234 1090 
C 2234 320 1824 25 1453 25 
C 1114 25 563 194 390 693 
C 422 680 454 680 486 680 
C 640 680 755 782 755 948 
C 755 1133 614 1216 486 1216 
C 378 1216 211 1165 211 926 
C 211 335 787 -128 1466 -128 
C 2176 -128 2720 430 2720 1085 
C 2720 1707 2208 2157 1600 2227 
C 2086 2328 2554 2756 2554 3329 
C 2554 3820 2048 4179 1472 4179 
C 890 4179 378 3829 378 3329 
C 378 3110 544 3072 627 3072 
C 762 3072 877 3155 877 3321 
C 877 3486 762 3569 627 3569 
C 602 3569 570 3569 544 3557 
C 730 3959 1235 4032 1459 4032 
C 1683 4032 2106 3925 2106 3320 
C 2106 3143 2080 2828 1862 2550 
C 1670 2304 1453 2304 1242 2284 
C 1210 2284 1062 2269 1037 2269 
C 992 2263 966 2257 966 2208 
C 966 2163 973 2157 1101 2157 
L 1414 2157 
z
" id="CMR17-33" transform="scale(0.015625)"/>
       </defs>
       <use transform="scale(0.996264)" xlink:href="#CMR17-33"/>
      </g>
     </g>
    </g>
    <g id="xtick_3">
     <g id="line2d_5">
      <path clip-path="url(#p3e6d07310c)" d="M 61.107751 70.571314 
L 61.107751 2.647474 
" style="fill:none;stroke:#b0b0b0;stroke-dasharray:0.5,2.5;stroke-dashoffset:0;stroke-opacity:0.6;stroke-width:0.5;"/>
     </g>
     <g id="line2d_6">
      <g>
       <use style="stroke:#000000;stroke-width:0.8;" x="61.107751" xlink:href="#m7bc8ce2cbc" y="70.571314"/>
      </g>
     </g>
     <g id="text_3">
      <!-- $\mathdefault{6}$ -->
      <g transform="translate(58.981159 80.258102)scale(0.07497 -0.07497)">
       <defs>
        <path d="M 678 2176 
C 678 3690 1395 4032 1811 4032 
C 1946 4032 2272 4009 2400 3776 
C 2298 3776 2106 3776 2106 3553 
C 2106 3381 2246 3323 2336 3323 
C 2394 3323 2566 3348 2566 3560 
C 2566 3954 2246 4179 1805 4179 
C 1043 4179 243 3390 243 1984 
C 243 253 966 -128 1478 -128 
C 2099 -128 2688 427 2688 1283 
C 2688 2081 2170 2662 1517 2662 
C 1126 2662 838 2407 678 1960 
L 678 2176 
z
M 1478 25 
C 691 25 691 1200 691 1436 
C 691 1896 909 2560 1504 2560 
C 1613 2560 1926 2560 2138 2120 
C 2253 1870 2253 1609 2253 1289 
C 2253 944 2253 690 2118 434 
C 1978 171 1773 25 1478 25 
z
" id="CMR17-36" transform="scale(0.015625)"/>
       </defs>
       <use transform="scale(0.996264)" xlink:href="#CMR17-36"/>
      </g>
     </g>
    </g>
    <g id="xtick_4">
     <g id="line2d_7">
      <path clip-path="url(#p3e6d07310c)" d="M 80.086836 70.571314 
L 80.086836 2.647474 
" style="fill:none;stroke:#b0b0b0;stroke-dasharray:0.5,2.5;stroke-dashoffset:0;stroke-opacity:0.6;stroke-width:0.5;"/>
     </g>
     <g id="line2d_8">
      <g>
       <use style="stroke:#000000;stroke-width:0.8;" x="80.086836" xlink:href="#m7bc8ce2cbc" y="70.571314"/>
      </g>
     </g>
     <g id="text_4">
      <!-- $\mathdefault{9}$ -->
      <g transform="translate(77.960244 80.258102)scale(0.07497 -0.07497)">
       <defs>
        <path d="M 2253 1864 
C 2253 464 1670 31 1190 31 
C 1043 31 685 31 538 294 
C 704 268 826 357 826 518 
C 826 692 685 749 595 749 
C 538 749 365 723 365 506 
C 365 71 742 -128 1203 -128 
C 1939 -128 2688 674 2688 2073 
C 2688 3817 1971 4179 1485 4179 
C 851 4179 243 3628 243 2778 
C 243 1991 762 1408 1414 1408 
C 1952 1408 2189 1903 2253 2112 
L 2253 1864 
z
M 1427 1510 
C 1254 1510 1011 1542 813 1922 
C 678 2169 678 2461 678 2771 
C 678 3146 678 3405 858 3684 
C 947 3817 1114 4032 1485 4032 
C 2240 4032 2240 2885 2240 2632 
C 2240 2182 2035 1510 1427 1510 
z
" id="CMR17-39" transform="scale(0.015625)"/>
       </defs>
       <use transform="scale(0.996264)" xlink:href="#CMR17-39"/>
      </g>
     </g>
    </g>
    <g id="xtick_5">
     <g id="line2d_9">
      <path clip-path="url(#p3e6d07310c)" d="M 99.065921 70.571314 
L 99.065921 2.647474 
" style="fill:none;stroke:#b0b0b0;stroke-dasharray:0.5,2.5;stroke-dashoffset:0;stroke-opacity:0.6;stroke-width:0.5;"/>
     </g>
     <g id="line2d_10">
      <g>
       <use style="stroke:#000000;stroke-width:0.8;" x="99.065921" xlink:href="#m7bc8ce2cbc" y="70.571314"/>
      </g>
     </g>
     <g id="text_5">
      <!-- $\mathdefault{12}$ -->
      <g transform="translate(94.812736 80.258102)scale(0.07497 -0.07497)">
       <defs>
        <path d="M 1702 4058 
C 1702 4192 1696 4192 1606 4192 
C 1357 3916 979 3827 621 3827 
C 602 3827 570 3827 563 3808 
C 557 3795 557 3782 557 3648 
C 755 3648 1088 3686 1344 3839 
L 1344 461 
C 1344 236 1331 160 781 160 
L 589 160 
L 589 0 
C 896 0 1216 0 1523 0 
C 1830 0 2150 0 2458 0 
L 2458 160 
L 2266 160 
C 1715 160 1702 230 1702 458 
L 1702 4058 
z
" id="CMR17-31" transform="scale(0.015625)"/>
        <path d="M 2669 989 
L 2554 989 
C 2490 536 2438 459 2413 420 
C 2381 369 1920 369 1830 369 
L 602 369 
C 832 619 1280 1072 1824 1597 
C 2214 1967 2669 2402 2669 3035 
C 2669 3790 2067 4224 1395 4224 
C 691 4224 262 3604 262 3030 
C 262 2780 448 2748 525 2748 
C 589 2748 781 2787 781 3010 
C 781 3207 614 3264 525 3264 
C 486 3264 448 3258 422 3245 
C 544 3790 915 4058 1306 4058 
C 1862 4058 2227 3617 2227 3035 
C 2227 2479 1901 2000 1536 1584 
L 262 146 
L 262 0 
L 2515 0 
L 2669 989 
z
" id="CMR17-32" transform="scale(0.015625)"/>
       </defs>
       <use transform="scale(0.996264)" xlink:href="#CMR17-31"/>
       <use transform="translate(45.690477 0)scale(0.996264)" xlink:href="#CMR17-32"/>
      </g>
     </g>
    </g>
    <g id="xtick_6">
     <g id="line2d_11">
      <path clip-path="url(#p3e6d07310c)" d="M 118.045006 70.571314 
L 118.045006 2.647474 
" style="fill:none;stroke:#b0b0b0;stroke-dasharray:0.5,2.5;stroke-dashoffset:0;stroke-opacity:0.6;stroke-width:0.5;"/>
     </g>
     <g id="line2d_12">
      <g>
       <use style="stroke:#000000;stroke-width:0.8;" x="118.045006" xlink:href="#m7bc8ce2cbc" y="70.571314"/>
      </g>
     </g>
     <g id="text_6">
      <!-- $\mathdefault{15}$ -->
      <g transform="translate(113.791821 80.258102)scale(0.07497 -0.07497)">
       <defs>
        <path d="M 730 3692 
C 794 3666 1056 3584 1325 3584 
C 1920 3584 2246 3911 2432 4100 
C 2432 4157 2432 4192 2394 4192 
C 2387 4192 2374 4192 2323 4163 
C 2099 4058 1837 3973 1517 3973 
C 1325 3973 1037 3999 723 4139 
C 653 4171 640 4171 634 4171 
C 602 4171 595 4164 595 4037 
L 595 2203 
C 595 2089 595 2057 659 2057 
C 691 2057 704 2070 736 2114 
C 941 2401 1222 2522 1542 2522 
C 1766 2522 2246 2382 2246 1289 
C 2246 1085 2246 715 2054 421 
C 1894 159 1645 25 1370 25 
C 947 25 518 320 403 814 
C 429 807 480 795 506 795 
C 589 795 749 840 749 1038 
C 749 1210 627 1280 506 1280 
C 358 1280 262 1190 262 1011 
C 262 454 704 -128 1382 -128 
C 2042 -128 2669 440 2669 1264 
C 2669 2030 2170 2624 1549 2624 
C 1222 2624 947 2503 730 2274 
L 730 3692 
z
" id="CMR17-35" transform="scale(0.015625)"/>
       </defs>
       <use transform="scale(0.996264)" xlink:href="#CMR17-31"/>
       <use transform="translate(45.690477 0)scale(0.996264)" xlink:href="#CMR17-35"/>
      </g>
     </g>
    </g>
    <g id="xtick_7">
     <g id="line2d_13">
      <path clip-path="url(#p3e6d07310c)" d="M 137.024091 70.571314 
L 137.024091 2.647474 
" style="fill:none;stroke:#b0b0b0;stroke-dasharray:0.5,2.5;stroke-dashoffset:0;stroke-opacity:0.6;stroke-width:0.5;"/>
     </g>
     <g id="line2d_14">
      <g>
       <use style="stroke:#000000;stroke-width:0.8;" x="137.024091" xlink:href="#m7bc8ce2cbc" y="70.571314"/>
      </g>
     </g>
     <g id="text_7">
      <!-- $\mathdefault{18}$ -->
      <g transform="translate(132.770906 80.258102)scale(0.07497 -0.07497)">
       <defs>
        <path d="M 1741 2264 
C 2144 2467 2554 2773 2554 3263 
C 2554 3841 1990 4179 1472 4179 
C 890 4179 378 3759 378 3180 
C 378 3021 416 2747 666 2505 
C 730 2442 998 2251 1171 2130 
C 883 1983 211 1634 211 934 
C 211 279 838 -128 1459 -128 
C 2144 -128 2720 362 2720 1010 
C 2720 1590 2330 1857 2074 2029 
L 1741 2264 
z
M 902 2822 
C 851 2854 595 3051 595 3351 
C 595 3739 998 4032 1459 4032 
C 1965 4032 2336 3676 2336 3262 
C 2336 2669 1670 2331 1638 2331 
C 1632 2331 1626 2331 1574 2370 
L 902 2822 
z
M 2080 1519 
C 2176 1449 2483 1240 2483 851 
C 2483 381 2010 25 1472 25 
C 890 25 448 438 448 940 
C 448 1443 838 1862 1280 2060 
L 2080 1519 
z
" id="CMR17-38" transform="scale(0.015625)"/>
       </defs>
       <use transform="scale(0.996264)" xlink:href="#CMR17-31"/>
       <use transform="translate(45.690477 0)scale(0.996264)" xlink:href="#CMR17-38"/>
      </g>
     </g>
    </g>
    <g id="xtick_8">
     <g id="line2d_15">
      <path clip-path="url(#p3e6d07310c)" d="M 156.003175 70.571314 
L 156.003175 2.647474 
" style="fill:none;stroke:#b0b0b0;stroke-dasharray:0.5,2.5;stroke-dashoffset:0;stroke-opacity:0.6;stroke-width:0.5;"/>
     </g>
     <g id="line2d_16">
      <g>
       <use style="stroke:#000000;stroke-width:0.8;" x="156.003175" xlink:href="#m7bc8ce2cbc" y="70.571314"/>
      </g>
     </g>
     <g id="text_8">
      <!-- $\mathdefault{21}$ -->
      <g transform="translate(151.74999 80.258102)scale(0.07497 -0.07497)">
       <use transform="scale(0.996264)" xlink:href="#CMR17-32"/>
       <use transform="translate(45.690477 0)scale(0.996264)" xlink:href="#CMR17-31"/>
      </g>
     </g>
    </g>
    <g id="xtick_9">
     <g id="line2d_17">
      <path clip-path="url(#p3e6d07310c)" d="M 174.98226 70.571314 
L 174.98226 2.647474 
" style="fill:none;stroke:#b0b0b0;stroke-dasharray:0.5,2.5;stroke-dashoffset:0;stroke-opacity:0.6;stroke-width:0.5;"/>
     </g>
     <g id="line2d_18">
      <g>
       <use style="stroke:#000000;stroke-width:0.8;" x="174.98226" xlink:href="#m7bc8ce2cbc" y="70.571314"/>
      </g>
     </g>
     <g id="text_9">
      <!-- $\mathdefault{24}$ -->
      <g transform="translate(170.729075 80.258102)scale(0.07497 -0.07497)">
       <defs>
        <path d="M 2150 4122 
C 2150 4256 2144 4256 2029 4256 
L 128 1254 
L 128 1088 
L 1779 1088 
L 1779 457 
C 1779 224 1766 160 1318 160 
L 1197 160 
L 1197 0 
C 1402 0 1747 0 1965 0 
C 2182 0 2528 0 2733 0 
L 2733 160 
L 2611 160 
C 2163 160 2150 224 2150 457 
L 2150 1088 
L 2803 1088 
L 2803 1254 
L 2150 1254 
L 2150 4122 
z
M 1798 3703 
L 1798 1254 
L 256 1254 
L 1798 3703 
z
" id="CMR17-34" transform="scale(0.015625)"/>
       </defs>
       <use transform="scale(0.996264)" xlink:href="#CMR17-32"/>
       <use transform="translate(45.690477 0)scale(0.996264)" xlink:href="#CMR17-34"/>
      </g>
     </g>
    </g>
    <g id="xtick_10">
     <g id="line2d_19">
      <path clip-path="url(#p3e6d07310c)" d="M 193.961345 70.571314 
L 193.961345 2.647474 
" style="fill:none;stroke:#b0b0b0;stroke-dasharray:0.5,2.5;stroke-dashoffset:0;stroke-opacity:0.6;stroke-width:0.5;"/>
     </g>
     <g id="line2d_20">
      <g>
       <use style="stroke:#000000;stroke-width:0.8;" x="193.961345" xlink:href="#m7bc8ce2cbc" y="70.571314"/>
      </g>
     </g>
     <g id="text_10">
      <!-- $\mathdefault{27}$ -->
      <g transform="translate(189.70816 80.258102)scale(0.07497 -0.07497)">
       <defs>
        <path d="M 2886 3941 
L 2886 4081 
L 1382 4081 
C 634 4081 621 4165 595 4288 
L 480 4288 
L 294 3094 
L 410 3094 
C 429 3215 474 3540 550 3661 
C 589 3712 1062 3712 1171 3712 
L 2579 3712 
L 1869 2661 
C 1395 1954 1069 999 1069 165 
C 1069 89 1069 -128 1299 -128 
C 1530 -128 1530 89 1530 171 
L 1530 465 
C 1530 1508 1709 2196 2003 2636 
L 2886 3941 
z
" id="CMR17-37" transform="scale(0.015625)"/>
       </defs>
       <use transform="scale(0.996264)" xlink:href="#CMR17-32"/>
       <use transform="translate(45.690477 0)scale(0.996264)" xlink:href="#CMR17-37"/>
      </g>
     </g>
    </g>
    <g id="xtick_11">
     <g id="line2d_21">
      <path clip-path="url(#p3e6d07310c)" d="M 212.94043 70.571314 
L 212.94043 2.647474 
" style="fill:none;stroke:#b0b0b0;stroke-dasharray:0.5,2.5;stroke-dashoffset:0;stroke-opacity:0.6;stroke-width:0.5;"/>
     </g>
     <g id="line2d_22">
      <g>
       <use style="stroke:#000000;stroke-width:0.8;" x="212.94043" xlink:href="#m7bc8ce2cbc" y="70.571314"/>
      </g>
     </g>
     <g id="text_11">
      <!-- $\mathdefault{30}$ -->
      <g transform="translate(208.687245 80.258102)scale(0.07497 -0.07497)">
       <use transform="scale(0.996264)" xlink:href="#CMR17-33"/>
       <use transform="translate(45.690477 0)scale(0.996264)" xlink:href="#CMR17-30"/>
      </g>
     </g>
    </g>
    <g id="text_12">
     <!-- Section size [\#entries] -->
     <g transform="translate(76.782397 87.562139)scale(0.07497 -0.07497)">
      <defs>
       <path d="M 2803 4290 
C 2803 4404 2797 4411 2758 4411 
C 2720 4411 2707 4385 2682 4328 
L 2490 3907 
C 2246 4257 1875 4416 1472 4416 
C 819 4416 294 3901 294 3253 
C 294 3056 339 2776 557 2510 
C 794 2218 1018 2167 1530 2033 
C 1722 1982 2042 1899 2106 1874 
C 2470 1722 2662 1341 2662 985 
C 2662 527 2336 38 1779 38 
C 1094 38 454 419 410 1311 
C 403 1413 397 1419 352 1419 
C 301 1419 294 1413 294 1285 
L 294 -1 
C 294 -115 301 -122 339 -122 
C 384 -122 397 -90 486 108 
C 493 127 493 140 614 381 
C 934 -39 1472 -128 1779 -128 
C 2477 -128 2970 451 2970 1124 
C 2970 1454 2848 1708 2778 1823 
C 2509 2230 2221 2306 1914 2382 
C 1869 2402 1856 2402 1498 2490 
C 1152 2579 1005 2624 845 2796 
C 666 2992 602 3196 602 3399 
C 602 3812 934 4263 1478 4263 
C 2157 4263 2579 3786 2675 2993 
C 2694 2878 2701 2872 2746 2872 
C 2803 2872 2803 2891 2803 2999 
L 2803 4290 
z
" id="CMR17-53" transform="scale(0.015625)"/>
       <path d="M 2438 1472 
C 2464 1498 2464 1511 2464 1576 
C 2464 2238 2118 2816 1389 2816 
C 710 2816 173 2169 173 1383 
C 173 551 781 -64 1459 -64 
C 2176 -64 2458 607 2458 740 
C 2458 784 2419 784 2406 784 
C 2362 784 2355 771 2330 696 
C 2189 265 1837 51 1504 51 
C 1229 51 954 203 781 480 
C 582 803 582 1176 582 1472 
L 2438 1472 
z
M 589 1568 
C 634 2505 1126 2714 1382 2714 
C 1818 2714 2112 2297 2118 1568 
L 589 1568 
z
" id="CMR17-65" transform="scale(0.015625)"/>
       <path d="M 2234 2240 
C 2112 2240 1933 2240 1933 2017 
C 1933 1838 2080 1787 2163 1787 
C 2208 1787 2394 1807 2394 2024 
C 2394 2467 1958 2803 1466 2803 
C 787 2803 211 2178 211 1363 
C 211 516 813 -64 1466 -64 
C 2259 -64 2458 677 2458 748 
C 2458 774 2451 793 2406 793 
C 2362 793 2355 787 2330 703 
C 2163 180 1798 51 1523 51 
C 1114 51 621 427 621 1369 
C 621 2338 1094 2688 1472 2688 
C 1722 2688 2093 2573 2234 2240 
z
" id="CMR17-63" transform="scale(0.015625)"/>
       <path d="M 966 2560 
L 1862 2560 
L 1862 2725 
L 966 2725 
L 966 3904 
L 851 3904 
C 838 3245 614 2668 70 2668 
L 70 2560 
L 627 2560 
L 627 771 
C 627 650 627 -64 1370 -64 
C 1747 -64 1965 306 1965 777 
L 1965 1140 
L 1850 1140 
L 1850 783 
C 1850 344 1677 51 1408 51 
C 1222 51 966 178 966 758 
L 966 2560 
z
" id="CMR17-74" transform="scale(0.015625)"/>
       <path d="M 992 3909 
C 992 4049 877 4170 730 4170 
C 589 4170 467 4056 467 3909 
C 467 3769 582 3648 730 3648 
C 870 3648 992 3763 992 3909 
z
M 243 2706 
L 243 2541 
C 602 2541 653 2502 653 2197 
L 653 427 
C 653 184 627 153 218 153 
L 218 -13 
C 371 0 646 0 806 0 
C 960 0 1222 0 1370 -13 
L 1370 153 
C 992 153 979 191 979 420 
L 979 2776 
L 243 2706 
z
" id="CMR17-69" transform="scale(0.015625)"/>
       <path d="M 2758 1356 
C 2758 2176 2163 2816 1466 2816 
C 768 2816 173 2176 173 1356 
C 173 551 768 -64 1466 -64 
C 2163 -64 2758 551 2758 1356 
z
M 1466 51 
C 1165 51 909 230 762 480 
C 602 767 582 1126 582 1408 
C 582 1677 595 2010 762 2298 
C 890 2509 1139 2714 1466 2714 
C 1754 2714 1997 2554 2150 2330 
C 2349 2029 2349 1607 2349 1408 
C 2349 1158 2336 775 2163 467 
C 1984 173 1709 51 1466 51 
z
" id="CMR17-6f" transform="scale(0.015625)"/>
       <path d="M 2656 1933 
C 2656 2259 2592 2790 1837 2790 
C 1331 2790 1069 2400 973 2144 
L 966 2144 
L 966 2790 
L 211 2720 
L 211 2554 
C 589 2554 646 2515 646 2208 
L 646 428 
C 646 184 621 153 211 153 
L 211 -13 
C 365 0 646 0 813 0 
C 979 0 1267 0 1421 -13 
L 1421 153 
C 1011 153 986 178 986 428 
L 986 1658 
C 986 2247 1344 2688 1792 2688 
C 2266 2688 2317 2266 2317 1958 
L 2317 428 
C 2317 184 2291 153 1882 153 
L 1882 -13 
C 2035 0 2317 0 2483 0 
C 2650 0 2938 0 3091 -13 
L 3091 153 
C 2682 153 2656 178 2656 428 
L 2656 1933 
z
" id="CMR17-6e" transform="scale(0.015625)"/>
       <path d="M 1978 2697 
C 1978 2813 1971 2819 1933 2819 
C 1907 2819 1901 2813 1824 2717 
C 1805 2691 1747 2626 1728 2601 
C 1523 2819 1235 2819 1126 2819 
C 416 2819 160 2447 160 2076 
C 160 1498 813 1365 998 1325 
C 1402 1243 1542 1217 1677 1101 
C 1760 1025 1901 884 1901 654 
C 1901 384 1747 38 1158 38 
C 602 38 403 460 288 1021 
C 269 1110 269 1117 218 1117 
C 166 1117 160 1110 160 983 
L 160 63 
C 160 -51 166 -58 205 -58 
C 237 -58 243 -51 275 0 
C 314 57 410 211 448 276 
C 576 103 800 -64 1158 -64 
C 1792 -64 2131 283 2131 784 
C 2131 1112 1958 1285 1875 1362 
C 1683 1561 1459 1606 1190 1657 
C 838 1735 390 1825 390 2217 
C 390 2383 480 2737 1126 2737 
C 1811 2737 1850 2094 1862 1888 
C 1869 1856 1901 1849 1920 1849 
C 1978 1849 1978 1869 1978 1978 
L 1978 2697 
z
" id="CMR17-73" transform="scale(0.015625)"/>
       <path d="M 2310 2605 
C 2362 2670 2362 2682 2362 2695 
C 2362 2752 2336 2752 2221 2752 
L 275 2752 
L 211 1760 
L 326 1760 
C 371 2381 442 2650 1178 2650 
L 1958 2650 
L 128 96 
C 128 0 134 0 269 0 
L 2291 0 
L 2381 1152 
L 2266 1152 
C 2214 442 2131 115 1350 115 
L 531 115 
L 2310 2605 
z
" id="CMR17-7a" transform="scale(0.015625)"/>
       <path d="M 1504 -1600 
L 1504 -1377 
L 902 -1377 
L 902 4544 
L 1504 4544 
L 1504 4767 
L 678 4767 
L 678 -1600 
L 1504 -1600 
z
" id="CMR17-5b" transform="scale(0.015625)"/>
       <path d="M 3104 896 
L 4422 896 
C 4531 896 4640 896 4640 1011 
C 4640 1119 4544 1119 4448 1119 
L 3168 1119 
L 3386 2017 
L 4448 2017 
C 4544 2017 4640 2017 4640 2125 
C 4640 2240 4531 2240 4422 2240 
L 3450 2240 
L 3942 4184 
C 3962 4248 3968 4280 3968 4300 
C 3968 4364 3917 4416 3853 4416 
C 3763 4416 3744 4326 3731 4275 
L 3219 2240 
L 2061 2240 
L 2554 4184 
C 2573 4248 2579 4280 2579 4300 
C 2579 4364 2528 4416 2464 4416 
C 2374 4416 2355 4326 2342 4275 
L 1830 2240 
L 512 2240 
C 403 2240 294 2240 294 2125 
C 294 2017 390 2017 486 2017 
L 1766 2017 
L 1549 1119 
L 486 1119 
C 390 1119 294 1119 294 1011 
C 294 896 403 896 512 896 
L 1485 896 
L 992 -1020 
C 973 -1083 966 -1114 966 -1134 
C 966 -1197 1018 -1248 1082 -1248 
C 1171 -1248 1190 -1159 1203 -1109 
L 1715 896 
L 2874 896 
L 2381 -1020 
C 2362 -1083 2355 -1114 2355 -1134 
C 2355 -1197 2406 -1248 2470 -1248 
C 2560 -1248 2579 -1159 2592 -1109 
L 3104 896 
z
M 1779 1119 
L 1997 2017 
L 3155 2017 
L 2938 1119 
L 1779 1119 
z
" id="CMR17-23" transform="scale(0.015625)"/>
       <path d="M 960 1497 
C 960 2112 1222 2688 1702 2688 
C 1747 2688 1792 2682 1837 2662 
C 1837 2662 1696 2617 1696 2452 
C 1696 2298 1818 2234 1914 2234 
C 1990 2234 2131 2279 2131 2458 
C 2131 2663 1926 2790 1709 2790 
C 1222 2790 1011 2317 947 2093 
L 941 2093 
L 941 2790 
L 198 2720 
L 198 2554 
C 576 2554 634 2515 634 2208 
L 634 428 
C 634 184 608 153 198 153 
L 198 -13 
C 352 0 646 0 813 0 
C 998 0 1325 0 1498 -13 
L 1498 153 
C 1037 153 960 153 960 440 
L 960 1497 
z
" id="CMR17-72" transform="scale(0.015625)"/>
       <path d="M 915 4767 
L 90 4767 
L 90 4544 
L 691 4544 
L 691 -1377 
L 90 -1377 
L 90 -1600 
L 915 -1600 
L 915 4767 
z
" id="CMR17-5d" transform="scale(0.015625)"/>
      </defs>
      <use transform="scale(0.996264)" xlink:href="#CMR17-53"/>
      <use transform="translate(50.89537 0)scale(0.996264)" xlink:href="#CMR17-65"/>
      <use transform="translate(91.38103 0)scale(0.996264)" xlink:href="#CMR17-63"/>
      <use transform="translate(131.866691 0)scale(0.996264)" xlink:href="#CMR17-74"/>
      <use transform="translate(167.147459 0)scale(0.996264)" xlink:href="#CMR17-69"/>
      <use transform="translate(192.018517 0)scale(0.996264)" xlink:href="#CMR17-6f"/>
      <use transform="translate(237.708994 0)scale(0.996264)" xlink:href="#CMR17-6e"/>
      <use transform="translate(318.68033 0)scale(0.996264)" xlink:href="#CMR17-73"/>
      <use transform="translate(354.481668 0)scale(0.996264)" xlink:href="#CMR17-69"/>
      <use transform="translate(379.352726 0)scale(0.996264)" xlink:href="#CMR17-7a"/>
      <use transform="translate(419.838387 0)scale(0.996264)" xlink:href="#CMR17-65"/>
      <use transform="translate(490.400014 0)scale(0.996264)" xlink:href="#CMR17-5b"/>
      <use transform="translate(515.271072 0)scale(0.996264)" xlink:href="#CMR17-23"/>
      <use transform="translate(592.190662 0)scale(0.996264)" xlink:href="#CMR17-65"/>
      <use transform="translate(632.676322 0)scale(0.996264)" xlink:href="#CMR17-6e"/>
      <use transform="translate(680.969238 0)scale(0.996264)" xlink:href="#CMR17-74"/>
      <use transform="translate(716.250006 0)scale(0.996264)" xlink:href="#CMR17-72"/>
      <use transform="translate(751.530774 0)scale(0.996264)" xlink:href="#CMR17-69"/>
      <use transform="translate(776.401832 0)scale(0.996264)" xlink:href="#CMR17-65"/>
      <use transform="translate(816.887493 0)scale(0.996264)" xlink:href="#CMR17-73"/>
      <use transform="translate(852.68883 0)scale(0.996264)" xlink:href="#CMR17-5d"/>
     </g>
    </g>
   </g>
   <g id="matplotlib.axis_2">
    <g id="ytick_1">
     <g id="line2d_23">
      <path clip-path="url(#p3e6d07310c)" d="M 23.149582 69.905394 
L 212.94043 69.905394 
" style="fill:none;stroke:#b0b0b0;stroke-dasharray:0.5,2.5;stroke-dashoffset:0;stroke-opacity:0.6;stroke-width:0.5;"/>
     </g>
     <g id="line2d_24">
      <defs>
       <path d="M 0 0 
L -3.5 0 
" id="mf4bebd531a" style="stroke:#000000;stroke-width:0.8;"/>
      </defs>
      <g>
       <use style="stroke:#000000;stroke-width:0.8;" x="23.149582" xlink:href="#mf4bebd531a" y="69.905394"/>
      </g>
     </g>
     <g id="text_13">
      <!-- $\mathdefault{0.0}$ -->
      <g transform="translate(7.60909 72.498788)scale(0.07497 -0.07497)">
       <defs>
        <path d="M 1178 307 
C 1178 492 1024 619 870 619 
C 685 619 557 466 557 313 
C 557 128 710 0 864 0 
C 1050 0 1178 153 1178 307 
z
" id="CMMI12-3a" transform="scale(0.015625)"/>
       </defs>
       <use transform="scale(0.996264)" xlink:href="#CMR17-30"/>
       <use transform="translate(45.690477 0)scale(0.996264)" xlink:href="#CMMI12-3a"/>
       <use transform="translate(72.787654 0)scale(0.996264)" xlink:href="#CMR17-30"/>
      </g>
     </g>
    </g>
    <g id="ytick_2">
     <g id="line2d_25">
      <path clip-path="url(#p3e6d07310c)" d="M 23.149582 36.609394 
L 212.94043 36.609394 
" style="fill:none;stroke:#b0b0b0;stroke-dasharray:0.5,2.5;stroke-dashoffset:0;stroke-opacity:0.6;stroke-width:0.5;"/>
     </g>
     <g id="line2d_26">
      <g>
       <use style="stroke:#000000;stroke-width:0.8;" x="23.149582" xlink:href="#mf4bebd531a" y="36.609394"/>
      </g>
     </g>
     <g id="text_14">
      <!-- $\mathdefault{0.5}$ -->
      <g transform="translate(7.60909 39.202788)scale(0.07497 -0.07497)">
       <use transform="scale(0.996264)" xlink:href="#CMR17-30"/>
       <use transform="translate(45.690477 0)scale(0.996264)" xlink:href="#CMMI12-3a"/>
       <use transform="translate(72.787654 0)scale(0.996264)" xlink:href="#CMR17-35"/>
      </g>
     </g>
    </g>
    <g id="ytick_3">
     <g id="line2d_27">
      <path clip-path="url(#p3e6d07310c)" d="M 23.149582 3.313394 
L 212.94043 3.313394 
" style="fill:none;stroke:#b0b0b0;stroke-dasharray:0.5,2.5;stroke-dashoffset:0;stroke-opacity:0.6;stroke-width:0.5;"/>
     </g>
     <g id="line2d_28">
      <g>
       <use style="stroke:#000000;stroke-width:0.8;" x="23.149582" xlink:href="#mf4bebd531a" y="3.313394"/>
      </g>
     </g>
     <g id="text_15">
      <!-- $\mathdefault{1.0}$ -->
      <g transform="translate(7.60909 5.906787)scale(0.07497 -0.07497)">
       <use transform="scale(0.996264)" xlink:href="#CMR17-31"/>
       <use transform="translate(45.690477 0)scale(0.996264)" xlink:href="#CMMI12-3a"/>
       <use transform="translate(72.787654 0)scale(0.996264)" xlink:href="#CMR17-30"/>
      </g>
     </g>
    </g>
    <g id="text_16">
     <!-- Density -->
     <g transform="translate(5.906787 50.766442)rotate(-90)scale(0.07497 -0.07497)">
      <defs>
       <path d="M 333 4352 
L 333 4186 
C 774 4186 845 4186 845 3900 
L 845 452 
C 845 166 774 166 333 166 
L 333 0 
L 2368 0 
C 3398 0 4224 943 4224 2141 
C 4224 3346 3411 4352 2368 4352 
L 333 4352 
z
M 1523 166 
C 1267 166 1254 197 1254 414 
L 1254 3938 
C 1254 4155 1267 4186 1523 4186 
L 2240 4186 
C 2771 4186 3750 3874 3750 2141 
C 3750 1242 3488 879 3366 707 
C 3213 510 2848 166 2240 166 
L 1523 166 
z
" id="CMR17-44" transform="scale(0.015625)"/>
       <path d="M 2496 2197 
C 2656 2586 2944 2586 3034 2586 
L 3034 2752 
C 2912 2752 2752 2752 2630 2752 
C 2496 2752 2285 2752 2157 2758 
L 2157 2592 
C 2400 2573 2406 2394 2406 2343 
C 2406 2280 2394 2248 2362 2171 
L 1664 449 
L 902 2306 
C 870 2382 870 2426 870 2433 
C 870 2573 1018 2586 1171 2586 
L 1171 2758 
C 1018 2752 742 2752 582 2752 
C 410 2752 205 2752 64 2758 
L 64 2586 
C 410 2586 448 2554 531 2350 
L 1485 15 
C 1197 -738 1030 -1178 627 -1178 
C 557 -1178 397 -1159 282 -1044 
C 429 -1031 493 -942 493 -833 
C 493 -725 416 -629 288 -629 
C 147 -629 77 -725 77 -840 
C 77 -1095 339 -1280 627 -1280 
C 998 -1280 1229 -922 1357 -604 
L 2496 2197 
z
" id="CMR17-79" transform="scale(0.015625)"/>
      </defs>
      <use transform="scale(0.996264)" xlink:href="#CMR17-44"/>
      <use transform="translate(70.393556 0)scale(0.996264)" xlink:href="#CMR17-65"/>
      <use transform="translate(110.879216 0)scale(0.996264)" xlink:href="#CMR17-6e"/>
      <use transform="translate(161.774586 0)scale(0.996264)" xlink:href="#CMR17-73"/>
      <use transform="translate(197.575924 0)scale(0.996264)" xlink:href="#CMR17-69"/>
      <use transform="translate(222.446982 0)scale(0.996264)" xlink:href="#CMR17-74"/>
      <use transform="translate(255.125296 0)scale(0.996264)" xlink:href="#CMR17-79"/>
     </g>
    </g>
   </g>
   <g id="patch_3">
    <path clip-path="url(#p3e6d07310c)" d="M 29.475943 69.905394 
L 29.475943 3.313394 
L 35.802305 3.313394 
L 35.802305 69.905394 
" style="fill:none;opacity:0.9;stroke:#d7191c;stroke-linejoin:miter;stroke-width:0.75;"/>
   </g>
   <g id="patch_4">
    <path clip-path="url(#p3e6d07310c)" d="M 23.149582 69.905394 
L 23.149582 47.201279 
L 29.475943 47.201279 
L 29.475943 46.465714 
L 35.802305 46.465714 
L 35.802305 64.138941 
L 42.128667 64.138941 
L 42.128667 66.259994 
L 48.455028 66.259994 
L 48.455028 66.842699 
L 54.78139 66.842699 
L 54.78139 68.605492 
L 61.107751 68.605492 
L 61.107751 69.023646 
L 73.760475 68.95516 
L 73.760475 68.304871 
L 80.086836 68.304871 
L 80.086836 69.373708 
L 99.065921 69.361116 
L 99.065921 69.719911 
L 124.371367 69.719404 
L 124.371367 69.83212 
L 218.913615 69.901112 
L 218.913615 69.901112 
" style="fill:none;opacity:0.9;stroke:#fdae61;stroke-linejoin:miter;stroke-width:0.75;"/>
   </g>
   <g id="patch_5">
    <path clip-path="url(#p3e6d07310c)" d="M 23.149582 69.905394 
L 23.149582 30.676417 
L 29.475943 30.676417 
L 29.475943 55.634698 
L 35.802305 55.634698 
L 35.802305 68.832275 
L 42.128667 68.832275 
L 42.128667 68.682176 
L 48.455028 68.682176 
L 48.455028 64.853603 
L 54.78139 64.853603 
L 54.78139 69.331479 
L 61.107751 69.331479 
L 61.107751 66.777144 
L 67.434113 66.777144 
L 67.434113 69.558431 
L 73.760475 69.558431 
L 73.760475 68.769452 
L 80.086836 68.769452 
L 80.086836 69.817977 
L 86.413198 69.817977 
L 86.413198 69.805046 
L 92.739559 69.805046 
L 92.739559 69.883139 
L 99.065921 69.883139 
L 99.065921 69.868687 
L 105.392283 69.868687 
L 105.392283 69.731039 
L 111.718644 69.731039 
L 111.718644 69.893027 
L 118.045006 69.893027 
L 118.045006 69.790538 
L 124.371367 69.790538 
L 124.371367 69.902211 
L 130.697729 69.902211 
L 130.697729 69.898689 
L 137.024091 69.898689 
L 137.024091 69.905 
L 143.350452 69.905 
L 143.350452 69.905197 
L 149.676814 69.905197 
L 149.676814 69.905338 
L 156.003175 69.905338 
L 156.003175 69.905169 
L 162.329537 69.905169 
L 162.329537 69.905394 
L 168.655899 69.905394 
L 168.655899 69.905394 
L 174.98226 69.905394 
L 174.98226 69.905394 
L 181.308622 69.905394 
L 181.308622 69.905394 
L 187.634983 69.905394 
L 187.634983 69.905394 
L 193.961345 69.905394 
L 193.961345 69.905394 
L 200.287707 69.905394 
L 200.287707 69.905394 
L 206.614068 69.905394 
L 206.614068 69.905394 
L 212.94043 69.905394 
L 212.94043 69.905394 
L 218.913615 69.905394 
" style="fill:none;opacity:0.9;stroke:#abdda4;stroke-linejoin:miter;stroke-width:0.75;"/>
   </g>
   <g id="patch_6">
    <path clip-path="url(#p3e6d07310c)" d="M 23.149582 69.905394 
L 23.149582 45.412089 
L 29.475943 45.412089 
L 29.475943 33.366371 
L 35.802305 33.366371 
L 35.802305 69.564572 
L 42.128667 69.564572 
L 42.128667 69.156222 
L 48.455028 69.156222 
L 48.455028 69.521272 
L 54.78139 69.521272 
L 54.78139 68.650088 
L 61.107751 68.650088 
L 61.107751 69.689345 
L 67.434113 69.689345 
L 67.434113 68.991699 
L 73.760475 68.991699 
L 73.760475 69.749435 
L 80.086836 69.749435 
L 80.086836 69.345058 
L 86.413198 69.345058 
L 86.413198 69.714812 
L 92.739559 69.714812 
L 92.739559 69.784228 
L 99.065921 69.784228 
L 99.065921 69.8728 
L 105.392283 69.8728 
L 105.392283 69.665427 
L 111.718644 69.665427 
L 111.718644 69.821555 
L 118.045006 69.821555 
L 118.045006 69.876856 
L 124.371367 69.876856 
L 124.371367 69.894464 
L 130.697729 69.894464 
L 130.697729 69.888238 
L 137.024091 69.888238 
L 137.024091 69.902014 
L 143.350452 69.902014 
L 143.350452 69.894914 
L 149.676814 69.894914 
L 149.676814 69.899535 
L 156.003175 69.899535 
L 156.003175 69.896717 
L 162.329537 69.896717 
L 162.329537 69.904352 
L 168.655899 69.904352 
L 168.655899 69.885984 
L 174.98226 69.885984 
L 174.98226 69.903845 
L 181.308622 69.903845 
L 181.308622 69.896943 
L 187.634983 69.896943 
L 187.634983 69.902746 
L 193.961345 69.902746 
L 193.961345 69.720306 
L 200.287707 69.720306 
L 200.287707 69.905282 
L 206.614068 69.905282 
L 206.614068 69.905197 
L 212.94043 69.905197 
L 212.94043 69.905366 
L 218.913615 69.905366 
" style="fill:none;opacity:0.9;stroke:#2b83ba;stroke-linejoin:miter;stroke-width:0.75;"/>
   </g>
   <g id="patch_7">
    <path d="M 23.149582 70.571314 
L 23.149582 2.647474 
" style="fill:none;stroke:#000000;stroke-linecap:square;stroke-linejoin:miter;stroke-width:0.8;"/>
   </g>
   <g id="patch_8">
    <path d="M 212.94043 70.571314 
L 212.94043 2.647474 
" style="fill:none;stroke:#000000;stroke-linecap:square;stroke-linejoin:miter;stroke-width:0.8;"/>
   </g>
   <g id="patch_9">
    <path d="M 23.149582 70.571314 
L 212.94043 70.571314 
" style="fill:none;stroke:#000000;stroke-linecap:square;stroke-linejoin:miter;stroke-width:0.8;"/>
   </g>
   <g id="patch_10">
    <path d="M 23.149582 2.647474 
L 212.94043 2.647474 
" style="fill:none;stroke:#000000;stroke-linecap:square;stroke-linejoin:miter;stroke-width:0.8;"/>
   </g>
   <g id="legend_1">
    <g id="patch_11">
     <path d="M 84.023362 29.542478 
L 207.69253 29.542478 
Q 209.19193 29.542478 209.19193 28.043078 
L 209.19193 7.895374 
Q 209.19193 6.395974 207.69253 6.395974 
L 84.023362 6.395974 
Q 82.523962 6.395974 82.523962 7.895374 
L 82.523962 28.043078 
Q 82.523962 29.542478 84.023362 29.542478 
z
" style="fill:#ffffff;opacity:0.8;stroke:#cccccc;stroke-linejoin:miter;stroke-width:0.75;"/>
    </g>
    <g id="patch_12">
     <path d="M 85.522762 14.642674 
L 100.516762 14.642674 
L 100.516762 9.394774 
L 85.522762 9.394774 
z
" style="fill:none;opacity:0.9;stroke:#d7191c;stroke-linejoin:miter;stroke-width:0.75;"/>
    </g>
    <g id="text_17">
     <!-- Questions -->
     <g transform="translate(102.391012 14.642674)scale(0.07497 -0.07497)">
      <defs>
       <path d="M 3027 83 
C 3789 408 4307 1236 4307 2193 
C 4307 3499 3366 4480 2304 4480 
C 1216 4480 294 3488 294 2199 
C 294 928 1216 -64 2304 -64 
C 2451 -64 2656 -45 2899 38 
C 3008 -747 3078 -1216 3629 -1216 
C 4307 -1216 4339 -213 4339 -33 
C 4339 32 4339 76 4294 76 
C 4262 76 4256 31 4256 18 
C 4211 -603 3866 -732 3661 -732 
C 3283 -732 3149 -394 3027 83 
z
M 1958 100 
C 1293 310 768 1017 768 2199 
C 768 3711 1606 4365 2298 4365 
C 3014 4365 3834 3686 3834 2198 
C 3834 1124 3405 527 2976 254 
C 2880 579 2726 960 2310 960 
C 2003 960 1830 692 1830 450 
C 1830 304 1888 183 1958 100 
z
M 2874 192 
C 2618 57 2413 57 2304 57 
C 2016 57 1933 315 1933 454 
C 1933 650 2067 858 2310 858 
C 2720 858 2822 493 2874 192 
z
" id="CMR17-51" transform="scale(0.015625)"/>
       <path d="M 1882 2693 
L 1882 2528 
C 2259 2528 2317 2489 2317 2186 
L 2317 1032 
C 2317 500 2029 38 1555 38 
C 1030 38 986 348 986 678 
L 986 2763 
L 211 2693 
L 211 2528 
C 467 2528 640 2528 646 2274 
L 646 1058 
C 646 633 646 361 813 183 
C 896 101 1056 -64 1517 -64 
C 2061 -64 2272 377 2323 506 
L 2330 506 
L 2330 -63 
L 3091 -63 
L 3091 128 
C 2714 128 2656 166 2656 473 
L 2656 2763 
L 1882 2693 
z
" id="CMR17-75" transform="scale(0.015625)"/>
      </defs>
      <use transform="scale(0.996264)" xlink:href="#CMR17-51"/>
      <use transform="translate(71.714788 0)scale(0.996264)" xlink:href="#CMR17-75"/>
      <use transform="translate(122.610158 0)scale(0.996264)" xlink:href="#CMR17-65"/>
      <use transform="translate(163.095819 0)scale(0.996264)" xlink:href="#CMR17-73"/>
      <use transform="translate(198.897156 0)scale(0.996264)" xlink:href="#CMR17-74"/>
      <use transform="translate(234.177924 0)scale(0.996264)" xlink:href="#CMR17-69"/>
      <use transform="translate(259.048983 0)scale(0.996264)" xlink:href="#CMR17-6f"/>
      <use transform="translate(304.73946 0)scale(0.996264)" xlink:href="#CMR17-6e"/>
      <use transform="translate(355.634829 0)scale(0.996264)" xlink:href="#CMR17-73"/>
     </g>
    </g>
    <g id="patch_13">
     <path d="M 85.522762 25.091376 
L 100.516762 25.091376 
L 100.516762 19.843476 
L 85.522762 19.843476 
z
" style="fill:none;opacity:0.9;stroke:#fdae61;stroke-linejoin:miter;stroke-width:0.75;"/>
    </g>
    <g id="text_18">
     <!-- Answers -->
     <g transform="translate(102.391012 25.091376)scale(0.07497 -0.07497)">
      <defs>
       <path d="M 2323 4378 
C 2291 4461 2278 4480 2214 4480 
C 2150 4480 2138 4461 2106 4378 
L 749 566 
C 627 223 371 153 147 153 
L 147 -13 
C 262 0 518 0 640 0 
C 800 0 1056 0 1210 -13 
L 1210 153 
C 909 153 864 361 864 439 
C 864 497 877 530 890 569 
L 1229 1536 
L 2906 1536 
L 3290 442 
C 3322 365 3322 352 3322 327 
C 3322 153 3046 153 2925 153 
L 2925 0 
C 3110 0 3443 0 3642 0 
C 3808 0 4128 0 4282 -13 
L 4282 153 
C 3942 153 3827 153 3744 387 
L 2323 4378 
z
M 2067 3893 
L 2848 1702 
L 1286 1702 
L 2067 3893 
z
" id="CMR17-41" transform="scale(0.015625)"/>
       <path d="M 3725 2183 
C 3853 2560 4109 2560 4205 2560 
L 4205 2732 
C 4077 2732 3949 2732 3821 2732 
C 3699 2732 3424 2732 3315 2738 
L 3315 2560 
C 3514 2560 3622 2445 3622 2286 
C 3622 2241 3610 2184 3597 2140 
L 2995 407 
L 2342 2275 
C 2330 2319 2310 2370 2310 2395 
C 2310 2560 2528 2560 2630 2560 
L 2630 2738 
C 2483 2732 2214 2732 2061 2732 
C 1901 2732 1734 2732 1587 2738 
L 1587 2560 
C 1939 2560 1939 2547 2074 2149 
L 1485 451 
L 851 2281 
C 819 2363 819 2376 819 2395 
C 819 2560 1037 2560 1139 2560 
L 1139 2738 
C 986 2732 717 2732 557 2732 
C 416 2732 198 2732 64 2738 
L 64 2560 
C 346 2560 416 2541 486 2331 
L 1274 49 
C 1299 -33 1318 -52 1370 -52 
C 1414 -52 1440 -39 1472 56 
L 2131 1980 
L 2797 56 
C 2829 -39 2854 -52 2899 -52 
C 2950 -52 2970 -33 2995 50 
L 3725 2183 
z
" id="CMR17-77" transform="scale(0.015625)"/>
      </defs>
      <use transform="scale(0.996264)" xlink:href="#CMR17-41"/>
      <use transform="translate(69.07243 0)scale(0.996264)" xlink:href="#CMR17-6e"/>
      <use transform="translate(119.9678 0)scale(0.996264)" xlink:href="#CMR17-73"/>
      <use transform="translate(155.769137 0)scale(0.996264)" xlink:href="#CMR17-77"/>
      <use transform="translate(219.676564 0)scale(0.996264)" xlink:href="#CMR17-65"/>
      <use transform="translate(260.162224 0)scale(0.996264)" xlink:href="#CMR17-72"/>
      <use transform="translate(295.442992 0)scale(0.996264)" xlink:href="#CMR17-73"/>
     </g>
    </g>
    <g id="patch_14">
     <path d="M 146.420996 14.642674 
L 161.414996 14.642674 
L 161.414996 9.394774 
L 146.420996 9.394774 
z
" style="fill:none;opacity:0.9;stroke:#abdda4;stroke-linejoin:miter;stroke-width:0.75;"/>
    </g>
    <g id="text_19">
     <!-- Authorities -->
     <g transform="translate(163.289246 14.642674)scale(0.07497 -0.07497)">
      <defs>
       <path d="M 2656 1933 
C 2656 2259 2592 2790 1837 2790 
C 1312 2790 1056 2368 979 2157 
L 973 2157 
L 973 4396 
L 211 4326 
L 211 4160 
C 589 4160 646 4122 646 3817 
L 646 426 
C 646 184 621 153 211 153 
L 211 -13 
C 365 0 646 0 813 0 
C 979 0 1267 0 1421 -13 
L 1421 153 
C 1011 153 986 178 986 428 
L 986 1658 
C 986 2247 1344 2688 1792 2688 
C 2266 2688 2317 2266 2317 1958 
L 2317 428 
C 2317 184 2291 153 1882 153 
L 1882 -13 
C 2035 0 2317 0 2483 0 
C 2650 0 2938 0 3091 -13 
L 3091 153 
C 2682 153 2656 178 2656 428 
L 2656 1933 
z
" id="CMR17-68" transform="scale(0.015625)"/>
      </defs>
      <use transform="scale(0.996264)" xlink:href="#CMR17-41"/>
      <use transform="translate(69.07243 0)scale(0.996264)" xlink:href="#CMR17-75"/>
      <use transform="translate(119.9678 0)scale(0.996264)" xlink:href="#CMR17-74"/>
      <use transform="translate(155.248567 0)scale(0.996264)" xlink:href="#CMR17-68"/>
      <use transform="translate(206.143937 0)scale(0.996264)" xlink:href="#CMR17-6f"/>
      <use transform="translate(251.834414 0)scale(0.996264)" xlink:href="#CMR17-72"/>
      <use transform="translate(287.115182 0)scale(0.996264)" xlink:href="#CMR17-69"/>
      <use transform="translate(311.986241 0)scale(0.996264)" xlink:href="#CMR17-74"/>
      <use transform="translate(347.267008 0)scale(0.996264)" xlink:href="#CMR17-69"/>
      <use transform="translate(372.138067 0)scale(0.996264)" xlink:href="#CMR17-65"/>
      <use transform="translate(412.623727 0)scale(0.996264)" xlink:href="#CMR17-73"/>
     </g>
    </g>
    <g id="patch_15">
     <path d="M 146.420996 25.091376 
L 161.414996 25.091376 
L 161.414996 19.843476 
L 146.420996 19.843476 
z
" style="fill:none;opacity:0.9;stroke:#2b83ba;stroke-linejoin:miter;stroke-width:0.75;"/>
    </g>
    <g id="text_20">
     <!-- Additionals -->
     <g transform="translate(163.289246 25.091376)scale(0.07497 -0.07497)">
      <defs>
       <path d="M 1869 4326 
L 1869 4160 
C 2246 4160 2304 4122 2304 3820 
L 2304 2345 
C 2278 2377 2016 2790 1498 2790 
C 845 2790 211 2208 211 1364 
C 211 525 806 -64 1434 -64 
C 1978 -64 2259 337 2291 380 
L 2291 -63 
L 3066 -63 
L 3066 128 
C 2688 128 2630 166 2630 473 
L 2630 4396 
L 1869 4326 
z
M 2291 755 
C 2291 563 2176 390 2029 262 
C 1811 70 1594 38 1472 38 
C 1286 38 621 134 621 1356 
C 621 2612 1363 2688 1530 2688 
C 1824 2688 2061 2522 2208 2291 
C 2291 2157 2291 2138 2291 2023 
L 2291 755 
z
" id="CMR17-64" transform="scale(0.015625)"/>
       <path d="M 2304 1653 
C 2304 2072 2304 2294 2035 2543 
C 1798 2752 1523 2816 1306 2816 
C 800 2816 435 2407 435 1971 
C 435 1728 627 1728 666 1728 
C 749 1728 896 1778 896 1954 
C 896 2112 774 2181 666 2181 
C 640 2181 608 2174 589 2168 
C 723 2592 1069 2714 1293 2714 
C 1613 2714 1965 2429 1965 1885 
L 1965 1600 
C 1587 1600 1133 1549 774 1357 
C 371 1133 256 813 256 570 
C 256 77 832 -64 1171 -64 
C 1523 -64 1850 139 1990 511 
C 2003 233 2182 -18 2464 -18 
C 2598 -18 2938 70 2938 567 
L 2938 920 
L 2822 920 
L 2822 562 
C 2822 178 2650 128 2566 128 
C 2304 128 2304 458 2304 738 
L 2304 1653 
z
M 1965 870 
C 1965 317 1568 38 1216 38 
C 896 38 646 275 646 570 
C 646 761 730 1100 1101 1305 
C 1408 1478 1760 1504 1965 1504 
L 1965 870 
z
" id="CMR17-61" transform="scale(0.015625)"/>
       <path d="M 979 4396 
L 218 4326 
L 218 4160 
C 595 4160 653 4122 653 3817 
L 653 426 
C 653 184 627 153 218 153 
L 218 -13 
C 371 0 653 0 813 0 
C 979 0 1261 0 1414 -13 
L 1414 153 
C 1005 153 979 178 979 426 
L 979 4396 
z
" id="CMR17-6c" transform="scale(0.015625)"/>
      </defs>
      <use transform="scale(0.996264)" xlink:href="#CMR17-41"/>
      <use transform="translate(69.07243 0)scale(0.996264)" xlink:href="#CMR17-64"/>
      <use transform="translate(119.9678 0)scale(0.996264)" xlink:href="#CMR17-64"/>
      <use transform="translate(170.863169 0)scale(0.996264)" xlink:href="#CMR17-69"/>
      <use transform="translate(195.734228 0)scale(0.996264)" xlink:href="#CMR17-74"/>
      <use transform="translate(231.014996 0)scale(0.996264)" xlink:href="#CMR17-69"/>
      <use transform="translate(255.886054 0)scale(0.996264)" xlink:href="#CMR17-6f"/>
      <use transform="translate(301.576531 0)scale(0.996264)" xlink:href="#CMR17-6e"/>
      <use transform="translate(352.471901 0)scale(0.996264)" xlink:href="#CMR17-61"/>
      <use transform="translate(398.162378 0)scale(0.996264)" xlink:href="#CMR17-6c"/>
      <use transform="translate(423.033437 0)scale(0.996264)" xlink:href="#CMR17-73"/>
     </g>
    </g>
   </g>
  </g>
 </g>
 <defs>
  <clipPath id="p3e6d07310c">
   <rect height="67.923841" width="189.790848" x="23.149582" y="2.647474"/>
  </clipPath>
 </defs>
</svg>
